<svg xmlns="http://www.w3.org/2000/svg" width="24" height="24" viewBox="0 0 24 24" fill="none">
  <path d="M10.0269 2.81987L1.83691 17.6624C1.64766 18.0051 1.55114 18.3914 1.55688 18.7829C1.56262 19.1744 1.67043 19.5576 1.86964 19.8947C2.06886 20.2317 2.35258 20.511 2.69278 20.7048C3.03298 20.8987 3.41787 21.0004 3.80941 20.9999H20.1894C20.581 21.0004 20.9658 20.8987 21.306 20.7048C21.6462 20.511 21.93 20.2317 22.1292 19.8947C22.3284 19.5576 22.4362 19.1744 22.4419 18.7829C22.4477 18.3914 22.3512 18.0051 22.1619 17.6624L13.9719 2.81987C13.7779 2.46637 13.4925 2.1715 13.1455 1.9661C12.7985 1.76071 12.4026 1.65234 11.9994 1.65234C11.5962 1.65234 11.2003 1.76071 10.8533 1.9661C10.5063 2.1715 10.2209 2.46637 10.0269 2.81987Z" fill="#E84747"/>
  <path d="M12.75 16.5C12.75 16.0858 12.4142 15.75 12 15.75C11.5858 15.75 11.25 16.0858 11.25 16.5C11.25 16.9142 11.5858 17.25 12 17.25C12.4142 17.25 12.75 16.9142 12.75 16.5Z" fill="white"/>
  <path d="M11.9995 8.25C12.1881 8.25053 12.3744 8.29124 12.546 8.3694C12.7177 8.44757 12.8707 8.56141 12.9948 8.70333C13.119 8.84525 13.2115 9.01201 13.2662 9.19248C13.3209 9.37296 13.3365 9.56302 13.312 9.75L12.8395 13.5C12.8157 13.7062 12.7169 13.8964 12.5621 14.0347C12.4073 14.1729 12.2071 14.2495 11.9995 14.25C11.792 14.2495 11.5918 14.1729 11.437 14.0347C11.2821 13.8964 11.1834 13.7062 11.1595 13.5L10.687 9.75C10.6625 9.56302 10.6781 9.37296 10.7328 9.19248C10.7875 9.01201 10.8801 8.84525 11.0042 8.70333C11.1284 8.56141 11.2814 8.44757 11.453 8.3694C11.6247 8.29124 11.811 8.25053 11.9995 8.25Z" fill="white"/>
</svg>