<svg xmlns="http://www.w3.org/2000/svg" width="103" height="81" viewBox="0 0 103 81" fill="none">
  <g clip-path="url(#clip0_3187_15237)">
    <path d="M87.6989 53.6882C87.4393 53.4902 87.1093 53.5518 86.8762 53.6398C87.1753 52.9139 87.4613 52.1924 87.6329 51.682C87.8045 51.1673 87.7781 50.7406 87.5537 50.415C87.2457 49.9663 86.3702 49.8123 86.1195 49.7771C86.4054 48.4176 86.621 46.9658 86.4098 46.4071C86.291 46.0991 86.0843 45.8923 85.8071 45.8C85.3671 45.6592 84.8524 45.8484 84.5532 45.9979C84.5708 45.1928 84.4652 44.3217 84.0209 43.9126C83.8405 43.7454 83.515 43.5782 83.0046 43.7234C81.104 44.2557 80.5453 46.5127 80.4661 46.8866C80.2198 47.2342 78.3412 49.8739 77.5229 50.547C76.9378 51.0265 74.0913 51.3521 72.3139 51.4973C72.9826 50.6746 74.474 48.8268 75.2264 47.8501C76.2998 46.4511 74.5576 44.0182 74.4828 43.917C74.4476 43.8642 74.3905 43.8334 74.3289 43.829C74.2629 43.8202 74.2057 43.8422 74.1573 43.8862L69.925 47.7577C69.661 47.9469 67.3161 49.6143 67.0213 50.2346C66.3922 51.5545 62.7054 55.9539 62.6703 55.9979L60.2153 58.9412C60.1582 59.0116 60.1494 59.1084 60.1934 59.1875L64.87 67.7445C64.9052 67.8061 64.9668 67.8501 65.0372 67.8589C65.046 67.8589 65.0548 67.8589 65.0636 67.8589C65.1252 67.8589 65.1824 67.8325 65.2263 67.7885L70.035 62.496C71.5792 62.5839 81.1392 63.0943 82.5075 62.21C83.8669 61.3301 87.2853 57.6169 87.7253 56.1519C88.1212 54.7837 88.1168 54.005 87.6989 53.6882Z" fill="white"/>
    <path d="M63.2243 27.7704C63.1891 27.678 63.1011 27.6208 62.9955 27.6252L56.3259 28.2764C56.2951 28.2808 56.2687 28.2896 56.2379 28.3028L47.9405 32.9398C47.9053 32.9574 47.8745 32.9882 47.8569 33.0234L40.127 46.7717C40.0962 46.8289 40.0918 46.8993 40.1138 46.9609C40.1402 47.0225 40.1886 47.0709 40.2546 47.0885L52.9911 51.0832C53.0131 51.0876 53.0351 51.092 53.0571 51.092C53.1011 51.092 53.1407 51.0788 53.1759 51.0568C53.2287 51.0216 53.2683 50.9644 53.2727 50.8984C53.4223 49.5698 55.182 41.9543 55.4592 40.7489C55.7144 40.6829 56.1807 40.3441 57.153 39.0375C57.219 39.297 57.3378 39.517 57.527 39.6842C57.8745 39.9878 58.3453 40.0493 58.6752 40.0493C58.8952 40.0493 59.0492 40.023 59.0668 40.0186C59.1372 40.0054 59.1988 39.9614 59.2252 39.8954L59.9819 38.2588C60.1535 38.5051 60.369 38.6591 60.633 38.7075C60.6946 38.7207 60.7562 38.7251 60.8178 38.7251C61.3853 38.7251 61.9088 38.2808 61.9352 38.2632C61.9704 38.2368 61.9924 38.1972 62.0056 38.1576L62.4632 36.5254C62.7579 35.4871 62.6964 34.3608 62.296 33.3578L61.4249 31.1844C61.4205 31.18 61.4161 31.1756 61.4161 31.1668C61.7285 31.004 62.01 30.85 62.23 30.7225C63.9194 29.7458 63.2287 27.7924 63.2243 27.7704Z" fill="white"/>
    <path d="M30.3285 44.4309C30.3285 44.4309 36.4438 49.8994 38.8283 55.7551C41.2128 61.6108 41.6484 80.269 41.6484 80.269H-0.00146484L1.78472 66.569C2.72621 59.3671 6.48336 52.8295 12.2335 48.3948L16.2634 45.2844L16.3162 43.793L27.8692 48.5092L30.3285 44.4309Z" fill="#E04545"/>
    <path d="M69.4144 36.5619L78.1869 40.407C78.8204 40.6842 79.5596 40.3938 79.8367 39.7603L82.868 32.8443L71.7989 27.9961L68.7676 34.9121C68.4905 35.5456 68.7808 36.2847 69.4144 36.5619Z" fill="#080717"/>
    <path d="M72.1192 10.9869C74.8821 4.68245 82.2292 1.814 88.5293 4.57247C94.8337 7.33534 97.7022 14.6825 94.9437 20.9825C93.0959 25.206 89.1848 27.8765 84.9129 28.356L82.9903 32.7467L71.5781 27.7533L73.5007 23.3626C70.9578 19.8914 70.2715 15.206 72.1192 10.9869Z" fill="#F08888"/>
    <path d="M81.8592 37.9196L68.5464 32.0859" stroke="#080717" stroke-width="1.75979"/>
    <path d="M83.5237 34.1345L70.2109 28.3008" stroke="#080717" stroke-width="1.75979"/>
    <path d="M79.5425 30.7824C79.5425 30.7824 83.9068 20.58 86.2077 17.9535C87.026 17.0164 90.5236 14.9443 91.1043 17.0472C91.6894 19.1502 84.0211 22.155 82.7277 17.6499C81.949 14.9443 83.8672 8.08549 85.9173 9.57691C87.1404 10.47 85.1342 18.6178 82.0854 18.3935C78.0115 18.0943 77.6463 13.9236 77.9983 12.7533C78.3502 11.5787 81.3331 15.393 79.9164 19.4625C78.4998 23.532 75.6401 29.2777 75.6401 29.2777" stroke="white" stroke-width="0.879895"/>
    <path d="M30.1356 44.205V45.2301L27.795 48.5957L16.5324 43.9103L17.9974 39.6208L15.3621 20.747C15.3621 20.747 14.337 17.6278 18.5825 17.1395C22.8236 16.6511 33.4088 15.0409 33.9455 16.1628C34.4822 17.2847 36.2376 38.2041 36.3344 39.084C36.4268 39.9595 32.1857 43.6199 30.1356 44.205Z" fill="white"/>
    <path d="M18.1 35.3605L16.371 35.5717C15.7638 35.6465 15.2139 35.2154 15.1391 34.6082L14.422 28.7569C14.3472 28.1498 14.7784 27.5999 15.3855 27.5251L16.6349 27.3711" fill="white"/>
    <path d="M18.1 35.3605L16.371 35.5717C15.7638 35.6465 15.2139 35.2154 15.1391 34.6082L14.422 28.7569C14.3472 28.1498 14.7784 27.5999 15.3855 27.5251L16.6349 27.3711" stroke="black" stroke-width="0.879895" stroke-miterlimit="10" stroke-linecap="round" stroke-linejoin="round"/>
    <path d="M34.2715 21.1803C34.2715 21.1803 35.7233 19.1917 35.8949 18.0611C35.9829 17.4891 35.1865 15.4566 33.7039 14.8231C32.2213 14.1851 31.2534 15.8261 31.2534 15.8261C31.2534 15.8261 33.6115 16.7852 33.7831 17.2296C33.9591 17.6739 34.2715 21.1803 34.2715 21.1803Z" fill="black"/>
    <path d="M15.5203 28.0365C15.5203 28.0365 12.8322 21.1777 12.9114 19.0616C12.9906 16.9498 13.039 15.4804 15.4631 14.9481C19.0926 14.1517 19.2378 14.9525 20.8788 13.5842C22.5198 12.216 25.3883 9.04396 26.4618 8.63481C28.2436 7.94849 31.2044 8.23006 31.7543 11.7848C32.1591 14.4113 33.8485 14.8601 33.8177 14.9613C33.7121 15.3 33.0786 15.6828 31.9875 16.4307C28.8551 18.5688 26.8885 19.1583 24.24 18.7844C21.5915 18.406 16.6289 17.4953 16.3122 19.5235C15.9954 21.5517 16.9545 27.5085 16.7873 27.9969C16.6157 28.4896 16.0086 28.3268 15.5203 28.0365Z" fill="black"/>
    <path d="M16.96 29.4922C16.96 29.4922 16.982 36.6765 17.2811 39.0962C17.5495 41.2828 19.8768 46.0474 32.2305 44.5296C39.5425 43.6321 38.6142 38.2911 38.3986 36.5269C38.2358 35.1851 36.0669 31.4632 35.2002 30.7856C35.1738 30.7636 35.275 33.4165 35.275 33.4165C35.275 33.4165 33.8451 30.9308 30.3652 31.3532C24.7558 32.0395 23.8847 35.4799 21.4078 35.7262C19.4985 35.9154 17.6903 32.9898 16.96 29.4922Z" fill="black"/>
    <path d="M28.6414 36.4046L32.4777 35.9339C32.9881 35.8723 33.3488 35.406 33.2872 34.9L33.2212 34.3633L27.5415 35.0584L27.6075 35.5951C27.6691 36.1055 28.131 36.4662 28.6414 36.4046Z" fill="white"/>
    <path d="M18.5024 39.1658C18.2825 38.827 18.1329 38.4311 18.0801 38.0043L18.0537 37.7755C17.6973 36.6581 17.4642 35.897 17.4642 35.897C17.4642 35.897 17.5302 35.2898 17.6313 34.344L15.8188 19.5793C15.6296 18.0527 16.7162 16.6625 18.2429 16.4777L30.6802 14.9511C32.2068 14.7619 33.597 15.8486 33.7818 17.3752L36.0431 35.8002C36.2323 37.3268 35.1456 38.717 33.619 38.9018L32.0264 39.0954C32.5544 40.3756 33.0691 41.3523 33.1043 42.065" stroke="black" stroke-width="0.879895" stroke-miterlimit="10" stroke-linecap="round" stroke-linejoin="round"/>
    <path d="M29.9888 22.8265C29.9888 22.8265 31.7574 21.8542 32.8088 22.435" stroke="black" stroke-width="0.879895" stroke-miterlimit="10" stroke-linecap="round" stroke-linejoin="round"/>
    <path d="M24.5727 22.9284C24.5727 22.9284 22.7734 22.0705 21.5371 22.968" stroke="black" stroke-width="0.879895" stroke-miterlimit="10" stroke-linecap="round" stroke-linejoin="round"/>
    <path d="M31.1062 26.4941C31.2954 26.9912 31.7398 27.286 32.0917 27.1496C32.4481 27.0132 32.5801 26.5029 32.3909 26.0013C32.2017 25.5042 31.7574 25.2094 31.4054 25.3458C31.0491 25.4822 30.9171 25.9969 31.1062 26.4941Z" fill="black"/>
    <path d="M23.2869 27.4827C23.4057 28.0019 23.8016 28.3538 24.1756 28.2703C24.5451 28.1867 24.7519 27.6939 24.6331 27.1748C24.5143 26.6556 24.1184 26.3037 23.7444 26.3873C23.3705 26.4753 23.1681 26.9636 23.2869 27.4827Z" fill="black"/>
    <path d="M27.8066 24.9336C27.8066 24.9336 30.2308 29.0999 30.2703 29.8346C30.3099 30.5693 28.7041 30.4065 28.7041 30.4065" stroke="#080717" stroke-width="0.879895" stroke-miterlimit="10" stroke-linecap="round" stroke-linejoin="round"/>
    <path d="M40.3198 46.8998L48.0497 33.1514L56.3471 28.5144L63.0167 27.8633C63.0167 27.8633 63.6678 29.6539 62.1236 30.547C60.5794 31.4401 56.2679 33.477 56.2679 33.477" stroke="black" stroke-width="0.879895" stroke-miterlimit="10" stroke-linecap="round" stroke-linejoin="round"/>
    <path d="M46.8271 38.5322L52.6828 33.4068C52.6828 33.4068 54.9618 31.779 56.264 34.1372C56.3872 34.3615 53.9059 37.472 53.9059 37.472L50.7339 43.4112" stroke="black" stroke-width="0.879895" stroke-miterlimit="10" stroke-linecap="round" stroke-linejoin="round"/>
    <path d="M54.6371 36.5653C54.6371 36.5653 54.0475 37.4848 53.9067 38.2723C53.744 39.1654 54.5579 40.3885 55.2882 40.5512C55.7281 40.648 56.8412 39.161 57.6639 37.96C58.293 37.0405 58.5614 35.923 58.4426 34.8143L58.2182 32.7422" stroke="black" stroke-width="0.879895" stroke-miterlimit="10" stroke-linecap="round" stroke-linejoin="round"/>
    <path d="M60.0073 31.9297L60.5441 33.949C60.8256 35.0093 60.7288 36.14 60.2713 37.1387L59.0306 39.8223C59.0306 39.8223 57.24 40.1479 57.3236 38.5201" stroke="black" stroke-width="0.879895" stroke-miterlimit="10" stroke-linecap="round" stroke-linejoin="round"/>
    <path d="M61.2254 31.2969L62.0965 33.4702C62.4836 34.4337 62.5364 35.4984 62.2549 36.4971L61.7929 38.1293C61.7929 38.1293 60.6535 39.1059 60.0859 38.0501" stroke="black" stroke-width="0.879895" stroke-miterlimit="10" stroke-linecap="round" stroke-linejoin="round"/>
    <path d="M55.2857 40.5508C55.2857 40.5508 53.218 49.4289 53.0552 50.8939" stroke="black" stroke-width="0.879895" stroke-miterlimit="10" stroke-linecap="round" stroke-linejoin="round"/>
    <path d="M71.6867 7.73347L67.6216 5.05859" stroke="#080717" stroke-width="0.879895"/>
    <path d="M70.1254 11.368L65.3916 10.2461" stroke="#080717" stroke-width="0.879895"/>
    <path d="M74.3929 4.86327L71.4893 0.960938" stroke="#080717" stroke-width="0.879895"/>
    <path d="M96.2983 23.4609L100.363 26.1314" stroke="#080717" stroke-width="0.879895"/>
    <path d="M97.8613 19.8359L102.595 20.9578" stroke="#080717" stroke-width="0.879895"/>
    <path d="M93.5938 26.3359L96.4974 30.2383" stroke="#080717" stroke-width="0.879895"/>
    <path d="M71.8023 51.7494C71.8023 51.7494 74.0593 48.9777 75.0447 47.6931C76.0302 46.4084 74.2968 44.0195 74.2968 44.0195L70.0425 47.9087C70.0425 47.9087 67.5876 49.7784 67.2093 50.302C66.3206 51.5206 61.7363 57.6095 61.7363 57.6095" stroke="black" stroke-width="0.879895" stroke-miterlimit="10" stroke-linecap="round" stroke-linejoin="round"/>
    <path d="M71.4155 51.7636C71.4155 51.7636 76.7521 51.4424 77.6584 50.6945C78.5647 49.9466 80.6676 46.9506 80.6676 46.9506C80.6676 46.9506 81.1384 44.4517 83.0565 43.9105C84.9791 43.3694 84.1432 47.6545 84.1432 47.6545L81.4771 52.6435L78.0587 54.9224" stroke="black" stroke-width="0.879895" stroke-miterlimit="10" stroke-linecap="round" stroke-linejoin="round"/>
    <path d="M84.4111 46.3098C84.4111 46.3098 85.7926 45.4167 86.2017 46.4726C86.6065 47.5284 85.2251 52.4911 85.2251 52.4911L83.1089 55.1747L79.6113 57.6164" stroke="black" stroke-width="0.879895" stroke-miterlimit="10" stroke-linecap="round" stroke-linejoin="round"/>
    <path d="M86.4436 50.0469C86.4436 50.0469 87.9086 50.1261 87.4203 51.5911C86.9319 53.0561 85.4669 56.3073 85.4669 56.3073L81.8857 59.1538" stroke="black" stroke-width="0.879895" stroke-miterlimit="10" stroke-linecap="round" stroke-linejoin="round"/>
    <path d="M86.6864 53.9354C86.6864 53.9354 88.477 52.7959 87.5003 56.0515C87.1 57.3846 83.7564 61.0933 82.3749 61.9908C80.9935 62.8839 69.9288 62.2328 69.9288 62.2328L65.0498 67.6001" stroke="black" stroke-width="0.879895" stroke-miterlimit="10" stroke-linecap="round" stroke-linejoin="round"/>
    <path d="M14.749 64.2031L20.3891 79.6057" stroke="black" stroke-width="0.879895" stroke-miterlimit="10" stroke-linecap="round" stroke-linejoin="round"/>
    <path d="M61.38 55.2031L71.4724 65.6695L60.4429 80.2581H41.7144C41.7144 80.2581 62.5547 55.2031 61.38 55.2031Z" fill="#E04545"/>
    <path d="M38.9372 45.9844L55.2065 51.5145L50.521 80.2563H31.7881C31.7881 80.2563 40.1075 45.9844 38.9372 45.9844Z" fill="#E04545"/>
    <path d="M27.3602 48.3704L26.8279 54.2832L16.2691 45.2775L16.1899 43.8125L27.3602 48.3704Z" stroke="black" stroke-width="0.879895" stroke-miterlimit="10" stroke-linecap="round" stroke-linejoin="round"/>
    <path d="M30.33 44.418L32.4901 51.9587L27.8267 48.3467L30.33 44.418Z" stroke="black" stroke-width="0.879895" stroke-miterlimit="10" stroke-linecap="round" stroke-linejoin="round"/>
    <path d="M27.8267 48.3555C27.8267 48.3555 35.1958 59.6577 34.5447 79.8337" stroke="black" stroke-width="0.879895" stroke-miterlimit="10" stroke-linecap="round" stroke-linejoin="round"/>
    <path d="M37.4751 52.8125C37.4751 52.8125 45.1214 65.8261 45.7725 74.9374" stroke="black" stroke-width="0.879895" stroke-miterlimit="10" stroke-linecap="round" stroke-linejoin="round"/>
    <path d="M52.2771 67.4805L41.6479 80.2785" stroke="black" stroke-width="0.879895" stroke-miterlimit="10" stroke-linecap="round" stroke-linejoin="round"/>
    <path d="M17.1167 43.7234L18.1418 39.1875" stroke="#080717" stroke-width="0.879895" stroke-miterlimit="10" stroke-linecap="round" stroke-linejoin="round"/>
  </g>
  <defs>
    <clipPath id="clip0_3187_15237">
      <rect width="102.697" height="80" fill="white" transform="translate(0 0.699219)"/>
    </clipPath>
  </defs>
</svg>