<svg xmlns="http://www.w3.org/2000/svg" width="123" height="90" viewBox="0 0 123 90" fill="none">
  <g clip-path="url(#clip0_3152_42906)">
    <path d="M1.05859 89.6557L6.75373 62.6897C8.11562 56.3475 13.3035 51.539 19.7295 50.6524L31.3874 49.0469L45.6213 51.3114C50.3539 52.0622 54.3357 55.2532 56.109 59.7023L67.9945 89.6557H1.05859Z" fill="white"/>
    <path d="M67.6228 89.7972L55.7373 59.8438C54.028 55.5465 50.1261 52.4234 45.5612 51.7005L31.3832 49.448L19.7853 51.0455C13.5509 51.9042 8.47085 56.6168 7.14491 62.7713L1.44977 89.7293L0.666992 89.5656L6.36213 62.5995C7.75596 56.1176 13.1076 51.1533 19.6734 50.2507L31.3313 48.6452C31.3712 48.6372 31.4112 48.6412 31.4471 48.6452L45.681 50.9097C50.5254 51.6805 54.663 54.9914 56.4762 59.5483L68.3617 89.5017L67.6228 89.7972Z" fill="#080717"/>
    <path d="M87.2325 89.6357L75.5706 69.6548H100.847L113.528 56.032C114.286 55.2172 114.23 53.9392 113.408 53.1924C111.579 51.535 108.763 51.6348 107.054 53.416L105.987 54.5263L107.453 52.134C108.008 51.1675 107.665 49.9374 106.69 49.3943C104.534 48.1961 101.81 48.931 100.552 51.0557L95.0882 59.8141L95.0243 59.7941L98.8344 52.0981C99.2977 51.0877 98.8464 49.8895 97.828 49.4382C95.5715 48.4398 92.9276 49.4182 91.8653 51.6468L88.6822 57.961L73.7854 53.6557L82.4359 49.0069C84.0734 48.1283 84.3769 45.9077 83.035 44.6217C82.392 44.0027 81.4894 43.7391 80.6148 43.9108L72.9946 45.4045C62.479 47.4613 55.7774 57.8411 58.2256 68.2689L64.396 89.6437H87.2325V89.6357Z" fill="white"/>
    <path d="M64.3878 90.0312C64.216 90.0312 64.0563 89.9154 64.0044 89.7437L57.834 68.3689C56.6198 63.197 57.5344 57.9132 60.406 53.4681C63.2775 49.023 67.7186 46.0157 72.9105 44.9973L80.5307 43.5036C81.5291 43.3079 82.5675 43.6114 83.3063 44.3183C84.0372 45.0212 84.3807 45.9997 84.2409 47.0061C84.1051 48.0126 83.514 48.8633 82.6194 49.3425L74.8315 53.528L88.4703 57.4699L91.5056 51.4552C92.6638 49.023 95.5153 47.9686 97.9875 49.0629C98.5786 49.3225 99.0299 49.8018 99.2575 50.4049C99.4852 51.0079 99.4652 51.6669 99.1936 52.254L98.6944 53.2644L100.212 50.8322C101.586 48.5158 104.521 47.721 106.886 49.035C107.449 49.3505 107.856 49.8657 108.032 50.4847C108.204 51.0958 108.128 51.7308 107.824 52.2819C109.653 51.1916 112.022 51.3753 113.679 52.881C114.158 53.3163 114.438 53.9114 114.466 54.5544C114.494 55.2014 114.266 55.8164 113.827 56.2877L101.139 69.9225C101.063 70.0024 100.959 70.0503 100.847 70.0503H76.2693L87.5797 89.4321C87.6915 89.6238 87.6276 89.8675 87.4359 89.9793C87.2442 90.0911 87.0006 90.0272 86.8888 89.8355L75.2269 69.8546C75.155 69.7308 75.155 69.579 75.2269 69.4552C75.2988 69.3314 75.4306 69.2555 75.5744 69.2555H100.675L113.236 55.7605C113.527 55.445 113.679 55.0337 113.663 54.6023C113.643 54.171 113.459 53.7756 113.14 53.4881C111.459 51.9624 108.911 52.0543 107.341 53.6917L106.275 54.802C106.135 54.9498 105.903 54.9658 105.743 54.842C105.584 54.7181 105.54 54.4905 105.648 54.3188L107.113 51.9265C107.321 51.5631 107.377 51.1277 107.261 50.7124C107.145 50.297 106.874 49.9536 106.498 49.7459C104.513 48.6436 102.053 49.3106 100.895 51.2595L95.4275 60.0259C95.3316 60.1777 95.1519 60.2455 94.9802 60.1976L94.9163 60.1777C94.8005 60.1457 94.7086 60.0618 94.6607 59.954C94.6127 59.8462 94.6167 59.7224 94.6687 59.6145L98.4787 51.9185C98.6545 51.5391 98.6664 51.0998 98.5147 50.6964C98.3629 50.293 98.0594 49.9775 97.668 49.8018C95.5912 48.8832 93.2029 49.7698 92.2285 51.8147L89.0414 58.1368C88.9535 58.3086 88.7579 58.3924 88.5741 58.3405L73.6773 54.0352C73.5216 53.9913 73.4097 53.8555 73.3898 53.6917C73.3738 53.532 73.4537 53.3762 73.5974 53.2964L82.248 48.6476C82.9149 48.2881 83.3543 47.6531 83.4581 46.9063C83.5619 46.1555 83.3063 45.4286 82.7592 44.9054C82.212 44.3782 81.4372 44.1506 80.6904 44.2984L73.0703 45.792C68.094 46.7665 63.8366 49.65 61.0849 53.9114C58.3332 58.1728 57.4545 63.2369 58.6167 68.1732L64.7792 89.528C64.8391 89.7397 64.7192 89.9593 64.5076 90.0232C64.4597 90.0232 64.4237 90.0312 64.3878 90.0312Z" fill="#080717"/>
    <path d="M97.7041 70.0439C97.6362 70.0439 97.5723 70.0279 97.5084 69.9919C97.3167 69.8841 97.2488 69.6405 97.3567 69.4488L105.732 54.4921C105.839 54.3004 106.083 54.2325 106.275 54.3403C106.466 54.4481 106.534 54.6918 106.427 54.8835L98.0516 69.8402C97.9797 69.972 97.8439 70.0439 97.7041 70.0439Z" fill="#080717"/>
    <path d="M90.3755 70.0575C90.3155 70.0575 90.2556 70.0455 90.1997 70.0175C90 69.9217 89.9202 69.682 90.016 69.4824L95.2599 58.771C95.3557 58.5713 95.5953 58.4915 95.795 58.5873C95.9947 58.6832 96.0746 58.9228 95.9787 59.1225L90.7349 69.8338C90.667 69.9776 90.5232 70.0575 90.3755 70.0575Z" fill="#080717"/>
    <path d="M86.0384 63.1734H77.0644C76.9486 63.1734 76.8408 63.1255 76.7649 63.0376C76.689 62.9538 76.653 62.8379 76.665 62.7261C76.689 62.5304 77.1443 57.9336 71.8485 56.1204C71.6408 56.0485 71.529 55.8209 71.6009 55.6132C71.6728 55.4055 71.9004 55.2937 72.1081 55.3656C77.0205 57.0469 77.4718 61.0367 77.4758 62.3747H85.7908L88.0713 57.9535C88.1711 57.7578 88.4148 57.682 88.6104 57.7818C88.8061 57.8816 88.882 58.1253 88.7822 58.321L86.3899 62.9577C86.326 63.0895 86.1902 63.1734 86.0384 63.1734Z" fill="#080717"/>
    <path d="M75.5701 70.0488H71.2329C71.0132 70.0488 70.8335 69.869 70.8335 69.6494C70.8335 69.4297 71.0132 69.25 71.2329 69.25H75.5701C75.7898 69.25 75.9695 69.4297 75.9695 69.6494C75.9695 69.873 75.7898 70.0488 75.5701 70.0488Z" fill="#080717"/>
    <path d="M24.9449 90.0353C24.9409 90.0353 24.9369 90.0353 24.9329 90.0353C24.7132 90.0273 24.5415 89.8436 24.5455 89.624L25.0767 73.1536C25.0846 72.9339 25.2684 72.7542 25.488 72.7662C25.7077 72.7742 25.8794 72.9579 25.8754 73.1776L25.3442 89.6479C25.3362 89.8636 25.1605 90.0353 24.9449 90.0353Z" fill="#080717"/>
    <path d="M42.6481 28.58C47.0522 22.556 45.7389 14.1024 39.7149 9.69842C33.6909 5.2944 25.2373 6.60765 20.8333 12.6316C16.4293 18.6556 17.7425 27.1092 23.7665 31.5132C29.7905 35.9173 38.2441 34.604 42.6481 28.58Z" fill="#080717"/>
    <path d="M47.057 20.7425C49.6918 17.1384 48.9061 12.0808 45.302 9.4459C41.698 6.81104 36.6403 7.59674 34.0055 11.2008C31.3706 14.8049 32.1563 19.8625 35.7604 22.4974C39.3644 25.1323 44.4221 24.3466 47.057 20.7425Z" fill="#080717"/>
    <path d="M43.4046 42.7768C50.0103 40.3405 52.8339 31.5063 49.7148 23.0435C46.5956 14.5806 38.7119 9.69222 32.1062 12.1244C26.5907 14.1573 23.7152 20.6512 24.7296 27.6683C23.5475 26.1466 21.5985 25.2959 19.5617 25.6234C16.7261 26.0787 14.6892 28.7665 15.0167 31.6181C15.3722 34.7093 18.2198 36.854 21.263 36.3827C21.914 36.2829 22.5171 36.0632 23.0642 35.7597L23.0882 50.5047C21.3469 50.8562 44.4669 60.7128 41.879 48.0485L40.4811 43.3798C41.4716 43.3239 42.4501 43.1282 43.4046 42.7768Z" fill="white"/>
    <path d="M36.1999 54.8857C31.1437 54.8857 24.6538 52.2578 23.1202 51.2434C22.9125 51.1076 22.5291 50.852 22.605 50.4846C22.613 50.4486 22.633 50.3728 22.6889 50.2969L22.6649 36.3865C22.2336 36.5662 21.7823 36.694 21.323 36.7659C19.7375 37.0095 18.1599 36.6102 16.8819 35.6397C15.6039 34.6692 14.8011 33.2514 14.6174 31.6539C14.266 28.5946 16.4506 25.7071 19.4938 25.2199C21.1952 24.9443 22.9085 25.4395 24.1945 26.5298C23.6114 19.6605 26.7066 13.6778 31.9625 11.7409C35.2733 10.5188 38.9875 11.018 42.4222 13.1467C45.8249 15.2554 48.5447 18.718 50.0863 22.8955C51.6279 27.073 51.8036 31.4702 50.5855 35.2842C49.3554 39.1302 46.8553 41.9219 43.5404 43.144C42.7297 43.4435 41.879 43.6392 41.0044 43.7311L42.2584 47.9286C42.8295 50.7202 42.2664 52.6892 40.585 53.8234C39.4548 54.5862 37.9092 54.8857 36.1999 54.8857ZM23.4836 50.5365C24.9214 51.6228 35.0337 55.6166 39.5906 53.4719C41.4237 52.6053 42.0468 50.856 41.4876 48.1243L40.0978 43.4915C40.0619 43.3756 40.0818 43.2478 40.1537 43.148C40.2256 43.0482 40.3374 42.9843 40.4572 42.9803C41.4317 42.9243 42.3743 42.7286 43.2649 42.4012C46.3401 41.2669 48.6725 38.655 49.8227 35.0486C50.9889 31.4063 50.8131 27.1888 49.3354 23.1791C47.8577 19.1693 45.2538 15.8505 42.0028 13.8336C38.7838 11.8367 35.3172 11.3614 32.238 12.4957C27.0381 14.4127 24.1107 20.627 25.1211 27.6042C25.1451 27.7839 25.0492 27.9596 24.8815 28.0275C24.7137 28.0994 24.522 28.0475 24.4102 27.9037C23.276 26.442 21.4388 25.7191 19.6216 26.0067C16.9937 26.43 15.1047 28.9221 15.4122 31.562C15.5719 32.9439 16.2669 34.166 17.3691 35.0047C18.4714 35.8434 19.8333 36.1908 21.2032 35.9791C21.7823 35.8873 22.3454 35.6956 22.8726 35.404C22.9964 35.3361 23.1482 35.3361 23.268 35.408C23.3918 35.4799 23.4637 35.6117 23.4637 35.7515L23.4876 50.4966C23.4876 50.5085 23.4876 50.5245 23.4836 50.5365Z" fill="#080717"/>
    <path d="M22.9604 32.7032C22.7527 32.7032 22.577 32.5395 22.561 32.3278C22.4732 30.9619 22.0418 29.9395 21.279 29.2885C20.1887 28.358 18.7549 28.4858 18.743 28.4858C18.5233 28.5057 18.3276 28.346 18.3076 28.1263C18.2877 27.9067 18.4434 27.711 18.6631 27.691C18.735 27.683 20.4363 27.5273 21.7902 28.6735C22.7327 29.4722 23.2599 30.6824 23.3638 32.2799C23.3797 32.4995 23.212 32.6912 22.9923 32.7032C22.9764 32.7032 22.9684 32.7032 22.9604 32.7032Z" fill="#080717"/>
    <path d="M39.8741 43.8036C36.0241 43.8036 32.1062 41.8027 29.0829 38.2842C28.9391 38.1165 28.9591 37.8649 29.1268 37.7211C29.2946 37.5773 29.5462 37.5973 29.6899 37.765C32.6334 41.1957 36.4474 43.1087 40.1537 43.0049C40.3733 43.0009 40.557 43.1726 40.565 43.3923C40.573 43.6119 40.3973 43.7956 40.1776 43.8036C40.0778 43.8036 39.974 43.8036 39.8741 43.8036Z" fill="#080717"/>
    <path d="M46.0362 21.1225C45.8725 21.5459 46.6912 22.2608 47.8654 22.7121C49.0396 23.1673 50.1259 23.1913 50.2896 22.768C50.4534 22.3446 49.6346 21.6297 48.4605 21.1784C47.2863 20.7231 46.204 20.6992 46.0362 21.1225Z" fill="#080717"/>
    <path d="M35.3207 24.6234C35.5203 25.1506 36.8663 25.1266 38.328 24.5675C39.7857 24.0083 40.8081 23.1297 40.6044 22.6065C40.4047 22.0793 39.0588 22.1033 37.5971 22.6624C36.1394 23.2176 35.121 24.0962 35.3207 24.6234Z" fill="#080717"/>
    <path d="M45.0134 29.3447C44.9255 29.3447 44.8377 29.3167 44.7618 29.2568C44.5901 29.117 44.5621 28.8654 44.7019 28.6937C45.0294 28.2903 45.1132 27.7631 44.9335 27.2799L43.6395 23.8212C43.5637 23.6136 43.6675 23.3859 43.8752 23.306C44.0829 23.2302 44.3105 23.334 44.3904 23.5417L45.6844 27.0003C45.9599 27.7391 45.8241 28.5818 45.3249 29.1969C45.245 29.2927 45.1292 29.3447 45.0134 29.3447Z" fill="#080717"/>
    <path d="M43.1609 35.2871C39.9499 35.2871 38.1567 33.2103 38.0768 33.1185C37.9331 32.9507 37.957 32.6991 38.1248 32.5553C38.2925 32.4116 38.5441 32.4355 38.6879 32.6033C38.7638 32.6911 40.5809 34.7679 43.8159 34.4604C44.0316 34.4284 44.2313 34.6002 44.2512 34.8198C44.2712 35.0395 44.1114 35.2352 43.8918 35.2551C43.6402 35.2751 43.3966 35.2871 43.1609 35.2871Z" fill="#080717"/>
    <path d="M36.9507 16.2281C39.5155 14.7107 40.3646 11.4014 38.8472 8.83661C37.3298 6.2718 34.0206 5.42269 31.4558 6.94006C28.891 8.45743 28.0418 11.7667 29.5592 14.3315C31.0766 16.8963 34.3858 17.7454 36.9507 16.2281Z" fill="#080717"/>
    <path d="M28.0474 21.2634C30.9611 20.6382 32.8164 17.7693 32.1912 14.8556C31.566 11.9418 28.6972 10.0866 25.7834 10.7118C22.8696 11.3369 21.0144 14.2058 21.6396 17.1196C22.2648 20.0333 25.1336 21.8886 28.0474 21.2634Z" fill="#080717"/>
    <path d="M29.2939 27.9819C28.9465 29.3358 27.5646 30.1545 26.2107 29.8071C24.8568 29.4596 24.0381 28.0778 24.3856 26.7239C24.733 25.37 22.7801 16.2801 26.6381 17.2706C31.203 18.4368 29.6414 26.624 29.2939 27.9819Z" fill="#080717"/>
    <path d="M20.4637 13.4779C20.3798 13.4779 20.2919 13.4499 20.22 13.394C19.8127 13.0785 19.0139 13.0985 18.7663 13.1304C18.5506 13.1624 18.3469 13.0066 18.319 12.7869C18.291 12.5673 18.4428 12.3676 18.6625 12.3396C18.7943 12.3197 19.9644 12.1879 20.7073 12.759C20.883 12.8948 20.915 13.1424 20.7792 13.3181C20.7033 13.422 20.5835 13.4779 20.4637 13.4779Z" fill="#080717"/>
    <path d="M20.9513 12.908C20.8794 12.908 20.8035 12.888 20.7396 12.8481C20.6957 12.8201 19.6653 12.1612 19.7451 10.8991C19.7571 10.6795 19.9488 10.5157 20.1685 10.5237C20.3881 10.5357 20.5559 10.7274 20.5439 10.9471C20.496 11.7378 21.1589 12.1652 21.1669 12.1692C21.3546 12.285 21.4105 12.5326 21.2907 12.7203C21.2148 12.8401 21.0831 12.908 20.9513 12.908Z" fill="#080717"/>
    <path d="M40.5365 27.9744C40.5365 28.905 40.0532 29.6598 39.4541 29.6598C38.8551 29.6598 38.3718 28.905 38.3718 27.9744C38.3718 27.0439 38.8551 26.2891 39.4541 26.2891C40.0532 26.2891 40.5365 27.0439 40.5365 27.9744Z" fill="#080717"/>
    <path d="M49.1954 27.2479C49.1954 28.1784 48.7121 28.9333 48.1131 28.9333C47.514 28.9333 47.0308 28.1784 47.0308 27.2479C47.0308 26.3173 47.514 25.5625 48.1131 25.5625C48.7082 25.5625 49.1954 26.3173 49.1954 27.2479Z" fill="#080717"/>
    <path d="M89.3678 3.45335C82.3188 6.14516 78.0375 13.322 79.0119 20.8024L79.3794 23.622C80.282 30.5432 79.2516 37.5763 76.404 43.9464L76.1724 44.4656L88.6529 50.0449L88.8846 49.5257C91.7322 43.1556 96.2891 37.6961 102.052 33.7582L104.396 32.1527C110.623 27.8913 113.119 19.9157 110.427 12.8667C107.212 4.45579 97.7827 0.23835 89.3678 3.45335Z" fill="#F08888"/>
    <path d="M84.671 52.7428L76.4678 49.0765C74.6107 48.2458 73.776 46.0652 74.6067 44.2081L78.2131 36.1406L93.1419 42.8182L89.5355 50.8857C88.7088 52.7388 86.5282 53.5735 84.671 52.7428Z" fill="#080717"/>
    <path d="M87.403 41.505C87.3471 41.505 87.2872 41.493 87.2353 41.4691C87.0356 41.3772 86.9477 41.1376 87.0436 40.9379C87.0875 40.842 90.7658 32.9743 92.5151 28.8806C91.4647 28.7209 90.4383 28.4254 89.5038 28.006L84.3598 39.5001C84.2679 39.6998 84.0323 39.7917 83.8326 39.6998C83.6329 39.608 83.541 39.3723 83.6329 39.1726L88.7849 27.6506C88.2976 27.387 87.8463 27.0874 87.435 26.752C85.2025 24.9468 84.7032 22.3788 85.6378 21.1167C86.137 20.4418 87.1634 20.0584 88.5572 20.9969C90.8657 22.5505 89.975 26.8238 89.9351 27.0076C89.9311 27.0355 89.9191 27.0595 89.9111 27.0874L89.8273 27.2711C90.7578 27.6825 91.7882 27.9661 92.8386 28.1019C93.0223 27.6585 93.1701 27.2831 93.2699 27.0076C94.2284 24.3477 94.9633 23.0218 96.7844 22.199C99.3564 21.0368 100.559 22.1192 100.954 22.6344C101.737 23.6608 101.653 25.2543 100.754 26.3446C99.0329 28.4333 96.1534 29.2041 93.3378 28.9725C91.6404 32.9743 87.9462 40.882 87.7625 41.2734C87.6946 41.4211 87.5508 41.505 87.403 41.505ZM93.6693 28.1817C96.1694 28.3215 98.6735 27.6146 100.139 25.8374C100.794 25.0426 100.874 23.8485 100.319 23.1216C99.7279 22.3468 98.5577 22.2749 97.1119 22.9259C95.6822 23.5729 95.0152 24.5074 94.0168 27.2791C93.9369 27.5188 93.8171 27.8223 93.6693 28.1817ZM86.9917 21.2405C86.6961 21.2405 86.4525 21.3564 86.2808 21.596C85.6777 22.4147 85.9173 24.4995 87.9382 26.1369C88.2976 26.4285 88.689 26.6881 89.1124 26.9197L89.1643 26.8039C89.2442 26.3925 89.8712 22.85 88.1099 21.6639C87.6946 21.3803 87.3112 21.2405 86.9917 21.2405Z" fill="#080717"/>
    <path d="M119.865 31.3836C119.817 31.3836 119.765 31.3716 119.717 31.3516L113.986 28.7876C113.802 28.7037 113.722 28.4921 113.802 28.3084C113.882 28.1246 114.098 28.0448 114.282 28.1246L120.013 30.6887C120.196 30.7725 120.276 30.9842 120.196 31.1679C120.137 31.3037 120.001 31.3836 119.865 31.3836Z" fill="#080717"/>
    <path d="M122.401 23.4926C122.373 23.4926 122.341 23.4886 122.313 23.4806L116.426 21.995C116.231 21.947 116.115 21.7473 116.163 21.5556C116.211 21.3599 116.41 21.2441 116.602 21.292L122.489 22.7777C122.685 22.8257 122.8 23.0254 122.752 23.2171C122.712 23.3848 122.565 23.4926 122.401 23.4926Z" fill="#080717"/>
    <path d="M113.946 36.9111C113.858 36.9111 113.774 36.8791 113.702 36.8192L111.126 34.5228C110.974 34.391 110.962 34.1593 111.098 34.0116C111.23 33.8638 111.462 33.8478 111.609 33.9836L114.185 36.28C114.337 36.4118 114.349 36.6435 114.213 36.7913C114.146 36.8711 114.046 36.9111 113.946 36.9111Z" fill="#080717"/>
    <path d="M75.3817 16.2464C75.3618 16.2464 75.3418 16.2464 75.3218 16.2424L69.1315 15.208C68.9318 15.1761 68.8 14.9884 68.8319 14.7887C68.8639 14.589 69.0516 14.4572 69.2513 14.4891L75.4416 15.5235C75.6413 15.5555 75.7731 15.7432 75.7412 15.9429C75.7092 16.1186 75.5535 16.2464 75.3817 16.2464Z" fill="#080717"/>
    <path d="M77.1508 9.28415C77.1109 9.28415 77.0709 9.27616 77.031 9.26418L71.3079 7.24333C71.1202 7.17543 71.0203 6.96775 71.0842 6.78005C71.1521 6.59234 71.3558 6.49249 71.5475 6.56039L77.2706 8.57725C77.4583 8.64515 77.5582 8.85282 77.4943 9.04053C77.4424 9.1883 77.3026 9.28415 77.1508 9.28415Z" fill="#080717"/>
    <path d="M71.0525 23.0928C70.8728 23.0928 70.7211 22.961 70.6931 22.7812C70.6651 22.5816 70.8009 22.3978 71.0006 22.3699L74.4153 21.8786C74.611 21.8507 74.7987 21.9865 74.8267 22.1862C74.8546 22.3859 74.7188 22.5696 74.5191 22.5975L71.1045 23.0888C71.0845 23.0928 71.0685 23.0928 71.0525 23.0928Z" fill="#080717"/>
    <path d="M80.6655 3.96846C80.5617 3.96846 80.4618 3.92453 80.39 3.84066L77.6422 0.645629C77.5104 0.493865 77.5304 0.266219 77.6822 0.134424C77.8339 0.00262927 78.0656 0.0225982 78.1934 0.174362L80.9411 3.36939C81.0729 3.52116 81.0529 3.7528 80.9012 3.8806C80.8333 3.9405 80.7494 3.96846 80.6655 3.96846Z" fill="#080717"/>
  </g>
  <defs>
    <clipPath id="clip0_3152_42906">
      <rect width="122.098" height="90" fill="white" transform="translate(0.666504)"/>
    </clipPath>
  </defs>
</svg>