<svg xmlns="http://www.w3.org/2000/svg" width="87" height="81" viewBox="0 0 87 81" fill="none">
  <g clip-path="url(#clip0_3187_15302)">
    <path d="M79.0835 79.0024V69.9125C79.0835 56.2118 74.7124 45.1055 69.3167 45.1055H29.3332C23.9375 45.1055 19.5664 56.2118 19.5664 69.9125V79.0024H79.0835Z" fill="black"/>
    <path d="M54.1978 32.1055H45.5591V46.2245H54.1978V32.1055Z" fill="white"/>
    <path d="M54.1978 32.1055H45.5591V46.2245H54.1978V32.1055Z" stroke="black" stroke-width="0.940015" stroke-miterlimit="10" stroke-linecap="round" stroke-linejoin="round"/>
    <path d="M41.0949 19.6428C46.3228 19.6428 50.5608 15.4048 50.5608 10.1769C50.5608 4.94899 46.3228 0.710938 41.0949 0.710938C35.867 0.710938 31.6289 4.94899 31.6289 10.1769C31.6289 15.4048 35.867 19.6428 41.0949 19.6428Z" fill="black"/>
    <path d="M57.0888 11.5828C57.3943 14.9433 55.0866 17.895 51.9329 18.1817C48.7838 18.4684 45.9826 15.9773 45.6771 12.6168C45.3715 9.25621 47.6793 6.30456 50.833 6.01786C53.9821 5.73586 56.7833 8.2269 57.0888 11.5828Z" fill="black"/>
    <path d="M65.9951 17.6109C66.0685 13.6272 62.8984 10.3383 58.9147 10.265C54.931 10.1917 51.6421 13.3617 51.5688 17.3454C51.4955 21.3291 54.6655 24.618 58.6492 24.6913C62.6329 24.7647 65.9218 21.5946 65.9951 17.6109Z" fill="black"/>
    <path d="M62.2678 30.256C64.1947 27.9458 63.884 24.5108 61.5738 22.5839C59.2635 20.6569 55.8286 20.9677 53.9017 23.2779C51.9747 25.5881 52.2854 29.023 54.5956 30.95C56.9059 32.8769 60.3408 32.5662 62.2678 30.256Z" fill="black"/>
    <path d="M41.2354 19.2648C41.4657 21.8075 39.5904 24.0542 37.0476 24.2845C34.5049 24.5148 32.2582 22.6395 32.0279 20.0967C31.7976 17.554 33.673 15.3073 36.2157 15.077C38.7584 14.8514 41.0051 16.7221 41.2354 19.2648Z" fill="black"/>
    <path d="M57.6381 23.2383C57.7791 23.9245 57.859 24.6436 57.859 25.3909C57.859 26.7163 57.6193 27.9666 57.1963 29.0805C58.8272 28.916 60.1009 27.6564 60.1009 26.1241C60.1009 24.7282 59.0528 23.5626 57.6381 23.2383Z" fill="white"/>
    <path d="M39.9508 15.6877C39.9508 15.6877 32.769 32.655 38.9731 37.2281C45.1772 41.8013 49.9055 39.6769 53.1674 37.2281C56.4292 34.7794 57.4116 31.5175 57.4116 31.5175C57.4116 31.5175 54.6385 32.6597 54.6385 29.8866C54.6385 27.1136 56.4339 21.8918 55.1273 20.0963C53.8207 18.2962 49.0877 14.3811 39.9508 15.6877Z" fill="white"/>
    <path d="M39.9508 15.7305C39.9508 15.7305 32.769 32.6977 38.9731 37.2709C43.3207 40.4764 46.9445 40.3871 49.8491 39.2073" stroke="black" stroke-width="0.940015" stroke-miterlimit="10" stroke-linecap="round" stroke-linejoin="round"/>
    <path d="M38.9868 19.7261C38.9868 19.7261 41.022 17.7098 42.9208 19.4159" stroke="black" stroke-width="0.940015" stroke-miterlimit="10" stroke-linecap="round" stroke-linejoin="round"/>
    <path d="M41.6873 22.1728C41.8887 21.7454 41.8044 21.2824 41.4992 21.1386C41.1939 20.9948 40.7832 21.2246 40.5819 21.652C40.3805 22.0793 40.4647 22.5424 40.77 22.6862C41.0753 22.83 41.486 22.6002 41.6873 22.1728Z" fill="black"/>
    <path d="M45.6196 19.5684C45.6196 19.5684 48.2611 18.4591 49.3844 20.7575" stroke="black" stroke-width="0.940015" stroke-miterlimit="10" stroke-linecap="round" stroke-linejoin="round"/>
    <path d="M47.5181 22.816C47.316 23.2437 46.9071 23.4741 46.6016 23.3283C46.2961 23.1826 46.2115 22.722 46.4136 22.2943C46.6157 21.8666 47.0246 21.6363 47.3301 21.782C47.6357 21.9277 47.7203 22.3883 47.5181 22.816Z" fill="black"/>
    <path d="M43.6636 22.1055L42.0703 24.6764L43.7858 25.7762" stroke="#080717" stroke-width="0.940015" stroke-miterlimit="10" stroke-linecap="round" stroke-linejoin="round"/>
    <path d="M44.6411 29.5312C44.6411 29.5312 47.5787 29.8978 49.6608 25.7383" stroke="#080717" stroke-width="0.940015" stroke-miterlimit="10" stroke-linecap="round" stroke-linejoin="round"/>
    <path d="M52.6406 47.7832H46.2062C44.9184 47.7832 43.875 46.7398 43.875 45.452V43.257C43.875 41.9692 44.9184 40.9258 46.2062 40.9258H52.6406C53.9285 40.9258 54.9719 41.9692 54.9719 43.257V45.452C54.9719 46.7398 53.9285 47.7832 52.6406 47.7832Z" fill="black"/>
    <path d="M51.8755 38.1419C52.3314 37.8599 52.7591 37.5591 53.168 37.2536C56.4299 34.8048 57.4122 31.543 57.4122 31.543" stroke="black" stroke-width="0.940015" stroke-miterlimit="10" stroke-linecap="round" stroke-linejoin="round"/>
    <path d="M72.7483 46.4492C72.7389 47.9345 72.0292 49.2505 70.9341 50.0871C70.6192 50.3362 70.4124 50.7169 70.4077 51.1493C70.403 51.8543 70.9388 52.4277 71.6203 52.5076L82.1673 52.564L82.0169 80.6893L53.8916 80.5389L53.948 69.6159C53.9715 69.5548 54.0044 69.5031 54.0326 69.4467C54.0373 69.442 54.042 69.4326 54.042 69.4279C54.0749 69.3762 54.1125 69.3245 54.1501 69.2775C54.1501 69.2728 54.1548 69.2728 54.1595 69.2681C54.23 69.1835 54.3146 69.1083 54.4039 69.0425C54.418 69.0331 54.4321 69.019 54.4462 69.0096C54.4744 68.9861 54.512 68.972 54.5449 68.9532C54.5778 68.9344 54.6154 68.9156 54.653 68.8968C54.6812 68.8827 54.7141 68.8686 54.7423 68.8592C54.7893 68.8451 54.8363 68.831 54.888 68.8169C54.9162 68.8122 54.9397 68.8028 54.9679 68.7981C55.0478 68.7887 55.1277 68.7746 55.2076 68.7746C55.64 68.7746 56.0207 68.9861 56.2698 69.301C57.1065 70.3961 58.4225 71.1105 59.9077 71.1152C62.4551 71.1293 64.5326 69.0754 64.542 66.528C64.5561 63.9805 62.5021 61.9031 59.9547 61.8937C58.4695 61.8843 57.1488 62.5846 56.298 63.6703C56.0442 63.9805 55.6635 64.1873 55.2311 64.1826C55.1512 64.1826 55.0713 64.1732 54.9914 64.1544C54.9679 64.1497 54.9397 64.145 54.9115 64.1356C54.8598 64.1215 54.8128 64.1074 54.7658 64.0933C54.7376 64.0839 54.7047 64.0651 54.6765 64.0557C54.6389 64.0416 54.6013 64.0181 54.5684 63.9993C54.5355 63.9805 54.5026 63.9617 54.4697 63.9429C54.4556 63.9335 54.4415 63.9194 54.4274 63.91C54.3381 63.8442 54.2582 63.769 54.1877 63.6844C54.1877 63.6797 54.1783 63.675 54.1783 63.675C54.1407 63.628 54.1078 63.5763 54.0749 63.5246C54.0702 63.5199 54.0655 63.5105 54.0608 63.5011C54.0279 63.4447 53.9997 63.393 53.9762 63.3319L54.0326 52.4089L64.5796 52.4653C65.2658 52.3901 65.8063 51.8214 65.811 51.1164C65.811 50.684 65.6089 50.3033 65.294 50.0495C64.2083 49.1988 63.508 47.8781 63.5174 46.3881C63.5315 43.8454 65.6089 41.7868 68.1563 41.8009C70.7085 41.8244 72.7624 43.9018 72.7483 46.4492Z" fill="#F08888"/>
    <path d="M35.8349 79.4457V68.8188C35.8866 68.0997 36.4788 67.5357 37.212 67.5357C37.6491 67.5357 38.0345 67.7425 38.2883 68.0621C39.1437 69.1666 40.4786 69.8811 41.9826 69.8811C44.5582 69.8811 46.6498 67.7895 46.6498 65.2139C46.6498 62.6335 44.5582 60.5467 41.9826 60.5467C40.4786 60.5467 39.1437 61.2611 38.2883 62.3656C38.0345 62.6852 37.6491 62.892 37.212 62.892C36.4788 62.892 35.8866 62.3233 35.8349 61.6089V50.9821H25.161C24.4654 50.9068 23.9202 50.3287 23.9202 49.6096C23.9202 49.1725 24.127 48.7871 24.4466 48.5333C25.5511 47.6779 26.2655 46.3431 26.2655 44.8391C26.2655 42.2587 24.174 40.1719 21.5984 40.1719C19.0227 40.1719 16.9312 42.2587 16.9312 44.8391C16.9312 46.3431 17.6456 47.6779 18.7501 48.5333C19.0697 48.7871 19.2765 49.1725 19.2765 49.6096C19.2765 50.3287 18.7313 50.9068 18.0357 50.9821H7.36182V79.4551H35.8349V79.4457Z" fill="#E04545"/>
    <path d="M85.232 70.2958C85.232 70.2958 85.4999 74.7891 85.4764 75.8513C85.4623 76.4294 85.2273 79.2635 82.4026 79.5925C79.5731 79.9215 74.685 79.4468 74.3325 77.9146C73.98 76.3824 74.5957 75.9688 75.2772 75.5552C75.9588 75.1416 78.7177 75.0852 79.4368 75.1134C80.1512 75.1416 81.4343 69.2336 85.232 70.2958Z" fill="white" stroke="black" stroke-width="0.940015" stroke-miterlimit="10" stroke-linecap="round" stroke-linejoin="round"/>
    <path d="M85.4152 66.065C85.4152 66.065 85.7348 71.2116 85.6831 72.1093C85.6455 72.7391 85.4152 75.8177 82.3366 76.1749C79.2628 76.5321 74.0739 77.1619 73.6932 75.4981C73.3125 73.8342 73.853 72.2315 74.5909 71.785C75.3288 71.3338 78.3322 71.2774 79.1124 71.3056C79.8926 71.3338 81.2885 64.9088 85.4152 66.065Z" fill="white" stroke="black" stroke-width="0.940015" stroke-miterlimit="10" stroke-linecap="round" stroke-linejoin="round"/>
    <path d="M85.1661 62.5572C85.1661 62.5572 85.622 67.9999 85.434 68.6015C85.2366 69.2313 85.1661 72.3099 82.0876 72.6671C79.0137 73.0243 73.8248 73.6541 73.4441 71.9903C73.0587 70.3264 73.6039 68.7237 74.3418 68.2772C75.0798 67.826 78.0831 67.7696 78.8633 67.7978C79.6435 67.826 81.0395 61.401 85.1661 62.5572Z" fill="white" stroke="black" stroke-width="0.940015" stroke-miterlimit="10" stroke-linecap="round" stroke-linejoin="round"/>
    <path d="M82.5727 58.7344C85.9615 58.7344 85.4962 63.1007 85.4586 64.4074C85.4398 65.0607 85.1813 68.252 81.9946 68.6233C78.808 68.9946 73.4311 69.648 73.0363 67.923C72.6415 66.1981 73.2055 64.539 73.9669 64.0737C74.733 63.6084 77.8445 63.5473 78.6529 63.5802C79.2357 63.6037 82.5774 63.646 82.5774 60.9481C82.5728 59.853 82.4928 58.7344 82.5727 58.7344Z" fill="white" stroke="black" stroke-width="0.940015" stroke-miterlimit="10" stroke-linecap="round" stroke-linejoin="round"/>
    <path d="M7.34816 55.9898L6.89226 59.5477C6.89226 59.5477 9.7311 60.6429 11.2633 60.8967C12.7956 61.1505 15.4417 61.3996 17.0585 61.2586C18.6754 61.1176 20.4332 60.7792 21.1476 61.3949C21.862 62.0106 22.3602 62.9271 21.8056 63.6885C21.2557 64.4499 22.7268 63.9517 22.7268 63.9517C22.7268 63.9517 24.212 63.9188 24.3342 64.8635C24.4564 65.8083 24.1603 66.706 23.4882 67.4298C22.8114 68.1536 22.1299 68.8163 22.1299 68.8163C22.1299 68.8163 23.4788 68.8351 23.8548 69.7093C24.2308 70.5882 24.494 71.3355 23.7467 71.9513C22.9947 72.567 20.6729 73.9629 20.6729 73.9629L19.5731 74.2261C19.5731 74.2261 20.8045 74.6162 20.8186 75.434C20.8327 76.2518 17.8857 77.9532 15.6203 78.0801C13.3596 78.207 9.05429 79.4808 6.01334 77.1307C2.97239 74.776 0.142943 71.7162 0.222844 67.8434C0.307446 63.9658 1.36966 60.1964 2.76559 58.6829C4.16151 57.1695 6.84055 55.4258 6.84055 55.4258L7.34816 55.9898Z" fill="white"/>
    <path d="M6.31885 59.4258C6.31885 59.4258 10.0507 60.8875 13.1011 61.2071C16.8517 61.6019 19.841 60.6995 21.1476 61.381C22.6469 62.1659 21.9654 63.684 21.0207 64.4173" stroke="black" stroke-width="0.940015" stroke-miterlimit="10" stroke-linecap="round" stroke-linejoin="round"/>
    <path d="M11.4928 65.8041C11.4928 65.8041 15.4596 65.9028 17.9272 65.4187C20.7942 64.8594 21.9833 64.0698 22.7259 63.9476C23.9245 63.7549 24.5731 64.8829 24.4086 65.6678C24.2441 66.4574 23.1725 68.4173 20.7989 69.4654C17.1611 71.0729 11.2061 70.241 11.2061 70.241" stroke="black" stroke-width="0.940015" stroke-miterlimit="10" stroke-linecap="round" stroke-linejoin="round"/>
    <path d="M12.6782 75.0561C12.9931 75.183 19.7142 74.3981 21.4345 73.4204C23.15 72.4428 24.4378 71.5921 24.3156 70.5581C24.137 69.0635 21.8669 68.9883 21.8669 68.9883" stroke="black" stroke-width="0.940015" stroke-miterlimit="10" stroke-linecap="round" stroke-linejoin="round"/>
    <path d="M7.11718 54.8984C7.11718 54.8984 6.19126 55.4812 4.09033 57.1968C0.880173 59.8194 -0.553351 66.141 1.27968 71.109C3.18791 76.2791 7.93969 78.3565 9.65992 78.4928C12.2497 78.6949 17.4009 77.8395 19.6053 76.6081C21.8096 75.3767 20.0941 74.1876 20.0941 74.1876" stroke="black" stroke-width="0.940015" stroke-miterlimit="10" stroke-linecap="round" stroke-linejoin="round"/>
  </g>
  <defs>
    <clipPath id="clip0_3187_15302">
      <rect width="86.1571" height="80" fill="white" transform="translate(0 0.699219)"/>
    </clipPath>
  </defs>
</svg>