<svg xmlns="http://www.w3.org/2000/svg" width="108" height="81" viewBox="0 0 108 81" fill="none">
  <g clip-path="url(#clip0_3187_15340)">
    <path d="M0.00219727 80.3658V71.0962C0.00219727 67.0167 2.36326 63.304 6.05852 61.5716L23.8887 53.2276C27.584 51.4987 31.9882 52.8958 34.0105 56.4409L47.3875 80.3623H0.00219727V80.3658Z" fill="#080717"/>
    <path d="M33.8393 80.3668V59.8228L33.4796 53.033C33.3189 49.9734 34.3597 46.9697 36.3855 44.668L42.1833 38.0773C42.6968 37.494 43.5106 37.281 44.244 37.5359C45.3722 37.9271 45.8681 39.2508 45.2744 40.2882L42.2287 45.611L50.4226 47.8498L59.9961 44.0777C60.8797 43.7285 61.8891 44.0707 62.3781 44.888C62.6784 45.391 62.5003 46.0441 61.9869 46.327L44.8203 55.7084L51.3412 80.3737H33.8393V80.3668Z" fill="white"/>
    <path d="M51.3379 80.7193C51.1842 80.7193 51.041 80.6145 50.9991 80.4608L44.4782 55.7955C44.4363 55.6418 44.5062 55.4777 44.6494 55.4008L61.8159 46.0195C61.9801 45.9287 62.0988 45.7785 62.1477 45.6003C62.1966 45.4187 62.1722 45.2301 62.0744 45.0695C61.6727 44.3954 60.8485 44.116 60.122 44.4058L50.5485 48.1779C50.4787 48.2059 50.4018 48.2094 50.3285 48.1884L42.1346 45.9496C42.0299 45.9217 41.946 45.8448 41.9041 45.747C41.8622 45.6457 41.8692 45.534 41.9251 45.4397L44.9707 40.1168C45.2012 39.7117 45.2396 39.2297 45.079 38.7966C44.9148 38.36 44.569 38.0212 44.129 37.871C43.5282 37.6615 42.8646 37.8361 42.4455 38.3146L36.6476 44.9053C34.6708 47.1511 33.6719 50.0326 33.829 53.0223L34.1888 59.8121V80.3735C34.1888 80.5656 34.0316 80.7228 33.8395 80.7228C33.6474 80.7228 33.4902 80.5656 33.4902 80.3735V59.8296L33.1305 53.0572C32.9628 49.8859 34.0246 46.8263 36.1237 44.4443L41.9216 37.8536C42.5293 37.162 43.4863 36.9105 44.3595 37.2109C44.9952 37.4309 45.4981 37.9199 45.7321 38.5521C45.9696 39.1843 45.9102 39.8793 45.5784 40.4661L42.7563 45.3943L50.4018 47.4829L59.867 43.7527C60.9148 43.3406 62.0954 43.7422 62.6751 44.7097C62.8707 45.0345 62.9231 45.4152 62.8218 45.782C62.7205 46.1487 62.483 46.4491 62.1512 46.6307L45.2257 55.8793L51.6767 80.2827C51.7256 80.4678 51.6138 80.6599 51.4287 80.7088C51.3973 80.7158 51.3693 80.7193 51.3379 80.7193Z" fill="#080717"/>
    <path d="M54.7881 48.0777L58.4798 41.6023C58.8221 41.0051 58.3401 40.2716 57.6556 40.3449C56.7824 40.4392 55.9896 40.8933 55.4657 41.6023L50.9426 47.3862L54.7881 48.0777Z" fill="white"/>
    <path d="M54.7884 48.4311C54.729 48.4311 54.6696 48.4171 54.6172 48.3857C54.4496 48.2914 54.3902 48.0783 54.488 47.9106L58.1798 41.4352C58.2741 41.271 58.2671 41.0755 58.1623 40.9183C58.0575 40.7611 57.8829 40.6773 57.6943 40.6982C56.9189 40.7821 56.2099 41.1872 55.7489 41.8159L51.2188 47.6068C51.1001 47.757 50.88 47.7849 50.7299 47.6662C50.5797 47.5474 50.5517 47.3274 50.6705 47.1772L55.1935 41.3933C55.7663 40.6179 56.65 40.108 57.6209 40.0032C58.0715 39.9543 58.5011 40.1604 58.7491 40.5376C58.9971 40.9148 59.011 41.3933 58.7875 41.7845L55.0957 48.2599C55.0294 48.3682 54.9106 48.4311 54.7884 48.4311Z" fill="#080717"/>
    <path d="M41.8687 51.7504L47.5024 48.7606L50.5829 42.4284C51.002 41.5657 51.8473 40.9859 52.8078 40.9056C53.426 40.8532 53.901 41.4504 53.7089 42.0407L51.0614 50.2695L41.8687 51.7504Z" fill="white"/>
    <path d="M41.8676 52.1029C41.7419 52.1029 41.6196 52.0365 41.5602 51.9178C41.4694 51.7467 41.5358 51.5371 41.7069 51.4463L47.2428 48.5124L50.2745 42.2815C50.746 41.3105 51.7065 40.6539 52.7823 40.5631C53.1909 40.5281 53.5856 40.6993 53.8405 41.0206C54.0955 41.3419 54.1723 41.7646 54.0466 42.1557L51.3992 50.3845C51.3398 50.5696 51.1442 50.6674 50.9591 50.6115C50.774 50.5522 50.6727 50.3566 50.732 50.1715L53.3795 41.9427C53.4354 41.775 53.4005 41.5969 53.2922 41.4572C53.1804 41.3175 53.0163 41.2476 52.8381 41.2616C52.0069 41.3315 51.2629 41.8379 50.8997 42.5888L47.8191 48.9211C47.7877 48.9874 47.7353 49.0433 47.669 49.0782L42.0353 52.068C41.9794 52.0889 41.9235 52.1029 41.8676 52.1029Z" fill="#080717"/>
    <path d="M17.0988 48.8347L13.5572 49.9139C9.48822 51.1573 5.13982 48.8417 3.89991 44.7727L3.47031 43.3686C1.91607 38.2728 4.8115 32.8312 9.90734 31.2734L10.7246 32.5587C13.9204 31.5843 17.3293 33.4005 18.3073 36.5928L20.2422 42.9285C20.9966 45.4188 19.5856 48.0733 17.0988 48.8347Z" fill="#080717"/>
    <path d="M12.9851 49.5561C17.7819 49.4794 21.6121 45.7646 21.54 41.259C21.4679 36.7535 17.5209 33.1632 12.724 33.2399C7.92718 33.3167 4.09702 37.0314 4.16912 41.537C4.24121 46.0426 8.18827 49.6329 12.9851 49.5561Z" fill="#080717"/>
    <path d="M20.923 55.1923C18.3384 54.6474 16.0891 52.8138 15.1321 50.1419L14.252 47.683L20.7693 45.3359L20.923 55.1923Z" fill="#080717"/>
    <path d="M10.685 42.6092C10.0947 39.8884 11.1879 36.965 13.4931 35.5924C14.9286 34.7367 16.5492 34.6563 17.9742 35.2152C17.2163 35.3025 15.0997 35.6657 14.705 37.0768C14.2231 38.8022 14.2126 42.0748 10.685 42.6092Z" fill="#080717"/>
    <path d="M22.3444 36.1133C22.6216 33.9863 21.122 32.0374 18.995 31.7602C16.868 31.4831 14.9191 32.9827 14.6419 35.1097C14.3648 37.2367 15.8644 39.1856 17.9914 39.4627C20.1184 39.7399 22.0673 38.2403 22.3444 36.1133Z" fill="#080717"/>
    <path d="M8.77841 32.8672C4.9155 34.6031 2.81639 38.9165 3.92707 43.0833C5.01679 43.4081 6.22526 43.4256 7.41626 43.0623C10.5073 42.1193 12.2851 38.9724 11.3875 36.0316C10.9578 34.631 9.99736 33.5343 8.77841 32.8672Z" fill="#080717"/>
    <path d="M14.6932 36.7075C15.6793 34.8025 14.9343 32.4589 13.0294 31.4728C11.1244 30.4868 8.78075 31.2317 7.79469 33.1367C6.80863 35.0416 7.55357 37.3853 9.45854 38.3714C11.3635 39.3574 13.7072 38.6125 14.6932 36.7075Z" fill="#080717"/>
    <path d="M19.3475 32.6454C19.9902 34.7549 18.8027 36.9903 16.6931 37.6329C14.5835 38.2756 12.3482 37.0881 11.7055 34.9785C11.0629 32.8689 12.2504 30.6336 14.36 29.9909C16.4696 29.3483 18.7049 30.5358 19.3475 32.6454Z" fill="#080717"/>
    <path d="M5.56322 37.1329C5.44796 37.1329 5.3362 37.077 5.26983 36.9722C4.711 36.099 3.4711 36.2038 3.45713 36.2038C3.26503 36.2213 3.09389 36.0816 3.07643 35.8895C3.05896 35.6974 3.19867 35.5262 3.38727 35.5088C3.45364 35.5018 5.06726 35.3551 5.85661 36.595C5.96139 36.7591 5.91249 36.9722 5.75182 37.077C5.69245 37.1154 5.62609 37.1329 5.56322 37.1329Z" fill="#080717"/>
    <path d="M5.68617 37.0268C5.65473 37.0268 5.6233 37.0233 5.59186 37.0128C4.17732 36.6146 3.84901 35.0324 3.83504 34.9661C3.79662 34.7775 3.92236 34.5924 4.11096 34.5539C4.29957 34.5155 4.48468 34.6378 4.51961 34.8264C4.5231 34.8403 4.78156 36.0593 5.78047 36.3387C5.96558 36.3911 6.07385 36.5832 6.02146 36.7683C5.97955 36.9255 5.83984 37.0268 5.68617 37.0268Z" fill="#080717"/>
    <path d="M22.0209 56.1715L20.9417 56.2798L20.8718 51.9943C21.3818 51.879 21.8847 51.7009 22.3702 51.4424C25.3145 49.8777 26.4287 46.2209 24.864 43.2765L23.7708 41.2228C24.3156 40.8526 24.5112 40.1296 24.2004 39.5289C23.886 38.9247 23.1665 38.6732 22.5483 38.9212L22.234 38.3309C20.6693 35.3866 17.0124 34.2724 14.0681 35.8371C11.5848 37.1574 10.4042 39.9655 11.0329 42.578C9.94321 42.9203 9.21324 43.9925 9.34596 45.1696C9.46122 46.1964 10.2017 46.9963 11.1412 47.2477L11.3333 59.2207L9.13989 61.1032C9.91876 63.2582 11.9236 65.284 14.6828 66.4086C19.0661 68.1934 23.6834 67.0198 25.0002 63.7856C26.034 61.2674 24.7313 58.2322 22.0209 56.1715Z" fill="white"/>
    <path d="M18.7939 67.6132C17.4283 67.6132 15.9788 67.3373 14.5538 66.7575C11.805 65.6364 9.66052 63.5792 8.81529 61.2496C8.76639 61.1133 8.80481 60.9597 8.91658 60.8654L10.9842 59.0911L10.7991 47.5338C9.8142 47.1705 9.11915 46.2974 9.0004 45.2391C8.86419 44.0271 9.53827 42.8745 10.6315 42.3891C10.1076 39.6543 11.4243 36.8811 13.9076 35.5608C17.0161 33.9053 20.8895 35.0893 22.545 38.1978L22.7267 38.5366C23.4357 38.3969 24.1691 38.7322 24.5149 39.3958C24.8537 40.0455 24.721 40.8313 24.218 41.3378L25.1785 43.14C26.8341 46.2485 25.65 50.1219 22.5416 51.7774C22.1364 51.9939 21.6963 52.1651 21.2318 52.2943L21.2912 55.9232L21.9932 55.8534C22.0805 55.8429 22.1678 55.8708 22.2377 55.9232C25.1471 58.1306 26.3905 61.3578 25.3322 63.9529C24.3752 66.2825 21.7941 67.6132 18.7939 67.6132ZM9.55574 61.2321C10.387 63.2893 12.3359 65.0985 14.8157 66.1079C19.0104 67.8158 23.4357 66.7261 24.6791 63.677C25.6011 61.4102 24.494 58.5602 21.9164 56.5484L20.9768 56.6427C20.879 56.6532 20.7812 56.6218 20.7079 56.5554C20.6345 56.489 20.5926 56.3982 20.5926 56.3004L20.5228 52.0149C20.5193 51.8507 20.6345 51.7041 20.7952 51.6691C21.3016 51.5539 21.7767 51.3792 22.2063 51.1487C24.976 49.6748 26.0273 46.224 24.5533 43.4578L23.4601 41.4041C23.3763 41.2469 23.4252 41.0514 23.5719 40.9501C23.977 40.6741 24.1133 40.1398 23.8897 39.7067C23.6592 39.2701 23.1388 39.078 22.6743 39.2631C22.5101 39.3295 22.3215 39.2596 22.2377 39.1024L21.9233 38.5157C20.4494 35.746 16.9987 34.6947 14.2324 36.1686C11.9412 37.3875 10.7642 40.0001 11.3754 42.5183C11.4173 42.6964 11.3161 42.878 11.1414 42.9339C10.1914 43.2308 9.58368 44.1633 9.69545 45.1553C9.79324 46.0145 10.3975 46.713 11.2357 46.933C11.3859 46.9715 11.4942 47.1077 11.4942 47.2648L11.6863 59.2378C11.6863 59.3426 11.6444 59.4404 11.564 59.5067L9.55574 61.2321Z" fill="#080717"/>
    <path d="M12.2092 45.8999C12.0521 45.8999 11.9089 45.7916 11.8704 45.6309C11.6888 44.8835 10.9728 44.7648 10.9414 44.7578C10.7528 44.7298 10.6201 44.5517 10.648 44.3596C10.6759 44.171 10.8506 44.0383 11.0392 44.0662C11.0881 44.0732 12.2546 44.2513 12.548 45.4668C12.5934 45.6554 12.4782 45.844 12.2896 45.8894C12.2651 45.8964 12.2372 45.8999 12.2092 45.8999Z" fill="#080717"/>
    <path d="M21.8722 43.2302C21.4775 43.2302 21.013 43.087 20.51 42.6854C20.3598 42.5631 20.3354 42.3431 20.4576 42.1929C20.5799 42.0427 20.7999 42.0182 20.9501 42.1405C21.8687 42.8774 22.41 42.357 22.4694 42.2977C22.6021 42.158 22.8222 42.151 22.9619 42.2802C23.1016 42.4094 23.1121 42.626 22.9863 42.7692C22.7873 42.9822 22.3926 43.2302 21.8722 43.2302Z" fill="#080717"/>
    <path d="M21.1284 39.5481C21.2402 39.8694 21.1145 40.2012 20.849 40.292C20.5836 40.3828 20.2797 40.1977 20.1714 39.8764C20.0597 39.5551 20.1854 39.2233 20.4509 39.1325C20.7163 39.0416 21.0202 39.2268 21.1284 39.5481Z" fill="#080717"/>
    <path d="M19.8635 37.7812C20.0172 37.9279 19.8077 38.3889 19.399 38.8115C18.9904 39.2341 18.5363 39.4542 18.3861 39.3075C18.2325 39.1608 18.442 38.6997 18.8507 38.2771C19.2558 37.8545 19.7099 37.631 19.8635 37.7812Z" fill="#080717"/>
    <path d="M12.2822 36.8594C9.7919 37.7116 8.24464 40.2613 8.6917 42.9052C9.34833 43.1707 10.0958 43.251 10.8537 43.0938C12.8201 42.6887 14.1019 40.841 13.7142 38.969C13.5291 38.0748 12.9982 37.3414 12.2822 36.8594Z" fill="#080717"/>
    <path d="M19.6628 52.4436C17.3401 52.4436 15.1258 51.1618 14.0081 49.0592C13.9173 48.8881 13.9837 48.6785 14.1513 48.5877C14.3224 48.4969 14.532 48.5632 14.6228 48.7309C15.7964 50.9383 18.3286 52.1328 20.7769 51.6333C20.9655 51.5949 21.1506 51.7171 21.1891 51.9057C21.2275 52.0943 21.1052 52.2795 20.9166 52.3179C20.4975 52.4017 20.0784 52.4436 19.6628 52.4436Z" fill="#080717"/>
    <path d="M15.9148 75.2734H15.2163V80.3832H15.9148V75.2734Z" fill="white"/>
    <path d="M44.6932 35.2327C54.2262 35.2327 61.9541 27.5047 61.9541 17.9718C61.9541 8.43889 54.2262 0.710938 44.6932 0.710938C35.1603 0.710938 27.4324 8.43889 27.4324 17.9718C27.4324 27.5047 35.1603 35.2327 44.6932 35.2327Z" fill="#E84747"/>
    <path d="M27.3459 35.3337L29.686 26.5985L32.0262 17.8633L38.4213 24.2584L44.8164 30.65L36.0812 32.9936L27.3459 35.3337Z" fill="#E84747"/>
    <path d="M76.7108 36.2496L74.9679 29.7427L74.954 29.6973C77.7586 24.7866 77.0705 18.4229 72.8793 14.2317C67.8568 9.20922 59.7154 9.20922 54.6929 14.2317C49.6704 19.2542 49.6704 27.3956 54.6929 32.4181C58.8841 36.6094 65.2478 37.3009 70.1585 34.4928L70.2004 34.5033L76.7108 36.2496Z" fill="white"/>
    <path d="M76.71 36.6C76.6786 36.6 76.6506 36.5965 76.6192 36.5895L70.2066 34.8677C65.0724 37.7282 58.6109 36.8305 54.4441 32.6638C49.2924 27.5121 49.2924 19.1331 54.4441 13.9849C59.5958 8.83317 67.9748 8.83317 73.123 13.9849C77.2898 18.1517 78.1874 24.6131 75.3269 29.7474L77.0453 36.1599C77.0767 36.2822 77.0418 36.4079 76.9545 36.4987C76.8881 36.5616 76.8008 36.6 76.71 36.6ZM63.7836 10.8205C60.5808 10.8205 57.378 12.0395 54.9366 14.4773C50.0573 19.3566 50.0573 27.292 54.9366 32.1713C58.9148 36.1495 65.1038 36.9807 69.9831 34.1901C70.0634 34.1447 70.1577 34.1307 70.245 34.1551L76.2105 35.7548L74.6109 29.7893C74.5864 29.702 74.6004 29.6042 74.6458 29.5273C77.4365 24.6446 76.6052 18.459 72.627 14.4808C70.1926 12.0395 66.9864 10.8205 63.7836 10.8205Z" fill="#080717"/>
    <path d="M44.363 26.6268C45.4702 26.6268 46.3678 25.7292 46.3678 24.622C46.3678 23.5148 45.4702 22.6172 44.363 22.6172C43.2557 22.6172 42.3582 23.5148 42.3582 24.622C42.3582 25.7292 43.2557 26.6268 44.363 26.6268Z" fill="white"/>
    <path d="M45.7931 20.9203H42.3598V18.0563L42.7021 17.5987C43.4076 16.6592 44.0328 15.9921 44.4939 15.5031C44.7977 15.1783 45.1749 14.7766 45.2238 14.6404V12.9046C45.2238 12.5902 44.9654 12.3317 44.651 12.3317H42.9326C42.6183 12.3317 42.3598 12.5902 42.3598 12.9046V14.623H38.9265V12.9046C38.9265 10.6937 40.7252 8.89844 42.9326 8.89844H44.651C46.8619 8.89844 48.6571 10.6972 48.6571 12.9046V14.623C48.6571 16.0899 47.8503 16.9491 46.9946 17.8572C46.6349 18.2379 46.2402 18.6605 45.7931 19.2158V20.9203Z" fill="white"/>
    <path d="M63.6389 30.3193C64.6979 30.3193 65.5564 29.4609 65.5564 28.4019C65.5564 27.3429 64.6979 26.4844 63.6389 26.4844C62.5799 26.4844 61.7214 27.3429 61.7214 28.4019C61.7214 29.4609 62.5799 30.3193 63.6389 30.3193Z" fill="#080717"/>
    <path d="M65.0122 15.8359H61.7256V24.8226H65.0122V15.8359Z" fill="#080717"/>
    <path d="M83.7295 46.9276C87.3656 46.9276 90.3132 44.4866 90.3132 41.4755C90.3132 38.4644 87.3656 36.0234 83.7295 36.0234C80.0934 36.0234 77.1458 38.4644 77.1458 41.4755C77.1458 44.4866 80.0934 46.9276 83.7295 46.9276Z" fill="#080717"/>
    <path d="M94.744 77.3032L81.7617 72.148L81.4648 59.0923L93.5845 58.8164L94.744 77.3032Z" fill="white"/>
    <path d="M94.7449 77.6576C94.703 77.6576 94.6576 77.6507 94.6157 77.6332L81.6334 72.4745C81.5041 72.4221 81.4168 72.2964 81.4133 72.1567L81.1164 59.101C81.113 59.0067 81.1479 58.9194 81.2142 58.853C81.2771 58.7866 81.3679 58.7482 81.4587 58.7447L93.5784 58.4688C93.774 58.4653 93.9241 58.6085 93.9346 58.7971L95.0942 77.2874C95.1012 77.4062 95.0488 77.5214 94.951 77.5913C94.8916 77.6367 94.8183 77.6576 94.7449 77.6576ZM82.1084 71.9122L94.3642 76.781L93.257 59.1778L81.822 59.4398L82.1084 71.9122Z" fill="#080717"/>
    <path d="M90.6061 63.5665C93.3933 62.6793 95.88 60.7304 97.4168 57.9188C100.525 52.2397 98.517 45.3172 93.0859 42.1808C84.176 37.036 78.3782 44.3602 77.7425 46.1624C77.5923 46.585 77.4491 46.9937 77.3024 47.3884C76.9846 48.0205 76.7261 48.6702 76.5271 49.3268C75.9089 50.682 75.2278 51.6529 74.2847 51.9742C72.8388 52.4667 73.6211 63.6643 81.9966 62.8435L90.6061 63.5665Z" fill="white"/>
    <path d="M90.6062 63.9251C90.4596 63.9251 90.3198 63.8308 90.2744 63.6806C90.2151 63.4955 90.3163 63.2999 90.5015 63.2406C93.3201 62.3429 95.6672 60.3975 97.1131 57.757C100.11 52.284 98.2622 45.578 92.9149 42.4905C89.7156 40.6429 86.6246 40.2482 83.7326 41.317C80.3517 42.5673 78.3748 45.4383 78.0745 46.2836C77.9243 46.7062 77.7776 47.1183 77.6344 47.513C77.6309 47.527 77.6239 47.5374 77.6169 47.5514C77.3096 48.1591 77.0581 48.7913 76.8625 49.4305C76.859 49.4444 76.852 49.4584 76.8451 49.4759C76.0976 51.1105 75.3432 51.9836 74.4002 52.3084C74.0893 52.4586 73.7785 54.3621 74.463 56.8035C74.9904 58.6861 76.7752 63.01 81.9653 62.5001C82.1609 62.4791 82.3286 62.6224 82.346 62.8144C82.3635 63.0065 82.2238 63.1777 82.0317 63.1952C80.4425 63.3523 75.1406 63.3139 73.6178 56.2901C73.1742 54.2539 73.2616 51.9592 74.1766 51.6483C74.9206 51.3934 75.5493 50.6389 76.2024 49.2069C76.405 48.5433 76.6669 47.8867 76.9848 47.2545C77.1245 46.8668 77.2677 46.4652 77.4144 46.053C77.8614 44.7922 80.1002 41.9142 83.4881 40.6638C86.5862 39.5182 89.8728 39.9304 93.2642 41.8863C98.9468 45.1659 100.906 52.2875 97.7278 58.0958C96.198 60.8935 93.7078 62.9576 90.7145 63.9077C90.6761 63.9216 90.6412 63.9251 90.6062 63.9251Z" fill="#080717"/>
    <path d="M95.1158 40.2153C91.4415 38.2035 87.1559 38.3293 83.6213 40.1559C84.7215 40.4179 85.7973 40.8195 86.8276 41.3819C93.8095 45.2029 95.982 54.6681 91.6825 62.5266C91.445 62.9632 91.1865 63.3823 90.9211 63.791C94.5395 63.1169 97.875 60.8361 99.8169 57.2876C103.187 51.1265 101.085 43.481 95.1158 40.2153Z" fill="#080717"/>
    <path d="M82.8284 39.3439C82.8284 39.3439 83.8063 42.6655 86.5795 44.2756C88.0464 45.1278 85.2348 44.8589 85.4479 46.6052C87.065 59.6818 88.1058 62.1546 88.1058 62.1546C88.3503 63.2758 89.2968 64.1105 90.4424 64.2083L93.8897 64.5052L94.9724 61.3408L96.7328 47.7089C96.7363 47.7089 89.6636 37.4998 82.8284 39.3439Z" fill="#080717"/>
    <path d="M90.9772 52.1533C90.2507 51.3884 89.189 51.1404 88.2424 51.4198C89.0981 53.0719 89.3147 54.9614 88.8991 56.7287C89.6046 56.7566 90.3241 56.5122 90.8794 55.9882C91.9621 54.9579 92.0076 53.243 90.9772 52.1533Z" fill="white"/>
    <path d="M76.0654 57.6474C75.8908 57.6474 75.7371 57.5147 75.7196 57.3366C75.6987 57.1445 75.8384 56.9733 76.027 56.9524C76.8547 56.8616 77.3123 56.0583 77.3193 56.0513C77.4136 55.8836 77.6266 55.8208 77.7943 55.9151C77.9619 56.0094 78.0248 56.2189 77.9305 56.3866C77.906 56.432 77.3018 57.5147 76.1038 57.6474C76.0933 57.6439 76.0794 57.6474 76.0654 57.6474Z" fill="#080717"/>
    <path d="M81.0882 48.7007C81.0743 48.7007 81.0568 48.7007 81.0428 48.6972C80.8507 48.6728 80.718 48.4946 80.7424 48.306C80.7809 48.0161 80.5503 47.4818 80.0928 47.0836C79.8274 46.8496 79.2685 46.4898 78.5351 46.6924C78.35 46.7448 78.1579 46.633 78.1055 46.4479C78.0531 46.2628 78.1648 46.0707 78.35 46.0183C79.1253 45.8053 79.9077 45.9974 80.5503 46.5562C81.1441 47.0766 81.5073 47.8345 81.4305 48.3969C81.4096 48.575 81.2629 48.7007 81.0882 48.7007Z" fill="#080717"/>
    <path d="M78.6025 50.2172C78.4 50.5036 78.0682 50.6189 77.8621 50.4722C77.656 50.3255 77.6525 49.9762 77.8551 49.6898C78.0577 49.4034 78.3895 49.2882 78.5955 49.4349C78.8016 49.5816 78.8051 49.9308 78.6025 50.2172Z" fill="#080717"/>
    <path d="M85.8902 45.457C85.8902 45.457 81.1751 48.8973 81.7618 51.3527C82.3521 53.808 86.6761 54.3005 86.1836 58.5267C85.6911 62.7528 84.9891 64.824 79.8723 65.0859C73.0441 65.4352 70.5608 71.6906 70.5608 75.5256C70.5608 79.3605 88.0522 69.9233 88.0522 69.9233C88.0522 69.9233 94.0456 63.7343 85.8902 45.457Z" fill="#080717"/>
    <path d="M62.8813 80.1995C67.5965 76.6544 81.1237 70.5143 84.8015 70.1266L94.3679 69.1172L99.8061 80.1995H62.8813Z" fill="#E84747"/>
    <path d="M89.3269 38.3813C92.5681 36.7118 103.968 40.1486 102.69 51.7443C102.054 57.5108 100.724 66.1901 102.494 69.1379C104.262 72.0857 108.882 75.2292 106.623 77.5902C104.363 79.9478 91.9814 81.3239 90.3119 79.5566C88.6424 77.7893 83.0401 71.9914 89.4282 61.2794C95.8163 50.5673 89.2326 45.2619 88.5446 44.8707C87.853 44.4726 84.5699 40.8332 89.3269 38.3813Z" fill="#080717"/>
  </g>
  <defs>
    <clipPath id="clip0_3187_15340">
      <rect width="107.229" height="80" fill="white" transform="translate(0 0.699219)"/>
    </clipPath>
  </defs>
</svg>