<svg xmlns="http://www.w3.org/2000/svg" width="80" height="90" viewBox="0 0 80 90" fill="none">
  <g clip-path="url(#clip0_3152_42869)">
    <path d="M78.8397 49.8291C78.0936 47.0848 76.9642 45.2706 75.6713 44.7238H75.6662L64.6225 40.339L62.5425 36.5113C62.5119 36.45 62.4557 36.4091 62.3892 36.3886C62.3228 36.3682 62.2513 36.3784 62.195 36.4091L62.0417 36.496L62.9616 28.7639C62.9769 28.6412 62.9003 28.5288 62.7878 28.4879C62.6754 28.4521 62.5425 28.5032 62.4863 28.6105C58.0556 36.7668 46.092 32.7807 45.9694 32.7398C45.8978 32.7142 45.8161 32.7245 45.7496 32.7653C45.6832 32.8062 45.6423 32.8778 45.6321 32.9544L45.121 37.5078L42.3154 40.6456L33.2086 41.5553C29.7642 41.8977 26.6315 43.5433 24.388 46.1802L1.19679 73.4291C1.18146 73.4496 1.16612 73.47 1.1559 73.4956C1.13035 73.5518 -1.18468 79.347 3.83378 81.6416C5.32602 82.3213 7.01758 82.6637 8.90845 82.6637C11.433 82.6637 14.3102 82.0556 17.5195 80.8495L16.7376 84.9225C16.7121 85.0554 16.7939 85.1832 16.9267 85.2189C17.1005 85.2649 34.3431 89.6497 49.0459 89.987C49.6131 90.0023 50.1702 90.0074 50.717 90.0074C64.4334 90.0074 72.4568 86.0979 72.5386 86.057C72.6101 86.0213 72.6612 85.9548 72.6766 85.8731L75.9064 68.3698C75.9115 68.3391 75.9115 68.3034 75.9064 68.2727C76.2079 67.9303 76.4787 67.5981 76.7087 67.2864C80.0203 62.8403 80.286 55.1389 78.8397 49.8291Z" fill="white"/>
    <path d="M11.5614 8.10515H6.59912V25.1536L18.5116 34.6692L30.4291 25.1536V8.10515H25.4618V11.0845H21.4909V6.11719H15.5322V11.0845H11.5614V8.10515Z" fill="#F6B5B5"/>
    <path d="M48.7695 44.5938L49.7865 50.1181L48.6827 50.4554L49.0506 62.6643L45.7953 66.6044L40.6133 65.6692L46.8991 49.8626L46.107 49.5253L48.7695 44.5938Z" fill="#E84747"/>
    <path d="M51.5447 0C49.5517 0 47.809 1.01698 46.8022 2.56033H44.8501C42.4226 2.56033 40.4551 4.52785 40.4551 6.95531V17.8099H43.5469V13.3945C43.5469 11.6876 44.9318 10.3027 46.6387 10.3027H48.4427H45.586H47.4768C50.6095 10.3027 53.1494 7.76787 53.1494 4.63006V0H51.5447Z" fill="#080717"/>
    <path d="M45.0856 21.8521C45.0856 23.3392 43.8796 24.5402 42.3873 24.5402H42.1625C40.6804 24.5402 39.4744 23.3392 39.4744 21.8521V18.5865C39.4744 17.1045 40.6804 15.8984 42.1625 15.8984H42.3873C43.4912 15.8984 44.4366 16.5577 44.8557 17.498" fill="white"/>
    <path d="M45.0856 21.8521C45.0856 23.3392 43.8796 24.5402 42.3873 24.5402H42.1625C40.6804 24.5402 39.4744 23.3392 39.4744 21.8521V18.5865C39.4744 17.1045 40.6804 15.8984 42.1625 15.8984H42.3873C43.4912 15.8984 44.4366 16.5577 44.8557 17.498" stroke="black" stroke-width="1.02209" stroke-miterlimit="10" stroke-linecap="round" stroke-linejoin="round"/>
    <path d="M49.1323 4.3081V0H50.9108H55.6073H58.4436C61.5763 0 64.1161 2.53478 64.1161 5.66237V9.98069H62.3275H57.6361H54.7998C51.6722 9.97558 49.1323 7.4408 49.1323 4.3081Z" fill="#080717"/>
    <path d="M60.2788 18.5787C60.2788 17.0916 61.4798 15.8906 62.9669 15.8906H63.1918C64.6738 15.8906 65.885 17.0916 65.885 18.5787V21.8443C65.885 23.3263 64.6738 24.5324 63.1918 24.5324H62.9669C61.8682 24.5324 60.9227 23.8782 60.5037 22.9379" fill="white"/>
    <path d="M60.2788 18.5787C60.2788 17.0916 61.4798 15.8906 62.9669 15.8906H63.1918C64.6738 15.8906 65.885 17.0916 65.885 18.5787V21.8443C65.885 23.3263 64.6738 24.5324 63.1918 24.5324H62.9669C61.8682 24.5324 60.9227 23.8782 60.5037 22.9379" stroke="black" stroke-width="1.02209" stroke-miterlimit="10" stroke-linecap="round" stroke-linejoin="round"/>
    <path d="M63.3143 25.9704C63.3092 28.219 61.5818 32.0416 58.7302 33.2477C54.8463 34.8524 50.252 34.8524 46.3731 33.2477C43.5113 32.0468 41.8044 28.2241 41.784 25.9704C41.784 19.5619 41.784 13.1688 41.784 6.77051C41.7737 4.50147 44.0377 2.59528 46.828 2.53906C50.6404 2.53906 54.4579 2.53906 58.2754 2.53906C61.0708 2.59017 63.3347 4.50147 63.3143 6.77051C63.3143 13.1688 63.3143 19.5671 63.3143 25.9704Z" fill="white" stroke="black" stroke-width="1.02209" stroke-miterlimit="10" stroke-linecap="round" stroke-linejoin="round"/>
    <path d="M54.7497 0C56.7428 0 58.4854 1.01698 59.5024 2.56033H61.4495C63.8718 2.56033 65.8394 4.52785 65.8394 6.95531V17.8099H62.7475V13.3945C62.7475 11.6876 61.3626 10.3027 59.6557 10.3027H59.6251H60.7187H55.7105C52.5727 10.3027 50.0481 7.76787 50.0481 4.63006V0H54.7497Z" fill="#080717"/>
    <path d="M50.0418 5.42218C50.1082 5.06445 50.144 4.69139 50.144 4.3081V0H48.3605H46.1374C42.9945 0 40.4597 2.53478 40.4597 5.66237V9.98069H41.6453H42.2382H44.4714C44.87 9.98069 45.2635 9.93981 45.6366 9.85804C46.0812 7.635 47.8239 5.88723 50.0418 5.42218Z" fill="#080717"/>
    <path d="M53.8953 27.6406H48.6929C48.6929 27.6406 52.6943 32.7408 53.8953 27.6406Z" stroke="black" stroke-width="1.02209" stroke-miterlimit="10" stroke-linecap="round" stroke-linejoin="round"/>
    <path d="M53.6499 12.1398C54.948 11.6696 56.4249 11.7207 57.6872 12.2778" stroke="black" stroke-width="1.02209" stroke-miterlimit="10" stroke-linecap="round" stroke-linejoin="round"/>
    <path d="M47.3743 12.315C45.7747 11.7171 44.5738 12.1157 43.6743 12.8159" stroke="black" stroke-width="1.02209" stroke-miterlimit="10" stroke-linecap="round" stroke-linejoin="round"/>
    <path d="M55.5158 18.9474C55.8997 18.9474 56.2108 18.5149 56.2108 17.9815C56.2108 17.4481 55.8997 17.0156 55.5158 17.0156C55.132 17.0156 54.8208 17.4481 54.8208 17.9815C54.8208 18.5149 55.132 18.9474 55.5158 18.9474Z" fill="black"/>
    <path d="M46.726 18.9552C47.1099 18.9552 47.421 18.5227 47.421 17.9893C47.421 17.4559 47.1099 17.0234 46.726 17.0234C46.3422 17.0234 46.031 17.4559 46.031 17.9893C46.031 18.5227 46.3422 18.9552 46.726 18.9552Z" fill="black"/>
    <path d="M46.1538 21.4077C48.1973 21.4077 49.8538 19.7512 49.8538 17.7078C49.8538 15.6643 48.1973 14.0078 46.1538 14.0078C44.1104 14.0078 42.4539 15.6643 42.4539 17.7078C42.4539 19.7512 44.1104 21.4077 46.1538 21.4077Z" stroke="#E84747" stroke-width="1.02209" stroke-miterlimit="10" stroke-linecap="round" stroke-linejoin="round"/>
    <path d="M51.0953 17.5938L49.092 23.1437C49.092 23.1437 50.1499 24.3038 51.5093 24.4111" stroke="black" stroke-width="1.02209" stroke-miterlimit="10" stroke-linecap="round" stroke-linejoin="round"/>
    <path d="M59.4509 17.3648C59.5071 19.409 57.8973 21.1108 55.8532 21.167C53.809 21.2232 52.1072 19.6134 52.051 17.5692C51.9948 15.525 53.6046 13.8233 55.6487 13.767C57.6929 13.7108 59.3947 15.3257 59.4509 17.3648Z" stroke="#E84747" stroke-width="1.02209" stroke-miterlimit="10" stroke-linecap="round" stroke-linejoin="round"/>
    <path d="M50.0986 17.5625L51.8464 17.6085" stroke="#E84747" stroke-width="1.02209" stroke-miterlimit="10" stroke-linecap="round" stroke-linejoin="round"/>
    <path d="M62.706 28.7266L61.7197 36.9953" stroke="#080717" stroke-width="1.02209" stroke-miterlimit="10" stroke-linecap="round" stroke-linejoin="round"/>
    <path d="M45.8826 32.9609L45.2949 38.1736" stroke="#080717" stroke-width="1.02209" stroke-miterlimit="10" stroke-linecap="round" stroke-linejoin="round"/>
    <path d="M48.9741 44.0198L62.3175 36.625L64.4383 40.5345L50.2517 51.3277L48.9741 44.0198Z" stroke="#080717" stroke-width="1.02209" stroke-miterlimit="10" stroke-linecap="round" stroke-linejoin="round"/>
    <path d="M42.4326 40.8626L45.32 37.6328L48.974 44.0055L44.9827 50.7155L42.4326 40.8626Z" stroke="#080717" stroke-width="1.02209" stroke-miterlimit="10" stroke-linecap="round" stroke-linejoin="round"/>
    <path d="M45.1514 66.6075C45.1514 66.6075 19.916 62.1052 13.1191 64.4815" stroke="#080717" stroke-width="1.02209" stroke-miterlimit="10" stroke-linecap="round" stroke-linejoin="round"/>
    <path d="M42.4332 40.8594L33.2293 41.7793C29.8666 42.1165 26.7646 43.7417 24.5773 46.3173L1.3912 73.5713C1.3912 73.5713 -0.913606 79.1672 3.94131 81.3903C14.9032 86.4036 34.4455 70.6839 34.4455 70.6839" stroke="#080717" stroke-width="1.02209" stroke-miterlimit="10" stroke-linecap="round" stroke-linejoin="round"/>
    <path d="M34.7004 70.6126L49.3981 70.1016" stroke="#080717" stroke-width="1.02209" stroke-miterlimit="10" stroke-linecap="round" stroke-linejoin="round"/>
    <path d="M30.2798 64.4844L31.726 72.7275" stroke="#080717" stroke-width="1.02209" stroke-miterlimit="10" stroke-linecap="round" stroke-linejoin="round"/>
    <path d="M33.1682 64.9062L34.3334 70.4562" stroke="#080717" stroke-width="1.02209" stroke-miterlimit="10" stroke-linecap="round" stroke-linejoin="round"/>
    <path d="M29.1766 53.4375L23.8259 63.8935" stroke="#080717" stroke-width="1.02209" stroke-miterlimit="10" stroke-linecap="round" stroke-linejoin="round"/>
    <path d="M43.2812 70.1796C43.2812 70.1796 54.1562 55.1395 58.1526 52.0784C62.1438 49.0172 71.7463 43.3242 75.574 44.9391C79.3967 46.554 81.4357 60.4902 76.5093 67.1184C73.0137 71.82 61.6072 79.8587 55.2703 84.1311C52.5311 85.9811 49.1684 86.671 45.9182 86.0628L17.7903 80.7991" stroke="#080717" stroke-width="1.02209" stroke-miterlimit="10" stroke-linecap="round" stroke-linejoin="round"/>
    <path d="M64.4382 40.5156L75.5688 44.9362" stroke="#080717" stroke-width="1.02209" stroke-miterlimit="10" stroke-linecap="round" stroke-linejoin="round"/>
    <path d="M75.6566 68.3281L72.4268 85.8314" stroke="#080717" stroke-width="1.02209" stroke-miterlimit="10" stroke-linecap="round" stroke-linejoin="round"/>
    <path d="M24.6741 23.8318V16.8203H17.6626" stroke="white" stroke-width="1.02209" stroke-miterlimit="10"/>
    <path d="M24.6736 16.8203L7.14478 34.3491" stroke="white" stroke-width="1.02209" stroke-miterlimit="10"/>
  </g>
  <defs>
    <clipPath id="clip0_3152_42869">
      <rect width="79.59" height="90" fill="white" transform="translate(0.333252)"/>
    </clipPath>
  </defs>
</svg>