<svg width="61" height="61" viewBox="0 0 61 61" fill="none" xmlns="http://www.w3.org/2000/svg">
<g id="Frame" clip-path="url(#clip0_949_25336)">
<g id="_x3C_Layer_x3E_">
<g id="Group">
<g id="Group_2">
<g id="Group_3">
<path id="Vector" d="M33.1806 9.70395V51.7042H1.05811V5.13031C1.05811 2.78739 2.95487 0.890625 5.29779 0.890625H33.1806V9.70395Z" fill="white"/>
<path id="Vector_2" d="M33.1805 51.9656H1.05802C0.914526 51.9656 0.797119 51.8482 0.797119 51.7047V5.1334C0.797119 2.65221 2.81651 0.632812 5.29771 0.632812H33.1805C33.324 0.632812 33.4414 0.750219 33.4414 0.893716C33.4414 1.03721 33.324 1.15462 33.1805 1.15462H5.29771C3.10351 1.15462 1.31893 2.9392 1.31893 5.1334V51.4438H32.9196V9.70704C32.9196 9.56354 33.037 9.44614 33.1805 9.44614C33.324 9.44614 33.4414 9.56354 33.4414 9.70704V51.7073C33.4414 51.8482 33.324 51.9656 33.1805 51.9656Z" fill="#080717"/>
</g>
<g id="Group_4">
<path id="Vector_3" d="M33.0838 0.890625H4.98973C4.93233 0.890625 4.87754 0.895843 4.82275 0.898452C7.07435 0.987159 8.87459 2.83436 8.87459 5.10683C8.87459 7.3793 7.07435 9.22649 4.82275 9.3152C4.87754 9.31781 4.93233 9.32303 4.98973 9.32303H33.0812C35.4111 9.32303 37.2974 7.43409 37.2974 5.10683C37.3 2.77957 35.4137 0.890625 33.0838 0.890625Z" fill="white"/>
<path id="Vector_4" d="M33.0838 9.58963H4.98973C4.95059 9.58963 4.90885 9.58702 4.86971 9.58442L4.81492 9.58181C4.67403 9.57659 4.56445 9.46179 4.56445 9.3209C4.56445 9.18001 4.67403 9.06522 4.81492 9.06C6.9465 8.97651 8.61368 7.2415 8.61368 5.11253C8.61368 2.98094 6.94389 1.24854 4.81492 1.16506C4.67403 1.15984 4.56445 1.04504 4.56445 0.904152C4.56445 0.763264 4.67403 0.648467 4.81492 0.643249L4.87232 0.64064C4.91145 0.635422 4.95059 0.632812 4.98973 0.632812H33.0812C35.5494 0.632812 37.5609 2.64177 37.5609 5.10992C37.5609 7.57807 35.552 9.58963 33.0838 9.58963ZM6.75604 9.06783H33.0838C35.265 9.06783 37.0417 7.29368 37.0417 5.11253C37.0417 2.93137 35.265 1.15462 33.0838 1.15462H6.75604C8.17797 1.90341 9.13548 3.39317 9.13548 5.10992C9.13548 6.82927 8.17797 8.31642 6.75604 9.06783Z" fill="#080717"/>
</g>
<g id="Group_5">
<g id="Group_6">
<path id="Vector_5" d="M16.3884 13.7891H5.93921V14.3109H16.3884V13.7891Z" fill="#080717"/>
</g>
<g id="Group_7">
<path id="Vector_6" d="M30.5607 17.4219H5.74878V17.9437H30.5607V17.4219Z" fill="#080717"/>
</g>
<g id="Group_8">
<path id="Vector_7" d="M30.5607 21.0547H5.74878V21.5765H30.5607V21.0547Z" fill="#080717"/>
</g>
<g id="Group_9">
<path id="Vector_8" d="M24.6982 24.6953H5.74878V25.2171H24.6982V24.6953Z" fill="#080717"/>
</g>
</g>
<g id="Group_10">
<g id="Group_11">
<path id="Vector_9" d="M10.8465 37.3079C10.7239 37.3079 10.6012 37.2974 10.4786 37.274C9.36716 37.0626 8.65489 36.5095 8.38877 35.6772C7.88784 35.8025 7.26167 35.8938 6.47896 35.9225L6.46069 35.4007C7.20427 35.372 7.80696 35.2885 8.28441 35.1633C8.26354 34.9545 8.26615 34.7354 8.28963 34.5032C8.35224 33.9187 8.63663 33.3239 8.97841 33.0604C9.18453 32.9038 9.36977 32.8934 9.48978 32.9117C10.0116 32.9951 10.3925 33.4883 10.3612 34.0388C10.3429 34.3231 10.1681 35.0589 8.88971 35.5233C9.10365 36.173 9.6672 36.5852 10.5778 36.76C11.4622 36.927 12.4902 36.2356 13.2155 35.4059C13.0433 35.1111 12.9207 34.8267 12.8267 34.6127L12.8137 34.5814C12.2423 33.2613 12.618 32.0742 13.2938 31.735C13.6564 31.5523 14.22 31.5863 14.6218 32.2777C15.034 32.9899 14.794 34.1327 13.993 35.2624C13.9486 35.325 13.9043 35.385 13.8573 35.4476C14.3609 36.139 15.2036 36.6556 16.816 36.0686C17.4265 35.8468 17.9039 35.4555 18.2483 35.0041C17.7161 34.331 17.3404 33.4648 17.3795 32.8464C17.4056 32.4055 17.63 32.2046 17.81 32.1133C18.3918 31.8237 18.7675 31.9437 18.9815 32.095C19.3441 32.3559 19.5007 32.8934 19.4067 33.5717C19.3467 34.0179 19.1771 34.5058 18.9032 34.9624C19.031 35.0928 19.1667 35.2076 19.305 35.2989C19.9964 35.7607 20.3773 35.6772 20.4817 35.5703L20.8808 35.9042C20.8574 35.9329 20.3068 36.593 19.0154 35.732C18.8745 35.6381 18.7336 35.5233 18.6005 35.3929C18.2066 35.886 17.6691 36.3112 16.9934 36.5565C15.1592 37.2244 14.126 36.6113 13.5181 35.8494C12.7772 36.6608 11.791 37.3079 10.8465 37.3079ZM9.40108 33.4282C9.37499 33.4282 9.33846 33.4465 9.29672 33.4778C9.06973 33.6526 8.85318 34.1275 8.80883 34.5606C8.79317 34.7171 8.78795 34.8632 8.79578 35.0041C9.51327 34.7249 9.82113 34.3466 9.8394 34.0101C9.85766 33.697 9.63067 33.4648 9.4089 33.4282C9.40369 33.4282 9.40369 33.4282 9.40108 33.4282ZM13.6903 32.1603C13.6382 32.1603 13.5834 32.1733 13.526 32.202C13.1216 32.4055 12.8137 33.2743 13.2885 34.3753L13.3016 34.4066C13.3746 34.5788 13.4581 34.7719 13.5599 34.9676C13.5599 34.965 13.5625 34.965 13.5625 34.9624C14.233 34.0153 14.4704 33.0656 14.1652 32.5412C14.0791 32.3846 13.9095 32.1603 13.6903 32.1603ZM18.4596 32.4577C18.3188 32.4577 18.1622 32.5177 18.0396 32.5777C18.0083 32.5934 17.9091 32.6429 17.8961 32.8751C17.87 33.2952 18.1335 33.9683 18.5431 34.5345C18.7258 34.1901 18.8406 33.83 18.8849 33.4987C18.9475 33.0395 18.864 32.6534 18.6736 32.5177C18.611 32.4759 18.5379 32.4577 18.4596 32.4577Z" fill="#080717"/>
</g>
</g>
</g>
<g id="Group_12">
<path id="Vector_10" d="M30.3519 34.3534L30.5632 34.69C31.0667 35.4988 31.8938 36.0519 32.8305 36.2136L38.5364 37.1973L43.431 60.6264H60.2932L54.3811 54.4065L55.6726 49.3058C56.4422 46.2663 56.2048 43.0624 54.9994 40.1689L55.9543 34.3378C56.1291 33.2707 55.7352 32.1879 54.9107 31.4861L49.5648 26.9177C49.0847 26.5054 48.3412 26.7141 48.1403 27.3142L47.9055 28.0213C47.6237 28.8692 47.835 29.8059 48.456 30.4477L51.8399 33.4246L51.1589 37.1999L49.09 34.5099C48.0646 33.1767 46.434 32.4566 44.759 32.5975L44.4746 32.621L44.4146 32.5819C43.2692 31.8174 41.8551 31.567 40.5167 31.8879L36.4283 32.8689L31.1059 32.9628C30.3988 32.9732 29.9762 33.7533 30.3519 34.3534Z" fill="#E04545"/>
<g id="Group_13">
<path id="Vector_11" d="M44.8191 39.5365C44.7252 39.5365 44.6339 39.4844 44.5869 39.3957L42.1031 34.6237C41.7117 33.8697 40.9395 33.3714 40.0915 33.327L36.418 33.1314C36.2745 33.1235 36.1649 33.0009 36.1728 32.8574C36.1806 32.7139 36.3006 32.6043 36.4467 32.6096L40.1202 32.8052C41.1534 32.86 42.0901 33.4653 42.5675 34.3811L45.0513 39.153C45.1165 39.2809 45.067 39.4374 44.9391 39.5052C44.9 39.5261 44.8608 39.5365 44.8191 39.5365Z" fill="#080717"/>
</g>
<g id="Group_14">
<path id="Vector_12" d="M47.882 38.8846C47.7881 38.8846 47.6968 38.8324 47.6498 38.7437L44.5294 32.7169C44.4642 32.589 44.5138 32.4325 44.6416 32.3646C44.7695 32.2994 44.926 32.349 44.9938 32.4768L48.1142 38.5037C48.1795 38.6315 48.1299 38.7881 48.0021 38.8559C47.9655 38.8742 47.9238 38.8846 47.882 38.8846Z" fill="#080717"/>
</g>
<g id="Group_15">
<path id="Vector_13" d="M51.5971 38.5977C51.4927 38.5977 51.3936 38.5325 51.3518 38.4282L50.9187 37.2828C50.8665 37.1471 50.9344 36.9984 51.07 36.9462C51.2057 36.8966 51.3544 36.9619 51.4066 37.0975L51.8397 38.2429C51.8919 38.3786 51.8241 38.5273 51.6884 38.5795C51.6597 38.5925 51.6284 38.5977 51.5971 38.5977Z" fill="#080717"/>
</g>
<path id="Vector_14" d="M60.3767 52.316L30.1458 34.8616L24.5024 33.6875L28.3403 37.9872L58.5712 55.4416C59.8131 54.9303 60.5541 53.6466 60.3767 52.316Z" fill="white"/>
<path id="Vector_15" d="M24.5024 33.6875L25.8696 35.219L26.5114 34.1049L24.5024 33.6875Z" fill="#080717"/>
<path id="Vector_16" d="M60.3767 52.3138L30.1458 34.8594L28.3403 37.985L58.5712 55.4395C59.8131 54.9281 60.5541 53.6444 60.3767 52.3138Z" fill="#080717"/>
<g id="Group_16">
<path id="Vector_17" d="M58.5711 55.6982C58.5268 55.6982 58.4798 55.6851 58.4407 55.6643L28.2098 38.2098C28.1863 38.1968 28.1628 38.1785 28.1446 38.1576L24.3067 33.858C24.231 33.7745 24.218 33.6518 24.2754 33.5527C24.3328 33.4562 24.445 33.404 24.5545 33.4275L30.1979 34.6015C30.224 34.6067 30.2501 34.6172 30.2762 34.6302L60.5071 52.0847C60.5775 52.1238 60.6245 52.1969 60.6349 52.2751C60.8306 53.7232 60.0218 55.1216 58.6703 55.6773C58.639 55.6904 58.6051 55.6982 58.5711 55.6982ZM28.5072 37.7767L58.5868 55.1425C59.6095 54.665 60.2279 53.5953 60.1287 52.4682L30.0492 35.1025L25.2225 34.098L28.5072 37.7767Z" fill="#080717"/>
</g>
<path id="Vector_18" d="M45.3016 52.1499L39.627 52.283C37.7224 52.3273 35.9326 51.3776 34.9046 49.7757L30.8867 43.527C30.4927 42.9139 30.7484 42.0947 31.4215 41.8129L31.972 41.5833C33.1461 41.0928 34.5054 41.4268 35.3194 42.4025L37.5371 45.0585C38.2311 45.8908 39.3139 46.2926 40.381 46.1152L40.7958 46.0474L45.3016 52.1499Z" fill="#E04545"/>
</g>
</g>
</g>
</g>
<defs>
<clipPath id="clip0_949_25336">
<rect width="59.8669" height="60" fill="white" transform="translate(0.796387 0.632812)"/>
</clipPath>
</defs>
</svg>
