<svg xmlns="http://www.w3.org/2000/svg" width="58" height="58" viewBox="0 0 58 58" fill="none">
  <g clip-path="url(#clip0_439_10637)">
    <mask id="path-1-inside-1_439_10637" fill="white">
      <path fill-rule="evenodd" clip-rule="evenodd" d="M20.7724 28H18.8389V30.1088C18.4706 30.2026 18.1229 30.3486 17.8043 30.5385L16.3178 29.0511L14.9502 30.418L16.4367 31.9054C16.2471 32.2232 16.1011 32.57 16.0072 32.9375H13.8994V34.871H16.0055C16.099 35.24 16.2451 35.5884 16.4352 35.9076L14.9443 37.3984L16.3115 38.7656L17.8015 37.2757C18.1208 37.4664 18.4694 37.6129 18.8389 37.7069V39.8122H20.7724V37.7068C21.1395 37.6134 21.486 37.4681 21.8037 37.2793L23.2998 38.7754L24.667 37.4082L23.1728 35.914C23.3648 35.593 23.5121 35.2425 23.6061 34.871H25.7145V32.9375H23.6033C23.5094 32.5702 23.3635 32.2234 23.1739 31.9056L24.6673 30.4131L23.3004 29.0455L21.8065 30.5385C21.4881 30.3487 21.1406 30.2027 20.7724 30.1089V28ZM19.8053 31.9191C18.7087 31.9191 17.8193 32.8113 17.8193 33.9051C17.8193 35.0017 18.7115 35.8911 19.8053 35.8911C20.9019 35.8911 21.7913 34.9989 21.7913 33.9051C21.7941 32.8113 20.9019 31.9191 19.8053 31.9191Z"/>
    </mask>
    <path d="M18.8389 28V27.6529H18.4918V28H18.8389ZM20.7724 28H21.1195V27.6529H20.7724V28ZM18.8389 30.1088L18.9245 30.4452L19.1859 30.3786V30.1088H18.8389ZM17.8043 30.5385L17.5588 30.7839L17.7499 30.975L17.982 30.8366L17.8043 30.5385ZM16.3178 29.0511L16.5633 28.8058L16.3179 28.5603L16.0724 28.8057L16.3178 29.0511ZM14.9502 30.418L14.7048 30.1725L14.4594 30.4178L14.7047 30.6633L14.9502 30.418ZM16.4367 31.9054L16.7348 32.0832L16.8733 31.8511L16.6822 31.66L16.4367 31.9054ZM16.0072 32.9375V33.2846H16.2768L16.3435 33.0234L16.0072 32.9375ZM13.8994 32.9375V32.5904H13.5523V32.9375H13.8994ZM13.8994 34.871H13.5523V35.2181H13.8994V34.871ZM16.0055 34.871L16.3419 34.7857L16.2755 34.524H16.0055V34.871ZM16.4352 35.9076L16.6806 36.153L16.8716 35.962L16.7334 35.73L16.4352 35.9076ZM14.9443 37.3984L14.6989 37.153L14.4535 37.3984L14.6989 37.6439L14.9443 37.3984ZM16.3115 38.7656L16.0661 39.0111L16.3115 39.2565L16.557 39.0111L16.3115 38.7656ZM17.8015 37.2757L17.9795 36.9777L17.7473 36.839L17.5561 37.0302L17.8015 37.2757ZM18.8389 37.7069H19.1859V37.4371L18.9244 37.3706L18.8389 37.7069ZM18.8389 39.8122H18.4918V40.1593H18.8389V39.8122ZM20.7724 39.8122V40.1593H21.1195V39.8122H20.7724ZM20.7724 37.7068L20.6868 37.3705L20.4253 37.437V37.7068H20.7724ZM21.8037 37.2793L22.0491 37.0338L21.8583 36.843L21.6263 36.9809L21.8037 37.2793ZM23.2998 38.7754L23.0544 39.0208L23.2998 39.2663L23.5453 39.0208L23.2998 38.7754ZM24.667 37.4082L24.9125 37.6536L25.1579 37.4082L24.9125 37.1628L24.667 37.4082ZM23.1728 35.914L22.875 35.7358L22.7361 35.9681L22.9274 36.1594L23.1728 35.914ZM23.6061 34.871V34.524H23.3359L23.2696 34.7859L23.6061 34.871ZM25.7145 34.871V35.2181H26.0616V34.871H25.7145ZM25.7145 32.9375H26.0616V32.5904H25.7145V32.9375ZM23.6033 32.9375L23.2671 33.0235L23.3338 33.2846H23.6033V32.9375ZM23.1739 31.9056L22.9286 31.6601L22.7373 31.8512L22.8758 32.0834L23.1739 31.9056ZM24.6673 30.4131L24.9126 30.6586L25.1581 30.4132L24.9127 30.1677L24.6673 30.4131ZM23.3004 29.0455L23.5459 28.8001L23.3006 28.5546L23.0551 28.8L23.3004 29.0455ZM21.8065 30.5385L21.6288 30.8366L21.8608 30.975L22.0519 30.784L21.8065 30.5385ZM20.7724 30.1089H20.4253V30.3787L20.6868 30.4453L20.7724 30.1089ZM21.7913 33.9051L21.4443 33.9042V33.9051H21.7913ZM18.8389 28.3471H20.7724V27.6529H18.8389V28.3471ZM19.1859 30.1088V28H18.4918V30.1088H19.1859ZM17.982 30.8366C18.2724 30.6635 18.5892 30.5305 18.9245 30.4452L18.7533 29.7725C18.352 29.8746 17.9734 30.0336 17.6266 30.2404L17.982 30.8366ZM16.0723 29.2965L17.5588 30.7839L18.0498 30.2932L16.5633 28.8058L16.0723 29.2965ZM15.1955 30.6635L16.5631 29.2966L16.0724 28.8057L14.7048 30.1725L15.1955 30.6635ZM16.6822 31.66L15.1957 30.1726L14.7047 30.6633L16.1913 32.1507L16.6822 31.66ZM16.3435 33.0234C16.429 32.6888 16.5619 32.3729 16.7348 32.0832L16.1387 31.7275C15.9323 32.0735 15.7733 32.4512 15.671 32.8516L16.3435 33.0234ZM13.8994 33.2846H16.0072V32.5904H13.8994V33.2846ZM14.2465 34.871V32.9375H13.5523V34.871H14.2465ZM16.0055 34.524H13.8994V35.2181H16.0055V34.524ZM16.7334 35.73C16.5601 35.439 16.4271 35.1217 16.3419 34.7857L15.669 34.9564C15.771 35.3584 15.9301 35.7377 16.137 36.0852L16.7334 35.73ZM15.1898 37.6439L16.6806 36.153L16.1898 35.6622L14.6989 37.153L15.1898 37.6439ZM16.557 38.5202L15.1898 37.153L14.6989 37.6439L16.0661 39.0111L16.557 38.5202ZM17.5561 37.0302L16.0661 38.5202L16.557 39.0111L18.047 37.5211L17.5561 37.0302ZM18.9244 37.3706C18.5881 37.285 18.2705 37.1515 17.9795 36.9777L17.6236 37.5736C17.9711 37.7812 18.3508 37.9409 18.7533 38.0433L18.9244 37.3706ZM19.1859 39.8122V37.7069H18.4918V39.8122H19.1859ZM20.7724 39.4651H18.8389V40.1593H20.7724V39.4651ZM20.4253 37.7068V39.8122H21.1195V37.7068H20.4253ZM21.6263 36.9809C21.3367 37.1531 21.021 37.2854 20.6868 37.3705L20.858 38.0432C21.2579 37.9414 21.6352 37.7832 21.981 37.5776L21.6263 36.9809ZM21.5583 37.5247L23.0544 39.0208L23.5453 38.53L22.0491 37.0338L21.5583 37.5247ZM23.5453 39.0208L24.9125 37.6536L24.4216 37.1628L23.0544 38.53L23.5453 39.0208ZM24.9125 37.1628L23.4182 35.6686L22.9274 36.1594L24.4216 37.6536L24.9125 37.1628ZM23.2696 34.7859C23.1841 35.1241 23.0499 35.4433 22.875 35.7358L23.4707 36.0922C23.6797 35.7428 23.8401 35.3609 23.9425 34.9562L23.2696 34.7859ZM25.7145 34.524H23.6061V35.2181H25.7145V34.524ZM25.3674 32.9375V34.871H26.0616V32.9375H25.3674ZM23.6033 33.2846H25.7145V32.5904H23.6033V33.2846ZM22.8758 32.0834C23.0487 32.3731 23.1816 32.689 23.2671 33.0235L23.9396 32.8515C23.8373 32.4514 23.6784 32.0737 23.472 31.7278L22.8758 32.0834ZM24.4219 30.1676L22.9286 31.6601L23.4193 32.1511L24.9126 30.6586L24.4219 30.1676ZM23.0549 29.2908L24.4218 30.6584L24.9127 30.1677L23.5459 28.8001L23.0549 29.2908ZM22.0519 30.784L23.5458 29.291L23.0551 28.8L21.5612 30.293L22.0519 30.784ZM20.6868 30.4453C21.022 30.5306 21.3386 30.6636 21.6288 30.8366L21.9843 30.2404C21.6377 30.0338 21.2592 29.8747 20.858 29.7726L20.6868 30.4453ZM20.4253 28V30.1089H21.1195V28H20.4253ZM18.1664 33.9051C18.1664 33.0026 18.9007 32.2661 19.8053 32.2661V31.572C18.5167 31.572 17.4722 32.6199 17.4722 33.9051H18.1664ZM19.8053 35.544C18.9029 35.544 18.1664 34.8097 18.1664 33.9051H17.4722C17.4722 35.1937 18.5201 36.2382 19.8053 36.2382V35.544ZM21.4443 33.9051C21.4443 34.8076 20.7099 35.544 19.8053 35.544V36.2382C21.0939 36.2382 22.1384 35.1903 22.1384 33.9051H21.4443ZM19.8053 32.2661C20.7107 32.2661 21.4465 33.0032 21.4443 33.9042L22.1384 33.906C22.1417 32.6193 21.0931 31.572 19.8053 31.572V32.2661Z" fill="#1A1A1A" mask="url(#path-1-inside-1_439_10637)"/>
    <path d="M11.0639 39.7344H7.65924V41.6325C6.80689 41.8283 6.00945 42.1625 5.28841 42.6161L3.94422 41.272L1.53758 43.6786L2.88176 45.0228C2.42813 45.7414 2.09149 46.5389 1.8981 47.3936H0V50.7983H1.8981C2.09149 51.6506 2.43052 52.4504 2.88176 53.1691L1.53758 54.5133L3.94422 56.9199L5.28841 55.5757C6.00706 56.0294 6.8045 56.366 7.65924 56.5594V58.4575H11.0639V56.5594C11.9162 56.366 12.7161 56.0294 13.4347 55.5757L14.7789 56.9199L17.1855 54.5133L15.8413 53.1691C16.295 52.4504 16.6316 51.653 16.825 50.7983H18.7231V47.3936H16.825C16.6316 46.5413 16.2926 45.7414 15.8413 45.0228L17.1855 43.6786L14.7789 41.272L13.4347 42.6161C12.7161 42.1625 11.9186 41.8259 11.0639 41.6325V39.7344ZM11.9138 49.0959C11.9138 50.507 10.7702 51.6482 9.36156 51.6482C7.95052 51.6482 6.80927 50.5046 6.80927 49.0959C6.80927 47.6873 7.95052 46.5413 9.36156 46.5413C10.7726 46.5413 11.9138 47.6849 11.9138 49.0959Z" fill="#E04545"/>
    <path d="M9.36123 53.7991C6.76836 53.7991 4.66016 51.6909 4.66016 49.098C4.66016 46.5051 6.76836 44.3945 9.36123 44.3945C11.9541 44.3945 14.0647 46.5027 14.0647 49.0956C14.0647 51.6885 11.9541 53.7991 9.36123 53.7991ZM9.36123 44.872C7.03099 44.872 5.13766 46.7677 5.13766 49.0956C5.13766 51.4235 7.03337 53.3192 9.36123 53.3192C11.6915 53.3192 13.5872 51.4235 13.5872 49.0956C13.5872 46.7677 11.6915 44.872 9.36123 44.872Z" fill="white"/>
    <path d="M63.7498 14.9093C63.714 14.8248 63.6304 14.7633 63.5331 14.7625L40.8593 15.227C40.7988 15.2264 40.7369 15.2473 40.692 15.2899C39.5477 16.3373 38.0616 16.8743 36.5125 16.804L36.4618 16.8019C36.3551 16.7972 36.2579 16.8646 36.2222 16.9661C36.1866 17.0676 36.226 17.1793 36.315 17.2412L37.2958 17.9186C37.0309 18.6856 36.4675 19.3169 35.7275 19.6667L34.273 20.3527C33.6924 20.6272 33.0245 20.708 32.3934 20.5847L26.8781 19.4863C26.7553 19.4623 26.6339 19.5346 26.5992 19.6567L25.1988 24.582C25.1088 24.8585 24.8857 25.0865 24.6058 25.1865C24.2707 25.3047 23.9118 25.2365 23.6446 25.0012C23.3773 24.7658 23.2643 24.4181 23.3403 24.0715L24.4503 19.2586L25.7365 13.6115C26.3432 10.9526 28.4521 8.84756 31.1141 8.24793L58.7308 3.78262C58.8611 3.7563 58.9459 3.62871 58.9196 3.49839C58.8933 3.36807 58.7657 3.2832 58.6354 3.30952L31.0143 7.77672C28.1681 8.41762 25.915 10.6649 25.2666 13.5038L23.9804 19.151L22.8682 23.9648C22.7539 24.4873 22.9229 25.0105 23.3232 25.3624C23.7236 25.7143 24.2607 25.8198 24.764 25.6409C25.1854 25.4915 25.5218 25.1474 25.6591 24.7226L27.0021 20.0023L32.2996 21.0566C33.032 21.2026 33.8035 21.1067 34.4788 20.7896L35.9332 20.1035C36.8505 19.6709 37.5353 18.8625 37.8114 17.8865C37.8404 17.7878 37.8006 17.6815 37.7157 17.6231L37.2164 17.279C38.5965 17.185 39.896 16.6405 40.9464 15.7115L63.5242 15.2431C63.6569 15.2472 63.7686 15.1397 63.7705 15.0079C63.7707 14.9711 63.7629 14.9404 63.7498 14.9093Z" fill="#1A1A1A"/>
    <path d="M36.8736 17.147C36.8511 17.0937 36.8107 17.0479 36.7529 17.0226C36.4137 16.8648 36.0855 16.8569 35.7782 16.9974C35.0166 17.3458 34.6763 18.5167 34.6634 18.5667C34.626 18.6951 34.7008 18.8285 34.8283 18.8637C34.9568 18.901 35.0902 18.8262 35.1275 18.6978C35.208 18.4175 35.5164 17.6479 35.9796 17.4362C36.1576 17.3556 36.342 17.3641 36.55 17.4594C36.6707 17.5157 36.8135 17.4632 36.8699 17.3424C36.9009 17.2795 36.899 17.207 36.8736 17.147Z" fill="#1A1A1A"/>
    <path d="M32.3069 17.6075C32.2815 17.5475 32.2317 17.4979 32.1662 17.4732C32.0403 17.4295 31.9022 17.4932 31.8585 17.619C31.76 17.8939 30.9304 20.3169 31.9564 20.8967C32.0733 20.9625 32.2208 20.9211 32.2843 20.8051C32.3501 20.6882 32.3087 20.5407 32.1927 20.4771C31.6626 20.1775 32.0437 18.5335 32.313 17.783C32.3329 17.7248 32.3304 17.6631 32.3069 17.6075Z" fill="#1A1A1A"/>
    <path d="M29.8415 17.321C29.817 17.2632 29.7704 17.2149 29.7049 17.1902C29.5803 17.1433 29.4413 17.2048 29.3944 17.3294C29.2947 17.589 28.4525 19.8707 29.4838 20.4508C29.6007 20.5166 29.7482 20.4752 29.8118 20.3592C29.8776 20.2423 29.8361 20.0948 29.7202 20.0312C29.1941 19.7351 29.577 18.2005 29.8451 17.5029C29.8685 17.4406 29.865 17.3766 29.8415 17.321Z" fill="#1A1A1A"/>
    <path d="M27.2444 16.6349C27.2181 16.5727 27.1683 16.5231 27.0984 16.5002C26.9725 16.4566 26.8363 16.5247 26.7926 16.6506C26.6995 16.9257 25.9104 19.3579 26.9332 19.9363C27.0501 20.0021 27.1976 19.9607 27.2612 19.8447C27.327 19.7278 27.2855 19.5803 27.1695 19.5167C26.6371 19.2181 26.9921 17.5616 27.2497 16.8082C27.2696 16.75 27.267 16.6882 27.2444 16.6349Z" fill="#1A1A1A"/>
  </g>
  <defs>
    <clipPath id="clip0_439_10637">
      <rect width="58" height="58" fill="white"/>
    </clipPath>
  </defs>
</svg>