<svg width="96" height="18" viewBox="0 0 96 18" fill="none" xmlns="http://www.w3.org/2000/svg">
<g clip-path="url(#clip0_200_69352)">
<path fill-rule="evenodd" clip-rule="evenodd" d="M73.9143 4.07669C74.7478 4.07669 75.0928 7.20813 75.1063 9.17267C75.1202 11.0632 74.7038 14.4413 73.8427 14.4413H73.5555C72.5669 14.4413 72.3358 11.3938 72.3217 9.20076C72.3077 7.16618 72.6665 4.07651 73.5858 4.07651L73.9143 4.07669ZM73.6855 0.873047C72.3655 0.873047 71.3034 1.36224 70.3703 3.00827C69.5092 4.50953 69.1504 6.805 69.1504 9.18671C69.1504 11.5684 69.3796 13.8338 70.2271 15.4075C70.9722 16.8367 72.1924 17.6005 73.6855 17.5864C75.3938 17.5726 76.2271 17.0393 77.1599 15.4075C78.0348 13.8477 78.2363 11.5682 78.2363 9.18671C78.2363 6.80518 77.9494 4.55365 77.1443 2.92184C76.3265 1.29004 75.0624 0.873047 73.6852 0.873047M66.6385 4.07669H68.2893C68.4605 4.07669 68.7635 3.84623 68.7635 3.65753L68.7773 1.29004C68.7773 1.1316 68.6481 0.915179 68.4325 0.915179H61.6292C61.4856 0.915179 61.3003 1.07362 61.3003 1.21784V3.65753C61.3003 3.87431 61.5714 4.04842 61.7309 4.04842H63.3657V17.1253C63.3657 17.356 63.5251 17.5445 63.7542 17.5445H66.266C66.4951 17.5445 66.6244 17.3842 66.6244 17.1837L66.6385 4.07669ZM50.263 17.6446L52.3857 17.6167C52.7026 17.6167 52.7885 17.2258 52.7885 17.0092V1.04554H49.6448V7.36838C49.6448 8.50702 48.9273 8.1462 48.8854 7.98775L46.5171 1.50683C46.4732 1.40672 46.3436 1.01745 46.1864 1.01745L43.4154 0.987199V16.9669C43.4154 17.2978 43.4593 17.6588 43.9337 17.6588H46.0289C46.4872 17.6588 46.6608 17.4863 46.6608 17.0092V10.7164C46.6608 10.0951 47.1907 10.3115 47.3483 10.7445L49.6885 16.879C49.7743 17.1257 50.0333 17.6446 50.263 17.6446ZM37.6463 10.7604L41.5215 10.7443C41.6791 10.7443 42.052 10.7443 42.052 10.5279V7.84353C42.052 7.74325 41.8805 7.54087 41.7648 7.54087H37.6463V4.14871H41.7369C41.8944 4.14871 42.1535 4.0486 42.1535 3.87413V1.47856C42.1535 1.24791 41.9383 0.987199 41.765 0.987199H34.762C34.6324 0.987199 34.3592 1.20398 34.3592 1.40636V17.3117C34.3592 17.5002 34.5886 17.7168 34.7481 17.7168H41.6513C41.8366 17.7168 42.024 17.5445 42.024 17.2838V15.0025C42.024 14.8158 41.7369 14.6136 41.6511 14.6136L37.6463 14.6277V10.7604ZM27.7872 12.1457C27.7872 11.3077 28.3753 11.394 28.4888 11.6104L30.3408 17.4141C30.3546 17.5142 30.498 17.7609 30.6715 17.7609H32.896C33.0536 17.7609 33.2111 17.5004 33.2111 17.4141L30.4423 7.87342L32.8384 2.06948C33.0257 1.70884 33.241 1.01709 32.5235 1.01709H30.57C30.4124 1.01709 30.1113 1.31993 30.0835 1.43427L28.7201 4.63971C28.461 5.27529 27.801 5.34731 27.801 4.63971V1.1316H24.8587C24.7572 1.1316 24.6714 1.43445 24.6714 1.46469C24.6714 6.61667 24.6573 11.885 24.6573 17.0531C24.6573 17.3842 25.0601 17.731 25.2037 17.731L27.7571 17.7168L27.7872 12.1457ZM89.7321 12.0434C89.7321 11.2074 90.3201 11.2935 90.4357 11.5103L92.2716 17.3117C92.2856 17.414 92.4451 17.6585 92.6028 17.6585H94.827C94.9989 17.6585 95.1563 17.3997 95.1563 17.3117L92.3873 7.77097L94.7696 1.96956C94.971 1.60873 95.186 0.915179 94.4688 0.915179H92.5167C92.3576 0.915179 92.0566 1.21784 92.0287 1.31993L90.6513 4.52358C90.4062 5.17338 89.7461 5.2454 89.7461 4.52358V1.03149H86.7897C86.7041 1.03149 86.6167 1.31993 86.6167 1.36224C86.6167 6.51656 86.6028 11.7848 86.6028 16.951C86.6028 17.2841 86.9913 17.6309 87.1486 17.6309L89.7024 17.6165L89.7321 12.0434ZM13.333 1.16167H10.2054V17.7029H13.333V1.16167ZM3.63102 10.8747H4.96655C5.72616 10.8747 5.79795 11.5382 5.81191 12.8093C5.82767 14.4973 5.61248 14.7578 4.96655 14.7578H3.63102V10.8747ZM3.61688 4.249H4.83694C5.54051 4.249 5.59655 4.84227 5.61248 5.99711C5.62626 7.52682 5.42522 7.77133 4.83712 7.77133H3.61705L3.61688 4.249ZM0.688726 17.7168H5.52493C7.9647 17.7168 8.91354 15.9847 8.91354 13.5312V12.2901C8.91354 10.6581 8.66863 9.8502 7.74951 9.17267L7.76562 8.83994C8.52487 8.03187 8.71249 7.22416 8.71249 6.41411L8.68242 4.55383C8.65431 2.18616 7.89309 1.18994 5.29578 1.18994H0.818341C0.688726 1.18994 0.501465 1.32011 0.501465 1.45029V17.3999C0.501465 17.5142 0.55929 17.7168 0.688726 17.7168ZM15.4718 17.8331H18.0414C18.171 17.8331 18.2127 17.5726 18.2127 17.428V13.1118C18.2127 12.7231 18.7451 12.765 18.8167 13.1118L20.0785 17.4141C20.1225 17.4863 20.2659 17.803 20.4673 17.803H23.1644C23.294 17.803 23.4236 17.3842 23.3935 17.2978L21.7014 11.4381V10.9188C22.5485 10.5861 23.5231 8.89809 23.5231 7.82949V4.71227C23.5231 1.46451 21.7291 1.14546 19.5901 1.14546H15.4718C15.3286 1.14546 15.1132 1.23369 15.1132 1.37827V17.4863C15.1132 17.6588 15.3284 17.8331 15.4718 17.8331ZM18.1848 8.17609L18.1989 4.27889C18.3144 4.249 18.8586 4.249 18.9743 4.249C20.3239 4.249 20.4813 4.84227 20.4813 6.16978C20.4813 7.98775 20.4953 8.2184 18.8167 8.19031C18.773 8.19031 18.2705 8.17609 18.1848 8.17609ZM54.0523 15.9566C54.0523 16.2013 54.1659 16.4318 54.5245 16.6624C55.041 17.0092 56.0176 17.6588 57.9275 17.731C60.8259 17.8751 61.8882 15.4934 61.8882 13.0398C61.8882 10.7162 60.7102 9.57562 59.275 8.10425C58.2862 7.10785 57.2658 6.38602 57.2658 5.462C57.2658 4.48163 58.4577 3.45534 59.5202 4.78429C59.6916 4.98685 60.3235 5.20327 60.3235 4.56769V2.06984C59.9508 1.57867 58.9021 1.01745 58.0132 1.01745C55.4576 0.987199 54.0224 2.8356 54.0523 5.36171C54.0659 7.41051 55.256 8.75369 56.9228 10.3113C57.8698 11.1774 58.6452 11.8992 58.6452 13.07C58.6452 14.0501 58.0707 14.6995 57.1218 14.6855C56.7078 14.6855 55.2281 13.8196 54.9134 13.5312C54.2517 12.9678 54.0523 13.2865 54.0523 13.7474V15.9566ZM85.3408 16.3898V14.5555C85.3408 13.978 84.7228 14.1084 84.4496 14.3527C83.1302 15.5378 82.5417 12.8534 82.5838 9.1426C82.6139 6.45822 83.1442 3.6154 84.378 4.20687C84.7228 4.36531 85.4124 4.87035 85.4124 4.27889V1.72289C85.1099 1.32011 84.364 0.929403 83.6463 0.929403C81.1065 0.929403 79.4979 3.31094 79.3844 9.25891C79.269 14.5556 80.6043 17.6727 83.3155 17.6309C84.0629 17.6165 85.3408 17.5584 85.3408 16.3898Z" fill="#034EA2"/>
<path fill-rule="evenodd" clip-rule="evenodd" d="M94.1853 8.69688V8.31788H94.4476C94.5625 8.31788 94.7098 8.35083 94.7098 8.51557C94.7098 8.69688 94.5625 8.69688 94.3983 8.69688H94.1853ZM94.1853 8.86163H94.3983L94.726 9.37261H94.9225L94.5788 8.84525C94.7587 8.82886 94.8899 8.72983 94.8899 8.51557C94.8899 8.28493 94.7426 8.18608 94.464 8.18608H94.0218V9.37261H94.1853V8.86163ZM93.5789 8.77935C93.5789 8.28493 93.9397 7.90592 94.415 7.90592C94.8738 7.90592 95.2505 8.28493 95.2505 8.77917C95.2505 9.27341 94.8738 9.65277 94.4148 9.65277C93.9397 9.65277 93.5789 9.27377 93.5789 8.77935ZM94.415 9.8339C94.9721 9.8339 95.4637 9.37261 95.4637 8.77935C95.4637 8.18608 94.9721 7.72461 94.4148 7.72461C93.8412 7.72461 93.3335 8.18608 93.3335 8.77935C93.3335 9.37261 93.8414 9.8339 94.415 9.8339Z" fill="#034EA2"/>
</g>
<defs>
<clipPath id="clip0_200_69352">
<rect width="95" height="17" fill="white" transform="translate(0.5 0.865234)"/>
</clipPath>
</defs>
</svg>
