<svg width="190" height="35" viewBox="0 0 190 35" fill="none" xmlns="http://www.w3.org/2000/svg">
<g clip-path="url(#clip0_4402_17148)">
<path d="M47.8381 2.61921C47.8413 2.07136 47.8413 0.841797 46.9478 0.841797H33.815C32.921 0.841797 32.921 2.07138 32.9242 2.61921C32.9274 3.1345 32.921 4.40089 33.815 4.39716H46.9478C47.8413 4.40089 47.8354 3.1345 47.8381 2.61921Z" fill="#485563"/>
<path d="M47.8382 2.66024C47.8414 2.11239 47.8414 0.882812 46.9478 0.882812H33.815C32.921 0.882812 32.921 2.11239 32.9242 2.66024C32.9274 3.17555 32.921 4.44194 33.815 4.43819H46.9478C47.8413 4.44193 47.8355 3.17553 47.8382 2.66024Z" fill="#485563"/>
<path d="M51.1056 15.8755C50.64 14.3563 49.9422 13.0653 49.0119 12.0017C48.0815 10.9374 46.9187 10.1271 45.5232 9.57021C44.1278 9.01333 42.4911 8.73438 40.6134 8.73438C38.668 8.73438 36.9679 9.04744 35.5132 9.67154C34.0586 10.2963 32.8449 11.1743 31.8719 12.3057C30.899 13.4371 30.1718 14.7835 29.6902 16.3438C29.208 17.9068 28.9668 19.616 28.9668 21.4728C28.9668 23.398 29.1952 25.12 29.6518 26.6387C30.109 28.159 30.8019 29.4505 31.7327 30.5136C32.6625 31.5773 33.826 32.3886 35.2214 32.9456C36.6169 33.5025 38.2541 33.7809 40.1312 33.7809C42.0596 33.7809 43.7554 33.464 45.2186 32.8314C46.6819 32.1981 47.8997 31.3159 48.8727 30.1844C49.8452 29.0541 50.5764 27.7071 51.0672 26.1452C51.5575 24.5844 51.8034 22.8742 51.8034 21.0168C51.8034 19.1097 51.5702 17.3958 51.1056 15.8755ZM47.0542 24.9173C46.781 26.0151 46.3543 26.9598 45.7739 27.7541C45.1935 28.5468 44.4515 29.1634 43.5468 29.6025C42.6421 30.042 41.5752 30.2607 40.3466 30.2607C38.9976 30.2607 37.8715 30.0201 36.9668 29.539C36.0621 29.0578 35.3414 28.4076 34.8037 27.5893C34.266 26.7705 33.882 25.8124 33.6515 24.7146C33.4205 23.6178 33.3063 22.4438 33.3063 21.1944C33.3063 19.8949 33.4467 18.6957 33.7283 17.5985C34.0094 16.5006 34.4404 15.5512 35.0214 14.7488C35.6012 13.9476 36.3395 13.3267 37.2357 12.8882C38.1313 12.4487 39.203 12.23 40.4486 12.23C41.7971 12.23 42.9237 12.4706 43.8284 12.9512C44.7332 13.4323 45.4501 14.0869 45.9793 14.9137C46.5079 15.741 46.8877 16.7034 47.1187 17.8011C47.3491 18.899 47.4643 20.0635 47.4643 21.2957C47.4643 22.6128 47.3273 23.8205 47.0542 24.9173Z" fill="#485563"/>
<path d="M84.2917 33.6111H100.046C100.181 33.6111 100.304 33.5775 100.414 33.5097C100.524 33.4415 100.621 33.3322 100.706 33.1806C100.791 33.0287 100.849 32.8387 100.884 32.6109C100.917 32.3827 100.935 32.1159 100.935 31.8124C100.935 31.4747 100.917 31.192 100.884 30.9637C100.849 30.7359 100.791 30.5508 100.706 30.4068C100.621 30.2638 100.524 30.1582 100.414 30.0905C100.304 30.0233 100.181 29.9891 100.046 29.9891H87.0321V18.2641H98.0443C98.1793 18.2641 98.3004 18.2342 98.4103 18.1756C98.5197 18.1158 98.6125 18.0192 98.6882 17.8843C98.7645 17.7488 98.8195 17.5717 98.8531 17.3519C98.8867 17.1327 98.9037 16.8708 98.9037 16.5672C98.9037 16.2466 98.8867 15.9677 98.8531 15.7308C98.8195 15.495 98.7645 15.3094 98.6882 15.1739C98.6125 15.0394 98.5197 14.9333 98.4103 14.857C98.3004 14.7813 98.1793 14.7434 98.0443 14.7434H87.0321V4.46192H99.8682C100.004 4.46192 100.126 4.42832 100.237 4.36053C100.347 4.29274 100.435 4.18771 100.504 4.04367C100.57 3.90074 100.626 3.71451 100.668 3.48673C100.71 3.25894 100.731 2.99281 100.731 2.6893C100.731 2.3516 100.71 2.06835 100.668 1.84057C100.626 1.61278 100.57 1.42291 100.504 1.27033C100.435 1.11881 100.347 1.00947 100.237 0.941172C100.126 0.87449 100.004 0.839844 99.8682 0.839844H84.2917C83.9023 0.839844 83.5343 0.971059 83.1881 1.23243C82.8408 1.49491 82.668 1.95419 82.668 2.6135V31.8375C82.668 32.4968 82.8408 32.9561 83.1881 33.2186C83.5343 33.4799 83.9023 33.6111 84.2917 33.6111Z" fill="#485563"/>
<path d="M184.428 3.94006C184.351 3.60026 184.211 3.39914 183.963 3.32178V3.29084C184.272 3.19695 184.49 2.98089 184.49 2.68695C184.49 2.45385 184.381 2.25326 184.242 2.14506C184.055 2.02124 183.838 1.94336 183.358 1.94336C182.939 1.94336 182.613 1.99033 182.381 2.03618V4.55986H182.97V3.55325H183.25C183.575 3.55325 183.73 3.6776 183.776 3.95607C183.855 4.25054 183.901 4.46765 183.978 4.55986H184.614C184.552 4.48255 184.507 4.32731 184.428 3.94006ZM183.265 3.1356H182.985V2.4085C183.048 2.39196 183.156 2.37704 183.311 2.37704C183.684 2.37704 183.855 2.5317 183.855 2.76429C183.855 3.0273 183.59 3.1356 183.265 3.1356Z" fill="#485563"/>
<path d="M183.39 0.705078H183.375C181.918 0.705078 180.754 1.83487 180.754 3.24368C180.754 4.6829 181.918 5.79828 183.375 5.79828C184.849 5.79828 185.981 4.6829 185.981 3.24368C185.981 1.83487 184.849 0.705078 183.39 0.705078ZM183.39 5.2718C182.243 5.2718 181.405 4.37352 181.405 3.24368C181.405 2.12933 182.243 1.21553 183.36 1.21553H183.375C184.508 1.21553 185.33 2.12933 185.33 3.24368C185.33 4.37352 184.508 5.28725 183.39 5.2718Z" fill="#485563"/>
<path d="M22.4592 1.03087C22.383 0.92155 22.2688 0.83724 22.1168 0.777514C21.9642 0.718779 21.753 0.668123 21.4825 0.625464C21.2116 0.583863 20.8642 0.5625 20.4418 0.5625C20.0358 0.5625 19.7014 0.583846 19.44 0.625464C19.1776 0.668123 18.962 0.718779 18.7929 0.777514C18.6233 0.83724 18.5092 0.92155 18.45 1.03087C18.3907 1.14126 18.3619 1.25494 18.3619 1.37228V12.567C17.279 11.4361 16.1828 10.5789 15.0754 9.99638C13.9674 9.41386 12.7448 9.12319 11.4096 9.12319C9.80181 9.12319 8.38501 9.42299 7.15865 10.022C5.93224 10.6216 4.90482 11.4778 4.07587 12.5926C3.24693 13.7065 2.62115 15.0534 2.19816 16.6313C1.77515 18.2103 1.56445 19.9792 1.56445 21.9369C1.56445 23.5916 1.73297 25.1658 2.07119 26.66C2.40994 28.1547 2.94716 29.4552 3.68271 30.5605C4.41893 31.6663 5.37856 32.5444 6.56277 33.1946C7.74647 33.8438 9.17612 34.1692 10.8511 34.1692C12.39 34.1692 13.8068 33.8059 15.1005 33.0804C16.3951 32.3544 17.6423 31.3414 18.8437 30.0414V33.0554C18.8437 33.1898 18.8773 33.3082 18.945 33.4096C19.0127 33.511 19.1226 33.5915 19.2746 33.6502C19.4273 33.7093 19.6214 33.7552 19.8582 33.7894C20.0956 33.823 20.3911 33.8401 20.7469 33.8401C21.0846 33.8401 21.3722 33.823 21.609 33.7894C21.8458 33.7552 22.0362 33.7093 22.1803 33.6502C22.3238 33.5915 22.4251 33.511 22.4844 33.4096C22.5441 33.3082 22.5735 33.1898 22.5735 33.0554V1.37228C22.5735 1.25494 22.535 1.14126 22.4592 1.03087ZM18.3619 26.1409C17.7015 26.9683 17.0753 27.6644 16.4837 28.2309C15.891 28.7958 15.325 29.2562 14.7836 29.611C14.2422 29.9651 13.7135 30.218 13.1983 30.3706C12.6819 30.5221 12.1447 30.5984 11.5868 30.5984C10.4868 30.5984 9.57345 30.3412 8.84643 29.8259C8.11879 29.3117 7.53523 28.6278 7.09568 27.7748C6.65556 26.9224 6.34677 25.9473 6.16966 24.8495C5.99201 23.7527 5.90295 22.6293 5.90295 21.4809C5.90295 20.4011 6.00804 19.338 6.22033 18.2908C6.43105 17.2432 6.76979 16.3065 7.23491 15.4791C7.70056 14.6528 8.30446 13.9855 9.04968 13.4793C9.79383 12.9725 10.6986 12.7191 11.7643 12.7191C12.9144 12.7191 14.0181 13.0866 15.0754 13.8206C16.1322 14.5551 17.2284 15.6231 18.3619 17.0239V26.1409Z" fill="#485563"/>
<path d="M156.989 32.3815C156.921 32.1378 156.769 31.7111 156.532 31.1034L153.589 23.886C153.251 23.0586 152.912 22.3156 152.574 21.6573C152.235 20.9991 151.876 20.4165 151.495 19.9098C151.116 19.4036 150.705 18.9688 150.265 18.605C149.825 18.2423 149.335 17.943 148.793 17.7061C149.757 17.3685 150.628 16.9555 151.407 16.4653C152.184 15.9757 152.853 15.3979 153.411 14.7311C153.969 14.0638 154.397 13.2956 154.692 12.4261C154.988 11.5566 155.137 10.5735 155.137 9.47619C155.137 8.34478 154.972 7.30987 154.641 6.37324C154.311 5.43646 153.817 4.60538 153.157 3.87938C152.498 3.15332 151.681 2.55379 150.709 2.08056C149.736 1.60901 148.615 1.26232 147.347 1.04255C146.907 0.991811 146.412 0.945979 145.863 0.903271C145.313 0.861719 144.624 0.839844 143.795 0.839844H136.817C136.427 0.839844 136.06 0.971059 135.714 1.23243C135.366 1.49493 135.193 1.9542 135.193 2.61297V32.9518C135.193 33.0873 135.227 33.2057 135.295 33.3071C135.362 33.4084 135.48 33.4879 135.65 33.5476C135.819 33.6064 136.043 33.6571 136.322 33.6997C136.601 33.7413 136.952 33.7627 137.375 33.7627C137.797 33.7627 138.149 33.7413 138.428 33.6997C138.707 33.6571 138.927 33.6064 139.087 33.5476C139.249 33.4879 139.366 33.4084 139.443 33.3071C139.519 33.2057 139.557 33.0873 139.557 32.9518V18.9976H142.475C143.472 18.9976 144.327 19.1458 145.038 19.4414C145.749 19.7364 146.366 20.1503 146.89 20.6822C147.414 21.214 147.867 21.8472 148.247 22.5807C148.628 23.3163 148.996 24.1218 149.351 25.0004L152.371 32.724C152.438 32.9262 152.518 33.0953 152.612 33.2313C152.704 33.3658 152.836 33.4714 153.005 33.5476C153.175 33.6235 153.398 33.6778 153.678 33.712C153.956 33.7456 154.316 33.7626 154.755 33.7626C155.264 33.7626 155.669 33.7456 155.974 33.712C156.279 33.6778 156.515 33.6272 156.685 33.5599C156.853 33.4927 156.963 33.4084 157.014 33.3071C157.065 33.2057 157.091 33.0873 157.091 32.9518C157.091 32.8169 157.056 32.627 156.989 32.3815ZM146.802 15.0602C145.964 15.3381 144.97 15.4779 143.82 15.4779H139.557V4.43626H143.236C144.099 4.43626 144.797 4.4619 145.33 4.51256C145.863 4.5627 146.34 4.64749 146.763 4.76543C148.116 5.15372 149.081 5.79123 149.655 6.67727C150.231 7.56332 150.519 8.64883 150.519 9.93174C150.519 10.725 150.388 11.46 150.125 12.1349C149.863 12.8102 149.453 13.397 148.894 13.8946C148.336 14.3929 147.639 14.7813 146.802 15.0602Z" fill="#485563"/>
<path d="M188.219 32.066L177.207 1.62527C177.14 1.43917 177.046 1.28288 176.929 1.15642C176.81 1.02943 176.64 0.93293 176.421 0.865158C176.201 0.797948 175.914 0.750993 175.557 0.72593C175.203 0.700321 174.754 0.6875 174.213 0.6875C173.705 0.6875 173.287 0.700337 172.957 0.72593C172.628 0.750977 172.356 0.797948 172.146 0.865158C171.933 0.932914 171.773 1.02625 171.663 1.14365C171.553 1.26204 171.464 1.41404 171.397 1.59975L160.384 32.0404C160.249 32.4117 160.178 32.7121 160.169 32.9398C160.16 33.1676 160.219 33.3404 160.346 33.4588C160.473 33.5773 160.693 33.6568 161.007 33.6994C161.319 33.741 161.721 33.7624 162.212 33.7624C162.684 33.7624 163.07 33.7453 163.366 33.7117C163.662 33.6775 163.891 33.6232 164.051 33.5474C164.211 33.4711 164.334 33.3783 164.419 33.2684C164.503 33.1595 164.571 33.0284 164.622 32.8763L167.312 25.0001H180.963L183.779 32.9777C183.846 33.1297 183.919 33.2562 183.994 33.3575C184.071 33.4588 184.19 33.5388 184.35 33.5981C184.51 33.6568 184.748 33.6994 185.06 33.7245C185.374 33.7496 185.792 33.7624 186.317 33.7624C186.841 33.7624 187.259 33.7453 187.573 33.7117C187.885 33.6776 188.109 33.6023 188.245 33.484C188.38 33.3655 188.443 33.1926 188.435 32.9648C188.426 32.7371 188.355 32.4367 188.219 32.066ZM168.402 21.5301L174.061 5.19564H174.086L179.821 21.5301H168.402Z" fill="#485563"/>
<path d="M129.202 32.3826C129.136 32.1378 128.983 31.7111 128.746 31.1034L125.803 23.886C125.464 23.0586 125.126 22.3161 124.789 21.6578C124.45 20.9991 124.09 20.4165 123.709 19.9098C123.329 19.4036 122.918 18.9688 122.479 18.606C122.039 18.2423 121.548 17.943 121.008 17.7061C121.971 17.3685 122.843 16.9555 123.621 16.4653C124.399 15.9757 125.068 15.3979 125.625 14.7311C126.184 14.0643 126.61 13.2956 126.907 12.4261C127.202 11.5566 127.351 10.5741 127.351 9.47619C127.351 8.34536 127.186 7.31098 126.856 6.37324C126.527 5.43646 126.031 4.60538 125.372 3.87938C124.712 3.15332 123.896 2.55432 122.923 2.08109C121.95 1.60901 120.83 1.26232 119.561 1.04255C119.121 0.991811 118.626 0.945979 118.077 0.903271C117.526 0.861719 116.837 0.839844 116.009 0.839844H109.028C108.638 0.839844 108.271 0.971059 107.924 1.23243C107.577 1.49493 107.404 1.9542 107.404 2.6135V32.9529C107.404 33.0873 107.438 33.2057 107.506 33.3071C107.573 33.4084 107.692 33.489 107.861 33.5477C108.03 33.6064 108.254 33.6571 108.533 33.6997C108.813 33.7413 109.163 33.7627 109.586 33.7627C110.008 33.7627 110.362 33.7413 110.643 33.6997C110.922 33.6571 111.141 33.6064 111.302 33.5477C111.462 33.489 111.581 33.4084 111.657 33.3071C111.733 33.2057 111.772 33.0873 111.772 32.9529V18.9987H114.689C115.687 18.9987 116.542 19.1458 117.252 19.4414C117.963 19.7375 118.579 20.1503 119.104 20.6822C119.629 21.214 120.081 21.8477 120.462 22.5823C120.843 23.3163 121.211 24.1229 121.566 25.0004L124.585 32.7246C124.653 32.9273 124.733 33.0964 124.826 33.2313C124.919 33.3658 125.051 33.4714 125.22 33.5477C125.388 33.6235 125.613 33.6778 125.892 33.712C126.171 33.7456 126.53 33.7627 126.97 33.7627C127.478 33.7627 127.884 33.7456 128.188 33.712C128.492 33.6778 128.729 33.6272 128.898 33.5599C129.067 33.4927 129.177 33.4084 129.228 33.3071C129.279 33.2057 129.304 33.0873 129.304 32.9529C129.304 32.8179 129.27 32.627 129.202 32.3826ZM119.015 15.0603C118.178 15.3382 117.184 15.4779 116.034 15.4779H111.772V4.43626H115.451C116.313 4.43626 117.011 4.4619 117.544 4.51256C118.077 4.5627 118.554 4.64801 118.977 4.76543C120.331 5.1543 121.295 5.79123 121.87 6.6778C122.445 7.56385 122.733 8.64883 122.733 9.93174C122.733 10.7261 122.601 11.46 122.34 12.1354C122.077 12.8107 121.667 13.3975 121.109 13.8952C120.551 14.3934 119.853 14.7813 119.015 15.0603Z" fill="#485563"/>
<path d="M77.3632 1.27033C77.2874 1.11881 77.1941 1.00947 77.0847 0.941172C76.9738 0.87449 76.8521 0.839844 76.7162 0.839844H53.8801C53.7446 0.839844 53.6224 0.87449 53.5121 0.941172C53.4022 1.00947 53.3136 1.11881 53.2459 1.27033C53.1787 1.42238 53.1232 1.62132 53.081 1.86563C53.0389 2.11046 53.0176 2.39373 53.0176 2.71481C53.0176 3.03545 53.0389 3.3144 53.081 3.55027C53.1232 3.78651 53.1787 3.97698 53.2459 4.1199C53.3136 4.26343 53.4022 4.36956 53.5121 4.43625C53.6225 4.50397 53.7446 4.53764 53.8801 4.53764H63.1161V32.9529C63.1161 33.0873 63.1502 33.2057 63.218 33.3071C63.2852 33.4085 63.4041 33.489 63.5727 33.5477C63.7418 33.6064 63.9701 33.6571 64.2582 33.6997C64.5451 33.7413 64.8924 33.7627 65.2984 33.7627C65.7209 33.7627 66.0724 33.7413 66.3513 33.6997C66.6309 33.6571 66.8544 33.6064 67.0241 33.5477C67.1927 33.489 67.311 33.4085 67.3793 33.3071C67.4465 33.2057 67.4807 33.0873 67.4807 32.9529V4.53766H76.7162C76.8521 4.53766 76.9738 4.50399 77.0847 4.43626C77.1941 4.36958 77.2875 4.26345 77.3632 4.11992C77.44 3.97699 77.4945 3.78653 77.5286 3.55028C77.5622 3.31444 77.5792 3.03547 77.5792 2.71483C77.5792 2.39373 77.5622 2.11048 77.5286 1.86565C77.4945 1.62132 77.44 1.42238 77.3632 1.27033Z" fill="#485563"/>
</g>
<defs>
<clipPath id="clip0_4402_17148">
<rect width="190" height="34.6957" fill="white"/>
</clipPath>
</defs>
</svg>
