<svg width="151" height="75" viewBox="0 0 151 75" fill="none" xmlns="http://www.w3.org/2000/svg">
<path d="M84.8938 9.92188H62.5039V28.7089H84.8938V9.92188Z" stroke="black" stroke-width="1.73994" stroke-miterlimit="2.6131"/>
<path fill-rule="evenodd" clip-rule="evenodd" d="M68.1959 23.2952C71.2943 24.6501 75.8567 24.5209 78.2672 23.2885C78.3215 23.1729 78.3424 23.5744 78.3348 23.6085C78.0831 25.0317 73.5823 26.019 69.9593 25.0929C68.8494 24.725 68.0936 24.2076 68.1959 23.2952ZM65.3359 17.2076C65.1793 17.1804 65.0772 17.2486 65.0839 17.4255C65.1657 20.4901 66.5548 21.9812 67.9916 22.8255C70.9469 24.3238 75.2098 24.3646 78.349 22.8053C80.5688 21.5725 81.631 19.5641 82.0532 17.3032C82.0391 17.1264 81.8963 17.2761 81.7333 17.3307C80.6092 17.7666 78.9615 18.4608 77.2865 18.5903C74.0384 18.91 68.2843 18.9305 65.3359 17.2076ZM66.9973 16.0364C69.3465 15.2124 72.9693 14.9673 74.6852 15.0557C74.8078 15.0557 75.9925 15.0829 75.7477 15.219C74.0586 16.002 73.9768 16.1384 71.5053 17.4252C70.8446 17.3506 66.5481 17.2006 66.9973 16.0364ZM72.1045 17.4322C74.9647 16.1726 77.7565 14.0753 80.6575 12.7747C81.3044 12.4203 81.7125 13.4351 81.5223 13.6395C80.0037 14.8037 77.4362 16.2474 75.7613 17.3573C75.6318 17.4663 72.8401 17.5073 72.1045 17.4322ZM81.9784 13.2649C81.7333 12.938 81.6515 12.6998 81.3246 12.4068C81.161 12.2163 81.2838 11.6986 81.8694 11.8483C82.557 12.155 82.7547 12.7337 82.6252 13.2033C82.4825 13.3398 82.2368 13.4964 81.9784 13.2649ZM76.4556 17.3983C78.8592 15.7367 79.0976 15.73 79.2066 15.6754C79.5199 15.791 79.9968 16.1249 79.9765 16.411C80.0239 16.8125 77.2455 17.2689 76.4556 17.3983ZM76.9802 14.1979C77.4565 14.2115 76.6261 14.6202 76.279 14.8245C74.828 14.6135 68.7679 14.7494 66.6161 15.941C66.4322 16.4587 66.4935 16.4653 66.9496 16.874C70.5723 18.1544 77.4293 17.8955 79.6219 17.1055C81.6107 16.3905 79.295 15.056 79.3768 15.4167C79.4314 15.3624 80.1326 14.9673 80.2485 14.8517C80.5685 14.845 81.1885 15.4101 81.4604 15.6075C82.2848 16.1931 82.0188 16.6359 81.1133 17.1261C79.9352 17.5822 79.0433 17.8614 77.8108 18.0932C76.7619 18.2836 72.1449 18.6446 69.224 18.0591C67.5421 17.7255 65.2949 17.2691 65.1588 16.3974C65.07 15.8254 65.5877 15.4034 66.003 15.1922C66.6091 14.8858 67.4398 14.7225 68.2161 14.5317C70.5177 13.9594 74.6581 13.7143 76.9802 14.1979ZM78.5736 23.949C78.6759 23.629 78.7097 23.3293 78.7502 23.0093C80.4798 21.9879 82.2298 19.414 82.5296 17.194C82.5634 16.091 82.298 15.5052 81.3995 15.0014C81.0659 14.8245 80.7592 14.5791 80.8066 14.5178C81.1335 14.3069 81.4604 14.0071 81.8076 13.8299C81.8894 13.7276 82.1689 13.8505 82.3732 13.8299C82.9992 13.7823 83.0946 13.3464 83.088 12.8903C83.0677 12.1958 82.414 11.433 81.6107 11.4535C81.3786 11.4602 81.0113 11.6374 80.9159 11.8348C80.8069 12.0527 80.7595 12.0593 80.7867 12.2637C80.1873 12.7744 78.4716 13.5166 77.6611 13.9048C77.6001 13.9661 77.3206 13.9048 77.2253 13.9115C75.7547 13.6869 74.515 13.7138 72.956 13.7482C72.016 13.7684 70.9744 13.8094 70.0006 13.925C68.9656 14.0476 67.8557 14.3407 66.7935 14.5924C64.8937 15.1303 64.8186 15.7774 64.6758 17.1122C64.7099 20.2785 65.9559 22.1101 67.7673 23.1452C67.6719 23.6151 68.0872 24.3302 68.5913 24.6912C70.7902 26.2436 77.0276 26.0124 78.5736 23.949Z" fill="black"/>
<path d="M68.1959 23.2952C71.2943 24.6501 75.8567 24.5209 78.2672 23.2885C78.3215 23.1729 78.3424 23.5744 78.3348 23.6085C78.0831 25.0317 73.5823 26.019 69.9593 25.0929C68.8494 24.725 68.0936 24.2076 68.1959 23.2952ZM65.3359 17.2076C65.1793 17.1804 65.0772 17.2486 65.0839 17.4255C65.1657 20.4901 66.5548 21.9812 67.9916 22.8255C70.9469 24.3238 75.2098 24.3646 78.349 22.8053C80.5688 21.5725 81.631 19.5641 82.0532 17.3032C82.0391 17.1264 81.8963 17.2761 81.7333 17.3307C80.6092 17.7666 78.9615 18.4608 77.2865 18.5903C74.0384 18.91 68.2843 18.9236 65.3359 17.2076ZM66.9973 16.0364C69.3465 15.2057 72.9693 14.9673 74.6922 15.0557C74.8078 15.0557 75.9928 15.0829 75.7477 15.219C74.0586 16.002 73.9768 16.1384 71.5053 17.4252C70.8446 17.3506 66.5481 17.2006 66.9973 16.0364ZM72.1045 17.4322C74.9647 16.1726 77.7565 14.0753 80.6575 12.7747C81.3044 12.4203 81.7125 13.4351 81.5223 13.6395C80.0037 14.8037 77.4362 16.2474 75.7613 17.3573C75.6318 17.4663 72.8401 17.5073 72.1045 17.4322ZM81.9784 13.2649C81.7333 12.938 81.6515 12.6998 81.3246 12.4068C81.161 12.2163 81.2838 11.6986 81.8694 11.8483C82.557 12.155 82.7547 12.7337 82.6252 13.2033C82.4825 13.3398 82.2368 13.4964 81.9784 13.2649ZM76.4556 17.3983C78.8661 15.7367 79.0976 15.73 79.2066 15.6754C79.5199 15.791 79.9968 16.1249 79.9765 16.411C80.0239 16.8125 77.2455 17.2689 76.4556 17.3983ZM76.9802 14.1979C77.4565 14.2115 76.6261 14.6202 76.279 14.8245C74.828 14.6135 68.7679 14.7494 66.6161 15.941C66.4322 16.4587 66.4935 16.4653 66.9496 16.874C70.5723 18.1544 77.4293 17.8955 79.6219 17.1055C81.6107 16.3905 79.295 15.056 79.3768 15.4167C79.4314 15.3624 80.1326 14.9673 80.2485 14.8517C80.5685 14.845 81.1885 15.4101 81.4604 15.6075C82.2848 16.1931 82.0188 16.6359 81.12 17.1261C79.9349 17.5822 79.043 17.8614 77.8108 18.0932C76.7619 18.2836 72.1449 18.6446 69.224 18.0591C67.5421 17.7255 65.2949 17.2691 65.1588 16.3974C65.07 15.8188 65.5877 15.4034 66.003 15.1922C66.6091 14.8858 67.4398 14.7225 68.2161 14.5317C70.5177 13.9594 74.6581 13.7143 76.9802 14.1979ZM78.5736 23.949C78.6759 23.629 78.7097 23.3293 78.7502 23.0093C80.4798 21.9879 82.2298 19.414 82.5296 17.194C82.5634 16.091 82.298 15.5052 81.3994 15.0014C81.0659 14.8245 80.7592 14.5791 80.8066 14.5178C81.1335 14.3069 81.4604 14.0071 81.8076 13.8299C81.8894 13.7276 82.1689 13.8438 82.3732 13.8299C82.9992 13.7823 83.0946 13.3464 83.088 12.8903C83.0677 12.1958 82.414 11.433 81.6107 11.4535C81.3786 11.4602 81.0113 11.6374 80.9159 11.8348C80.8069 12.0527 80.7595 12.0593 80.7867 12.2637C80.1873 12.7744 78.4716 13.5166 77.6611 13.9048C77.6001 13.9661 77.3206 13.9048 77.2253 13.9115C75.7547 13.6869 74.515 13.7138 72.956 13.7482C72.023 13.7684 70.9744 13.8094 70.0006 13.925C68.9656 14.0476 67.8557 14.3407 66.7935 14.5924C64.8937 15.1303 64.8186 15.7774 64.6758 17.1122C64.7099 20.2785 65.9559 22.1101 67.7673 23.1452C67.6719 23.6151 68.0872 24.3302 68.5913 24.6912C70.7902 26.2436 77.0276 26.0124 78.5736 23.949Z" stroke="black" stroke-width="0.176165" stroke-miterlimit="2.6131"/>
<path d="M70.6973 20.9186C73.2237 21.3614 75.4776 20.1697 77.7384 20.1084" stroke="black" stroke-width="0.439328" stroke-miterlimit="2.6131"/>
<path d="M73.9456 20.8779C74.0612 21.4907 73.7074 22.0557 72.8695 22.2193C72.7334 22.5737 73.782 22.9275 74.2453 23.2818" stroke="black" stroke-width="0.439328" stroke-miterlimit="2.6131"/>
<path d="M75.8575 21.0488C74.8699 21.5526 75.4147 22.8943 76.5113 21.9951L76.872 21.2121C80.7876 20.5855 76.6203 25.8153 72.5684 23.8472" stroke="black" stroke-width="0.439328" stroke-miterlimit="2.6131"/>
<path d="M68.75 22.2187L70.5408 21.9395C69.0835 22.8178 70.3842 23.417 71.3172 23.0086" stroke="black" stroke-width="0.439328" stroke-miterlimit="2.6131"/>
<path d="M71.4297 21.1016V23.8456" stroke="black" stroke-width="0.439328" stroke-miterlimit="2.6131"/>
<path d="M76.6992 20.374V22.8938" stroke="black" stroke-width="0.439328" stroke-miterlimit="2.6131"/>
<path d="M88.5515 6.63227H89.1984C89.505 6.63227 89.716 6.58458 89.8316 6.49614C89.9406 6.40075 90.0022 6.28514 90.0022 6.12849C90.0022 6.03311 89.9744 5.94466 89.9134 5.86951C89.8655 5.78801 89.7909 5.73338 89.6889 5.69263C89.5935 5.65852 89.4163 5.63829 89.151 5.63829H88.5515V6.63227ZM88.0136 8.49797V5.18884H89.1513C89.5391 5.18884 89.8186 5.21601 89.9952 5.27729C90.1658 5.33856 90.3086 5.44753 90.4109 5.59725C90.5132 5.7539 90.5678 5.9172 90.5678 6.08744C90.5678 6.3259 90.4791 6.53689 90.3088 6.71407C90.1322 6.89095 89.9074 6.99327 89.6212 7.02044C89.7368 7.06813 89.8322 7.12276 89.9007 7.19068C90.0299 7.3271 90.1999 7.54503 90.3906 7.85141L90.7927 8.49797H90.1389L89.8458 7.97396C89.6143 7.56526 89.4302 7.30658 89.2874 7.20455C89.192 7.1294 89.0492 7.09559 88.8585 7.09559H88.5518V8.49826L88.0136 8.49797ZM89.3623 4.22839C88.9333 4.22839 88.5111 4.344 88.1024 4.56193C87.6937 4.78651 87.3737 5.09982 87.1422 5.50851C86.9107 5.92385 86.7951 6.35278 86.7951 6.80222C86.7951 7.23808 86.9107 7.667 87.1356 8.06905C87.3601 8.47745 87.6804 8.79076 88.0891 9.02227C88.4978 9.24685 88.92 9.36275 89.3625 9.36275C89.8051 9.36275 90.2343 9.24714 90.6354 9.02227C91.0441 8.79076 91.3641 8.47745 91.589 8.06905C91.8135 7.667 91.9225 7.23808 91.9225 6.80222C91.9225 6.35278 91.8069 5.92385 91.582 5.50851C91.3505 5.09982 91.0305 4.78651 90.6219 4.56193C90.2129 4.34429 89.7912 4.22839 89.3623 4.22839ZM89.3623 3.72461C89.8793 3.72461 90.3834 3.85381 90.8739 4.11943C91.3638 4.38505 91.7456 4.75963 92.0242 5.25677C92.2968 5.74696 92.4329 6.26433 92.4329 6.80251C92.4329 7.32681 92.2968 7.83753 92.0309 8.32773C91.7589 8.81793 91.3771 9.19251 90.8938 9.46507C90.4034 9.73734 89.8929 9.87376 89.3617 9.87376C88.8304 9.87376 88.3197 9.73734 87.8295 9.46507C87.3457 9.1928 86.9647 8.81822 86.6919 8.32773C86.4199 7.83753 86.2832 7.32681 86.2832 6.80251C86.2832 6.26462 86.4199 5.74725 86.6988 5.25677C86.9714 4.75963 87.3593 4.38505 87.8498 4.11943C88.3405 3.85381 88.8446 3.72461 89.3623 3.72461Z" fill="black"/>
<path d="M45.1754 32.1406H100.209C105.507 32.1406 109.832 36.3695 109.832 41.5379C109.832 46.7064 105.507 50.9419 100.209 50.9419H45.1754C39.8774 50.9419 35.5469 46.7064 35.5469 41.5379C35.5469 36.3695 39.8774 32.1406 45.1754 32.1406Z" stroke="black" stroke-width="1.74604" stroke-miterlimit="2.6131"/>
<path fill-rule="evenodd" clip-rule="evenodd" d="M93.3984 47.7541H97.1434L98.09 44.8398C98.2261 44.4924 98.4169 44.4854 98.5868 44.6218C99.1863 45.0915 100.405 47.5905 101.147 47.7815C102.039 48.0197 102.911 47.8223 103.367 47.5226C104.089 47.046 104.681 45.6092 104.28 45.3979C104.014 45.2071 103.762 45.8881 103.142 45.3502C102.829 45.0779 101.27 43.042 101.195 42.8102C101.066 42.6264 100.875 42.5038 100.984 42.3677C101.331 41.9318 101.89 41.3532 102.128 41.5168C102.748 41.9526 103.408 41.9865 103.851 41.9526C104.354 41.9049 104.811 41.5642 105.022 41.0538C105.417 40.1343 104.627 39.2219 103.333 39.3447C102.864 39.3924 102.305 39.6306 101.856 40.1343L99.3774 42.4223C98.7236 42.6813 98.8869 42.4902 98.9415 42.2521L99.4178 40.5361L100.732 36.0758C100.807 35.8373 100.705 35.7012 100.405 35.7012H96.4356C95.9997 35.7012 96.0809 36.0416 96.1899 36.1096C96.7894 36.4706 97.0209 37.1585 96.8712 37.6146L93.3984 47.7541Z" fill="black"/>
<path fill-rule="evenodd" clip-rule="evenodd" d="M76.6629 47.7543C77.2759 45.875 77.8343 44.0296 78.3722 42.1569C78.6309 41.6329 78.9306 41.6598 78.9916 41.8575C79.4755 43.5122 81.0758 43.8388 82.1039 42.9879C83.3158 41.9936 82.7577 39.5762 80.9056 39.5762C80.1024 39.5762 79.6388 39.8077 78.9243 40.23C78.9445 40.1412 78.9717 40.0461 78.9994 39.9508C79.0671 39.7054 78.965 39.5762 78.6653 39.5762H74.7018C74.266 39.5762 74.3477 39.9167 74.4567 39.9846C75.0556 40.3456 75.2871 41.0335 75.1374 41.4896L72.9922 47.7543H76.6629Z" fill="black"/>
<path fill-rule="evenodd" clip-rule="evenodd" d="M50.0586 47.7548H53.7969L55.3904 42.8655C55.6424 42.1302 55.8739 42.0759 56.65 41.8238C57.2832 41.6195 57.5012 42.0759 57.3581 42.682C57.1402 43.615 56.7384 44.9497 56.6635 45.331C56.4526 46.4067 56.861 47.5235 57.8824 47.7551C58.7949 47.9594 59.5507 47.8981 60.0478 47.5574C60.4019 47.3123 60.7967 46.7131 60.8036 46.3385C60.8103 46.1206 60.6877 46.0795 60.5516 46.0795C60.4767 46.0862 60.2793 46.216 60.0409 46.0934C59.9386 46.0391 59.8637 45.9434 59.8776 45.6778C60.2111 44.3907 60.5244 43.104 60.8649 41.8169C60.9805 41.3403 61.3213 40.0396 60.2386 39.6515C59.1695 39.3246 58.4613 39.6177 57.3243 40.1214C56.8341 40.3394 55.9693 41.0611 56.1392 40.5709L57.3922 36.0767C57.4604 35.8383 57.3581 35.7021 57.0587 35.7021H53.0957C52.6599 35.7021 52.7347 36.0426 52.8506 36.1105C53.4498 36.4715 53.6813 37.1594 53.5316 37.6155L50.0586 47.7548Z" fill="black"/>
<path fill-rule="evenodd" clip-rule="evenodd" d="M40.6271 43.2399C40.7497 45.5076 41.6145 47.2846 43.7186 47.7069C46.0679 48.1702 48.0359 47.2915 49.1458 45.6709C49.3637 45.3099 48.9891 45.0105 48.7235 45.2689C48.0972 46.1678 46.9327 47.0259 45.1962 46.7672C43.9227 46.5765 43.8955 45.9909 44.2155 44.6085C44.7669 42.2254 45.4207 40.6114 46.3673 38.2688C46.7826 37.1248 47.457 36.4303 48.6142 36.8049C49.2273 37.0092 50.6366 38.3165 50.8545 38.8547C50.9907 39.1882 51.2291 38.9908 51.2291 38.9839L51.2225 35.7358C50.8479 35.4907 50.6164 36.5124 50.1464 36.4849C45.1964 33.2096 40.3685 38.3781 40.6271 43.2399Z" fill="black"/>
<path fill-rule="evenodd" clip-rule="evenodd" d="M88.0111 45.3859C87.8955 45.733 87.5955 46.0735 87.3371 46.1891C86.4518 46.6114 85.2873 46.4209 85.5734 45.3651C85.9003 44.1327 86.2746 42.9956 86.6969 41.8106C87.0035 40.5099 88.2701 40.0198 88.8828 41.1568C89.3597 42.0355 88.379 44.5142 88.0111 45.3859ZM87.9501 46.625C88.1201 47.1629 88.7129 47.6328 89.2982 47.7895C90.2381 47.98 90.9939 47.8233 91.4636 47.4898C92.0625 47.0675 92.3969 46.1825 92.0766 46.0868C91.8176 46.1143 91.5387 46.2299 91.3748 46.1279C91.1772 46.0599 91.2592 45.801 91.2795 45.6784C91.613 44.3914 92.0489 43.1046 92.3824 41.8175L92.9414 39.8972C92.9957 39.6793 92.846 39.5772 92.5937 39.5772H89.9788L89.6317 40.592C89.373 40.3536 88.8421 39.2232 86.4992 39.5501C83.9323 40.0677 82.3732 43.3907 83.0877 46.1417C83.4077 46.8909 83.9525 47.599 84.8106 47.7557C86.6359 48.0823 87.5819 47.0406 87.9501 46.625Z" fill="black"/>
<path fill-rule="evenodd" clip-rule="evenodd" d="M67.586 45.3859C67.4701 45.733 67.1637 46.0735 66.9117 46.1891C66.0197 46.6114 64.8621 46.4209 65.148 45.3651C65.4749 44.1327 65.8495 42.9956 66.2715 41.8106C66.5712 40.5099 67.8444 40.0198 68.4574 41.1568C68.934 42.0355 67.9536 44.5142 67.586 45.3859ZM67.5244 46.625C67.6877 47.1629 68.2872 47.6328 68.8727 47.7895C69.8057 47.98 70.5682 47.8233 71.0312 47.4898C71.6307 47.0675 71.9709 46.1825 71.6509 46.0868C71.3853 46.1143 71.113 46.2299 70.9428 46.1279C70.752 46.0599 70.8338 45.801 70.8544 45.6784C71.1879 44.3914 71.624 43.1046 71.9576 41.8175L72.5091 39.8972C72.5634 39.6793 72.4203 39.5772 72.1686 39.5772H69.5537L69.1996 40.592C68.9407 40.3536 68.4167 39.2232 66.0741 39.5501C63.5069 40.0677 61.9406 43.3907 62.6626 46.1417C62.9756 46.8909 63.5205 47.599 64.3786 47.7557C66.2035 48.0823 67.1568 47.0406 67.5244 46.625Z" fill="black"/>
<path fill-rule="evenodd" clip-rule="evenodd" d="M142.802 63.5453H142.775C142.053 64.1581 141.522 64.6006 141.174 64.8526C140.834 65.1116 140.596 65.2408 140.46 65.2408C140.167 65.1182 139.935 64.9139 139.758 64.6211C139.574 64.328 139.479 63.9945 139.465 63.6268C139.465 62.66 140.017 61.6932 141.12 60.7192C141.399 60.5012 141.596 60.3446 141.719 60.2631C141.835 60.1879 141.957 60.1475 142.073 60.1475C142.216 60.1475 142.353 60.2154 142.475 60.3515C142.604 60.4879 142.666 60.6238 142.666 60.7804C142.666 60.8758 142.646 60.9573 142.604 61.0325C142.421 61.3388 142.135 61.6929 141.753 62.1013C141.365 62.51 141.052 62.8094 140.814 62.9936C140.705 63.082 140.623 63.2181 140.555 63.4158C140.494 63.6063 140.46 63.7563 140.46 63.8517C140.46 63.8583 140.487 63.8789 140.541 63.906C140.705 63.8922 140.93 63.7971 141.229 63.6338C141.529 63.4632 141.801 63.2525 142.053 62.9936C142.442 62.6054 142.755 62.3057 142.973 62.0877C143.197 61.8698 143.476 61.5975 143.803 61.2773C144.13 60.9504 144.362 60.7325 144.484 60.6099C144.654 60.4466 144.791 60.3717 144.9 60.3717C145.022 60.3717 145.11 60.4466 145.165 60.6033C145.22 60.7599 145.254 60.9099 145.254 61.0594C145.254 61.3183 145.084 61.7131 144.75 62.2374L142.694 65.3495L142.721 65.3836L145.724 62.619L145.853 63.1363C145.717 63.293 145.37 63.695 144.798 64.3419C144.226 64.9957 143.749 65.5402 143.354 65.983C142.966 66.4325 142.578 66.875 142.19 67.3175C141.809 67.7533 141.502 68.121 141.257 68.4002C141.202 68.4545 141.142 68.4889 141.073 68.4889C140.978 68.4889 140.889 68.4002 140.801 68.2369C140.713 68.0736 140.664 67.8759 140.651 67.658C140.685 67.4472 140.733 67.2631 140.814 67.1065L142.802 63.5453Z" fill="black"/>
<path fill-rule="evenodd" clip-rule="evenodd" d="M90.4166 63.485C90.5533 63.5122 90.6412 63.5529 90.6961 63.6076C90.7504 63.6688 90.7779 63.7576 90.7779 63.8798C90.7779 64.2475 90.6689 64.6154 90.451 64.9761C90.2331 65.3371 89.9536 65.5209 89.6267 65.5209C89.1157 65.5209 88.837 65.3305 88.7891 64.9423C88.837 64.5611 88.9732 64.2137 89.1911 63.9003C89.409 63.5873 89.6816 63.4307 90.0154 63.4307C90.1033 63.4307 90.24 63.444 90.4166 63.485Z" fill="black"/>
<path fill-rule="evenodd" clip-rule="evenodd" d="M86.3736 63.485C86.5028 63.5122 86.5916 63.5529 86.6462 63.6076C86.7072 63.6688 86.7349 63.7576 86.7349 63.8798C86.7349 64.2475 86.6187 64.6154 86.408 64.9761C86.1829 65.3371 85.9106 65.5209 85.5771 65.5209C85.0661 65.5209 84.7941 65.3305 84.7461 64.9423C84.7941 64.5611 84.9302 64.2137 85.1481 63.9003C85.3591 63.5873 85.638 63.4307 85.9649 63.4307C86.0537 63.4307 86.1901 63.444 86.3736 63.485Z" fill="black"/>
<path fill-rule="evenodd" clip-rule="evenodd" d="M82.3209 63.485C82.457 63.5122 82.5455 63.5529 82.6004 63.6076C82.6547 63.6688 82.6816 63.7576 82.6816 63.8798C82.6816 64.2475 82.5726 64.6154 82.3547 64.9761C82.1368 65.3371 81.8579 65.5209 81.531 65.5209C81.02 65.5209 80.7413 65.3305 80.6934 64.9423C80.748 64.5611 80.8775 64.2137 81.0954 63.9003C81.3133 63.5873 81.5853 63.4307 81.9191 63.4307C82.0076 63.4307 82.1437 63.444 82.3209 63.485Z" fill="black"/>
<path fill-rule="evenodd" clip-rule="evenodd" d="M77.6402 62.122L77.6131 62.0945C77.3815 62.1558 77.109 62.2174 76.7957 62.2853C76.4757 62.3532 76.2786 62.3943 76.217 62.4214C76.0878 62.6258 75.9583 62.8096 75.815 62.9729C75.6722 63.1296 75.4543 63.3406 75.1681 63.6062C74.8826 63.8651 74.6849 64.0487 74.5895 64.1441L74.5352 63.5449C74.8074 63.3134 75.1071 62.9729 75.434 62.5032C75.182 62.5032 75.0592 62.3737 75.0592 62.122C75.0592 61.8289 75.1956 61.4818 75.4679 61.0936C75.7404 60.7054 76.0945 60.3786 76.537 60.1129C76.646 60.0788 76.7347 60.0586 76.7957 60.0586C76.9324 60.0586 77.0067 60.1473 77.0067 60.3106C77.0067 60.4127 76.9728 60.5421 76.9043 60.6919C77.1838 60.6508 77.4766 60.6167 77.7761 60.576C78.0691 60.5286 78.2937 60.5011 78.4434 60.4809C78.5937 60.4603 78.7094 60.4534 78.7981 60.4534C78.9816 60.4534 79.118 60.5488 79.1996 60.7465C79.2813 60.937 79.3227 61.1482 79.3227 61.3795C79.3227 61.509 79.3154 61.5974 79.2949 61.6315C79.2747 61.6994 79.1588 61.8289 78.9409 62.0333C78.7229 62.2443 78.5524 62.4078 78.4299 62.5304C78.3073 62.646 78.1848 62.8027 78.0556 62.9937C77.8714 63.3478 77.7694 63.6065 77.7489 63.7631C77.7761 63.8992 77.8171 63.9877 77.885 64.049C77.9397 64.1033 78.0353 64.1443 78.1645 64.1715C78.505 64.1513 79.1383 63.7221 80.0438 62.8778L80.1325 63.4157C79.5473 64.0897 79.0024 64.614 78.4914 64.9883C77.9873 65.3629 77.6061 65.5603 77.3471 65.5808C77.1156 65.5808 76.9182 65.4924 76.7347 65.3222C76.5506 65.1516 76.4416 64.8999 76.4011 64.5799C76.4011 64.151 76.5035 63.7559 76.7078 63.4018C76.9182 63.0414 77.2246 62.6122 77.6402 62.122Z" fill="black"/>
<path fill-rule="evenodd" clip-rule="evenodd" d="M68.2204 63.9074C67.9411 64.227 67.6073 64.5473 67.2194 64.8536C66.8316 65.16 66.5249 65.3779 66.2934 65.4939C66.1639 65.5482 66.0347 65.5823 65.9052 65.5823C65.6737 65.5823 65.4627 65.48 65.2719 65.2895C65.0742 65.0918 64.9245 64.8334 64.8089 64.5065C64.6999 64.1796 64.6387 63.8389 64.6387 63.4851C64.6387 63.0628 64.7205 62.6339 64.8771 62.198C65.0338 61.7622 65.2584 61.3673 65.5445 61.0202C65.8373 60.6659 66.1642 60.4072 66.5385 60.2303C66.5726 60.2101 66.661 60.2031 66.7975 60.2031C67.2877 60.2031 67.5327 60.3187 67.5327 60.5503C67.5327 60.7546 67.4168 61.0269 67.1853 61.3809C66.9538 61.7419 66.6951 62.0755 66.4159 62.3957C66.1298 62.7157 65.9393 62.9064 65.8304 62.9677C65.7147 63.2744 65.6396 63.5808 65.6124 63.8802C65.6329 64.1256 65.7078 64.2819 65.8304 64.3435C66.0413 64.3435 66.3411 64.1935 66.7292 63.8871C67.1174 63.5808 67.4307 63.2946 67.6689 63.0223C67.6689 62.6683 67.7507 62.3483 67.907 62.0691C68.0703 61.7899 68.336 61.4153 68.69 60.9454C69.0441 60.4687 69.3776 60.2303 69.6843 60.2303C69.8069 60.2303 69.9089 60.278 69.9635 60.3734C70.0314 60.4618 70.0589 60.5708 70.0589 60.6933C70.0589 60.9179 69.9704 61.204 69.7936 61.5512C69.5826 61.9937 69.3034 62.5047 68.9559 63.0833C69.0716 63.1856 69.208 63.2466 69.3779 63.2741C69.623 63.2539 70.0181 63.0631 70.556 62.7021L70.6378 63.2741C70.2427 63.7848 69.6912 64.1322 68.9967 64.3158C68.8265 64.2955 68.5678 64.1591 68.2204 63.9074Z" fill="black"/>
<path fill-rule="evenodd" clip-rule="evenodd" d="M57.6371 62.123L57.6099 62.0955C57.3784 62.1568 57.1062 62.2183 56.7859 62.2863C56.4657 62.3542 56.2752 62.3952 56.2073 62.4224C56.0847 62.6268 55.9483 62.8106 55.8122 62.9739C55.6624 63.1305 55.4512 63.3415 55.1653 63.6071C54.8792 63.8661 54.6818 64.0497 54.5797 64.145L54.5254 63.5459C54.8046 63.3144 55.104 62.9739 55.4243 62.5042C55.1792 62.5042 55.0497 62.3747 55.0497 62.123C55.0497 61.8299 55.1858 61.4828 55.4584 61.0946C55.7309 60.7064 56.0917 60.3795 56.5345 60.1139C56.6434 60.0798 56.7252 60.0596 56.7865 60.0596C56.9296 60.0596 57.0044 60.1483 57.0044 60.3116C57.0044 60.4136 56.9637 60.5431 56.8955 60.6928C57.1816 60.6518 57.4741 60.6177 57.7672 60.5769C58.0669 60.5295 58.2915 60.5021 58.4415 60.4818C58.5912 60.4613 58.7071 60.4544 58.7889 60.4544C58.9797 60.4544 59.1158 60.5498 59.1907 60.7475C59.2794 60.9379 59.3201 61.1492 59.3201 61.3804C59.3201 61.5099 59.3066 61.5984 59.293 61.6325C59.2725 61.7004 59.1499 61.8299 58.932 62.0342C58.714 62.2452 58.5438 62.4088 58.4279 62.5314C58.3053 62.647 58.1828 62.8036 58.0536 62.9947C57.8628 63.3488 57.7608 63.6074 57.7469 63.7641C57.7675 63.9002 57.8152 63.9887 57.8764 64.0499C57.9377 64.1043 58.0331 64.1453 58.1626 64.1725C58.503 64.1523 59.1294 63.723 60.0419 62.8788L60.1236 63.4167C59.5447 64.0907 58.9999 64.615 58.4895 64.9893C57.9854 65.3639 57.5975 65.5613 57.3385 65.5818C57.114 65.5818 56.9096 65.4934 56.7324 65.3231C56.5486 65.1526 56.4397 64.9009 56.3989 64.5809C56.3989 64.152 56.5012 63.7569 56.7053 63.4028C56.9085 63.0424 57.2148 62.6132 57.6371 62.123Z" fill="black"/>
<path fill-rule="evenodd" clip-rule="evenodd" d="M46.0422 67.7947C46.3963 67.5837 46.7096 67.2499 46.9819 66.8007C47.2542 66.3582 47.3906 65.8883 47.3906 65.3978C47.3906 65.3091 47.3839 65.207 47.3634 65.0845C47.2273 65.0845 47.1183 65.0981 47.0299 65.1186C46.7576 65.0845 46.5533 65.0298 46.4238 64.9417C46.0081 65.7518 45.7836 66.351 45.763 66.7597C45.7836 67.0591 45.8789 67.4066 46.0422 67.7947ZM45.5451 64.4784C45.2659 64.1243 45.1298 63.8246 45.1298 63.5931C45.1298 63.3477 45.2252 63.1436 45.4226 62.987C45.62 62.8303 45.8789 62.6737 46.2055 62.5306C46.4235 62.4283 46.6345 62.2447 46.8252 61.9858C47.016 61.7135 47.2816 61.2707 47.6221 60.6377C47.9556 60.0044 48.2484 59.4732 48.5005 59.0304C48.7456 58.5946 49.0589 58.111 49.4335 57.587C49.5696 57.4165 49.7262 57.2396 49.917 57.0693C50.1078 56.8924 50.2575 56.8037 50.3867 56.8037C50.5569 56.8037 50.6457 57.0014 50.6457 57.4098C50.6321 57.7708 50.5503 58.1318 50.3936 58.4925C50.237 58.8535 50.0667 59.1735 49.876 59.4527C49.6921 59.7385 49.3245 60.2631 48.7863 61.0392C48.2415 61.8155 47.7854 62.4826 47.4177 63.048C47.6016 63.1433 47.7311 63.2659 47.8059 63.4156C47.8808 63.5584 47.9897 63.8038 48.1328 64.1443L49.9442 62.9662L50.0939 63.4564C49.556 64.0419 48.984 64.498 48.3643 64.8321C48.3915 65.0567 48.412 65.2203 48.412 65.3223C48.412 65.901 48.2348 66.4663 47.8877 67.0112C47.5406 67.556 47.125 68.0051 46.6417 68.3661C46.1515 68.7136 45.7292 68.911 45.3752 68.9451C45.1301 68.9451 44.9393 68.7612 44.8098 68.3867C44.6737 68.0121 44.6055 67.6375 44.6055 67.2427C44.6055 66.8479 44.6873 66.4322 44.8506 66.0235C45.0072 65.6157 45.2387 65.0981 45.5451 64.4784Z" fill="black"/>
<path fill-rule="evenodd" clip-rule="evenodd" d="M52.8018 61.7007C52.1616 62.0617 51.6714 62.3953 51.3309 62.7222C50.9904 63.0421 50.8066 63.4574 50.7861 63.9615C50.7861 64.3222 50.9768 64.513 51.3375 64.5402C51.7327 64.4991 52.1003 64.3086 52.4408 63.9615C52.3249 63.7572 52.257 63.5459 52.2298 63.3283C52.25 62.906 52.4408 62.3612 52.8018 61.7007ZM53.9388 61.0605C54.2657 61.1015 54.436 61.3602 54.436 61.8438C54.436 62.3409 54.2588 62.906 53.9117 63.5187C53.9796 63.5187 54.0342 63.5257 54.0683 63.5462C54.2386 63.5326 54.4157 63.4644 54.5996 63.3352C54.7764 63.2126 55.0013 63.0219 55.2669 62.7563L55.4302 63.3626C55.1103 63.8052 54.7903 64.0979 54.4565 64.2546C54.116 64.4113 53.7212 64.4928 53.2512 64.5066C52.5974 65.1873 51.937 65.5211 51.2901 65.5211C50.8069 65.5211 50.4323 65.3168 50.1733 64.9084C49.9146 64.4997 49.7852 64.0231 49.7852 63.4852C49.7852 62.8927 49.969 62.3479 50.3436 61.8374C50.7112 61.3198 51.1878 60.918 51.7598 60.6183C52.3385 60.3255 52.9038 60.1758 53.4689 60.1758C53.966 60.1758 54.218 60.3189 54.218 60.6116C54.218 60.7813 54.1227 60.9313 53.9388 61.0605Z" fill="black"/>
<path fill-rule="evenodd" clip-rule="evenodd" d="M61.2591 62.7554C61.6678 62.599 62.0219 62.4083 62.3213 62.1903C62.628 61.9724 62.8526 61.7545 63.0159 61.5501C63.1725 61.3391 63.2543 61.1828 63.2543 61.0738C63.2543 61.0397 63.2474 61.0122 63.2407 60.9987C63.2341 60.9851 63.2271 60.9784 63.2202 60.9715C62.982 60.9715 62.6482 61.1281 62.2465 61.4345C61.8311 61.7409 61.5045 62.1834 61.2591 62.7554ZM61.2389 63.4161C61.2048 63.5317 61.1776 63.6476 61.1571 63.7702C61.1571 63.9745 61.2389 64.1514 61.3953 64.274C61.5586 64.3968 61.7629 64.4717 62.0149 64.485C62.0898 64.4647 62.1716 64.4578 62.2601 64.4578C62.5664 64.3965 62.9138 64.2468 63.3017 63.9878C63.6899 63.7427 64.187 63.3546 64.7998 62.8303L64.9359 63.3887C64.4526 63.9265 64.0029 64.3624 63.574 64.7029C63.1451 65.0434 62.75 65.2954 62.3757 65.4521C62.008 65.6154 61.6675 65.6902 61.3612 65.6902C60.8981 65.6902 60.5371 65.5269 60.2649 65.1864C59.9926 64.8529 59.8495 64.417 59.8359 63.8791C59.8359 63.3141 60.0062 62.7487 60.34 62.1768C60.6669 61.6048 61.1094 61.1281 61.6609 60.7536C62.2057 60.379 62.7844 60.1746 63.3905 60.1475C64.085 60.1475 64.4391 60.3856 64.4391 60.8625C64.4391 61.1484 64.3301 61.4276 64.126 61.6999C63.9694 61.9244 63.7584 62.1221 63.5064 62.3126C63.2543 62.5034 62.9821 62.667 62.7028 62.8028C62.4306 62.9459 62.1921 63.0548 62.0083 63.1228C61.8175 63.1982 61.5589 63.2999 61.2389 63.4161Z" fill="black"/>
<path fill-rule="evenodd" clip-rule="evenodd" d="M71.7934 62.7564C72.2021 62.6 72.5562 62.4092 72.8559 62.1913C73.1556 61.9734 73.3871 61.7555 73.5435 61.5511C73.7071 61.3401 73.7889 61.1837 73.7889 61.0748C73.7889 61.0407 73.7822 61.0132 73.7753 60.9996C73.7614 60.986 73.7548 60.9794 73.7548 60.9725C73.5097 60.9725 73.1828 61.1291 72.7741 61.4355C72.3654 61.7419 72.0385 62.1844 71.7934 62.7564ZM71.7663 63.4171C71.7324 63.5327 71.7119 63.6486 71.6845 63.7712C71.6845 63.9755 71.7663 64.1524 71.9298 64.2749C72.0865 64.3978 72.2975 64.4726 72.5495 64.4859C72.6177 64.4657 72.6995 64.4588 72.788 64.4588C73.0944 64.3975 73.4418 64.2478 73.8366 63.9888C74.2248 63.7437 74.7219 63.3555 75.328 62.8312L75.4641 63.3896C74.9875 63.9275 74.5311 64.3634 74.1091 64.7039C73.6802 65.0443 73.2785 65.2964 72.9108 65.453C72.5362 65.6163 72.1958 65.6912 71.8894 65.6912C71.4333 65.6912 71.0654 65.5279 70.7931 65.1874C70.5208 64.8539 70.3844 64.418 70.3711 63.8801C70.3711 63.3151 70.5344 62.7497 70.8682 62.1777C71.2018 61.6057 71.6379 61.1291 72.1894 60.7545C72.7409 60.38 73.3129 60.1756 73.919 60.1484C74.6132 60.1484 74.9676 60.3866 74.9676 60.8635C74.9676 61.1494 74.8653 61.4286 74.6609 61.7008C74.4976 61.9254 74.2933 62.1231 74.0346 62.3136C73.7825 62.5043 73.5169 62.6679 73.2377 62.8038C72.9585 62.9468 72.727 63.0558 72.5362 63.1237C72.3518 63.1992 72.0931 63.3009 71.7663 63.4171Z" fill="black"/>
<path fill-rule="evenodd" clip-rule="evenodd" d="M39.0595 62.2379C38.7259 62.4624 38.399 62.7145 38.0655 63.0073C37.7386 63.3001 37.4525 63.5723 37.2074 63.8244C36.9692 64.0764 36.7513 64.3079 36.5674 64.5189C36.3836 64.7368 36.2541 64.873 36.1998 64.9412C35.9547 65.2134 35.7639 65.3632 35.6211 65.3837C35.3012 65.3224 35.1445 64.8389 35.1445 63.94C35.1445 63.5041 35.2125 63.0891 35.3353 62.6734C35.4919 62.2445 35.7778 61.7133 36.1796 61.0869C36.5882 60.4537 37.0513 59.8135 37.5756 59.1597C38.1065 58.5059 38.6106 57.9478 39.0872 57.4917C39.4959 57.083 39.8092 56.7835 40.0404 56.5994C40.2653 56.402 40.5035 56.3066 40.7419 56.3066C40.8919 56.3066 41.0281 56.361 41.1437 56.4633C41.1914 56.5312 41.2116 56.5994 41.2116 56.661C41.2116 57.2125 40.3332 58.4724 38.5626 60.4537C38.2221 60.8283 37.9565 61.121 37.7727 61.332C37.5753 61.543 37.4392 61.7066 37.3438 61.8156C37.2484 61.9246 37.0987 62.0879 36.9013 62.3058C36.7105 62.5237 36.4449 62.8168 36.1047 63.1911V63.7087C36.4859 63.3888 36.8264 63.0891 37.1397 62.8168C37.4461 62.5445 37.7117 62.3194 37.9227 62.1425C38.1406 61.9587 38.3447 61.802 38.5355 61.6728C38.5696 61.6523 38.7126 61.5569 38.9644 61.3867C39.2095 61.2164 39.4069 61.0939 39.55 61.026C39.7 60.9508 39.8361 60.917 39.9656 60.917C40.1087 60.917 40.2448 60.9849 40.3809 61.1144C40.5104 61.2508 40.5783 61.3936 40.5783 61.5503C40.5783 61.6659 40.5376 61.7956 40.4558 61.9248C40.374 62.0613 40.2309 62.2448 40.0199 62.4902C39.8156 62.7353 39.6725 62.9122 39.5841 63.0211C39.5705 63.0417 39.5159 63.1235 39.4208 63.2596C39.3254 63.3957 39.2436 63.5252 39.1892 63.6408C39.128 63.7564 39.0939 63.8654 39.0869 63.9608C39.1413 64.0833 39.2028 64.1582 39.2777 64.1715C39.6523 64.1715 40.2991 63.8244 41.2116 63.1365L41.2934 63.7356C40.0815 64.7504 39.2031 65.3429 38.6444 65.5198C38.4742 65.5609 38.3447 65.5811 38.2562 65.5811C37.8886 65.5811 37.7048 65.3088 37.7048 64.7779C37.725 64.4848 37.8204 64.1923 37.9701 63.8856C38.1268 63.5793 38.3106 63.2931 38.508 63.0208C38.7123 62.7552 38.9031 62.4968 39.0866 62.2514L39.0595 62.2379Z" fill="black"/>
<path fill-rule="evenodd" clip-rule="evenodd" d="M32.6242 61.2922H32.0456C31.8277 61.2922 31.5892 61.3193 31.3375 61.3806C31.5826 60.9312 31.7869 60.5976 31.9436 60.373C32.1069 60.1485 32.2635 59.9849 32.4202 59.8828C32.5768 59.7805 32.7401 59.7126 32.9173 59.6785C33.0942 59.651 33.3803 59.6241 33.789 59.5967C34.0749 59.1065 34.3269 58.7727 34.5379 58.6094C34.7489 58.4461 35.001 58.3643 35.2802 58.3643C35.5183 58.3643 35.6412 58.4458 35.6412 58.616C35.6412 58.7865 35.4779 59.0996 35.144 59.5421L35.9883 59.5964C35.8793 59.8418 35.7498 60.0938 35.6137 60.373C35.4776 60.6522 35.3547 60.8566 35.2325 60.9858C35.1099 61.1219 34.9668 61.2173 34.7966 61.2786C34.6264 61.3398 34.3879 61.3673 34.0951 61.3673C34.061 61.3673 34.0067 61.3673 33.9318 61.3607C33.857 61.354 33.7957 61.354 33.7549 61.354C33.3462 61.9055 33.0399 62.4093 32.8425 62.8726C32.6451 63.3287 32.5361 63.7033 32.5225 64.0096C32.5497 64.1729 32.5907 64.2891 32.6451 64.357C32.6927 64.4183 32.7948 64.4727 32.9378 64.5071C33.1147 64.5001 33.3121 64.4117 33.5506 64.255C33.7821 64.0984 34.3472 63.6761 35.253 62.9954L35.3348 63.6284C34.8648 64.0917 34.4428 64.4729 34.0682 64.7863C33.687 65.1062 33.3055 65.3649 32.9107 65.5692C32.5089 65.7736 32.141 65.8759 31.7803 65.8759C31.5488 65.8418 31.3785 65.7464 31.2626 65.5762C31.147 65.4129 31.0924 65.2016 31.0924 64.9432C31.0924 64.5412 31.208 64.0784 31.4464 63.5472L31.4193 63.5197L30.7317 64.0917L30.5684 63.5469C31.0993 63.1246 31.508 62.75 31.8008 62.437C32.0933 62.1162 32.3725 61.7347 32.6242 61.2922Z" fill="black"/>
<path fill-rule="evenodd" clip-rule="evenodd" d="M9.50015 61.469L11.761 58.9088C11.8835 58.7793 12.013 58.6365 12.1627 58.4729C12.2988 58.3096 12.4283 58.1394 12.5373 57.9758C12.6463 57.8056 12.7006 57.6559 12.7006 57.5194C12.7006 57.3969 12.6596 57.3084 12.5711 57.2472C12.4827 57.1859 12.3804 57.1521 12.2578 57.1521C11.9448 57.1521 11.4679 57.2541 10.821 57.4515C10.1808 57.6492 9.53397 57.8738 8.9007 58.1255C8.25385 58.3776 7.83157 58.5614 7.60006 58.6704C7.74977 58.6978 7.81799 58.7727 7.81799 58.8813C7.81799 59.0178 7.61364 59.1536 7.21189 59.3036C7.01448 59.358 6.76938 59.4669 6.48324 59.6305C6.1971 59.7938 5.94535 59.9372 5.72048 60.0594C5.50255 60.1751 5.29156 60.2571 5.08721 60.291C4.82853 60.291 4.68546 60.073 4.67188 59.6507C4.67852 59.3172 4.75367 58.9565 4.91033 58.5683C5.06004 58.1871 5.2167 57.9484 5.37336 57.8738C5.86355 57.5879 6.42196 57.3223 7.04165 57.0633C7.66133 56.8113 8.30125 56.5867 8.96197 56.3893C9.62241 56.1986 10.2828 56.0485 10.9502 55.9329C11.6176 55.8173 12.2373 55.7627 12.8093 55.7627C13.2041 55.7763 13.5105 55.9058 13.7218 56.1509C13.9397 56.3963 14.0417 56.7023 14.0417 57.0703C14.0417 57.6423 13.8171 58.2007 13.3607 58.7386L11.2089 61.1289L13.279 60.8904L15.6759 57.7307C15.9617 57.3495 16.1866 57.0769 16.3363 56.9136C16.493 56.7503 16.6291 56.6619 16.745 56.6619C16.8063 56.6619 16.854 56.7026 16.9017 56.7844C16.9424 56.8659 16.963 56.9682 16.963 57.0977C16.963 57.4174 16.8199 57.7718 16.534 58.153L14.355 60.9176H14.825C15.3765 60.9176 15.8464 61.0265 16.2277 61.2375C15.5672 61.789 15.0224 62.4223 14.5935 63.1371C14.3348 63.0622 14.0625 63.0214 13.7764 63.0214H13.2249C13.1295 63.1781 13.0206 63.3483 12.9116 63.5255C12.796 63.7024 12.7072 63.8796 12.6324 64.0495C12.5645 64.2128 12.5234 64.3764 12.5168 64.5397C12.5304 64.5672 12.5373 64.6076 12.5373 64.6692L12.6734 65.2955C12.5645 65.2955 12.4624 65.323 12.3535 65.3568C12.2512 65.3979 12.1084 65.4591 11.9312 65.5409C11.7474 65.6224 11.6182 65.6837 11.5364 65.7112C11.4546 65.745 11.3661 65.7589 11.2913 65.7589C11.1959 65.7589 11.121 65.7383 11.0803 65.6906C11.0326 65.6499 10.9985 65.5883 10.9849 65.5138C10.9713 65.4458 10.9577 65.3707 10.9372 65.2958C10.9508 65.0643 11.0395 64.7308 11.1959 64.3019C11.3592 63.8729 11.55 63.4371 11.7612 62.9946L9.28251 63.3622L7.90036 65.0302C7.66191 65.575 7.35554 65.8473 7.00147 65.8473C6.86534 65.8473 6.7425 65.786 6.63382 65.6635C6.52515 65.5409 6.46358 65.3979 6.45 65.2412C6.4841 65.0507 6.52486 64.9212 6.57948 64.86L7.63503 63.4845C7.44427 63.5255 7.26044 63.5457 7.06968 63.5457C6.53179 63.5457 6.24565 63.3414 6.21848 62.9396C6.21848 62.7896 6.25924 62.6399 6.34103 62.4763C6.41589 62.3197 6.51821 62.1835 6.6477 62.0815C6.77025 61.9792 6.88586 61.9249 7.00176 61.9249C7.11073 61.9249 7.18559 61.959 7.23992 62.0066C7.5937 61.9049 8.34952 61.728 9.50015 61.469Z" fill="black"/>
<path fill-rule="evenodd" clip-rule="evenodd" d="M24.9105 61.6045V61.5707C24.1411 61.8566 23.535 62.0947 23.0856 62.2858C22.6431 62.4763 22.2344 62.7352 21.8667 63.0552C21.4921 63.3821 21.3083 63.7567 21.3083 64.1717C21.3083 64.3284 21.3832 64.4237 21.5465 64.4579C22.0164 64.4373 23.1399 63.4841 24.9105 61.6045ZM25.7207 61.2097C25.9588 61.3389 26.0817 61.5094 26.0817 61.7274C26.0817 61.9589 25.9661 62.2037 25.7481 62.4762C25.2169 63.1165 24.9513 63.5931 24.9377 63.9064C24.9513 64.0969 25.0602 64.2058 25.2712 64.2333C25.5097 64.2333 25.7889 64.1379 26.1022 63.9538C26.4152 63.77 26.8034 63.4775 27.2664 63.0821L27.3687 63.6541C27.1101 63.9333 26.7762 64.2466 26.3748 64.5871C25.973 64.9206 25.5713 65.2137 25.1695 65.4518C24.7747 65.6969 24.4478 65.8128 24.2027 65.8128C23.8758 65.7377 23.6986 65.5062 23.6714 65.1183C23.7056 64.6824 23.8758 64.1376 24.2027 63.4841L24.1755 63.4566C24.1414 63.4841 23.8827 63.702 23.3856 64.1243C22.8885 64.5396 22.5072 64.846 22.2416 65.0434C21.9826 65.2411 21.7581 65.3703 21.5812 65.4385C21.4312 65.4385 21.2612 65.3498 21.0635 65.1865C20.8658 65.0163 20.6959 64.7983 20.5528 64.5397C20.4097 64.274 20.3418 64.0156 20.3418 63.7633C20.3418 63.6 20.3484 63.4841 20.369 63.4298C20.4643 63.0349 20.6959 62.6534 21.0566 62.2722C21.4176 61.891 21.8465 61.5568 22.3436 61.2643C22.8408 60.9649 23.3376 60.7195 23.8417 60.5357C24.3455 60.3516 24.7813 60.236 25.1695 60.2021H25.3056C25.51 60.2021 25.7074 60.2634 25.8846 60.3926C26.0684 60.5218 26.1638 60.6854 26.1638 60.8898C26.1635 60.9984 26.0135 61.1074 25.7207 61.2097Z" fill="black"/>
<path fill-rule="evenodd" clip-rule="evenodd" d="M17.2432 62.7564C17.6519 62.6 18.006 62.4092 18.3054 62.1913C18.6048 61.9734 18.8366 61.7555 18.9933 61.5511C19.1566 61.3401 19.2384 61.1837 19.2384 61.0748C19.2384 61.0407 19.2315 61.0132 19.2248 60.9996C19.2182 60.986 19.2112 60.9794 19.2043 60.9725C18.9592 60.9725 18.6323 61.1291 18.2236 61.4355C17.8152 61.7419 17.4883 62.1844 17.2432 62.7564ZM17.216 63.4171C17.1889 63.5327 17.1617 63.6486 17.1343 63.7712C17.1343 63.9755 17.216 64.1524 17.3794 64.2749C17.536 64.3978 17.747 64.4726 17.999 64.4859C18.0672 64.4657 18.149 64.4588 18.2375 64.4588C18.5439 64.3975 18.8913 64.2478 19.2861 63.9888C19.6743 63.7437 20.1714 63.3555 20.7775 62.8312L20.9136 63.3896C20.437 63.9275 19.9806 64.3634 19.5587 64.7039C19.1297 65.0443 18.728 65.2964 18.3603 65.453C17.9927 65.6163 17.6522 65.6912 17.3389 65.6912C16.8825 65.6912 16.5149 65.5279 16.2492 65.1874C15.977 64.8539 15.8339 64.418 15.8203 63.8801C15.8203 63.3151 15.9836 62.7497 16.3174 62.1777C16.6513 61.6057 17.0871 61.1291 17.6386 60.7545C18.1901 60.38 18.7621 60.1756 19.3682 60.1484C20.0697 60.1484 20.4168 60.3866 20.4168 60.8635C20.4168 61.1494 20.3145 61.4286 20.1104 61.7008C19.9471 61.9254 19.7428 62.1231 19.4907 62.3136C19.2318 62.5043 18.9664 62.6679 18.6872 62.8038C18.408 62.9468 18.1765 63.0558 17.986 63.1237C17.8016 63.1992 17.5429 63.3009 17.216 63.4171Z" fill="black"/>
<path fill-rule="evenodd" clip-rule="evenodd" d="M28.6994 61.5505C29.0263 61.2647 29.4145 60.8086 29.8501 60.1886C30.2926 59.5623 30.6059 58.9833 30.7966 58.4455C30.5651 58.6088 30.3064 58.8744 30.0203 59.2354C29.7344 59.5961 29.4688 59.9912 29.2304 60.4065C28.9922 60.8288 28.815 61.21 28.6994 61.5505ZM28.4202 62.7899C28.3997 62.8786 28.3792 63.0009 28.3659 63.1509C28.3523 63.3075 28.3454 63.4026 28.3387 63.4301C28.3659 64.0428 28.611 64.3426 29.0809 64.3426C29.6801 64.3426 30.4495 63.8793 31.3689 62.9396L31.5458 63.3891C31.3825 63.5659 31.1646 63.7977 30.899 64.0905C30.6333 64.3764 30.3677 64.6284 30.109 64.8464C29.857 65.0573 29.5847 65.2345 29.2986 65.3704C29.0058 65.5134 28.713 65.5814 28.4269 65.5814C28.0728 65.5814 27.7867 65.4588 27.5757 65.2273C27.3647 64.9888 27.2418 64.6961 27.2147 64.342C27.1944 64.0764 27.1875 63.8992 27.1875 63.8107C27.1875 63.0344 27.3306 62.2719 27.6164 61.543C27.9026 60.8077 28.304 60.1062 28.8147 59.4319C29.3255 58.7579 29.9521 58.07 30.6807 57.3824C31.1438 56.9535 31.4501 56.7422 31.5999 56.7422C31.7429 56.7422 31.8109 56.926 31.8109 57.2937C31.8109 57.8047 31.7085 58.3085 31.5045 58.8053C31.3001 59.3091 31.0481 59.7655 30.7487 60.1944C30.4423 60.6233 30.0813 61.073 29.659 61.5494C29.1353 62.1295 28.7199 62.5448 28.4202 62.7899Z" fill="black"/>
<path fill-rule="evenodd" clip-rule="evenodd" d="M97.1913 61.7007C97.5107 61.3397 97.9196 60.8565 98.4101 60.2573C98.9 59.6509 99.2818 59.1882 99.5538 58.8613C99.8264 58.5344 100.14 58.1873 100.5 57.806C100.861 57.4314 101.229 57.0979 101.603 56.8048C102.08 56.4441 102.386 56.2123 102.53 56.1172C102.672 56.0218 102.809 55.9741 102.945 55.9741C103.108 55.9741 103.285 56.049 103.462 56.2057C103.647 56.3557 103.796 56.5461 103.918 56.7641C104.048 56.982 104.103 57.1797 104.103 57.3496C104.103 57.6086 103.973 57.9422 103.701 58.3644C103.646 58.4459 103.449 58.7526 103.095 59.2905C102.748 59.8284 102.434 60.3189 102.155 60.7614C101.876 61.2108 101.658 61.5785 101.494 61.8713C101.256 62.3207 101.065 62.7225 100.909 63.0696C100.752 63.4101 100.67 63.7098 100.663 63.9685C100.691 64.2543 100.827 64.4043 101.052 64.4043C101.256 64.4043 101.644 64.1387 102.196 63.6144C102.755 63.0904 103.258 62.5658 103.701 62.0415L103.782 62.7566C103.564 63.0563 103.299 63.4034 102.979 63.778C102.666 64.1592 102.319 64.5474 101.924 64.9356C101.535 65.324 101.134 65.6509 100.732 65.9232C100.323 66.1885 99.9625 66.3249 99.6423 66.3249C99.1313 66.3249 98.839 65.9437 98.7705 65.1876C98.7772 64.8471 98.8457 64.4861 98.9682 64.098C99.0974 63.7098 99.2402 63.3557 99.3905 63.0358C99.5402 62.7225 99.6492 62.4979 99.7038 62.3615L101.794 58.3916L101.767 58.3644L99.6691 60.4822C99.3836 60.768 99.0839 61.1151 98.7705 61.5033C98.4506 61.8918 98.1303 62.3068 97.8104 62.7427C97.4904 63.1716 97.1635 63.6211 96.8366 64.0844C96.5097 64.5405 96.3195 64.7994 96.2782 64.8607C96.0401 65.2012 95.8837 65.4122 95.8019 65.5009C95.7201 65.5894 95.6247 65.6371 95.5088 65.6371C95.3316 65.6371 95.1345 65.542 94.9235 65.3648C94.7192 65.181 94.5966 64.9974 94.5689 64.8064C94.6102 64.6295 94.6576 64.4795 94.7192 64.3705C95.1617 63.6011 95.6658 62.6886 96.2308 61.6331C96.7959 60.5776 97.2182 59.7128 97.5037 59.052C97.7014 58.589 97.7968 58.2624 97.7968 58.0647C97.7968 57.8809 97.7014 57.7855 97.5037 57.7855C97.354 57.7855 97.1497 57.8534 96.8979 57.9832C96.36 58.2422 95.5701 58.6847 94.5417 59.3041C94.351 59.4266 94.1261 59.5763 93.8813 59.7535C93.6295 59.9307 93.4318 60.0668 93.296 60.1486C93.1599 60.2301 93.037 60.2778 92.9419 60.2914C92.8188 60.2576 92.7578 60.1486 92.7578 59.9715C92.7578 59.6651 92.7916 59.3654 92.8601 59.0659C92.9278 58.7662 93.0983 58.4191 93.357 58.0242C93.6159 57.6222 94.0038 57.1999 94.5148 56.7438C94.9643 56.3626 95.2978 56.1718 95.5088 56.1718C95.5634 56.1718 95.5906 56.2057 95.5906 56.2808C95.5906 56.3557 95.5155 56.4782 95.3727 56.6551C95.2224 56.8323 94.9978 57.0436 94.692 57.2953C95.0391 57.091 95.3727 56.8936 95.6996 56.7097C96.0265 56.5193 96.3464 56.349 96.6531 56.199C96.9522 56.049 97.2656 55.9267 97.5991 55.8314C97.926 55.729 98.2529 55.6816 98.5798 55.6816C99.1998 55.6816 99.5061 55.9539 99.5061 56.4987C99.5061 56.5736 99.4859 56.7233 99.4515 56.9412C99.3703 57.2953 99.2405 57.6832 99.05 58.1124C98.8593 58.5549 98.6413 58.9977 98.3962 59.4471C98.1575 59.9102 97.756 60.6455 97.191 61.6739V61.7007H97.1913Z" fill="black"/>
<path fill-rule="evenodd" clip-rule="evenodd" d="M122.632 62.122L122.605 62.0945C122.373 62.1558 122.101 62.2174 121.78 62.2853C121.46 62.3532 121.269 62.3943 121.202 62.4214C121.079 62.6258 120.943 62.8096 120.8 62.9729C120.657 63.1296 120.446 63.3406 120.153 63.6062C119.867 63.8651 119.676 64.0487 119.574 64.1441L119.52 63.5449C119.799 63.3134 120.099 62.9729 120.419 62.5032C120.173 62.5032 120.044 62.3737 120.044 62.122C120.044 61.8289 120.181 61.4818 120.453 61.0936C120.725 60.7054 121.079 60.3786 121.529 60.1129C121.631 60.0788 121.719 60.0586 121.78 60.0586C121.923 60.0586 121.991 60.1473 121.991 60.3106C121.991 60.4127 121.958 60.5421 121.889 60.6919C122.175 60.6508 122.461 60.6167 122.761 60.576C123.054 60.5286 123.278 60.5011 123.428 60.4809C123.585 60.4603 123.701 60.4534 123.783 60.4534C123.973 60.4534 124.102 60.5488 124.184 60.7465C124.273 60.937 124.307 61.1482 124.307 61.3795C124.307 61.509 124.3 61.5974 124.28 61.6315C124.259 61.6994 124.143 61.8289 123.926 62.0333C123.708 62.2443 123.537 62.4078 123.415 62.5304C123.292 62.646 123.169 62.8027 123.047 62.9937C122.856 63.3478 122.754 63.6065 122.734 63.7631C122.761 63.8992 122.802 63.9877 122.87 64.049C122.932 64.1033 123.02 64.1443 123.156 64.1715C123.49 64.1513 124.123 63.7221 125.035 62.8778L125.117 63.4157C124.538 64.0897 123.993 64.614 123.483 64.9883C122.972 65.3629 122.591 65.5603 122.332 65.5808C122.108 65.5808 121.903 65.4924 121.72 65.3222C121.542 65.1516 121.427 64.8999 121.393 64.5799C121.393 64.151 121.495 63.7559 121.699 63.4018C121.903 63.0414 122.21 62.6122 122.632 62.122Z" fill="black"/>
<path fill-rule="evenodd" clip-rule="evenodd" d="M116.816 63.7092L116.788 63.6549C116.373 64.1179 116.047 64.4584 115.815 64.6832C115.59 64.9148 115.365 65.0916 115.161 65.2211C114.95 65.3503 114.753 65.4116 114.555 65.4116C114.248 65.3706 114.01 65.2211 113.847 64.9757C113.684 64.7306 113.602 64.4173 113.602 64.0361C113.602 63.5118 113.731 62.9736 113.976 62.4221C114.235 61.8637 114.575 61.401 115.005 61.04C115.44 60.679 115.91 60.4952 116.414 60.4952C116.721 60.4952 116.87 60.5767 116.87 60.7472C116.87 60.8969 116.761 61.1013 116.543 61.3533C116.053 61.9253 115.618 62.3473 115.229 62.6198C114.841 62.9193 114.623 63.2872 114.582 63.7364C114.602 63.7774 114.609 63.8251 114.609 63.8794C114.609 63.9271 114.644 63.9682 114.705 63.9884C115.018 63.9271 115.325 63.7841 115.624 63.5728C115.931 63.3621 116.223 63.1233 116.496 62.8577C116.775 62.5921 117.075 62.3062 117.395 61.986C118.28 61.0599 118.947 60.4608 119.41 60.1746C119.452 60.1544 119.492 60.1475 119.547 60.1475C119.642 60.1475 119.717 60.2223 119.772 60.3654C119.826 60.5151 119.853 60.6923 119.853 60.8894C119.853 61.0663 119.839 61.1961 119.805 61.2706C119.669 61.4683 119.431 61.7542 119.077 62.1083C118.716 62.4623 118.451 62.7756 118.267 63.0343C118.082 63.2996 117.973 63.5994 117.947 63.9398C117.987 64.0488 118.028 64.1167 118.056 64.1442C118.083 64.1714 118.151 64.2055 118.253 64.2329C118.669 64.1919 119.37 63.7427 120.357 62.8779L120.432 63.484C119.928 64.0219 119.499 64.4578 119.138 64.7847C118.778 65.1116 118.458 65.3567 118.178 65.52C117.899 65.6833 117.647 65.779 117.422 65.7923C117.164 65.7923 116.953 65.7107 116.789 65.5607C116.626 65.4041 116.53 65.1726 116.517 64.8593C116.55 64.4786 116.653 64.0974 116.816 63.7092Z" fill="black"/>
<path fill-rule="evenodd" clip-rule="evenodd" d="M111.193 61.2912H110.614C110.396 61.2912 110.158 61.3183 109.906 61.3796C110.151 60.9302 110.355 60.5966 110.512 60.3721C110.669 60.1475 110.826 59.9839 110.989 59.8819C111.145 59.7795 111.309 59.7116 111.479 59.6775C111.663 59.6501 111.949 59.6232 112.351 59.5957C112.643 59.1055 112.889 58.7717 113.107 58.6084C113.318 58.4451 113.563 58.3633 113.848 58.3633C114.087 58.3633 114.21 58.4448 114.21 58.615C114.21 58.7856 114.039 59.0986 113.712 59.5411L114.557 59.5954C114.441 59.8408 114.318 60.0929 114.182 60.3721C114.046 60.6513 113.916 60.8556 113.801 60.9848C113.678 61.1209 113.535 61.2163 113.365 61.2776C113.188 61.3389 112.956 61.3663 112.664 61.3663C112.629 61.3663 112.568 61.3663 112.5 61.3597C112.425 61.353 112.364 61.353 112.323 61.353C111.915 61.9045 111.608 62.4083 111.411 62.8716C111.213 63.3277 111.104 63.7023 111.091 64.0087C111.118 64.172 111.159 64.2881 111.206 64.3561C111.261 64.4173 111.363 64.4717 111.506 64.5061C111.676 64.4991 111.88 64.4107 112.112 64.254C112.351 64.0974 112.916 63.6751 113.821 62.9944L113.903 63.6274C113.433 64.0907 113.005 64.472 112.63 64.7853C112.255 65.1052 111.867 65.3639 111.479 65.5683C111.077 65.7726 110.703 65.8749 110.349 65.8749C110.117 65.8408 109.947 65.7454 109.832 65.5752C109.715 65.4119 109.661 65.2006 109.661 64.9422C109.661 64.5402 109.777 64.0774 110.015 63.5462L109.988 63.5187L109.3 64.0907L109.137 63.5459C109.661 63.1236 110.077 62.7491 110.369 62.436C110.662 62.1152 110.934 61.7337 111.193 61.2912Z" fill="black"/>
<path fill-rule="evenodd" clip-rule="evenodd" d="M107.529 61.6045V61.5707C106.752 61.8566 106.147 62.0947 105.704 62.2858C105.255 62.4763 104.853 62.7352 104.478 63.0552C104.104 63.3821 103.92 63.7567 103.92 64.1717C103.92 64.3284 104.001 64.4237 104.165 64.4579C104.628 64.4373 105.752 63.4841 107.529 61.6045ZM108.333 61.2097C108.571 61.3389 108.694 61.5094 108.694 61.7274C108.694 61.9589 108.585 62.2037 108.36 62.4762C107.836 63.1165 107.563 63.5931 107.55 63.9064C107.563 64.0969 107.679 64.2058 107.89 64.2333C108.122 64.2333 108.401 64.1379 108.714 63.9538C109.027 63.77 109.416 63.4775 109.879 63.0821L109.988 63.6541C109.722 63.9333 109.388 64.2466 108.987 64.5871C108.585 64.9206 108.183 65.2137 107.781 65.4518C107.386 65.6969 107.059 65.8128 106.814 65.8128C106.487 65.7377 106.31 65.5062 106.29 65.1183C106.317 64.6824 106.488 64.1376 106.814 63.4841L106.787 63.4566C106.753 63.4841 106.494 63.702 105.997 64.1243C105.5 64.5396 105.119 64.846 104.853 65.0434C104.594 65.2411 104.369 65.3703 104.193 65.4385C104.049 65.4385 103.873 65.3498 103.675 65.1865C103.477 65.0163 103.308 64.7983 103.164 64.5397C103.021 64.274 102.953 64.0156 102.953 63.7633C102.953 63.6 102.96 63.4841 102.981 63.4298C103.083 63.0349 103.308 62.6534 103.668 62.2722C104.029 61.891 104.458 61.5568 104.956 61.2643C105.452 60.9649 105.956 60.7195 106.454 60.5357C106.957 60.3516 107.4 60.236 107.782 60.2021H107.918C108.122 60.2021 108.32 60.2634 108.503 60.3926C108.687 60.5218 108.776 60.6854 108.776 60.8898C108.775 60.9984 108.633 61.1074 108.333 61.2097Z" fill="black"/>
<path fill-rule="evenodd" clip-rule="evenodd" d="M129.121 61.6045V61.5707C128.351 61.8566 127.746 62.0947 127.303 62.2858C126.854 62.4763 126.445 62.7352 126.078 63.0552C125.703 63.3821 125.519 63.7567 125.519 64.1717C125.519 64.3284 125.6 64.4237 125.757 64.4579C126.227 64.4373 127.351 63.4841 129.121 61.6045ZM129.932 61.2097C130.17 61.3389 130.292 61.5094 130.292 61.7274C130.292 61.9589 130.177 62.2037 129.959 62.4762C129.428 63.1165 129.162 63.5931 129.149 63.9064C129.162 64.0969 129.271 64.2058 129.489 64.2333C129.721 64.2333 130 64.1379 130.313 63.9538C130.626 63.77 131.015 63.4775 131.477 63.0821L131.58 63.6541C131.321 63.9333 130.987 64.2466 130.586 64.5871C130.184 64.9206 129.782 65.2137 129.38 65.4518C128.985 65.6969 128.658 65.8128 128.413 65.8128C128.086 65.7377 127.909 65.5062 127.882 65.1183C127.916 64.6824 128.086 64.1376 128.413 63.4841L128.386 63.4566C128.352 63.4841 128.093 63.702 127.597 64.1243C127.099 64.5396 126.718 64.846 126.452 65.0434C126.194 65.2411 125.969 65.3703 125.792 65.4385C125.649 65.4385 125.472 65.3498 125.274 65.1865C125.076 65.0163 124.907 64.7983 124.764 64.5397C124.62 64.274 124.553 64.0156 124.553 63.7633C124.553 63.6 124.559 63.4841 124.58 63.4298C124.675 63.0349 124.907 62.6534 125.268 62.2722C125.628 61.891 126.057 61.5568 126.555 61.2643C127.052 60.9649 127.549 60.7195 128.053 60.5357C128.556 60.3516 128.999 60.236 129.381 60.2021H129.517C129.721 60.2021 129.919 60.2634 130.103 60.3926C130.279 60.5218 130.375 60.6854 130.375 60.8898C130.374 60.9984 130.225 61.1074 129.932 61.2097Z" fill="black"/>
<path fill-rule="evenodd" clip-rule="evenodd" d="M132.908 61.5505C133.235 61.2647 133.624 60.8086 134.066 60.1886C134.509 59.5623 134.815 58.9833 135.006 58.4455C134.774 58.6088 134.516 58.8744 134.229 59.2354C133.944 59.5961 133.678 59.9912 133.44 60.4065C133.201 60.8288 133.024 61.21 132.908 61.5505ZM132.63 62.7899C132.609 62.8786 132.595 63.0009 132.582 63.1509C132.561 63.3075 132.554 63.4026 132.548 63.4301C132.575 64.0428 132.82 64.3426 133.29 64.3426C133.889 64.3426 134.658 63.8793 135.578 62.9396L135.761 63.3891C135.591 63.5659 135.381 63.7977 135.108 64.0905C134.842 64.3764 134.577 64.6284 134.325 64.8464C134.066 65.0573 133.793 65.2345 133.508 65.3704C133.215 65.5134 132.922 65.5814 132.636 65.5814C132.282 65.5814 131.996 65.4588 131.785 65.2273C131.574 64.9888 131.451 64.6961 131.424 64.342C131.403 64.0764 131.396 63.8992 131.396 63.8107C131.396 63.0344 131.54 62.2719 131.825 61.543C132.112 60.8077 132.514 60.1062 133.024 59.4319C133.535 58.7579 134.161 58.07 134.889 57.3824C135.353 56.9535 135.659 56.7422 135.809 56.7422C135.952 56.7422 136.02 56.926 136.02 57.2937C136.02 57.8047 135.918 58.3085 135.713 58.8053C135.516 59.3091 135.257 59.7655 134.958 60.1944C134.651 60.6233 134.29 61.073 133.868 61.5494C133.344 62.1295 132.929 62.5448 132.63 62.7899Z" fill="black"/>
<path fill-rule="evenodd" clip-rule="evenodd" d="M136.961 61.5505C137.288 61.2647 137.669 60.8086 138.112 60.1886C138.554 59.5623 138.868 58.9833 139.052 58.4455C138.82 58.6088 138.561 58.8744 138.276 59.2354C137.996 59.5961 137.731 59.9912 137.492 60.4065C137.254 60.8288 137.078 61.21 136.961 61.5505ZM136.682 62.7899C136.655 62.8786 136.642 63.0009 136.628 63.1509C136.614 63.3075 136.601 63.4026 136.601 63.4301C136.621 64.0428 136.867 64.3426 137.336 64.3426C137.942 64.3426 138.705 63.8793 139.631 62.9396L139.808 63.3891C139.644 63.5659 139.427 63.7977 139.161 64.0905C138.889 64.3764 138.63 64.6284 138.371 64.8464C138.112 65.0573 137.84 65.2345 137.554 65.3704C137.268 65.5134 136.976 65.5814 136.682 65.5814C136.328 65.5814 136.049 65.4588 135.838 65.2273C135.627 64.9888 135.504 64.6961 135.477 64.342C135.457 64.0764 135.443 63.8992 135.443 63.8107C135.443 63.0344 135.586 62.2719 135.879 61.543C136.165 60.8077 136.56 60.1062 137.078 59.4319C137.588 58.7579 138.208 58.07 138.943 57.3824C139.399 56.9535 139.713 56.7422 139.862 56.7422C139.999 56.7422 140.073 56.926 140.073 57.2937C140.073 57.8047 139.971 58.3085 139.767 58.8053C139.562 59.3091 139.311 59.7655 139.004 60.1944C138.697 60.6233 138.337 61.073 137.921 61.5494C137.39 62.1295 136.975 62.5448 136.682 62.7899Z" fill="black"/>
</svg>
