<svg width="86" height="24" viewBox="0 0 86 24" fill="none" xmlns="http://www.w3.org/2000/svg">
<g id="crocs" clip-path="url(#clip0_200_69345)">
<path id="Vector" d="M9.53306 21.5895C9.53306 20.174 10.6204 19.207 12.0375 19.207C13.2757 19.207 13.9106 19.9007 14.1807 20.5629L12.974 21.1375C12.8548 20.7766 12.49 20.4753 12.0375 20.4753C11.4026 20.4753 10.9501 20.9869 10.9501 21.621C10.9501 22.2552 11.4026 22.7667 12.0375 22.7667C12.49 22.7667 12.8513 22.4654 12.974 22.1045L14.1807 22.6476C13.9106 23.2502 13.3037 24.0035 12.0375 24.0035C10.6204 23.9685 9.53306 23.005 9.53306 21.5895ZM17.0499 19.207C18.467 19.207 19.5859 20.1705 19.5859 21.5895C19.5859 23.005 18.4705 23.972 17.0499 23.972C15.6293 23.972 14.5139 23.0085 14.5139 21.5895C14.5139 20.1705 15.6328 19.207 17.0499 19.207ZM17.0499 20.4438C16.3869 20.4438 15.9345 20.9553 15.9345 21.5895C15.9345 22.2236 16.3554 22.7352 17.0499 22.7352C17.7128 22.7352 18.1653 22.2236 18.1653 21.5895C18.1653 20.9553 17.7128 20.4438 17.0499 20.4438ZM24.1738 20.9834L23.1461 23.9089H22.5112L21.4835 20.9834V23.9089H20.0945V19.2666H22.0272L22.8409 21.6175L23.6547 19.2666H25.5874V23.8809H24.1984V20.9869H24.1738V20.9834ZM26.1942 19.2666H29.6948V20.4438H27.5832V20.9869H29.6352V22.1641H27.5832V22.7667H29.6948V23.9439H26.1942V19.2666ZM35.1001 23.3063H33.3182L33.1358 23.9089H31.6275L33.3498 19.2946H35.1001L36.8223 23.9089H35.314L35.1001 23.3063ZM33.683 22.1291H34.7388L34.2267 20.4999L33.683 22.1291ZM37.6957 22.1921C38.057 22.525 38.5726 22.7947 39.1759 22.7947C39.446 22.7947 39.688 22.7037 39.688 22.525C39.688 22.3428 39.5056 22.2552 39.0251 22.1641C38.2709 22.0134 37.0924 21.8312 37.0924 20.6855C37.0924 19.9007 37.7553 19.179 39.0251 19.179C39.7792 19.179 40.4737 19.3892 40.9858 19.8131L40.2317 20.8082C39.8388 20.5069 39.2952 20.3562 38.9339 20.3562C38.5726 20.3562 38.513 20.4753 38.513 20.598C38.513 20.7801 38.6954 20.8397 39.2075 20.9308C39.9616 21.0499 41.1086 21.2917 41.1086 22.3463C41.1086 23.3728 40.3545 23.9439 39.1163 23.9439C38.1201 23.9439 37.4572 23.6426 36.9731 23.2187L37.6957 22.1921ZM44.5776 22.0695L42.8273 19.2946H44.3952L45.2721 20.8607L46.1175 19.2946H47.6854L45.9631 22.0695V23.9089H44.5741L44.5776 22.0695ZM49.832 19.207C51.2491 19.207 52.368 20.1705 52.368 21.5895C52.368 23.005 51.2526 23.972 49.832 23.972C48.4115 23.972 47.296 23.0085 47.296 21.5895C47.296 20.1705 48.4115 19.207 49.832 19.207ZM49.832 20.4438C49.1691 20.4438 48.7166 20.9553 48.7166 21.5895C48.7166 22.2236 49.1375 22.7352 49.832 22.7352C50.5265 22.7352 50.9475 22.2236 50.9475 21.5895C50.9475 20.9553 50.495 20.4438 49.832 20.4438ZM52.8801 19.2666H54.2972V21.9504C54.2972 22.4023 54.5393 22.7352 55.111 22.7352C55.6827 22.7352 55.8967 22.3743 55.8967 21.9504V19.2666H57.3138V21.9784C57.3138 23.1241 56.6508 23.9685 55.0794 23.9685C53.5115 23.9685 52.8451 23.1241 52.8451 21.9784V19.2666H52.8801ZM62.8102 23.3063H61.0283L60.8459 23.9089H59.3377L61.0599 19.2946H62.8102L64.5324 23.9089H63.0242L62.8102 23.3063ZM61.3931 22.1291H62.4489L61.9368 20.4999L61.3931 22.1291ZM66.8229 22.4023H66.3108V23.8809H64.9218V19.2666H67.3982C68.4855 19.2666 69.0573 19.9918 69.0573 20.8642C69.0573 21.6491 68.6048 22.0695 68.2119 22.2517L69.0573 23.8809H67.4578L66.8229 22.4023ZM67.1877 20.4438H66.3108V21.2566H67.1561C67.3982 21.2566 67.6086 21.106 67.6086 20.8362C67.6402 20.5945 67.3982 20.4438 67.1877 20.4438ZM69.4817 19.2666H72.9823V20.4438H70.8707V20.9869H72.9227V22.1641H70.8707V22.7667H72.9823V23.9439H69.4817V19.2666ZM74.4906 19.5994V20.8642H74.0977V19.5994H73.6452V19.2981H74.943V19.5994H74.4906ZM76.6057 20.8642V19.7501L76.2128 20.8642H75.9427L75.5499 19.7501V20.8642H75.1886V19.2981H75.7007L76.0935 20.3247L76.4864 19.2981H76.9985V20.8642H76.6057ZM59.6709 4.2219C60.8179 4.2219 61.9052 4.82453 62.5085 5.66891L62.5682 5.72847C62.5997 5.76 62.6278 5.78803 62.6278 5.81956C63.0207 6.3311 63.6555 6.63241 64.35 6.63241C65.5567 6.63241 66.5528 5.63737 66.5528 4.43212C66.5528 3.85752 66.3424 3.34599 65.9776 2.95358C64.4693 1.08613 62.6594 0 59.6709 0C54.9321 0 51.3403 3.28642 51.3403 7.90073C51.3403 12.5746 54.9005 15.861 59.6709 15.861C62.719 15.861 64.5009 14.8064 66.0091 13.1177C66.3424 12.7253 66.5528 12.2418 66.5528 11.7022C66.5528 10.4969 65.5882 9.52993 64.3781 9.52993C63.7152 9.52993 63.1399 9.83124 62.7471 10.2832C62.021 11.0085 61.2072 11.6987 59.6674 11.6987C57.4927 11.6987 56.258 10.1326 56.258 7.90073C56.2896 5.76 57.4962 4.2219 59.6709 4.2219ZM76.6057 6.02978C74.5221 5.57781 73.5575 5.45518 73.5575 4.61431C73.5575 4.01168 74.1012 3.71037 75.1886 3.71037C76.3356 3.71037 77.3913 4.25343 78.1174 4.85606C78.4507 5.18891 78.9031 5.36759 79.4152 5.36759C80.471 5.36759 81.3164 4.52321 81.3164 3.46861C81.3164 2.92555 81.0743 2.41401 80.6815 2.08117C79.4433 0.812847 77.6614 0 75.157 0C71.8984 0 69.2712 1.38745 69.2712 4.82453C69.2712 7.99183 71.5968 9.13752 73.6768 9.67708C76.1532 10.3112 77.1178 10.3112 77.1178 11.1556C77.1178 11.7898 76.6057 12.0911 75.0342 12.0911C73.7961 12.0911 72.6491 11.6391 71.6845 10.8858L71.716 10.9174C70.9619 10.2236 69.7553 10.2552 69.0292 11.0085C68.4259 11.6111 68.3347 12.515 68.7275 13.2403C68.7275 13.2718 68.7591 13.2999 68.7591 13.2999C68.7907 13.3594 68.8187 13.419 68.8784 13.482C68.9099 13.5136 68.938 13.5731 68.9696 13.6012C69.0011 13.6292 69.0292 13.6923 69.0888 13.7203L69.18 13.8114C70.5094 14.9886 72.4105 15.8926 75.3394 15.8926C80.1378 15.8926 81.5865 13.6012 81.5865 10.8263C81.5865 7.56788 78.8084 6.54131 76.6057 6.02978ZM9.08058 4.2219C10.2276 4.2219 11.3149 4.82453 11.9182 5.66891L11.9779 5.72847C12.0094 5.76 12.0375 5.78803 12.0375 5.81956C12.4304 6.3311 13.0652 6.63241 13.7597 6.63241C14.9664 6.63241 15.9625 5.63737 15.9625 4.43212C15.9625 3.85752 15.7521 3.34599 15.3873 2.95358C13.879 1.08613 12.0691 0 9.05252 0C4.31023 0 0.75 3.28642 0.75 7.90073C0.75 12.5746 4.31023 15.861 9.08058 15.861C12.1287 15.861 13.9106 14.8064 15.4188 13.1177C15.7521 12.7253 15.9625 12.2418 15.9625 11.7022C15.9625 10.4969 14.9979 9.52993 13.7878 9.52993C13.1249 9.52993 12.5496 9.83124 12.1568 10.2832C11.4307 11.0085 10.6169 11.6987 9.10864 11.6987C6.93392 11.6987 5.69924 10.1326 5.69924 7.90073C5.67118 5.76 6.8778 4.2219 9.08058 4.2219ZM40.4422 11.7898C38.299 11.7898 36.9696 10.2236 36.9696 7.96029C36.9696 5.66891 38.299 4.1308 40.4422 4.1308C42.5853 4.1308 43.8831 5.66891 43.8831 7.96029C43.8551 10.2201 42.5853 11.7898 40.4422 11.7898ZM40.4422 0C35.7349 0 32.0519 3.31796 32.0519 7.96029C32.0519 12.5746 35.7349 15.861 40.4422 15.861C45.1494 15.861 48.8043 12.5746 48.8043 7.96029C48.8043 3.31796 45.1529 0 40.4422 0ZM29.6352 0.995036C28.8811 0.602628 28.3689 0.511533 27.25 0.602628C25.2612 0.784818 23.7214 2.17226 23.4478 2.50161C23.3601 1.23679 22.3008 0.210219 21.003 0.210219C19.6455 0.210219 18.5582 1.29635 18.5266 2.62073V13.3839C18.5582 14.7118 19.642 15.7664 21.003 15.7664C22.3639 15.7664 23.4478 14.6803 23.4793 13.3559V10.4304C23.4793 6.45022 25.8049 5.42365 27.1027 5.39562C27.4359 5.39562 28.3093 5.72847 29.0038 5.60584C30.3613 5.36409 31.2382 4.06774 30.9961 2.73985C30.8138 1.95854 30.3016 1.32788 29.6352 0.995036ZM82.6703 0.812847V2.38248H82.1863V0.812847H81.611V0.420438H83.2105V0.812847H82.6703ZM85.2975 2.38248V0.995036L84.7854 2.38248H84.4522L83.9401 0.995036V2.38248H83.4876V0.420438H84.1505L84.6346 1.71679L85.1186 0.420438H85.7535V2.38248H85.2975Z" fill="#464342"/>
</g>
<defs>
<clipPath id="clip0_200_69345">
<rect width="85" height="24" fill="white" transform="translate(0.75)"/>
</clipPath>
</defs>
</svg>
