<svg width="85" height="55" viewBox="0 0 85 55" fill="none" xmlns="http://www.w3.org/2000/svg">
<path d="M41.6016 4.02095V6.48572H31.5252V23.4146H48.5557V13.3608H50.9612V25.8145H29.1211V4.02095H41.6016ZM50.9612 0V4.02095H54.9906V6.48572H50.9612V10.5067H48.5557V6.48572H44.4614V4.02095H48.5557V0H50.9612ZM39.1311 20.1711V13.3608H36.8554V11.61H37.1164C37.8303 11.61 38.4158 11.4802 38.8066 11.1557C39.196 10.8312 39.4556 10.2485 39.4556 9.53459H41.6016V20.1711H39.1311Z" fill="#F50514"/>
<path d="M0 48.385C0 44.5573 2.4041 41.7031 6.17392 41.7031C9.94515 41.7031 12.3493 44.5573 12.3493 48.385C12.3493 52.2112 9.94515 55.0005 6.17392 55.0005C2.4041 55.0005 0 52.2112 0 48.385ZM9.68414 48.385C9.68414 45.8553 8.51454 43.8434 6.17392 43.8434C3.83472 43.8434 2.5988 45.8553 2.5988 48.385C2.5988 50.9146 3.76982 52.9251 6.17392 52.9251C8.57944 52.8602 9.68414 50.9146 9.68414 48.385ZM14.5601 41.9627H17.2252L21.5142 49.0974C21.905 49.8113 22.4242 50.9146 22.4242 50.9146H22.4891C22.4891 50.9146 22.4242 49.6166 22.4242 48.708V41.9627H24.9595V54.7409H22.4242L18.004 47.6711C17.6146 47.0221 17.094 45.9202 17.094 45.9202H17.0291C17.0291 45.9202 17.094 47.2817 17.094 48.1254V54.7409H14.5601V41.9627ZM27.8193 41.9627H37.2453V44.103H30.4195V46.9572H36.4002V49.0974H30.4195V52.5357H37.3102V54.7409H27.8193V41.9627ZM45.5002 41.9627C46.9957 41.9627 48.1004 42.417 48.8807 43.1309C49.5945 43.8434 50.0503 44.8818 50.0503 46.05C50.0503 48.4499 48.4249 50.0709 45.7598 50.0709H42.6404V54.676H39.9753V41.9627H45.5002ZM42.5106 47.9956H45.1757C46.54 47.9956 47.2553 47.2168 47.2553 46.1149C47.2553 44.9467 46.4751 44.2328 45.2406 44.2328H42.5106V47.9956ZM51.8703 41.9627H54.4705V52.5357H60.4497V54.7409H51.8703V41.9627ZM61.8803 41.9627H64.4805V50.655C64.4805 51.9516 65.1309 52.9251 66.886 52.9251C68.5099 52.9251 69.2901 51.9516 69.2901 50.655V41.9627H71.8904V50.655C71.8904 53.378 70.2001 55.0005 66.9509 55.0005C63.5705 54.9356 61.8803 53.378 61.8803 50.5901V41.9627ZM76.2457 50.7848C76.4404 52.341 77.2855 52.9251 79.1055 52.9251C80.4049 52.9251 81.5759 52.4708 81.5759 51.3026C81.5759 50.0709 80.34 49.8113 78.3902 49.357C76.1159 48.8378 73.97 48.2552 73.97 45.5957C73.97 43.066 76.051 41.768 78.8459 41.768C81.7057 41.768 83.5906 43.1958 83.7853 45.7255H81.3149C81.1851 44.4275 80.1453 43.7785 78.8459 43.7785C77.4802 43.7785 76.5053 44.3626 76.5053 45.2712C76.5053 46.3082 77.4153 46.6327 79.3002 47.0221C81.9653 47.6062 84.1112 48.1903 84.1112 50.9781C84.1112 53.5727 82.0302 55.0005 79.1055 55.0005C75.7251 55.0005 73.7753 53.4429 73.7104 50.7848H76.2457Z" fill="#F50514"/>
</svg>
