<svg width="76" height="50" viewBox="0 0 76 50" fill="none" xmlns="http://www.w3.org/2000/svg">
<path d="M37.8457 4.23733V6.43007H28.8814V21.4906H44.0323V12.5464H46.1724V23.6256H26.7427V4.23733H37.8457ZM46.1724 0.660156V4.23733H49.7571V6.43007H46.1724V10.0072H44.0323V6.43007H40.3899V4.23733H44.0323V0.660156H46.1724ZM35.6479 18.605V12.5464H33.6234V10.9888H33.8556C34.4907 10.9888 35.0116 10.8733 35.3593 10.5846C35.7057 10.2959 35.9366 9.77755 35.9366 9.14244H37.8457V18.605H35.6479Z" fill="#F50514"/>
<path d="M0.835938 43.7051C0.835938 40.2999 2.97471 37.7607 6.32846 37.7607C9.68347 37.7607 11.8222 40.2999 11.8222 43.7051C11.8222 47.1091 9.68347 49.5905 6.32846 49.5905C2.97471 49.5905 0.835938 47.1091 0.835938 43.7051ZM9.45127 43.7051C9.45127 41.4546 8.41075 39.6648 6.32846 39.6648C4.24743 39.6648 3.14792 41.4546 3.14792 43.7051C3.14792 45.9556 4.18969 47.7442 6.32846 47.7442C8.46849 47.6864 9.45127 45.9556 9.45127 43.7051ZM13.7891 37.9917H16.16L19.9757 44.339C20.3234 44.9741 20.7853 45.9556 20.7853 45.9556H20.843C20.843 45.9556 20.7853 44.8009 20.7853 43.9925V37.9917H23.0408V49.3596H20.7853L16.8529 43.07C16.5065 42.4926 16.0433 41.5124 16.0433 41.5124H15.9856C15.9856 41.5124 16.0433 42.7236 16.0433 43.4742V49.3596H13.7891V37.9917ZM25.5849 37.9917H33.9706V39.8957H27.8982V42.4349H33.2187V44.339H27.8982V47.3978H34.0283V49.3596H25.5849V37.9917ZM41.3144 37.9917C42.6449 37.9917 43.6277 38.3958 44.3218 39.031C44.9569 39.6648 45.3623 40.5886 45.3623 41.6279C45.3623 43.7629 43.9164 45.205 41.5454 45.205H38.7703V49.3018H36.3993V37.9917H41.3144ZM38.6548 43.3587H41.0258C42.2395 43.3587 42.8759 42.6659 42.8759 41.6856C42.8759 40.6463 42.1818 40.0112 41.0835 40.0112H38.6548V43.3587ZM46.9814 37.9917H49.2947V47.3978H54.614V49.3596H46.9814V37.9917ZM55.8867 37.9917H58.2V45.7247C58.2 46.8781 58.7786 47.7442 60.34 47.7442C61.7846 47.7442 62.4787 46.8781 62.4787 45.7247V37.9917H64.792V45.7247C64.792 48.1471 63.2883 49.5905 60.3977 49.5905C57.3904 49.5328 55.8867 48.1471 55.8867 45.6669V37.9917ZM68.6666 45.8401C68.8398 47.2246 69.5917 47.7442 71.2108 47.7442C72.3668 47.7442 73.4086 47.34 73.4086 46.3008C73.4086 45.205 72.3091 44.9741 70.5744 44.5699C68.5511 44.108 66.6421 43.5896 66.6421 41.2237C66.6421 38.9732 68.4934 37.8185 70.9799 37.8185C73.524 37.8185 75.2009 39.0887 75.3741 41.3392H73.1764C73.0609 40.1844 72.1359 39.6071 70.9799 39.6071C69.7649 39.6071 68.8976 40.1267 68.8976 40.935C68.8976 41.8575 69.7071 42.1462 71.384 42.4926C73.755 43.0123 75.6641 43.5319 75.6641 46.0121C75.6641 48.3203 73.8127 49.5905 71.2108 49.5905C68.2035 49.5905 66.4689 48.2048 66.4111 45.8401H68.6666Z" fill="#F50514"/>
</svg>
