<svg width="60" height="34" viewBox="0 0 60 34" fill="none" xmlns="http://www.w3.org/2000/svg">
<g id="max-3" clip-path="url(#clip0_200_69348)">
<path id="Vector" d="M33.1506 33.8977L36.4463 29.694C36.6145 29.4754 36.749 29.2904 36.934 29.0718C37.1021 28.8701 37.2366 28.6851 37.4048 28.4665L40.2296 24.8345C41.2385 23.4893 42.4996 21.9592 43.5422 20.5804L48.1326 14.6784C48.1998 14.5943 48.183 14.5607 48.3007 14.5439L49.4273 17.7555C49.6459 18.3777 49.5114 18.2263 50.4362 18.2263H56.2877C56.2709 18.075 55.4974 16.0572 55.4134 15.8723L52.7398 8.77643L55.5479 5.16126C56.5904 3.84971 57.7674 2.23549 58.7931 0.991197L59.1967 0.453125H51.9327L50.3689 3.10986L49.6123 0.453125H43.2227C43.4917 1.00801 44.8369 5.07718 45.2909 6.22059C45.7113 7.2631 46.1148 8.60828 46.5352 9.70124C46.6697 10.0375 46.552 10.0375 46.1653 10.7269L44.1979 14.2244C44.097 14.4094 44.013 14.5607 43.9121 14.7457C43.7271 15.082 43.5253 15.4183 43.3236 15.7546C42.4324 17.3688 41.3562 19.1848 40.5155 20.7654C40.4146 20.9335 40.3137 21.1185 40.2296 21.2698L36.5472 27.8107C36.4463 27.9789 36.3454 28.1302 36.2614 28.2984L33.4197 33.3596C33.3524 33.4773 33.1674 33.7968 33.1506 33.8977Z" fill="#ED1C24"/>
<path id="Vector_2" d="M10.3496 2.47177L10.6691 0.975256C10.7028 0.807108 10.77 0.622146 10.77 0.470813H4.58218L1.7573 13.7881C1.60597 14.5448 1.43782 15.2678 1.28649 16.0076L0.815674 18.244H7.08758C7.27254 18.244 7.30617 17.7228 7.37343 17.4369L8.33187 12.8969C8.75224 10.7951 9.2735 8.57553 9.69386 6.47368C9.86201 5.64976 10.3496 4.77539 11.3753 4.77539C12.771 4.77539 12.1993 6.35598 12.0143 7.28079L9.69386 18.2608H15.9658C16.1339 18.2608 16.2012 17.7228 16.2516 17.4369L16.8233 14.7129C17.3614 12.342 17.8322 9.81982 18.3703 7.44894C18.5048 6.86042 18.5889 6.17102 18.8411 5.71702C19.1269 5.16213 19.5305 4.77539 20.2535 4.77539C21.6323 4.77539 21.0943 6.32235 20.8925 7.28079C20.3544 9.87026 19.7491 12.527 19.2278 15.1165C19.1606 15.4696 18.5721 17.9918 18.5721 18.2608H24.8608C25.0289 18.2608 25.0457 17.8741 25.0794 17.7228L26.0378 13.25C26.2228 12.3925 26.4077 11.5686 26.5759 10.711C26.9122 9.04634 27.3325 7.26398 27.652 5.59931C27.8874 4.37184 27.9211 4.50636 28.0388 3.29569C28.0724 2.9594 27.8874 2.0514 27.7193 1.69829C27.4839 1.21066 27.0467 0.756664 26.5927 0.504443C25.4493 -0.100889 23.8687 -0.067259 22.6412 0.252221C20.4049 0.823923 19.5305 2.32044 19.3119 2.47177C18.9756 1.78236 18.8915 1.32837 18.0844 0.739849C16.9074 -0.100889 15.0914 -0.0840738 13.7294 0.252221C13.494 0.31948 13.2586 0.386739 13.04 0.470813C12.9223 0.521257 12.8382 0.554887 12.7205 0.605331C12.6533 0.638961 12.6196 0.638961 12.5692 0.67259C12.5019 0.70622 12.4851 0.723035 12.401 0.773479C11.6444 1.17703 11.409 1.42925 10.8205 2.01777C10.7364 2.10184 10.6691 2.15229 10.6019 2.25318C10.4842 2.37088 10.4673 2.43814 10.3496 2.47177ZM33.9407 14.3262C33.3859 14.3262 33.0327 13.9226 33.0327 13.4854C33.0327 12.4261 33.2513 11.35 34.0753 10.6774C34.462 10.3579 35.5381 10.072 36.1603 9.78619L36.463 9.63486L35.824 12.5774C35.6054 13.25 35.3364 13.8385 34.6974 14.158C34.4788 14.2757 34.2602 14.3262 33.9407 14.3262ZM28.9299 6.00287H34.5124C34.6806 5.27983 34.916 4.47273 35.639 4.13643C36.2948 3.81695 37.4382 3.83376 37.4382 4.94354C37.4382 5.51524 37.1019 6.33916 36.547 6.67546C36.009 6.99494 35.2355 7.14627 34.5461 7.29761C33.0327 7.61709 30.7459 8.03745 29.5016 8.82775C29.3671 8.91182 29.2494 8.9959 29.1149 9.09678C28.3919 9.63486 28.0556 10.1393 27.6016 10.8791C27.114 11.7031 26.4918 13.7377 26.4918 15.0492C26.4918 16.2431 26.6263 17.1847 27.5848 17.9413C28.9972 19.0511 32.0911 18.9166 33.8062 17.6891C34.2434 17.3696 34.5965 17.0333 34.916 16.5962C34.9833 16.4953 35.0337 16.4112 35.1178 16.3439C35.1178 16.6634 35.0001 16.9493 35.0001 17.336L35.0337 18.244H40.7003C41.1543 18.244 41.0198 18.2776 40.9357 17.7396C40.7675 16.7979 40.8852 16.0581 41.087 15.1669C41.2047 14.6457 41.3056 14.0908 41.4233 13.5359L42.1127 10.2738C42.2304 9.71893 42.3313 9.2313 42.449 8.67641C42.5835 8.10471 42.6676 7.60027 42.7853 7.04538C43.0207 6.00287 43.3738 4.59043 43.3738 3.5311C43.3738 0.622146 40.2126 0 37.7577 0C35.4541 0 33.285 0.184962 31.4522 1.54696C30.7796 2.0514 30.2583 2.67355 29.8211 3.4134C29.5185 3.9851 28.9468 5.39754 28.9299 6.00287Z" fill="#005AAB"/>
</g>
<defs>
<clipPath id="clip0_200_69348">
<rect width="58.364" height="33.8986" fill="white" transform="translate(0.816406)"/>
</clipPath>
</defs>
</svg>
