<svg width="54" height="52" viewBox="0 0 54 52" fill="none" xmlns="http://www.w3.org/2000/svg">
<path fill-rule="evenodd" clip-rule="evenodd" d="M19.6654 42.4782C19.6595 42.4835 19.5131 42.4938 19.3401 42.5011C19.167 42.5083 19.0184 42.5183 19.0098 42.5232C19.0013 42.5281 18.9057 42.5389 18.7974 42.5471C18.6893 42.5554 18.594 42.5663 18.5856 42.5715C18.5775 42.5766 18.5024 42.5869 18.4192 42.5943C17.9941 42.6323 17.3438 42.7796 16.9688 42.9228C16.8841 42.9552 16.7969 42.987 16.7753 42.9936C16.6851 43.0211 16.6769 43.0872 16.662 43.9136C16.6459 44.7997 16.6426 44.7784 16.7965 44.7973C16.8471 44.8035 16.9422 44.7891 17.0349 44.7611C17.3761 44.6582 17.5131 44.6203 17.8721 44.5297C18.3294 44.4143 18.8348 44.3061 19.1153 44.2634C19.597 44.1901 20.6927 44.2041 20.917 44.2864C20.9612 44.3026 21.0709 44.3326 21.1607 44.3529C21.3483 44.3954 21.4971 44.4656 21.6604 44.5888C21.7798 44.679 21.8531 44.8123 21.9127 45.0473C21.9515 45.2005 21.9543 45.22 21.9697 45.4527L21.9843 45.6709L21.7881 45.6547C21.0106 45.5908 20.1267 45.5651 19.7425 45.5952L19.1263 45.6435C18.5046 45.6923 17.7341 45.8529 17.3493 46.014C16.8434 46.2258 16.3564 46.615 16.217 46.9187C15.9306 47.543 15.8705 48.3418 16.0535 49.0871C16.1235 49.3718 16.1829 49.5327 16.28 49.699C16.3137 49.7571 16.3414 49.8141 16.3414 49.8257C16.3414 49.8892 16.8574 50.3452 17.1122 50.5067C17.1786 50.5489 17.2363 50.591 17.2403 50.6003C17.2442 50.6096 17.2608 50.6172 17.2768 50.6172C17.2929 50.6172 17.3737 50.6476 17.4565 50.6848C17.5395 50.7221 17.6865 50.7757 17.7834 50.804C17.8803 50.8323 18.004 50.8704 18.0586 50.8887C18.113 50.907 18.321 50.9499 18.5209 50.984C18.883 51.046 18.8868 51.0461 19.8968 51.0463C20.917 51.0465 21.1867 51.0318 21.5479 50.9566C22.0514 50.8517 22.2817 50.789 22.4726 50.7047C22.8726 50.5282 22.9741 50.4679 23.1751 50.2873C23.303 50.1725 23.4784 49.9917 23.5352 49.9161C23.6407 49.7757 23.8692 49.3022 23.9141 49.1312C23.9394 49.0343 23.9691 48.9386 23.9801 48.9186C24.0255 48.8364 24.1032 48.282 24.1263 47.8763C24.1437 47.5719 24.142 46.4182 24.1235 46.0931C24.1014 45.7006 24.0506 45.3118 23.9909 45.0804C23.8817 44.6564 23.8203 44.4836 23.6785 44.2007C23.3215 43.4883 22.5811 42.9015 21.7241 42.6515C21.5823 42.6101 21.2956 42.5562 21.0526 42.5251C20.998 42.5181 20.9287 42.5077 20.8985 42.5021C20.8239 42.4881 19.6789 42.4659 19.6654 42.4782ZM29.6054 42.6065C29.2846 42.6228 29.2069 42.6317 28.8459 42.6937C28.5161 42.7504 28.3083 42.8077 28.0767 42.906C27.9127 42.9756 27.8405 43.0139 27.6227 43.1473C27.5992 43.1617 27.519 43.2098 27.4446 43.2542C27.2866 43.3487 26.9922 43.6453 26.7998 43.9043C26.6477 44.1092 26.3802 44.6348 26.3802 44.729C26.3802 44.7479 26.3661 44.7906 26.349 44.8239C26.2851 44.947 26.1603 45.5295 26.1147 45.9158C26.0735 46.2645 26.0691 46.395 26.0779 47.0275C26.0909 47.9617 26.1347 48.2433 26.3853 49.006C26.4791 49.2922 26.6006 49.5114 26.835 49.8188C26.9931 50.0258 27.311 50.3395 27.4369 50.4127C27.4913 50.4444 27.5408 50.4761 27.547 50.4832C27.5675 50.5073 27.6456 50.5505 27.8442 50.6472C28.0571 50.7511 28.1795 50.7951 28.432 50.8584C28.5203 50.8806 28.6471 50.9138 28.7138 50.9322C29.0852 51.0346 29.6437 51.0741 30.6291 51.0676C31.2794 51.0633 31.4282 51.056 31.6638 51.0169C32.1455 50.9367 32.6549 50.7873 32.9407 50.6423C33.1566 50.5327 33.2594 50.4746 33.2819 50.4493C33.294 50.4357 33.388 50.3559 33.491 50.2721C33.7242 50.0822 33.8212 49.9901 33.8212 49.9589C33.8212 49.9456 33.8296 49.9347 33.84 49.9347C33.8587 49.9347 34.0724 49.6292 34.0738 49.6007C34.074 49.5926 34.0942 49.5629 34.1187 49.5347C34.1431 49.5065 34.1832 49.4487 34.208 49.4064C34.2642 49.3103 34.4156 48.9378 34.4156 48.8959C34.4156 48.8788 34.4245 48.8554 34.4352 48.8439C34.4929 48.7825 34.6321 48.0403 34.6818 47.5295C34.7058 47.2809 34.6992 46.1407 34.673 46.0161C34.6666 45.9858 34.6552 45.8966 34.6475 45.8179C34.5902 45.2304 34.411 44.6079 34.2023 44.2718C34.1744 44.2266 34.1515 44.1827 34.1515 44.1743C34.1515 44.1658 34.0989 44.0888 34.0348 44.0032C33.9705 43.9176 33.8888 43.808 33.8534 43.7595C33.8177 43.7111 33.7303 43.617 33.6592 43.5504C33.5331 43.4326 33.2638 43.2202 33.2405 43.2202C33.2341 43.2202 33.1844 43.19 33.1295 43.1531C32.9776 43.0505 32.6441 42.8993 32.3843 42.815C32.1543 42.7405 31.7789 42.6712 31.3446 42.6233C31.0914 42.5953 30.0283 42.5851 29.6054 42.6065ZM39.6741 42.6139C39.6697 42.6182 39.5869 42.628 39.4901 42.6357C39.3932 42.6433 39.2495 42.6588 39.1709 42.6701C39.0921 42.6814 38.9884 42.6961 38.9404 42.7029C38.7365 42.7314 38.3295 42.8583 38.1472 42.9502C37.9517 43.0487 37.5847 43.3143 37.4737 43.4377C37.3626 43.5613 37.1272 44.0074 37.0832 44.1778C37.0367 44.3582 36.9881 44.6654 36.97 44.8913C36.9467 45.1877 36.9522 50.8936 36.976 50.9174C36.9984 50.9397 38.941 50.9423 38.9633 50.9201C38.9723 50.9111 38.9868 49.6232 38.9956 48.0582C39.0044 46.4931 39.0183 45.1778 39.0262 45.1355C39.0582 44.9639 39.1337 44.7494 39.1858 44.6807C39.2583 44.586 39.4207 44.4701 39.5453 44.4245C39.7992 44.3316 40.0818 44.3028 40.6349 44.3133C41.3065 44.3261 41.4851 44.3638 41.6951 44.5371C41.895 44.7019 41.9542 44.8346 41.9817 45.1795C41.9927 45.3187 42.0042 46.6363 42.007 48.1075C42.0099 49.5786 42.0176 50.8136 42.0244 50.8518C42.0359 50.9161 42.0445 50.922 42.1394 50.9313C42.3102 50.9481 44.0093 50.9376 44.0271 50.9197C44.0364 50.9105 44.0467 49.6375 44.0503 48.0908C44.0538 46.5441 44.0615 45.2234 44.0676 45.1559C44.0736 45.0885 44.0947 44.9746 44.1145 44.9028C44.1343 44.831 44.1557 44.7502 44.1619 44.7234C44.1804 44.6425 44.3741 44.4668 44.491 44.4249C44.8419 44.299 45.7439 44.2681 46.2786 44.3637C46.5963 44.4205 46.8611 44.6032 46.9265 44.811C47.0341 45.1527 47.0372 45.2311 47.0507 48.1552C47.0575 49.6647 47.0711 50.9077 47.0808 50.9174C47.1094 50.9461 48.9457 50.9557 49.0181 50.9276L49.0798 50.9036L49.0699 47.959C49.0646 46.3395 49.054 44.9599 49.0465 44.8933C48.984 44.3312 48.9217 44.0959 48.7584 43.8033C48.6144 43.5455 48.4048 43.3256 48.1395 43.1537C47.4661 42.7174 46.8774 42.5928 45.5772 42.6112C45.2078 42.6164 44.871 42.6263 44.8287 42.6332C44.7862 42.6401 44.7021 42.6509 44.6416 42.6572C44.3787 42.6844 44.0491 42.7534 43.7603 42.8417C43.7235 42.8529 43.5897 42.9141 43.4631 42.9778C43.2493 43.085 43.2205 43.0936 43.0675 43.0958C42.913 43.098 42.8883 43.0914 42.6822 42.9919C42.3419 42.8275 42.1041 42.7564 41.6696 42.6889C41.167 42.6108 41.0562 42.6036 40.3786 42.6048C39.9955 42.6055 39.6785 42.6096 39.6741 42.6139ZM6.80831 42.7168C6.72487 42.734 6.65795 42.7945 6.60005 42.9052C6.57583 42.9513 6.55029 42.994 6.54303 43C6.53576 43.0061 6.49592 43.0606 6.45431 43.1211C6.4127 43.1816 6.35898 43.2549 6.33521 43.2839C6.31121 43.3128 6.25199 43.3843 6.20356 43.4426C6.07609 43.5961 6.03052 43.6598 5.97218 43.765C5.94356 43.8165 5.91208 43.8586 5.90217 43.8586C5.89227 43.8586 5.88434 43.8713 5.88434 43.8868C5.88434 43.9023 5.86453 43.9292 5.84031 43.9467C5.8161 43.9641 5.79628 43.99 5.79628 44.0042C5.79628 44.0184 5.78131 44.0357 5.76326 44.0427C5.74499 44.0496 5.73024 44.0697 5.73024 44.0872C5.73024 44.1048 5.72275 44.1224 5.71373 44.1265C5.67983 44.1414 5.28994 44.6329 5.28994 44.6605C5.28994 44.6674 5.27255 44.6923 5.25142 44.7156C5.23029 44.7388 5.20988 44.7627 5.19021 44.7871C5.05152 44.9659 4.93594 45.1211 4.87342 45.2121C4.7847 45.3412 4.646 45.4821 4.6361 45.4529C4.63236 45.4418 4.54958 45.3237 4.45227 45.1905C4.24908 44.9122 4.10466 44.7116 4.05711 44.6414C4.03884 44.6145 3.98336 44.5438 3.93383 44.4843C3.88429 44.4247 3.79535 44.3016 3.73635 44.2108C3.67735 44.12 3.61813 44.0358 3.6047 44.0237C3.59127 44.0116 3.50211 43.8927 3.40679 43.7595C3.31146 43.6263 3.18268 43.453 3.12037 43.3743C3.05829 43.2956 2.97397 43.1816 2.93325 43.1211C2.89274 43.0606 2.84651 42.9979 2.83066 42.9819C2.77672 42.927 2.66797 42.7579 2.68558 42.7563C2.69527 42.7555 2.68338 42.7463 2.65916 42.7358C2.63495 42.7254 2.07951 42.7162 1.42501 42.7154C0.479686 42.7141 0.226736 42.7197 0.195695 42.7425C0.160691 42.768 0.159371 42.7822 0.182707 42.8689C0.213748 42.9845 0.236202 43.0179 0.515131 43.3633C0.63247 43.5086 0.771605 43.6836 0.824221 43.7521C0.876837 43.8207 0.999239 43.9757 1.0961 44.0965C1.19297 44.2173 1.29204 44.3437 1.31625 44.3774C1.34047 44.4111 1.37569 44.4543 1.3944 44.4734C1.46155 44.5413 1.6544 44.7747 1.77064 44.9288C1.83536 45.0148 1.97098 45.1833 2.0718 45.303C2.29063 45.5631 2.29305 45.566 2.36108 45.6638C2.39058 45.7062 2.4203 45.7458 2.42712 45.7519C2.43373 45.7579 2.46851 45.8025 2.5044 45.8509C2.54006 45.8994 2.57969 45.95 2.59224 45.9635C2.60478 45.9769 2.64419 46.0248 2.67963 46.07C2.71508 46.1151 2.77342 46.1833 2.8093 46.2216C2.84541 46.2599 2.9152 46.3457 2.96495 46.4123C3.01448 46.4789 3.06027 46.5384 3.06666 46.5444C3.07304 46.5505 3.13006 46.6182 3.19324 46.6949C3.29209 46.8145 3.30464 46.8397 3.28108 46.8721C3.14921 47.0534 2.983 47.2621 2.89978 47.3508C2.84453 47.4098 2.78266 47.4828 2.76219 47.5131C2.74194 47.5433 2.70891 47.5879 2.68888 47.6121C2.55767 47.7718 2.45002 47.9102 2.45002 47.919C2.45002 47.9247 2.42757 47.9525 2.40049 47.9807C2.34501 48.0381 2.19046 48.2243 2.14555 48.2876C2.12948 48.3103 2.08259 48.3657 2.0412 48.4108C1.99981 48.4558 1.96569 48.5009 1.96569 48.5108C1.96569 48.5208 1.95336 48.5413 1.93817 48.5565C1.92298 48.5716 1.88094 48.6222 1.84461 48.6688C1.75061 48.7893 1.65242 48.9056 1.61213 48.944C1.5932 48.9622 1.52517 49.0464 1.46133 49.1312C1.33673 49.2962 1.21212 49.4485 1.13903 49.5246C1.11416 49.5504 1.0873 49.5889 1.07915 49.6101C1.07101 49.6312 1.05427 49.6485 1.04173 49.6485C1.02918 49.6485 1.01905 49.6634 1.01905 49.6815C1.01905 49.6997 1.01113 49.7146 1.00166 49.7146C0.992193 49.7146 0.966657 49.7445 0.945082 49.7812C0.923508 49.8178 0.884099 49.8712 0.857902 49.8999C0.831484 49.9285 0.78085 49.9886 0.745406 50.0333C0.709962 50.0781 0.655365 50.1433 0.624324 50.1783C0.593063 50.2133 0.52812 50.298 0.479687 50.3664C0.431255 50.4348 0.369173 50.5147 0.342094 50.544C0.314796 50.5732 0.292561 50.6066 0.292561 50.6182C0.292561 50.6297 0.284634 50.6392 0.275168 50.6392C0.242806 50.6392 0.182486 50.767 0.182486 50.8359C0.182486 50.8868 0.195475 50.9099 0.23202 50.9246C0.259538 50.9356 0.805507 50.9426 1.46661 50.9404C2.62063 50.9365 2.65256 50.9352 2.6836 50.8927C2.70121 50.8687 2.76131 50.7976 2.81745 50.7347C2.87337 50.6718 2.94976 50.5766 2.98718 50.5231C3.05081 50.4324 3.2146 50.2128 3.27756 50.1343C3.29275 50.1153 3.35351 50.0404 3.41295 49.9677C3.47217 49.8951 3.58863 49.7415 3.67163 49.6265C3.75462 49.5115 3.8352 49.4075 3.85061 49.3953C3.87526 49.376 3.93008 49.3083 4.04676 49.1532C4.21055 48.9356 4.33251 48.7771 4.34308 48.7679C4.35013 48.7619 4.41111 48.6777 4.47869 48.5808C4.61497 48.3853 4.74199 48.2396 4.77589 48.2396C4.78822 48.2396 4.83115 48.2904 4.87144 48.3525C4.91173 48.4147 5.00309 48.5392 5.07464 48.6292C5.14618 48.7193 5.26991 48.8888 5.3496 49.0061C5.49644 49.222 5.56557 49.3156 5.63733 49.3953C5.69567 49.4606 5.86233 49.6886 5.86233 49.7036C5.86233 49.7106 5.90438 49.773 5.95567 49.8421C6.00697 49.9112 6.06949 49.9977 6.09481 50.0343C6.1199 50.071 6.15645 50.1205 6.17604 50.1444C6.26608 50.2539 6.36229 50.3791 6.4127 50.4521C6.44286 50.4959 6.47808 50.5435 6.49085 50.558C6.54039 50.6144 6.65487 50.7914 6.65487 50.8118C6.65487 50.8237 6.68525 50.859 6.72245 50.8904L6.79026 50.9474L7.94978 50.9471C8.58755 50.9469 9.13088 50.9411 9.15686 50.9341C9.1934 50.9243 9.20617 50.9009 9.21278 50.8323C9.21784 50.7783 9.21013 50.732 9.19296 50.7148C9.17733 50.6991 9.16456 50.6812 9.16456 50.6749C9.16456 50.6685 9.13198 50.6306 9.09235 50.5907C9.05273 50.5508 9.00584 50.4892 8.98778 50.454C8.96995 50.4187 8.8907 50.3147 8.81166 50.2228C8.73263 50.131 8.63863 50.0162 8.60252 49.9677C8.46405 49.7811 8.20779 49.4611 8.19128 49.4541C8.1816 49.45 8.17389 49.4342 8.17389 49.4189C8.17389 49.4037 8.15298 49.3723 8.12744 49.3492C8.1019 49.3262 8.02441 49.233 7.95528 49.1422C7.75539 48.88 7.63453 48.725 7.49209 48.5478C7.40479 48.4387 7.31878 48.3286 7.23408 48.2175C7.16539 48.1267 7.10287 48.0475 7.09538 48.0414C7.07843 48.0276 6.82746 47.6976 6.79796 47.6501C6.78585 47.6306 6.75459 47.5924 6.72861 47.5651C6.66763 47.5012 6.47875 47.2558 6.47875 47.2406C6.47875 47.2341 6.45629 47.2049 6.42921 47.1756C6.25309 46.986 6.12651 46.8044 6.12651 46.741C6.12651 46.716 6.14984 46.6869 6.18155 46.6725C6.21171 46.6587 6.23658 46.639 6.23658 46.6288C6.23658 46.6186 6.26102 46.5889 6.29096 46.5628C6.3209 46.5368 6.37263 46.475 6.4061 46.4254C6.49526 46.2929 6.60489 46.1541 6.7383 46.0051C6.8792 45.8477 6.88954 45.8353 6.98663 45.7079C7.02802 45.6534 7.06853 45.6038 7.07645 45.5978C7.08416 45.5917 7.13457 45.5273 7.18807 45.4547C7.24156 45.382 7.32434 45.2768 7.37189 45.2209C7.46787 45.1081 7.47998 45.0932 7.62902 44.9043C7.68648 44.8317 7.7468 44.7574 7.76309 44.7392C7.77917 44.721 7.84587 44.6368 7.91103 44.5521C7.9762 44.4673 8.08253 44.3336 8.14747 44.2549C8.2122 44.1762 8.28088 44.092 8.30004 44.0677C8.31897 44.0435 8.37533 43.9776 8.42486 43.9212C8.4744 43.8649 8.52503 43.8054 8.53714 43.7891C8.54925 43.7728 8.58843 43.7199 8.62432 43.6715C8.69763 43.5728 8.87287 43.3615 9.04106 43.1695C9.15774 43.0363 9.2273 42.8989 9.22929 42.7974C9.23039 42.747 9.2196 42.736 9.15906 42.7257C9.05603 42.7083 6.88976 42.7001 6.80831 42.7168ZM11.4992 42.7558C11.4706 42.8093 11.4768 50.8894 11.5054 50.918C11.5294 50.942 13.492 50.942 13.516 50.918C13.5378 50.8964 13.5343 42.7614 13.5127 42.7397C13.5046 42.7315 13.0535 42.7219 12.5104 42.7183C11.5417 42.7118 11.5224 42.7126 11.4992 42.7558ZM51.8975 42.7337C51.847 42.7426 51.8189 42.7613 51.8118 42.7909C51.8061 42.8151 51.8004 44.64 51.7988 46.8463C51.7966 50.546 51.7993 50.8606 51.8327 50.8941C51.8647 50.9261 51.9675 50.9317 52.7023 50.942C53.1607 50.9485 53.6025 50.9465 53.6842 50.9378L53.8328 50.9219V42.7419L53.7093 42.7274C53.5596 42.7098 52.0031 42.7153 51.8975 42.7337ZM30.8979 44.3003C31.5313 44.366 31.948 44.5315 32.2164 44.8241C32.5389 45.1758 32.6272 45.4999 32.6547 46.4343C32.6895 47.6178 32.6164 48.2829 32.4147 48.6138C32.2868 48.8236 31.9751 49.0893 31.719 49.207C31.354 49.3746 31.0808 49.4174 30.3759 49.4174C29.8214 49.4174 29.6662 49.4003 29.3005 49.2991C29.0139 49.2196 28.751 49.0703 28.5599 48.8783C28.4443 48.762 28.2948 48.4861 28.2381 48.2836C28.1392 47.9316 28.0751 47.4169 28.0758 46.9822C28.0776 46.0239 28.1603 45.4954 28.3695 45.1098C28.4644 44.9351 28.6905 44.6718 28.7937 44.6162C28.913 44.5517 29.0889 44.4628 29.1541 44.4339C29.2254 44.4022 29.571 44.3211 29.7265 44.2995C29.9129 44.2736 30.6447 44.2741 30.8979 44.3003ZM21.1627 47.2516C21.3018 47.2612 21.4405 47.2744 21.4709 47.281C21.501 47.2876 21.61 47.299 21.7131 47.3063C21.8159 47.3136 21.92 47.3228 21.9442 47.3267C21.9684 47.3305 21.9957 47.3344 22.0052 47.3353C22.0263 47.3374 22.0056 47.9544 21.9739 48.2584C21.9493 48.4972 21.8749 48.7694 21.8027 48.8864C21.7084 49.0387 21.439 49.2275 21.2677 49.261C21.2402 49.2664 21.173 49.2872 21.1186 49.3072C20.9333 49.3754 20.5126 49.4033 19.7757 49.3962C19.3942 49.3926 19.0426 49.3831 18.9942 49.3751C18.7168 49.3294 18.4423 49.2433 18.2889 49.1536C18.1821 49.0913 18.0108 48.8794 17.9377 48.7191C17.8424 48.5099 17.8177 48.0563 17.8939 47.9079C17.9269 47.8434 18.0562 47.6729 18.1374 47.5866C18.2144 47.5049 18.5649 47.3686 18.7813 47.3364C18.9711 47.308 19.4473 47.2523 19.5886 47.2419C19.7898 47.227 20.9055 47.2339 21.1627 47.2516Z" fill="#89898A"/>
<path fill-rule="evenodd" clip-rule="evenodd" d="M25.6089 0.935623C25.6022 0.941478 25.3184 0.954069 24.9782 0.963608C22.803 1.02466 20.5258 1.37764 19.0953 1.87546C17.6805 2.36783 16.5694 3.05621 15.6307 4.022C15.0482 4.62123 14.6201 5.22139 14.235 5.97844C13.614 7.19923 13.3002 8.42141 13.0089 10.7541C12.8004 12.4231 12.7296 13.631 12.7341 15.4412C12.7395 17.6101 12.9184 19.5958 13.2975 21.6952C13.5857 23.2907 14.1419 24.5648 15.0628 25.7392C15.3561 26.1132 15.3822 26.1429 15.7084 26.4754C16.8749 27.664 18.2681 28.4578 19.9063 28.8669C20.7397 29.075 22.0194 29.263 23.1913 29.3496C24.318 29.4329 25.8633 29.4749 27.7959 29.4749C31.6832 29.4749 34.1248 29.0736 36.0705 28.1147C36.9279 27.6921 37.5989 27.21 38.2863 26.5226C39.2817 25.5272 39.9008 24.5071 40.3736 23.0834C40.9008 21.4965 41.1257 20.0962 41.1862 18.0252C41.1964 17.685 41.2082 17.4 41.2129 17.3917C41.2291 17.3624 41.2662 15.4691 41.2662 14.6577C41.2662 12.8321 41.1834 11.4782 40.9905 10.143C40.7414 8.41943 40.4225 7.27185 39.8925 6.19072C39.4374 5.26271 38.9425 4.57812 38.2205 3.87784C37.5701 3.24699 36.8606 2.75445 35.988 2.32794C34.5034 1.60226 32.8908 1.21377 30.8611 1.09276C30.0031 1.04162 29.9217 1.03745 29.2392 1.0096C28.8687 0.994479 28.4358 0.975428 28.277 0.967291C27.9112 0.948488 25.6251 0.921383 25.6089 0.935623ZM28.171 9.90291C28.8802 10.0201 29.4905 10.3489 30.0022 10.8895C30.3471 11.2538 30.5709 11.6263 30.7219 12.0874C30.8641 12.5213 30.8611 12.4191 30.8611 16.8742C30.8611 20.985 30.8606 21.0222 30.8061 21.0766C30.7528 21.13 30.7145 21.1316 29.5034 21.1316C28.3554 21.1316 28.251 21.1278 28.1977 21.0835L28.1398 21.0354L28.1319 17.3517C28.1246 13.8927 28.121 13.658 28.0744 13.5031C27.8918 12.8962 27.4143 12.4244 26.82 12.2636C26.6556 12.2191 26.4226 12.215 23.8923 12.2117C22.3804 12.2098 21.111 12.2187 21.0715 12.2316C21.032 12.2445 20.9856 12.2859 20.9684 12.3237C20.9455 12.3741 20.9371 13.5407 20.9371 16.707C20.9371 20.985 20.9367 21.0221 20.8822 21.0766C20.8288 21.13 20.7905 21.1316 19.5825 21.1316C18.5004 21.1316 18.3298 21.126 18.2767 21.0888L18.2156 21.046V15.5083C18.2156 10.0022 18.2159 9.97032 18.2708 9.91547C18.3255 9.86071 18.357 9.86036 23.1296 9.862C27.1575 9.86338 27.9718 9.86998 28.171 9.90291ZM35.7143 9.92815L35.7818 9.99561V20.9867L35.7248 21.0592L35.6679 21.1316H33.1468L33.0898 21.0592L33.0328 20.9867V9.99561L33.1003 9.92815L33.1678 9.86066H35.6469L35.7143 9.92815ZM25.9176 14.2496C25.9658 14.2932 25.9678 14.435 25.9678 17.6584C25.9678 20.985 25.9672 21.0223 25.9129 21.0766C25.8594 21.1301 25.8212 21.1316 24.5384 21.1316C23.2555 21.1316 23.2173 21.1301 23.1638 21.0766C23.1095 21.0223 23.1089 20.985 23.1089 17.6679C23.1089 14.3507 23.1095 14.3135 23.1638 14.2591C23.2173 14.2056 23.2555 14.2041 24.5431 14.2041C25.7367 14.2041 25.8723 14.2086 25.9176 14.2496Z" fill="#FF6200"/>
<path d="M35.5878 9.78223H33.207C33.1051 9.78223 33.0225 9.86651 33.0225 9.97034V21.2604C33.0225 21.3633 33.1051 21.4476 33.207 21.4476H35.5878C35.6889 21.4476 35.7725 21.3633 35.7725 21.2604V9.97034C35.7725 9.86651 35.6889 9.78223 35.5878 9.78223ZM27.4587 9.78223H18.39C18.288 9.78223 18.2061 9.86651 18.2061 9.97034V21.2604C18.2061 21.3633 18.288 21.4476 18.39 21.4476H20.7713C20.8727 21.4476 20.9567 21.3633 20.9567 21.2604V12.3994C20.9567 12.297 21.0386 12.2122 21.1406 12.2122H26.2702C27.7127 12.2122 28.1222 13.3605 28.1222 14.1012V21.2604C28.1222 21.3633 28.205 21.4476 28.307 21.4476H30.6869C30.7883 21.4476 30.8714 21.3633 30.8714 21.2604V13.2512C30.8714 12.5905 30.7949 11.6406 29.9748 10.8044C29.1167 9.93153 28.3339 9.78223 27.4587 9.78223Z" fill="white"/>
<path d="M25.7915 14.2002H23.2907C23.1887 14.2002 23.105 14.2845 23.105 14.3877V21.2622C23.105 21.3648 23.1887 21.4491 23.2907 21.4491H25.7915C25.8926 21.4491 25.9754 21.3648 25.9754 21.2622V14.3877C25.9754 14.2845 25.8926 14.2002 25.7915 14.2002Z" fill="white"/>
</svg>
