<svg width="155" height="35" viewBox="0 0 155 35" fill="none" xmlns="http://www.w3.org/2000/svg">
<path fill-rule="evenodd" clip-rule="evenodd" d="M15.7874 0.00488278C15.7792 0.0120627 15.4312 0.0275013 15.0141 0.0391982C12.3468 0.114065 9.55445 0.546884 7.80042 1.15731C6.0656 1.76107 4.70317 2.60517 3.55212 3.78942C2.83787 4.5242 2.31289 5.26012 1.84073 6.18843C1.07926 7.68536 0.694472 9.18401 0.337228 12.0444C0.0815821 14.0909 -0.00525125 15.572 0.000243258 17.7917C0.00685015 20.4512 0.226226 22.8861 0.691135 25.4604C1.04447 27.4168 1.72646 28.9792 2.85573 30.4192C3.21534 30.8778 3.24733 30.9142 3.64741 31.3219C5.07771 32.7794 6.78613 33.7528 8.79482 34.2544C9.8168 34.5095 11.386 34.7401 12.823 34.8463C14.2045 34.9484 16.0994 35 18.4692 35C23.2358 35 26.2297 34.5079 28.6155 33.332C29.6668 32.8139 30.4897 32.2227 31.3326 31.3798C32.5531 30.1592 33.3123 28.9084 33.892 27.1627C34.5385 25.2167 34.8143 23.4998 34.8884 20.9603C34.9009 20.5431 34.9154 20.1936 34.9211 20.1835C34.941 20.1475 34.9865 17.8259 34.9865 16.831C34.9865 14.5924 34.8851 12.9323 34.6484 11.2951C34.343 9.18158 33.952 7.77442 33.302 6.44872C32.7441 5.31079 32.1372 4.47134 31.2519 3.61265C30.4543 2.8391 29.5844 2.23515 28.5144 1.71216C26.6939 0.822317 24.7166 0.345947 22.2277 0.197561C21.1756 0.134863 21.0758 0.12974 20.2389 0.0955927C19.7847 0.0770529 19.2538 0.0536929 19.0591 0.0437151C18.6106 0.0206584 15.8073 -0.0125783 15.7874 0.00488278ZM18.9291 11.0006C19.7988 11.1443 20.5471 11.5475 21.1746 12.2104C21.5974 12.6571 21.8718 13.1139 22.057 13.6792C22.2313 14.2113 22.2277 14.086 22.2277 19.5489C22.2277 24.5896 22.2271 24.6351 22.1603 24.7019C22.0949 24.7674 22.0479 24.7694 20.5629 24.7694C19.1552 24.7694 19.0272 24.7646 18.9618 24.7104L18.8908 24.6514L18.8812 20.1344C18.8722 15.8929 18.8678 15.6051 18.8107 15.4152C18.5867 14.671 18.0013 14.0925 17.2725 13.8954C17.0709 13.8408 16.7852 13.8357 13.6826 13.8317C11.8286 13.8293 10.2721 13.8403 10.2237 13.8561C10.1752 13.8719 10.1184 13.9227 10.0973 13.969C10.0691 14.0308 10.0589 15.4613 10.0589 19.3439C10.0589 24.5896 10.0583 24.6351 9.99148 24.7019C9.92605 24.7674 9.87913 24.7694 8.39784 24.7694C7.071 24.7694 6.8618 24.7625 6.79668 24.7169L6.72174 24.6644V17.874C6.72174 11.1224 6.72211 11.0833 6.78936 11.016C6.85651 10.9489 6.89514 10.9485 12.7474 10.9505C17.6863 10.9522 18.6848 10.9603 18.9291 11.0006ZM28.1788 11.0316L28.2616 11.1143V24.5917L28.1917 24.6805L28.1218 24.7694H25.0304L24.9606 24.6805L24.8907 24.5917V11.1143L24.9734 11.0316L25.0562 10.9488H28.0961L28.1788 11.0316ZM16.1659 16.3306C16.225 16.384 16.2276 16.5579 16.2276 20.5104C16.2276 24.5896 16.2268 24.6353 16.1602 24.7019C16.0946 24.7675 16.0478 24.7694 14.4747 24.7694C12.9016 24.7694 12.8548 24.7675 12.7893 24.7019C12.7226 24.6353 12.7219 24.5896 12.7219 20.5221C12.7219 16.4546 12.7226 16.4089 12.7893 16.3422C12.8549 16.2766 12.9016 16.2748 14.4805 16.2748C15.9442 16.2748 16.1104 16.2803 16.1659 16.3306Z" fill="#FF6200"/>
<path d="M28.0206 10.8525H25.1013C24.9763 10.8525 24.8751 10.9559 24.8751 11.0832V24.9271C24.8751 25.0534 24.9763 25.1567 25.1013 25.1567H28.0206C28.1446 25.1567 28.2472 25.0534 28.2472 24.9271V11.0832C28.2472 10.9559 28.1446 10.8525 28.0206 10.8525ZM18.0527 10.8525H6.93254C6.80752 10.8525 6.70703 10.9559 6.70703 11.0832V24.9271C6.70703 25.0534 6.80752 25.1567 6.93254 25.1567H9.85259C9.97687 25.1567 10.0799 25.0534 10.0799 24.9271V14.0617C10.0799 13.9362 10.1803 13.8321 10.3054 13.8321H16.5954C18.3642 13.8321 18.8663 15.2402 18.8663 16.1485V24.9271C18.8663 25.0534 18.9679 25.1567 19.0929 25.1567H22.0112C22.1355 25.1567 22.2374 25.0534 22.2374 24.9271V15.1062C22.2374 14.2961 22.1436 13.1312 21.1379 12.1059C20.0857 11.0356 19.1259 10.8525 18.0527 10.8525Z" fill="white"/>
<path d="M16.009 16.2705H12.9425C12.8175 16.2705 12.7148 16.3738 12.7148 16.5004V24.9299C12.7148 25.0558 12.8175 25.1591 12.9425 25.1591H16.009C16.133 25.1591 16.2346 25.0558 16.2346 24.9299V16.5004C16.2346 16.3738 16.133 16.2705 16.009 16.2705Z" fill="white"/>
<path fill-rule="evenodd" clip-rule="evenodd" d="M88.5598 9.22758C88.5483 9.23789 88.2663 9.25774 87.9328 9.2717C87.5994 9.28561 87.3131 9.30482 87.2965 9.31433C87.28 9.32383 87.0959 9.34457 86.8872 9.36048C86.6789 9.37635 86.4952 9.39743 86.4791 9.40731C86.4634 9.41724 86.3187 9.43705 86.1584 9.45139C85.3392 9.52456 84.0861 9.80836 83.3637 10.0843C83.2004 10.1467 83.0324 10.2081 82.9908 10.2208C82.8169 10.2737 82.8012 10.4011 82.7724 11.9936C82.7414 13.701 82.735 13.66 83.0316 13.6962C83.1291 13.7082 83.3124 13.6805 83.491 13.6265C84.1485 13.4282 84.4123 13.3553 85.1042 13.1807C85.9853 12.9583 86.9593 12.7497 87.4997 12.6675C88.4279 12.5262 90.5391 12.5532 90.9714 12.7118C91.0567 12.7431 91.2679 12.8008 91.441 12.8399C91.8024 12.9218 92.0892 13.0572 92.4039 13.2946C92.6339 13.4683 92.7751 13.7252 92.8901 14.178C92.9647 14.4732 92.9703 14.5109 93 14.9592L93.0279 15.3796L92.65 15.3485C91.1517 15.2254 89.4485 15.1758 88.7083 15.2337L87.5209 15.3268C86.323 15.4208 84.8383 15.7303 84.0967 16.0408C83.1219 16.4489 82.1836 17.1988 81.9151 17.7839C81.3632 18.987 81.2474 20.5262 81.5999 21.9624C81.7348 22.5109 81.8493 22.8208 82.0364 23.1414C82.1013 23.2533 82.1547 23.3631 82.1547 23.3855C82.1547 23.5078 83.1491 24.3864 83.6399 24.6977C83.768 24.779 83.8791 24.8601 83.8868 24.878C83.8944 24.8959 83.9262 24.9106 83.9572 24.9106C83.9882 24.9106 84.1438 24.9693 84.3033 25.041C84.4633 25.1127 84.7466 25.216 84.9333 25.2705C85.1199 25.325 85.3583 25.3985 85.4635 25.4337C85.5683 25.469 85.9692 25.5516 86.3544 25.6174C87.0522 25.7368 87.0594 25.7371 89.0056 25.7374C90.9714 25.7378 91.491 25.7095 92.1872 25.5646C93.1573 25.3625 93.601 25.2417 93.9688 25.0793C94.7396 24.7391 94.9352 24.6229 95.3225 24.275C95.5689 24.0538 95.907 23.7054 96.0165 23.5596C96.2197 23.2892 96.66 22.3768 96.7465 22.0472C96.7953 21.8606 96.8526 21.6762 96.8738 21.6375C96.9612 21.4792 97.1109 20.411 97.1555 19.6292C97.189 19.0426 97.1856 16.8195 97.1499 16.1932C97.1075 15.4369 97.0095 14.6876 96.8946 14.2418C96.6842 13.4249 96.5658 13.0918 96.2926 12.5466C95.6046 11.174 94.178 10.0432 92.5265 9.56155C92.2533 9.48185 91.701 9.37787 91.2327 9.31793C91.1275 9.30449 90.9939 9.28455 90.9358 9.2736C90.792 9.24667 88.5857 9.20395 88.5598 9.22758ZM107.713 9.47485C107.095 9.5062 106.945 9.52342 106.25 9.64292C105.614 9.75206 105.214 9.86257 104.767 10.052C104.451 10.1861 104.312 10.2599 103.893 10.5168C103.847 10.5446 103.693 10.6373 103.549 10.7229C103.245 10.905 102.678 11.4765 102.307 11.9755C102.014 12.3703 101.498 13.3832 101.498 13.5648C101.498 13.6012 101.471 13.6834 101.438 13.7476C101.315 13.9848 101.075 15.1071 100.987 15.8515C100.908 16.5233 100.899 16.7749 100.916 17.9937C100.941 19.7937 101.025 20.3364 101.508 21.806C101.689 22.3575 101.923 22.7799 102.375 23.3722C102.679 23.7711 103.292 24.3756 103.535 24.5166C103.639 24.5776 103.735 24.6387 103.747 24.6524C103.786 24.6989 103.937 24.7821 104.319 24.9685C104.73 25.1687 104.965 25.2535 105.452 25.3755C105.622 25.4182 105.866 25.4822 105.995 25.5176C106.711 25.7149 107.787 25.791 109.686 25.7785C110.939 25.7703 111.225 25.7562 111.679 25.6807C112.608 25.5263 113.589 25.2384 114.14 24.9591C114.556 24.7478 114.754 24.6358 114.797 24.5871C114.821 24.5608 115.002 24.4071 115.2 24.2456C115.649 23.8798 115.837 23.7023 115.837 23.6422C115.837 23.6165 115.853 23.5955 115.873 23.5955C115.909 23.5955 116.321 23.0068 116.323 22.952C116.324 22.9364 116.363 22.8792 116.41 22.8248C116.457 22.7704 116.534 22.6591 116.582 22.5775C116.69 22.3925 116.982 21.6747 116.982 21.5938C116.982 21.5609 116.999 21.5158 117.02 21.4936C117.131 21.3754 117.399 19.9453 117.495 18.9609C117.541 18.4819 117.528 16.2849 117.478 16.0447C117.466 15.9864 117.443 15.8146 117.429 15.6629C117.318 14.5308 116.973 13.3313 116.571 12.6837C116.517 12.5967 116.473 12.5121 116.473 12.4958C116.473 12.4794 116.371 12.3311 116.248 12.1662C116.124 12.0012 115.967 11.7899 115.899 11.6966C115.83 11.6033 115.661 11.4219 115.524 11.2936C115.281 11.0666 114.762 10.6573 114.718 10.6573C114.705 10.6573 114.609 10.5992 114.504 10.5281C114.211 10.3304 113.568 10.039 113.068 9.87665C112.624 9.73297 111.901 9.59956 111.064 9.50713C110.576 9.45325 108.528 9.43353 107.713 9.47485ZM127.114 9.4891C127.106 9.49741 126.946 9.51629 126.76 9.53105C126.573 9.54577 126.296 9.57564 126.145 9.5974C125.993 9.61916 125.793 9.64758 125.701 9.66056C125.308 9.71558 124.523 9.96009 124.172 10.137C123.795 10.3269 123.088 10.8388 122.875 11.0764C122.66 11.3147 122.207 12.1742 122.122 12.5026C122.033 12.8501 121.939 13.442 121.904 13.8775C121.859 14.4485 121.87 25.4433 121.915 25.4892C121.959 25.5321 125.702 25.537 125.745 25.4943C125.762 25.477 125.79 22.9954 125.807 19.9796C125.824 16.9638 125.851 14.4296 125.866 14.3479C125.928 14.0174 126.073 13.604 126.174 13.4717C126.313 13.2891 126.626 13.0658 126.866 12.978C127.355 12.799 127.9 12.7434 128.966 12.7637C130.26 12.7883 130.604 12.8609 131.009 13.1949C131.394 13.5124 131.508 13.7682 131.561 14.4327C131.582 14.701 131.604 17.2399 131.61 20.0747C131.615 22.9094 131.63 25.289 131.643 25.3627C131.665 25.4866 131.682 25.498 131.865 25.516C132.194 25.5482 135.468 25.5281 135.502 25.4935C135.52 25.4758 135.54 23.0228 135.547 20.0425C135.554 17.0621 135.568 14.5173 135.58 14.3873C135.592 14.2574 135.632 14.0378 135.671 13.8995C135.709 13.7611 135.75 13.6056 135.762 13.5539C135.798 13.3979 136.171 13.0594 136.396 12.9786C137.072 12.736 138.81 12.6765 139.841 12.8607C140.453 12.9702 140.963 13.3223 141.089 13.7227C141.296 14.3811 141.302 14.5323 141.328 20.1666C141.341 23.0752 141.368 25.4704 141.386 25.4891C141.442 25.5443 144.98 25.5629 145.119 25.5087L145.238 25.4625L145.219 19.7886C145.209 16.6679 145.189 14.0096 145.174 13.8813C145.054 12.7982 144.934 12.3448 144.619 11.7809C144.341 11.2842 143.938 10.8605 143.426 10.5292C142.129 9.6886 140.994 9.4485 138.489 9.48392C137.777 9.49398 137.128 9.51307 137.047 9.52634C136.965 9.53958 136.803 9.56037 136.686 9.57246C136.18 9.62497 135.545 9.75792 134.988 9.92807C134.917 9.94966 134.659 10.0676 134.415 10.1902C134.004 10.3969 133.948 10.4135 133.653 10.4177C133.355 10.422 133.308 10.4092 132.911 10.2174C132.255 9.90075 131.797 9.76364 130.959 9.63358C129.991 9.4832 129.778 9.46929 128.472 9.47158C127.734 9.47289 127.123 9.48079 127.114 9.4891ZM63.7854 9.68746C63.6246 9.7205 63.4957 9.83707 63.3841 10.0505C63.3375 10.1393 63.2882 10.2214 63.2742 10.2331C63.2602 10.2448 63.1835 10.3498 63.1033 10.4664C63.0231 10.5831 62.9196 10.7242 62.8738 10.78C62.8276 10.8358 62.7135 10.9735 62.6201 11.086C62.3745 11.3817 62.2867 11.5044 62.1743 11.7072C62.1191 11.8064 62.0585 11.8875 62.0394 11.8875C62.0203 11.8875 62.005 11.9119 62.005 11.9418C62.005 11.9716 61.9669 12.0236 61.9202 12.0572C61.8735 12.0908 61.8353 12.1407 61.8353 12.1681C61.8353 12.1954 61.8065 12.2288 61.7717 12.2422C61.7365 12.2556 61.7081 12.2943 61.7081 12.328C61.7081 12.3619 61.6937 12.3958 61.6763 12.4036C61.6109 12.4325 60.8597 13.3796 60.8597 13.4326C60.8597 13.4461 60.8262 13.4939 60.7854 13.5389C60.7447 13.5836 60.7054 13.6296 60.6675 13.6767C60.4003 14.0212 60.1776 14.3202 60.0571 14.4955C59.8861 14.7444 59.6189 15.0158 59.5998 14.9596C59.5926 14.9381 59.4331 14.7106 59.2456 14.4539C58.854 13.9178 58.5758 13.5312 58.4841 13.3959C58.4489 13.3441 58.342 13.2079 58.2466 13.0931C58.1511 12.9783 57.9798 12.7412 57.8661 12.5662C57.7524 12.3913 57.6383 12.229 57.6124 12.2057C57.5865 12.1823 57.4147 11.9533 57.231 11.6966C57.0474 11.44 56.7992 11.1059 56.6791 10.9543C56.5595 10.8026 56.397 10.5831 56.3186 10.4664C56.2405 10.3498 56.1514 10.229 56.1209 10.1981C56.017 10.0923 55.8074 9.76649 55.8413 9.76352C55.86 9.76186 55.8371 9.74413 55.7904 9.72407C55.7438 9.704 54.6735 9.68627 53.4123 9.68461C51.5908 9.68224 51.1034 9.69301 51.0436 9.73692C50.9761 9.78604 50.9736 9.81336 51.0186 9.98046C51.0784 10.2031 51.1216 10.2676 51.6591 10.933C51.8852 11.213 52.1533 11.5502 52.2547 11.6824C52.3561 11.8145 52.5919 12.1131 52.7786 12.3459C52.9652 12.5786 53.1561 12.8222 53.2028 12.8872C53.2495 12.9521 53.3173 13.0353 53.3534 13.0721C53.4828 13.2029 53.8544 13.6527 54.0783 13.9496C54.2031 14.1155 54.4644 14.44 54.6587 14.6708C55.0803 15.172 55.085 15.1775 55.2161 15.366C55.2729 15.4476 55.3302 15.524 55.3433 15.5357C55.356 15.5473 55.4231 15.6332 55.4922 15.7266C55.5609 15.8199 55.6373 15.9175 55.6615 15.9434C55.6857 15.9693 55.7616 16.0616 55.8299 16.1486C55.8982 16.2355 56.0106 16.367 56.0797 16.4408C56.1493 16.5146 56.2838 16.68 56.3797 16.8083C56.4751 16.9366 56.5633 17.0511 56.5756 17.0628C56.5879 17.0745 56.6978 17.205 56.8196 17.3527C57.01 17.5833 57.0342 17.6318 56.9888 17.6943C56.7347 18.0436 56.4144 18.4457 56.2541 18.6167C56.1476 18.7303 56.0284 18.871 55.989 18.9293C55.9499 18.9876 55.8863 19.0735 55.8477 19.1202C55.5949 19.4278 55.3874 19.6946 55.3874 19.7115C55.3874 19.7225 55.3442 19.776 55.292 19.8304C55.1851 19.9409 54.8873 20.2997 54.8008 20.4218C54.7698 20.4654 54.6794 20.5722 54.5997 20.6591C54.5199 20.7459 54.4542 20.8327 54.4542 20.8518C54.4542 20.871 54.4304 20.9106 54.4012 20.9398C54.3719 20.969 54.2909 21.0664 54.2209 21.1562C54.0397 21.3885 53.8505 21.6125 53.7729 21.6866C53.7364 21.7216 53.6054 21.8839 53.4823 22.0472C53.2422 22.3652 53.0021 22.6587 52.8613 22.8053C52.8134 22.8551 52.7616 22.9292 52.7459 22.97C52.7302 23.0107 52.698 23.0441 52.6738 23.0441C52.6496 23.0441 52.6301 23.0727 52.6301 23.1077C52.6301 23.1427 52.6148 23.1713 52.5966 23.1713C52.5784 23.1713 52.5292 23.2291 52.4876 23.2997C52.446 23.3703 52.3701 23.4733 52.3196 23.5285C52.2687 23.5837 52.1711 23.6994 52.1028 23.7856C52.0345 23.8718 51.9293 23.9975 51.8695 24.065C51.8093 24.1324 51.6841 24.2955 51.5908 24.4273C51.4975 24.5592 51.3779 24.7132 51.3257 24.7695C51.2731 24.8259 51.2302 24.8902 51.2302 24.9125C51.2302 24.9348 51.215 24.953 51.1967 24.953C51.1344 24.953 51.0181 25.1993 51.0181 25.3321C51.0181 25.4301 51.0432 25.4747 51.1136 25.5029C51.1666 25.5242 52.2186 25.5377 53.4925 25.5334C55.7162 25.5259 55.7777 25.5235 55.8375 25.4415C55.8715 25.3952 55.9873 25.2582 56.0954 25.1371C56.2032 25.0159 56.3504 24.8324 56.4225 24.7293C56.5451 24.5545 56.8607 24.1314 56.982 23.9801C57.0113 23.9436 57.1284 23.7992 57.2429 23.6592C57.357 23.5192 57.5814 23.2233 57.7414 23.0017C57.9013 22.78 58.0565 22.5796 58.0862 22.5562C58.1337 22.519 58.2394 22.3886 58.4642 22.0896C58.7798 21.6704 59.0148 21.3649 59.0352 21.3473C59.0487 21.3356 59.1663 21.1733 59.2965 20.9867C59.5591 20.61 59.8038 20.3292 59.8692 20.3292C59.8929 20.3292 59.9756 20.4272 60.0533 20.5469C60.1309 20.6666 60.3069 20.9066 60.4448 21.0801C60.5827 21.2535 60.8211 21.5803 60.9746 21.8062C61.2576 22.2221 61.3908 22.4025 61.5291 22.5562C61.6415 22.6819 61.9626 23.1214 61.9626 23.1501C61.9626 23.1638 62.0436 23.2839 62.1425 23.4171C62.2413 23.5502 62.3618 23.7169 62.4106 23.7875C62.4589 23.8581 62.5293 23.9535 62.5671 23.9996C62.7406 24.2106 62.926 24.4518 63.0231 24.5924C63.0812 24.6769 63.1491 24.7687 63.1737 24.7965C63.2692 24.9052 63.4897 25.2463 63.4897 25.2856C63.4897 25.3085 63.5483 25.3767 63.62 25.4371L63.7506 25.5469L65.9849 25.5463C67.2138 25.546 68.2608 25.5347 68.3108 25.5212C68.3812 25.5023 68.4058 25.4574 68.4186 25.325C68.4283 25.221 68.4135 25.1318 68.3804 25.0986C68.3503 25.0685 68.3257 25.0339 68.3257 25.0217C68.3257 25.0095 68.2629 24.9365 68.1865 24.8596C68.1102 24.7826 68.0198 24.6641 67.985 24.5961C67.9507 24.5281 67.798 24.3277 67.6457 24.1507C67.4934 23.9737 67.3123 23.7525 67.2427 23.6592C66.9759 23.2995 66.4821 22.6829 66.4503 22.6694C66.4316 22.6616 66.4168 22.6312 66.4168 22.6017C66.4168 22.5723 66.3765 22.5118 66.3272 22.4674C66.278 22.4229 66.1287 22.2434 65.9955 22.0684C65.6103 21.5632 65.3775 21.2645 65.103 20.9231C64.9348 20.7129 64.769 20.5008 64.6058 20.2868C64.4735 20.1118 64.353 19.9591 64.3386 19.9474C64.3059 19.9207 63.8223 19.2849 63.7655 19.1933C63.7421 19.1558 63.6819 19.0822 63.6319 19.0296C63.5143 18.9065 63.1504 18.4336 63.1504 18.4042C63.1504 18.3918 63.1071 18.3355 63.0549 18.279C62.7156 17.9138 62.4717 17.5637 62.4717 17.4415C62.4717 17.3935 62.5166 17.3373 62.5777 17.3096C62.6358 17.283 62.6838 17.2451 62.6838 17.2254C62.6838 17.2057 62.7308 17.1484 62.7885 17.0983C62.8462 17.0482 62.9459 16.929 63.0104 16.8335C63.1822 16.5781 63.3934 16.3108 63.6505 16.0235C63.922 15.7203 63.9419 15.6965 64.129 15.4508C64.2088 15.3458 64.2868 15.2504 64.3021 15.2387C64.3169 15.2271 64.4141 15.103 64.5172 14.963C64.6202 14.823 64.7797 14.6203 64.8714 14.5125C65.0563 14.2952 65.0797 14.2664 65.3668 13.9025C65.4776 13.7625 65.5938 13.6193 65.6252 13.5843C65.6562 13.5493 65.7847 13.3871 65.9103 13.2238C66.0358 13.0604 66.2407 12.8027 66.3658 12.6511C66.4906 12.4994 66.6229 12.3372 66.6598 12.2905C66.6963 12.2438 66.8049 12.1168 66.9004 12.0082C66.9958 11.8996 67.0934 11.7851 67.1167 11.7536C67.14 11.7222 67.2155 11.6202 67.2847 11.5269C67.4259 11.3367 67.7636 10.9296 68.0877 10.5596C68.3125 10.303 68.4466 10.0384 68.4504 9.84263C68.4525 9.74557 68.4317 9.72432 68.3151 9.70455C68.1165 9.67096 63.9424 9.65522 63.7854 9.68746ZM72.8244 9.7625C72.7692 9.86554 72.7811 25.4351 72.8362 25.4903C72.8825 25.5365 76.6643 25.5365 76.7105 25.4903C76.7525 25.4486 76.7457 9.77332 76.7041 9.73145C76.6884 9.71571 75.8192 9.69717 74.7727 9.69022C72.9062 9.67783 72.8689 9.67923 72.8244 9.7625ZM150.668 9.72004C150.57 9.73701 150.516 9.77311 150.503 9.83012C150.492 9.87678 150.48 13.3933 150.478 17.6446C150.473 24.7735 150.478 25.3796 150.543 25.4441C150.604 25.5058 150.802 25.5167 152.218 25.5366C153.102 25.5489 153.953 25.5452 154.11 25.5284L154.397 25.4977V9.73573L154.159 9.70778C153.87 9.67393 150.871 9.68445 150.668 9.72004ZM110.204 12.7387C111.424 12.8652 112.227 13.1841 112.744 13.7479C113.366 14.4257 113.536 15.0502 113.589 16.8507C113.656 19.1311 113.515 20.4127 113.126 21.0503C112.88 21.4546 112.279 21.9666 111.786 22.1933C111.083 22.5162 110.556 22.5987 109.198 22.5987C108.129 22.5987 107.83 22.5658 107.126 22.3707C106.573 22.2177 106.067 21.93 105.699 21.56C105.476 21.3358 105.188 20.8042 105.078 20.414C104.888 19.7358 104.764 18.744 104.766 17.9064C104.769 16.0599 104.929 15.0415 105.332 14.2983C105.514 13.9617 105.95 13.4544 106.149 13.3472C106.379 13.2231 106.718 13.0518 106.843 12.996C106.981 12.935 107.647 12.7786 107.946 12.737C108.306 12.6871 109.716 12.6882 110.204 12.7387ZM91.4448 18.4254C91.7129 18.4439 91.9802 18.4694 92.0387 18.4821C92.0968 18.4949 92.3068 18.5168 92.5053 18.5309C92.7034 18.545 92.9041 18.5626 92.9507 18.5701C92.9974 18.5776 93.05 18.5851 93.0682 18.5868C93.109 18.5907 93.0691 19.7798 93.008 20.3654C92.9605 20.8256 92.8171 21.3502 92.678 21.5757C92.4964 21.8691 91.9772 22.2328 91.6472 22.2974C91.5941 22.3078 91.4647 22.3478 91.36 22.3864C91.0028 22.5179 90.1921 22.5716 88.7723 22.558C88.0372 22.5509 87.3597 22.5326 87.2664 22.5172C86.7319 22.4292 86.2029 22.2632 85.9073 22.0905C85.7015 21.9704 85.3715 21.562 85.2306 21.2533C85.047 20.8501 84.9995 19.9761 85.1462 19.69C85.2099 19.5658 85.4589 19.2372 85.6154 19.0711C85.7639 18.9136 86.4392 18.651 86.8562 18.5888C87.2219 18.5342 88.1394 18.4269 88.4117 18.4068C88.7995 18.3781 90.9493 18.3914 91.4448 18.4254Z" fill="#89898A"/>
</svg>
