<svg width="136" height="35" viewBox="0 0 136 35" fill="none" xmlns="http://www.w3.org/2000/svg">
<g clip-path="url(#clip0_4374_10455)">
<path fill-rule="evenodd" clip-rule="evenodd" d="M16.057 21.932H16.0543C9.24028 21.8599 4.83718 18.6191 4.83718 13.6759C4.83718 8.73264 9.24028 5.49175 16.0543 5.41978C22.8713 5.49175 27.2738 8.73264 27.2738 13.6759C27.2738 18.6191 22.8713 21.8599 16.057 21.932ZM16.2558 1.42926C16.2541 1.42948 16.1185 1.42709 16.0503 1.42578C15.9805 1.42665 15.8448 1.42926 15.8448 1.42926C6.51701 1.58125 0.00390625 6.61708 0.00390625 13.6759C0.00390625 20.7348 6.51701 25.7708 15.8426 25.9226C15.8426 25.9226 15.9805 25.9239 16.0484 25.9236C16.1197 25.9242 16.2562 25.9226 16.2562 25.9226C25.5816 25.7708 32.0945 20.7348 32.0945 13.6759C32.0945 6.61708 25.5816 1.58125 16.2558 1.42926Z" fill="black"/>
<path fill-rule="evenodd" clip-rule="evenodd" d="M119.194 21.932H119.191C112.377 21.8599 107.974 18.6191 107.974 13.6759C107.974 8.73264 112.377 5.49175 119.191 5.41978C126.008 5.49175 130.411 8.73264 130.411 13.6759C130.411 18.6191 126.008 21.8599 119.194 21.932ZM119.393 1.42926C119.391 1.42948 119.256 1.42709 119.187 1.42578C119.117 1.42665 118.982 1.42926 118.982 1.42926C109.654 1.58125 103.141 6.61708 103.141 13.6759C103.141 20.7348 109.654 25.7708 118.98 25.9226C118.98 25.9226 119.117 25.9239 119.185 25.9236C119.257 25.9242 119.393 25.9226 119.393 25.9226C128.718 25.7708 135.231 20.7348 135.231 13.6759C135.231 6.61708 128.718 1.58125 119.393 1.42926Z" fill="black"/>
<path fill-rule="evenodd" clip-rule="evenodd" d="M84.877 21.932H84.8743C78.0606 21.8599 73.6574 18.6191 73.6574 13.6759C73.6574 8.73264 78.0606 5.49175 84.8743 5.41978C91.6911 5.49175 96.094 8.73264 96.094 13.6759C96.094 18.6191 91.6911 21.8599 84.877 21.932ZM85.076 1.42926C85.0742 1.42948 84.939 1.42709 84.8703 1.42578C84.8008 1.42665 84.6651 1.42926 84.6651 1.42926C80.2213 1.50167 76.4175 2.68321 73.6512 4.66299V2.57516H68.8242V33.5754H73.6512V22.6894C76.417 24.669 80.2202 25.8504 84.663 25.9226C84.6633 25.9229 84.8008 25.9239 84.8684 25.9236C84.9401 25.9242 85.0763 25.9226 85.0763 25.9226C94.4017 25.7708 100.915 20.7348 100.915 13.6759C100.915 6.61708 94.4017 1.58125 85.076 1.42926Z" fill="black"/>
<path fill-rule="evenodd" clip-rule="evenodd" d="M50.4665 21.932H50.4641C43.6501 21.8599 39.2469 18.6191 39.2469 13.6759C39.2469 8.73264 43.6501 5.49175 50.4641 5.41978C57.281 5.49175 61.6837 8.73264 61.6837 13.6759C61.6837 18.6191 57.281 21.8599 50.4665 21.932ZM50.6738 1.42926C50.6717 1.42948 50.5365 1.42709 50.4681 1.42578C50.3983 1.42665 50.2626 1.42926 50.2626 1.42926C45.8188 1.50167 42.015 2.68321 39.2487 4.66299V2.57516H34.4219V33.5754H39.2487V22.6894C42.0148 24.669 45.8179 25.8504 50.2603 25.9226C50.2603 25.9226 50.3983 25.9239 50.466 25.9236C50.5376 25.9242 50.674 25.9226 50.674 25.9226C59.9994 25.7708 66.5123 20.7348 66.5123 13.6759C66.5123 6.61708 59.9994 1.58125 50.6738 1.42926Z" fill="black"/>
</g>
<defs>
<clipPath id="clip0_4374_10455">
<rect width="135.227" height="35" fill="white"/>
</clipPath>
</defs>
</svg>
