<svg xmlns="http://www.w3.org/2000/svg" width="21" height="20" viewBox="0 0 21 20" fill="none">
  <mask id="mask0_1017_12889" style="mask-type:alpha" maskUnits="userSpaceOnUse" x="0" y="0" width="21" height="20">
    <rect x="0.0205078" width="20" height="20" fill="#D9D9D9"/>
  </mask>
  <g mask="url(#mask0_1017_12889)">
    <path d="M10.0203 18.3307C8.86757 18.3307 7.78423 18.112 6.77034 17.6745C5.75646 17.237 4.87451 16.6432 4.12451 15.8932C3.37451 15.1432 2.78076 14.2613 2.34326 13.2474C1.90576 12.2335 1.68701 11.1502 1.68701 9.9974C1.68701 8.84462 1.90576 7.76128 2.34326 6.7474C2.78076 5.73351 3.37451 4.85156 4.12451 4.10156C4.87451 3.35156 5.75646 2.75781 6.77034 2.32031C7.78423 1.88281 8.86757 1.66406 10.0203 1.66406C11.1731 1.66406 12.2565 1.88281 13.2703 2.32031C14.2842 2.75781 15.1662 3.35156 15.9162 4.10156C16.6662 4.85156 17.2599 5.73351 17.6974 6.7474C18.1349 7.76128 18.3537 8.84462 18.3537 9.9974C18.3537 11.1502 18.1349 12.2335 17.6974 13.2474C17.2599 14.2613 16.6662 15.1432 15.9162 15.8932C15.1662 16.6432 14.2842 17.237 13.2703 17.6745C12.2565 18.112 11.1731 18.3307 10.0203 18.3307ZM10.0203 16.6641C11.8815 16.6641 13.4578 16.0182 14.7495 14.7266C16.0412 13.4349 16.687 11.8585 16.687 9.9974H10.0203V3.33073C8.15923 3.33073 6.58285 3.97656 5.29118 5.26823C3.99951 6.5599 3.35368 8.13628 3.35368 9.9974C3.35368 11.8585 3.99951 13.4349 5.29118 14.7266C6.58285 16.0182 8.15923 16.6641 10.0203 16.6641Z" fill="#FF7979"/>
  </g>
</svg>