<svg width="70" height="58" viewBox="0 0 70 58" fill="none" xmlns="http://www.w3.org/2000/svg">
<path d="M18.7479 70.4546L25.6995 33.6944L25.7946 17.5365L20.0491 15.5371L18.9896 17.5962L17.7319 20.3916C16.7268 22.6246 16.5393 25.1373 17.1967 27.4953L17.846 29.8207L0.272705 70.4546H18.7479Z" fill="white"/>
<path d="M0.272561 70.7258C0.237246 70.7258 0.199214 70.7177 0.163899 70.7041C0.025356 70.6443 -0.0371243 70.484 0.0226395 70.3455L17.5606 29.8012L16.9358 27.5709C16.2621 25.1559 16.455 22.5698 17.4845 20.2825L18.7423 17.4871L19.8072 15.4171C19.8696 15.2976 20.0109 15.2406 20.1386 15.284L25.8841 17.2834C25.9927 17.3214 26.0661 17.4247 26.0661 17.5415L25.971 33.6967C25.971 33.713 25.9683 33.7293 25.9656 33.7456L19.0139 70.5058C18.9868 70.6525 18.8455 70.7503 18.6961 70.7231C18.5494 70.6959 18.4516 70.552 18.4788 70.4053L25.4277 33.6695L25.5228 17.7316L20.1848 15.8735L19.234 17.7208L17.9817 20.5052C17.0064 22.6757 16.819 25.1342 17.4601 27.4242L18.1093 29.7496C18.1256 29.8094 18.1229 29.8745 18.0985 29.9316L0.522482 70.5628C0.476301 70.6661 0.378506 70.7258 0.272561 70.7258Z" fill="#1A1A1A"/>
<path d="M50.3875 70.4575L43.4359 33.6974L43.3408 17.5394L49.0863 15.54L50.1457 17.5992L51.4035 20.3945C52.4086 22.6275 52.5961 25.1403 51.9387 27.4982L51.2894 29.8236L68.8654 70.4575H50.3875Z" fill="white"/>
<path d="M68.8626 70.7289C68.7567 70.7289 68.6589 70.6664 68.6127 70.5659L51.0367 29.9319C51.0123 29.8749 51.0068 29.8097 51.0259 29.7499L51.6751 27.4246C52.3162 25.1318 52.1315 22.6761 51.1535 20.5055L49.8958 17.7102L48.9504 15.8739L43.6124 17.732L43.7075 33.6699L50.6537 70.4056C50.6809 70.5523 50.5858 70.6963 50.4364 70.7234C50.287 70.7533 50.1457 70.6555 50.1185 70.5061L43.1669 33.7487C43.1642 33.7324 43.1615 33.7161 43.1615 33.6998L43.0664 17.5418C43.0664 17.425 43.1398 17.3218 43.2484 17.2837L48.9939 15.2844C49.1216 15.2409 49.2628 15.2952 49.3253 15.4175L50.3848 17.4766L51.6479 20.2855C52.6775 22.5728 52.8704 25.159 52.1967 27.574L51.5719 29.8042L69.1098 70.3513C69.1696 70.4898 69.1071 70.6501 68.9686 70.7098C68.9333 70.7234 68.8979 70.7289 68.8626 70.7289Z" fill="#1A1A1A"/>
<path d="M43.9202 28.054L24.7034 28.2876C22.264 28.3175 20.2619 26.3643 20.232 23.9221L19.9984 4.70538C19.9685 2.26593 21.9217 0.263842 24.3639 0.23396L43.5779 0.000338348C46.0174 -0.0295435 48.0194 1.92365 48.0493 4.36581L48.2857 23.5826C48.3155 26.022 46.3596 28.0241 43.9202 28.054Z" fill="#E04545"/>
<path d="M51.9352 23.7073C51.7912 21.9171 50.0037 17.9211 49.9277 17.7527L49.0475 15.7859C48.9932 15.661 48.8573 15.6012 48.7351 15.6474L43.6063 17.5788C43.5112 17.6142 43.4433 17.7092 43.4379 17.8179C43.4107 18.2906 43.5357 19.1463 44.1007 19.5864L42.9054 20.021C42.7968 20.059 42.7261 20.1704 42.7343 20.2927C42.737 20.3633 42.8457 22.0122 44.0355 22.3192C44.0735 22.6506 44.1958 23.2618 44.5951 23.6639C44.8314 23.9002 45.1248 24.0252 45.4671 24.0442C45.4671 24.449 45.5975 24.9678 46.0865 25.2748C46.5646 25.5763 48.219 25.2721 48.9579 25.0955C48.7922 25.4079 48.4281 26.2473 48.5449 26.777C48.5775 26.9292 52.0927 25.6741 51.9352 23.7073Z" fill="white"/>
<path d="M43.8159 22.3179C43.7942 22.3179 43.7752 22.3152 43.7534 22.3098C42.4088 21.9919 42.2892 20.2425 42.2838 20.1692C42.2757 20.0469 42.3517 19.9355 42.4685 19.8948L49.7597 17.4064C49.901 17.3575 50.0558 17.4336 50.1047 17.5749C50.1536 17.7161 50.0775 17.871 49.9363 17.9199L42.8543 20.3349C42.9222 20.7342 43.1504 21.6062 43.8811 21.7773C44.0278 21.8127 44.1175 21.9593 44.0821 22.1033C44.0496 22.2337 43.9382 22.3179 43.8159 22.3179Z" fill="#1A1A1A"/>
<path d="M44.4187 19.6577C44.397 19.6577 44.3779 19.655 44.3562 19.6495C43.2614 19.3915 43.0414 18.1554 43.0767 17.5388C43.0822 17.4301 43.1555 17.335 43.256 17.2997L49.0558 15.246C49.1862 15.1998 49.3329 15.2596 49.3927 15.3846L50.3869 17.4736C50.4521 17.6094 50.3951 17.7724 50.2592 17.8349C50.1234 17.9001 49.9604 17.843 49.8979 17.7072L49.0096 15.8382L43.6227 17.7452C43.639 18.1147 43.7531 18.9459 44.4839 19.1198C44.6306 19.1551 44.7202 19.3018 44.6849 19.4458C44.6523 19.5735 44.5409 19.6577 44.4187 19.6577Z" fill="#1A1A1A"/>
<path d="M45.4537 24.1525C45.0272 24.1525 44.6687 24.0167 44.3834 23.745C43.7559 23.1501 43.7369 22.1233 43.7369 22.0798C43.7342 21.9603 43.8102 21.8543 43.9243 21.819L50.8732 19.5398C51.0172 19.4937 51.1693 19.5697 51.2155 19.7137C51.2617 19.855 51.1856 20.0098 51.0417 20.056L44.2938 22.27C44.3291 22.5443 44.4323 23.0496 44.7556 23.3539C44.9512 23.5386 45.2011 23.6228 45.5135 23.6092C45.6656 23.6038 45.7906 23.7206 45.796 23.87C45.8015 24.0194 45.6846 24.1471 45.5352 24.1525C45.5108 24.1525 45.4809 24.1525 45.4537 24.1525Z" fill="#1A1A1A"/>
<path d="M48.5728 27.0088C48.4369 27.0088 48.3201 26.9083 48.3038 26.7697C48.2305 26.1911 48.369 25.7402 48.5646 25.4088C47.7361 25.5962 46.6006 25.7673 46.0627 25.4495C45.3129 25.0067 45.3129 24.1429 45.4189 23.749C45.4433 23.6566 45.5167 23.5833 45.609 23.5561L51.2187 21.9995C51.3654 21.9588 51.5121 22.043 51.5528 22.1897C51.5936 22.3336 51.5094 22.4831 51.3627 22.5238L45.9187 24.0342C45.8943 24.2705 45.9106 24.7296 46.3398 24.9823C46.826 25.2702 48.4505 24.9225 49.3606 24.6346C49.4937 24.5911 49.6377 24.659 49.692 24.7867C49.7463 24.9144 49.6947 25.0638 49.5725 25.1317C49.5371 25.1507 48.7086 25.6261 48.8417 26.7046C48.8607 26.854 48.7548 26.9898 48.6054 27.0088C48.5945 27.0088 48.5836 27.0088 48.5728 27.0088Z" fill="#1A1A1A"/>
<path d="M17.1944 23.7093C17.3384 21.9191 19.1259 17.9231 19.2019 17.7547L20.0821 15.7879C20.1364 15.6629 20.2723 15.6032 20.3945 15.6493L25.5233 17.5808C25.6184 17.6161 25.6863 17.7112 25.6917 17.8198C25.7189 18.2925 25.594 19.1482 25.0289 19.5883L26.2242 20.023C26.3329 20.061 26.4035 20.1724 26.3953 20.2946C26.3926 20.3652 26.284 22.0142 25.0941 22.3211C25.0561 22.6526 24.9338 23.2638 24.5345 23.6658C24.2982 23.9022 24.0048 24.0271 23.6625 24.0461C23.6625 24.4509 23.5321 24.9698 23.0431 25.2767C22.565 25.5783 20.9106 25.274 20.1717 25.0974C20.3375 25.4098 20.7015 26.2493 20.5847 26.779C20.5521 26.9311 17.0396 25.6761 17.1944 23.7093Z" fill="white"/>
<path d="M25.3158 22.3203C25.1935 22.3203 25.0822 22.2361 25.0523 22.1111C25.017 21.9644 25.1093 21.8178 25.2533 21.7852C25.9841 21.614 26.2122 20.742 26.2802 20.3427L19.1982 17.9277C19.0569 17.8788 18.9808 17.7239 19.0297 17.5827C19.0786 17.4414 19.2335 17.3653 19.3747 17.4142L26.6659 19.9026C26.7827 19.9433 26.8561 20.0547 26.8506 20.177C26.8452 20.2503 26.7257 21.9998 25.381 22.3176C25.3565 22.3176 25.3375 22.3203 25.3158 22.3203Z" fill="#1A1A1A"/>
<path d="M24.7134 19.6628C24.5912 19.6628 24.4798 19.5786 24.4499 19.4536C24.4146 19.3069 24.507 19.1602 24.6509 19.1276C25.3735 18.9565 25.4931 18.1225 25.5121 17.753L20.1252 15.846L19.2369 17.715C19.1717 17.8508 19.0114 17.9079 18.8756 17.8427C18.7398 17.7775 18.6827 17.6172 18.7479 17.4814L19.7422 15.3924C19.8019 15.2674 19.9459 15.2076 20.079 15.2538L25.8788 17.3075C25.982 17.3428 26.0527 17.4379 26.0581 17.5466C26.0961 18.1632 25.8761 19.3993 24.7786 19.6573C24.7542 19.6628 24.7324 19.6628 24.7134 19.6628Z" fill="#1A1A1A"/>
<path d="M23.679 24.1501C23.6519 24.1501 23.622 24.1501 23.5948 24.1474C23.4454 24.142 23.3286 24.0143 23.334 23.8649C23.3395 23.7155 23.459 23.5986 23.6166 23.6041C23.929 23.6149 24.1789 23.5334 24.3772 23.346C24.6977 23.0445 24.8037 22.5392 24.8363 22.2621L18.0911 20.0509C17.9499 20.0047 17.8711 19.8498 17.9173 19.7086C17.9635 19.5673 18.1183 19.4885 18.2596 19.5347L25.2085 21.8139C25.3226 21.8519 25.3959 21.9579 25.3959 22.0747C25.3959 22.1181 25.3769 23.145 24.7494 23.7399C24.4641 24.0116 24.1028 24.1501 23.679 24.1501Z" fill="#1A1A1A"/>
<path d="M20.56 27.0143C20.5491 27.0143 20.5382 27.0143 20.5274 27.0116C20.378 26.9926 20.272 26.8567 20.291 26.7073C20.4241 25.6316 19.5956 25.1535 19.5603 25.1345C19.438 25.0665 19.3864 24.9171 19.4435 24.7895C19.4978 24.6618 19.6418 24.5966 19.7749 24.6373C20.6849 24.9226 22.3094 25.2703 22.7957 24.985C23.2249 24.7324 23.2385 24.2733 23.214 24.037L17.7701 22.5266C17.6261 22.4858 17.5419 22.3364 17.5799 22.1924C17.6207 22.0485 17.7701 21.9643 17.9141 22.0023L23.5237 23.5589C23.6161 23.5833 23.6894 23.6567 23.7139 23.7517C23.8198 24.1456 23.8198 25.0095 23.07 25.4523C22.5322 25.7701 21.3967 25.6017 20.5681 25.4115C20.7637 25.7457 20.9022 26.1939 20.8289 26.7725C20.8099 26.9138 20.6931 27.0143 20.56 27.0143Z" fill="#1A1A1A"/>
<g clip-path="url(#clip0_2620_13839)">
<path d="M28.5791 18.5092V8.14672L34.7966 6.07422V16.4367" stroke="white" stroke-width="1.03625" stroke-miterlimit="10" stroke-linecap="round" stroke-linejoin="round"/>
<path d="M36.3525 9.70312L39.9794 11.2575V16.9569" stroke="white" stroke-width="1.03625" stroke-miterlimit="10" stroke-linecap="round" stroke-linejoin="round"/>
<path d="M27.0244 18.5078H41.5319" stroke="white" stroke-width="1.03625" stroke-miterlimit="10" stroke-linecap="round" stroke-linejoin="round"/>
<path d="M31.6885 5.55859V7.11297" stroke="white" stroke-width="1.03625" stroke-miterlimit="10" stroke-linecap="round" stroke-linejoin="round"/>
<path d="M32.209 10.2183C32.209 9.95926 32.4162 9.7002 32.7271 9.7002C32.9862 9.7002 33.2452 9.95926 33.2452 10.2183C33.2452 10.4774 32.9862 10.7364 32.7271 10.7364C32.4162 10.7364 32.209 10.4774 32.209 10.2183ZM30.1365 10.2183C30.1365 9.95926 30.3955 9.7002 30.6546 9.7002C30.9137 9.7002 31.1727 9.95926 31.1727 10.2183C31.1727 10.4774 30.9137 10.7364 30.6546 10.7364C30.3955 10.7364 30.1365 10.4774 30.1365 10.2183Z" fill="white"/>
<path d="M32.209 12.8121C32.209 12.553 32.4162 12.2939 32.7271 12.2939C32.9862 12.2939 33.2452 12.553 33.2452 12.8121C33.2452 13.0711 32.9862 13.3302 32.7271 13.3302C32.4162 13.3302 32.209 13.0711 32.209 12.8121ZM30.1365 12.8121C30.1365 12.553 30.3955 12.2939 30.6546 12.2939C30.9137 12.2939 31.1727 12.553 31.1727 12.8121C31.1727 13.0711 30.9137 13.3302 30.6546 13.3302C30.3955 13.3302 30.1365 13.0711 30.1365 12.8121Z" fill="white"/>
<path d="M32.209 15.4019C32.209 15.1429 32.4162 14.8838 32.7271 14.8838C32.9862 14.8838 33.2452 15.1429 33.2452 15.4019C33.2452 15.661 32.9862 15.92 32.7271 15.92C32.4162 15.92 32.209 15.661 32.209 15.4019ZM30.1365 15.4019C30.1365 15.1429 30.3955 14.8838 30.6546 14.8838C30.9137 14.8838 31.1727 15.1429 31.1727 15.4019C31.1727 15.661 30.9137 15.92 30.6546 15.92C30.3955 15.92 30.1365 15.661 30.1365 15.4019Z" fill="white"/>
<path d="M36.8718 12.8086H37.9081" stroke="white" stroke-width="1.03625" stroke-miterlimit="10" stroke-linecap="round" stroke-linejoin="round"/>
<path d="M36.8718 15.3984H37.9081" stroke="white" stroke-width="1.03625" stroke-miterlimit="10" stroke-linecap="round" stroke-linejoin="round"/>
</g>
<defs>
<clipPath id="clip0_2620_13839">
<rect width="16.58" height="16.58" fill="white" transform="translate(25.998 4)"/>
</clipPath>
</defs>
</svg>
