<svg xmlns="http://www.w3.org/2000/svg" width="24" height="24" viewBox="0 0 24 24" fill="none">
  <path d="M6.96888 6.97034C7.03854 6.9005 7.12131 6.84508 7.21242 6.80727C7.30354 6.76946 7.40122 6.75 7.49988 6.75C7.59853 6.75 7.69621 6.76946 7.78733 6.80727C7.87844 6.84508 7.96121 6.9005 8.03088 6.97034L11.9999 10.9408L15.9689 6.97034C16.0386 6.90061 16.1214 6.84529 16.2125 6.80756C16.3036 6.76982 16.4013 6.75039 16.4999 6.75039C16.5985 6.75039 16.6961 6.76982 16.7873 6.80756C16.8784 6.84529 16.9611 6.90061 17.0309 6.97034C17.1006 7.04007 17.1559 7.12286 17.1937 7.21396C17.2314 7.30507 17.2508 7.40272 17.2508 7.50134C17.2508 7.59996 17.2314 7.69761 17.1937 7.78872C17.1559 7.87982 17.1006 7.96261 17.0309 8.03234L13.0604 12.0013L17.0309 15.9703C17.1006 16.0401 17.1559 16.1229 17.1937 16.214C17.2314 16.3051 17.2508 16.4027 17.2508 16.5013C17.2508 16.6 17.2314 16.6976 17.1937 16.7887C17.1559 16.8798 17.1006 16.9626 17.0309 17.0323C16.9611 17.1021 16.8784 17.1574 16.7873 17.1951C16.6961 17.2329 16.5985 17.2523 16.4999 17.2523C16.4013 17.2523 16.3036 17.2329 16.2125 17.1951C16.1214 17.1574 16.0386 17.1021 15.9689 17.0323L11.9999 13.0618L8.03088 17.0323C7.96114 17.1021 7.87836 17.1574 7.78725 17.1951C7.69614 17.2329 7.59849 17.2523 7.49988 17.2523C7.40126 17.2523 7.30361 17.2329 7.2125 17.1951C7.12139 17.1574 7.03861 17.1021 6.96888 17.0323C6.89914 16.9626 6.84383 16.8798 6.80609 16.7887C6.76835 16.6976 6.74893 16.6 6.74893 16.5013C6.74893 16.4027 6.76835 16.3051 6.80609 16.214C6.84383 16.1229 6.89914 16.0401 6.96888 15.9703L10.9394 12.0013L6.96888 8.03234C6.89903 7.96267 6.84362 7.87991 6.80581 7.78879C6.768 7.69767 6.74854 7.59999 6.74854 7.50134C6.74854 7.40269 6.768 7.30501 6.80581 7.21389C6.84362 7.12277 6.89903 7.04001 6.96888 6.97034Z" fill="#DD2222"/>
</svg>