<svg xmlns="http://www.w3.org/2000/svg" width="46" height="58" viewBox="0 0 46 58" fill="none">
  <g clip-path="url(#clip0_439_10506)">
    <mask id="path-1-inside-1_439_10506" fill="white">
      <path fill-rule="evenodd" clip-rule="evenodd" d="M33.2548 36.9321L48.4494 53.5929L48.4514 53.5941L42.5456 64.5658L25.146 40.3479C23.9248 37.8283 23.6917 34.9429 24.4906 32.2611C25.1576 30.0189 25.2366 27.6419 24.7225 25.3594L24.0596 22.4224C23.9632 22.006 24.3402 21.6332 24.7559 21.7334C26.0307 22.0379 27.082 22.9322 27.5853 24.1408L29.3033 28.2617C29.8204 29.5074 31.0776 30.2114 32.3456 30.0938L30.8164 25.9542C30.6553 25.519 30.6472 25.0406 30.7937 24.5993C30.9022 24.2791 31.3333 24.2331 31.5067 24.5228L33.0382 27.1021L31.5946 23.1958C31.3755 22.6093 31.3651 21.9652 31.564 21.3709C31.7082 20.9418 32.2918 20.8796 32.523 21.2687L33.7689 23.3668L33.1216 19.7137C33.0136 19.0985 33.1177 18.4636 33.4174 17.9136C33.6356 17.5147 34.2194 17.5566 34.3783 17.9822L35.6366 21.3529L35.9177 18.4527C35.9853 17.7456 36.2942 17.081 36.7896 16.572C37.1493 16.2048 37.7777 16.4279 37.8207 16.942L38.7238 27.5129C38.8351 28.7183 38.496 29.9221 37.7698 30.8932L33.2548 36.9321Z"/>
    </mask>
    <path d="M48.4494 53.5929L48.2277 53.795L48.2552 53.8251L48.2896 53.8468L48.4494 53.5929ZM33.2548 36.9321L33.0145 36.7524L32.866 36.951L33.0331 37.1342L33.2548 36.9321ZM48.4514 53.5941L48.7155 53.7363L48.8484 53.4895L48.6112 53.3402L48.4514 53.5941ZM42.5456 64.5658L42.3019 64.7409L42.5821 65.1308L42.8097 64.708L42.5456 64.5658ZM25.146 40.3479L24.876 40.4787L24.8873 40.5019L24.9024 40.5229L25.146 40.3479ZM24.4906 32.2611L24.7781 32.3467L24.7781 32.3466L24.4906 32.2611ZM24.7225 25.3594L25.0152 25.2935L25.0152 25.2934L24.7225 25.3594ZM24.0596 22.4224L24.3522 22.3563L24.3519 22.3547L24.0596 22.4224ZM24.7559 21.7334L24.6856 22.0251L24.6862 22.0252L24.7559 21.7334ZM27.5853 24.1408L27.3083 24.2561L27.3084 24.2563L27.5853 24.1408ZM29.3033 28.2617L29.5803 28.1467L29.5802 28.1463L29.3033 28.2617ZM32.3456 30.0938L32.3733 30.3925L32.7624 30.3564L32.627 29.9899L32.3456 30.0938ZM30.8164 25.9542L31.0978 25.8502L31.0977 25.85L30.8164 25.9542ZM30.7937 24.5993L30.5095 24.503L30.5089 24.5048L30.7937 24.5993ZM31.5067 24.5228L31.7646 24.3696L31.7641 24.3687L31.5067 24.5228ZM33.0382 27.1021L32.7802 27.2553L33.3196 26.9981L33.0382 27.1021ZM31.5946 23.1958L31.876 23.0918L31.8756 23.0909L31.5946 23.1958ZM31.564 21.3709L31.2797 21.2753L31.2796 21.2757L31.564 21.3709ZM32.523 21.2687L32.781 21.1155L32.7809 21.1154L32.523 21.2687ZM33.7689 23.3668L33.5109 23.5199L34.0643 23.3144L33.7689 23.3668ZM33.1216 19.7137L32.8261 19.7655L32.8262 19.766L33.1216 19.7137ZM33.4174 17.9136L33.1542 17.7696L33.1539 17.77L33.4174 17.9136ZM34.3783 17.9822L34.6593 17.8772L34.6593 17.8772L34.3783 17.9822ZM35.6366 21.3529L35.3556 21.4578L35.9352 21.3818L35.6366 21.3529ZM35.9177 18.4527L36.2163 18.4817L36.2164 18.4813L35.9177 18.4527ZM36.7896 16.572L36.5753 16.3621L36.5746 16.3628L36.7896 16.572ZM37.8207 16.942L37.5218 16.967L37.5218 16.9675L37.8207 16.942ZM38.7238 27.5129L38.4249 27.5384L38.425 27.5404L38.7238 27.5129ZM37.7698 30.8932L37.5296 30.7135L37.5296 30.7135L37.7698 30.8932ZM48.6711 53.3907L33.4764 36.7299L33.0331 37.1342L48.2277 53.795L48.6711 53.3907ZM48.6112 53.3402L48.6092 53.339L48.2896 53.8468L48.2916 53.848L48.6112 53.3402ZM42.8097 64.708L48.7155 53.7363L48.1872 53.4519L42.2814 64.4236L42.8097 64.708ZM24.9024 40.5229L42.3019 64.7409L42.7892 64.3908L25.3896 40.1728L24.9024 40.5229ZM24.203 32.1755C23.3828 34.929 23.6222 37.8916 24.876 40.4787L25.416 40.217C24.2275 37.7649 24.0006 34.9568 24.7781 32.3467L24.203 32.1755ZM24.4299 25.4253C24.9327 27.6578 24.8554 29.9827 24.203 32.1755L24.7781 32.3466C25.4599 30.0551 25.5405 27.6259 25.0152 25.2935L24.4299 25.4253ZM23.767 22.4884L24.4299 25.4255L25.0152 25.2934L24.3522 22.3563L23.767 22.4884ZM24.8262 21.4418C24.1942 21.2894 23.6205 21.8558 23.7673 22.49L24.3519 22.3547C24.3059 22.1563 24.4861 21.977 24.6856 22.0251L24.8262 21.4418ZM27.8622 24.0255C27.322 22.7281 26.1936 21.7683 24.8256 21.4416L24.6862 22.0252C25.8678 22.3074 26.842 23.1362 27.3083 24.2561L27.8622 24.0255ZM29.5802 28.1463L27.8622 24.0254L27.3084 24.2563L29.0264 28.3772L29.5802 28.1463ZM32.3179 29.7951C31.1761 29.901 30.0453 29.2667 29.5803 28.1467L29.0262 28.3768C29.5955 29.7481 30.9792 30.5219 32.3733 30.3925L32.3179 29.7951ZM30.535 26.0581L32.0642 30.1978L32.627 29.9899L31.0978 25.8502L30.535 26.0581ZM30.5089 24.5048C30.3411 25.0107 30.3502 25.5591 30.535 26.0583L31.0977 25.85C30.9603 25.4789 30.9534 25.0706 31.0784 24.6938L30.5089 24.5048ZM31.7641 24.3687C31.4592 23.8592 30.7 23.941 30.5095 24.503L31.0778 24.6956C31.1044 24.6172 31.2074 24.607 31.2492 24.6768L31.7641 24.3687ZM33.2961 26.9489L31.7646 24.3696L31.2487 24.6759L32.7802 27.2553L33.2961 26.9489ZM31.3132 23.2998L32.7568 27.2061L33.3196 26.9981L31.876 23.0918L31.3132 23.2998ZM31.2796 21.2757C31.0588 21.9349 31.0704 22.6496 31.3135 23.3008L31.8756 23.0909C31.6807 22.5689 31.6713 21.9955 31.8485 21.4661L31.2796 21.2757ZM32.7809 21.1154C32.4186 20.5056 31.5055 20.6033 31.2797 21.2753L31.8484 21.4665C31.9109 21.2804 32.1651 21.2536 32.2651 21.4219L32.7809 21.1154ZM34.0268 23.2136L32.781 21.1155L32.2651 21.4218L33.5109 23.5199L34.0268 23.2136ZM32.8262 19.766L33.4735 23.4191L34.0643 23.3144L33.417 19.6613L32.8262 19.766ZM33.1539 17.77C32.8218 18.3796 32.7063 19.0834 32.8261 19.7655L33.417 19.6618C33.3208 19.1136 33.4135 18.5476 33.6808 18.0571L33.1539 17.77ZM34.6593 17.8772C34.4105 17.2107 33.4956 17.1456 33.1542 17.7696L33.6806 18.0576C33.7756 17.8838 34.0283 17.9024 34.0972 18.0871L34.6593 17.8772ZM35.9177 21.2479L34.6593 17.8772L34.0972 18.0871L35.3556 21.4578L35.9177 21.2479ZM35.6191 18.4238L35.338 21.3239L35.9352 21.3818L36.2163 18.4817L35.6191 18.4238ZM36.5746 16.3628C36.0318 16.9204 35.6931 17.6487 35.6191 18.4242L36.2164 18.4813C36.2774 17.8425 36.5566 17.2415 37.0046 16.7813L36.5746 16.3628ZM38.1197 16.9169C38.055 16.1445 37.113 15.8131 36.5753 16.3621L37.0039 16.7819C37.1856 16.5964 37.5004 16.7112 37.5218 16.967L38.1197 16.9169ZM39.0227 27.4873L38.1196 16.9164L37.5218 16.9675L38.4249 27.5384L39.0227 27.4873ZM38.0101 31.0728C38.7807 30.0422 39.1406 28.7646 39.0225 27.4853L38.425 27.5404C38.5295 28.672 38.2112 29.8019 37.5296 30.7135L38.0101 31.0728ZM33.495 37.1117L38.0101 31.0728L37.5296 30.7135L33.0145 36.7524L33.495 37.1117Z" fill="#1A1A1A" mask="url(#path-1-inside-1_439_10506)"/>
    <path d="M33.5206 3.56213C33.516 4.61565 33.0089 5.54645 32.2332 6.13921C32.0086 6.31518 31.8627 6.58377 31.8604 6.89172C31.8581 7.39186 32.2355 7.79937 32.7194 7.85494L40.1937 7.89431L40.0872 27.8233L20.1582 27.7168L20.1999 19.9786C20.2184 19.9346 20.2392 19.8975 20.2601 19.8582C20.2624 19.8535 20.267 19.8489 20.267 19.8443C20.2925 19.8072 20.3157 19.7725 20.3434 19.7378C20.3434 19.7354 20.3481 19.7331 20.3504 19.7285C20.4013 19.6683 20.4592 19.615 20.5217 19.5687C20.5333 19.5618 20.5426 19.5502 20.5541 19.5456C20.575 19.5294 20.6005 19.5178 20.6236 19.5039C20.6468 19.49 20.6745 19.4761 20.7 19.4645C20.7209 19.453 20.744 19.446 20.7648 19.4391C20.7996 19.4275 20.832 19.4182 20.8667 19.409C20.8852 19.4043 20.9038 19.3997 20.9223 19.3974C20.9779 19.3881 21.0334 19.3812 21.0913 19.3812C21.3993 19.3835 21.6679 19.5317 21.8438 19.754C22.4366 20.5296 23.3674 21.0344 24.4209 21.0414C26.2246 21.0506 27.6973 19.5942 27.7065 17.7905C27.7158 15.9844 26.2617 14.5141 24.4557 14.5049C23.4021 14.5002 22.4667 14.9934 21.8647 15.7645C21.6864 15.9868 21.4155 16.1303 21.1098 16.128C21.052 16.128 20.9964 16.1211 20.9408 16.1095C20.9223 16.1072 20.9038 16.1025 20.8852 16.0956C20.8505 16.0863 20.8158 16.0771 20.7834 16.0655C20.7625 16.0562 20.7417 16.047 20.7185 16.0377C20.6931 16.0261 20.6653 16.0122 20.6421 15.9983C20.619 15.9868 20.5935 15.9729 20.5727 15.959C20.5611 15.9497 20.5518 15.9428 20.5402 15.9358C20.4777 15.8872 20.4198 15.8339 20.3712 15.7737C20.3712 15.7691 20.3666 15.7691 20.3643 15.7645C20.3365 15.7321 20.3133 15.695 20.2925 15.658C20.2879 15.6533 20.2856 15.6487 20.2832 15.6418C20.2601 15.6024 20.2416 15.563 20.223 15.5214L20.2647 7.78317L27.7389 7.82253C28.2252 7.77159 28.6072 7.3687 28.6095 6.86857C28.6119 6.56293 28.466 6.29202 28.2437 6.11374C27.475 5.50941 26.9795 4.57397 26.9841 3.52045C26.9934 1.71672 28.466 0.260313 30.2697 0.269575C32.0758 0.288099 33.5298 1.76072 33.5206 3.56213Z" fill="#E04545"/>
    <path d="M0.231567 27.6022V7.89091H7.56224C7.5715 7.89091 7.57845 7.89091 7.58771 7.88859C8.20593 7.82144 8.67365 7.3051 8.67365 6.68688C8.67365 6.31873 8.50462 5.97604 8.21288 5.74218C7.44878 5.14943 7.01116 4.26262 7.01116 3.30634C7.01116 1.61145 8.39116 0.231445 10.0884 0.231445C11.7856 0.231445 13.1656 1.61145 13.1656 3.30866C13.1656 4.26494 12.728 5.15175 11.9662 5.74218C11.6721 5.97836 11.5031 6.32336 11.5031 6.68688C11.5031 7.3051 11.9708 7.82376 12.5891 7.88859C12.5983 7.88859 12.6053 7.89091 12.6145 7.89091H19.9452V15.1892C19.9452 15.2031 19.9475 15.2169 19.9498 15.2308C20.0077 15.8491 20.5333 16.3307 21.1562 16.3307C21.5243 16.3307 21.867 16.1616 22.1009 15.8699C22.6913 15.1058 23.5804 14.6705 24.5367 14.6705C26.2316 14.6705 27.6116 16.0505 27.6116 17.7454C27.6116 19.4426 26.2316 20.8226 24.5367 20.8226C23.5781 20.8226 22.689 20.385 22.1009 19.6232C21.8647 19.3268 21.522 19.1601 21.1562 19.1601C20.5333 19.1601 20.0077 19.6417 19.9498 20.2623C19.9475 20.2762 19.9452 20.2901 19.9452 20.304V27.6045H0.231567V27.6022Z" fill="white"/>
    <path d="M10.0884 0.463087C11.6582 0.463087 12.934 1.73889 12.934 3.30876C12.934 4.19325 12.5288 5.01292 11.818 5.56399C11.4707 5.84185 11.2715 6.25168 11.2715 6.68698C11.2715 7.4256 11.8272 8.04151 12.5636 8.12023C12.5798 8.12255 12.596 8.12255 12.6122 8.12255H19.7113V15.1893C19.7113 15.2124 19.7136 15.2356 19.7159 15.2587C19.7877 15.9927 20.4129 16.5623 21.1515 16.5623C21.5891 16.5623 21.999 16.3632 22.2791 16.0089C22.8256 15.305 23.6452 14.8998 24.532 14.8998C26.0996 14.8998 27.3754 16.1756 27.3754 17.7432C27.3754 19.3107 26.0996 20.5889 24.532 20.5889C23.6452 20.5889 22.8256 20.1837 22.2768 19.4751C21.999 19.1278 21.5891 18.9287 21.1515 18.9287C20.4129 18.9287 19.79 19.4983 19.7159 20.2323C19.7113 20.2554 19.7113 20.2786 19.7113 20.3017V27.3685H0.463087V8.12255H7.56222C7.57842 8.12255 7.59463 8.12255 7.61084 8.12023C8.34715 8.04151 8.90285 7.4256 8.90285 6.68698C8.90285 6.24705 8.70372 5.83721 8.34946 5.55936C7.64557 5.01292 7.24037 4.19325 7.24037 3.30876C7.24269 1.73889 8.51849 0.463087 10.0884 0.463087ZM10.0884 0C8.26148 0 6.7796 1.47956 6.7796 3.30876C6.7796 4.37386 7.28436 5.31856 8.06698 5.9252C8.29158 6.10349 8.43977 6.37671 8.43977 6.68698C8.43977 7.19406 8.05309 7.60621 7.56222 7.65946H0V27.8339H20.1744V20.3017C20.2114 19.7947 20.6329 19.3918 21.1515 19.3918C21.4595 19.3918 21.735 19.54 21.9133 19.7646C22.5176 20.5472 23.4646 21.0543 24.532 21.0543C26.3566 21.0543 27.8385 19.5724 27.8385 17.7455C27.8385 15.9186 26.3566 14.4391 24.532 14.4391C23.4669 14.4391 22.5199 14.9438 21.9133 15.7264C21.735 15.951 21.4618 16.0992 21.1515 16.0992C20.6329 16.0992 20.2114 15.6987 20.1744 15.1893V7.65946H12.6122C12.119 7.60621 11.7323 7.19638 11.7323 6.68698C11.7323 6.37671 11.8805 6.10581 12.1051 5.9252C12.8877 5.32087 13.3948 4.37386 13.3948 3.30876C13.3971 1.47956 11.9152 0 10.0884 0Z" fill="#1A1A1A"/>
    <path d="M24.4906 32.2611C25.1576 30.0189 25.2366 27.6419 24.7225 25.3594L24.0596 22.4224C23.9632 22.006 24.3402 21.6332 24.7559 21.7334L24.4906 32.2611ZM24.4906 32.2611C23.6917 34.9429 23.9248 37.8283 25.146 40.3479L24.4906 32.2611ZM51.2243 56.5705L41.5817 63.357L25.2756 40.2714C24.0755 37.7882 23.8474 34.9459 24.6343 32.3039L24.6343 32.3039C25.3088 30.037 25.3886 27.6339 24.8689 25.3264L24.8689 25.3264L24.2059 22.3893L24.2057 22.3885C24.1346 22.0812 24.4132 21.8051 24.7207 21.8792L24.721 21.8793C25.9493 22.1727 26.962 23.0342 27.4468 24.1985L27.4468 24.1985L29.1647 28.3193C29.8511 29.9725 31.7784 30.717 33.4009 29.9602L33.4012 29.96C34.4079 29.4878 35.0921 28.5195 35.2 27.4124L35.2 27.4123L36.067 18.4672L36.067 18.467C36.1313 17.7941 36.4253 17.1614 36.8969 16.6768C37.1677 16.4007 37.639 16.5696 37.6712 16.9545L37.6713 16.9547L38.5743 27.5256L38.5744 27.5266C38.6823 28.6951 38.3536 29.862 37.6497 30.8034L33.1346 36.8423L33.0599 36.9423L33.1447 37.034L51.2243 56.5705Z" stroke="#1A1A1A" stroke-width="0.3"/>
  </g>
  <defs>
    <clipPath id="clip0_439_10506">
      <rect width="46" height="58" fill="white"/>
    </clipPath>
  </defs>
</svg>