<svg width="143" height="50" viewBox="0 0 143 50" fill="none" xmlns="http://www.w3.org/2000/svg">
<path d="M10.2132 24.9451C10.3675 24.9452 10.5186 24.9009 10.6485 24.8175C10.7783 24.7341 10.8814 24.6151 10.9455 24.4748C11.0223 24.2838 11.0214 24.0704 10.9432 23.8801C10.8649 23.6897 10.7154 23.5374 10.5265 23.4555C7.2313 22.1219 6.02719 20.0305 6.75945 16.9714C8.64522 18.5981 11.467 20.2626 13.7284 21.3065C13.8211 21.3512 13.9218 21.3772 14.0246 21.383C14.1275 21.3889 14.037 21.152 14.1342 21.118C14.2314 21.084 13.7968 20.944 13.8736 20.8754C13.9504 20.8068 14.0129 20.7238 14.0576 20.631C14.1023 20.5383 14.1284 20.4376 14.1342 20.3349C14.14 20.2321 14.1255 20.1292 14.0915 20.032C14.0575 19.9348 14.0046 19.8453 13.936 19.7686C13.8674 19.6918 13.7843 19.6293 13.6915 19.5847C11.1978 18.4438 8.91615 16.8878 6.94381 14.9832C6.84744 14.8923 6.73061 14.8258 6.60316 14.7895C6.47572 14.7532 6.3414 14.748 6.21154 14.7744C6.08149 14.8021 5.96056 14.8622 5.86002 14.9492C5.75949 15.0362 5.68261 15.1472 5.63656 15.2718C4.01475 19.7689 5.50764 23.0883 9.95279 24.8923C10.0351 24.9275 10.1237 24.9455 10.2132 24.9451Z" fill="black"/>
<path d="M11.3465 30.0264C11.5 30.0243 11.6478 29.9724 11.7643 29.8798C11.8809 29.7871 11.9588 29.6596 11.9845 29.5192C12.017 29.357 11.9806 29.1894 11.8828 29.0516C11.785 28.9137 11.6335 28.8163 11.4599 28.7798C10.8169 28.7081 10.1964 28.5156 9.63638 28.214C9.07633 27.9125 8.58845 27.5083 8.20255 27.026C7.87131 26.4348 7.67086 25.7882 7.613 25.1242C7.55513 24.4601 7.64101 23.792 7.86558 23.1592C7.88794 23.08 7.89256 22.9975 7.87917 22.9166C7.86577 22.8357 7.83464 22.7582 7.7877 22.6889C7.74076 22.6197 7.679 22.56 7.60623 22.5137C7.53346 22.4674 7.45124 22.4354 7.36462 22.4197C7.2793 22.4004 7.19066 22.3971 7.10396 22.4102C7.01725 22.4232 6.93425 22.4522 6.85987 22.4955C6.78549 22.5389 6.72126 22.5956 6.67097 22.6623C6.62068 22.7291 6.58537 22.8046 6.56713 22.8842C6.30773 23.6791 6.21994 24.5135 6.30879 25.3399C6.39764 26.1662 6.66139 26.9682 7.08494 27.6999C7.5657 28.3205 8.17698 28.8444 8.88196 29.2402C9.58693 29.6359 10.371 29.8952 11.187 30.0025C11.2381 30.0193 11.2922 30.0274 11.3465 30.0264Z" fill="black"/>
<path d="M15.831 35.4082C16.2178 35.4082 16.6419 35.3824 17.0609 35.3554C17.2647 35.336 17.4528 35.2377 17.5849 35.0813C17.717 34.925 17.7825 34.7232 17.7674 34.5191C17.7421 34.3129 17.6382 34.1243 17.4773 33.9928C17.3164 33.8612 17.1109 33.7968 16.9036 33.813C12.9071 34.1789 10.731 32.6623 10.156 29.0285C10.1229 28.8248 10.0112 28.6422 9.84485 28.52C9.67849 28.3979 9.47078 28.3459 9.26643 28.3752C9.06502 28.413 8.88548 28.5258 8.76414 28.6909C8.64279 28.8559 8.5887 29.0609 8.61281 29.2643C8.67712 30.1437 8.91563 31.0015 9.31449 31.7879C9.71334 32.5743 10.2646 33.2737 10.9362 33.8453C11.6078 34.417 12.3864 34.8495 13.2267 35.1178C14.067 35.3861 14.9522 35.4848 15.831 35.4082Z" fill="black"/>
<path d="M41.0759 24.8319C40.9215 24.8319 40.7704 24.7876 40.6406 24.7042C40.5107 24.6208 40.4076 24.5019 40.3436 24.3615C40.2668 24.1705 40.2676 23.9572 40.3459 23.7668C40.4241 23.5764 40.5736 23.4241 40.7626 23.3423C44.0578 22.0086 45.2619 19.9172 44.5296 16.8582C42.6438 18.4848 39.8221 20.1493 37.5607 21.1932C37.4679 21.238 37.3673 21.2639 37.2644 21.2698C37.1616 21.2756 37.2521 21.0387 37.1549 21.0047C37.0577 20.9707 37.4922 20.8307 37.4154 20.7621C37.3386 20.6935 37.2761 20.6105 37.2315 20.5177C37.1867 20.425 37.1607 20.3244 37.1549 20.2216C37.1491 20.1188 37.1636 20.0159 37.1976 19.9187C37.2316 19.8215 37.2844 19.732 37.3531 19.6553C37.4217 19.5785 37.5048 19.516 37.5976 19.4714C40.0913 18.3305 42.3729 16.7745 44.3453 14.8699C44.4416 14.779 44.5585 14.7125 44.6859 14.6762C44.8133 14.6399 44.9477 14.6347 45.0775 14.6612C45.2076 14.6888 45.3285 14.7489 45.429 14.8359C45.5296 14.9229 45.6065 15.0339 45.6525 15.1585C47.2743 19.6557 45.7814 22.975 41.3363 24.779C41.254 24.8142 41.1654 24.8322 41.0759 24.8319Z" fill="black"/>
<path d="M39.9426 29.9092C39.7891 29.9071 39.6413 29.8552 39.5247 29.7626C39.4082 29.6699 39.3303 29.5424 39.3046 29.4021C39.272 29.2398 39.3085 29.0722 39.4063 28.9344C39.504 28.7965 39.6556 28.6992 39.8291 28.6626C40.4721 28.5909 41.0926 28.3984 41.6527 28.0969C42.2127 27.7953 42.7006 27.3911 43.0865 26.9088C43.4178 26.3176 43.6182 25.671 43.6761 25.007C43.7339 24.3429 43.6481 23.6748 43.4235 23.042C43.4011 22.9628 43.3965 22.8803 43.4099 22.7994C43.4233 22.7185 43.4544 22.641 43.5014 22.5718C43.5483 22.5025 43.6101 22.4428 43.6828 22.3965C43.7556 22.3502 43.8378 22.3182 43.9244 22.3026C44.0098 22.2832 44.0984 22.28 44.1851 22.293C44.2718 22.306 44.3548 22.335 44.4292 22.3783C44.5036 22.4217 44.5678 22.4784 44.6181 22.5452C44.6684 22.6119 44.7037 22.6874 44.7219 22.7671C44.9813 23.5619 45.0691 24.3963 44.9803 25.2227C44.8914 26.049 44.6277 26.851 44.2041 27.5827C43.7234 28.2033 43.1121 28.7272 42.4071 29.123C41.7021 29.5187 40.918 29.778 40.1021 29.8853C40.0509 29.9021 39.9969 29.9103 39.9426 29.9092Z" fill="black"/>
<path d="M35.458 35.2949C35.0713 35.2949 34.6471 35.2692 34.2281 35.2421C34.0243 35.2228 33.8362 35.1244 33.7042 34.968C33.5721 34.8117 33.5066 34.6099 33.5217 34.4058C33.5469 34.1996 33.6509 34.011 33.8118 33.8795C33.9727 33.7479 34.1782 33.6835 34.3854 33.6997C38.3819 34.0656 40.5581 32.549 41.1331 28.9152C41.1661 28.7115 41.2778 28.529 41.4442 28.4068C41.6106 28.2846 41.8183 28.2326 42.0226 28.2619C42.224 28.2997 42.4036 28.4125 42.5249 28.5776C42.6463 28.7426 42.7004 28.9476 42.6763 29.151C42.6119 30.0304 42.3734 30.8882 41.9746 31.6746C41.5757 32.461 41.0245 33.1604 40.3529 33.732C39.6813 34.3037 38.9027 34.7362 38.0624 35.0045C37.2221 35.2728 36.3368 35.3715 35.458 35.2949Z" fill="black"/>
<path fill-rule="evenodd" clip-rule="evenodd" d="M22.6055 14H14.5075C14.032 14 13.6465 14.3855 13.6465 14.8611V36.139C13.6465 36.6145 14.032 37 14.5075 37H36.8682C37.3437 37 37.7292 36.6145 37.7292 36.139V14.8611C37.7292 14.3855 37.3437 14 36.8682 14H28.7407V17.9201C28.7407 18.5304 28.246 19.0251 27.6357 19.0251H23.7105C23.1002 19.0251 22.6055 18.5304 22.6055 17.9201V14Z" fill="#4AC07A"/>
<path d="M68.5011 34.7663C67.0984 34.7663 65.891 34.4822 64.8789 33.9141C63.8728 33.34 63.0974 32.5291 62.5529 31.4815C62.0084 30.428 61.7362 29.1822 61.7362 27.744C61.7362 26.3413 62.0084 25.1102 62.5529 24.0508C63.0974 22.9914 63.8639 22.1657 64.8523 21.5739C65.8466 20.982 67.0125 20.6861 68.3501 20.6861C69.2498 20.6861 70.0872 20.8311 70.8626 21.1211C71.6438 21.4052 72.3245 21.8343 72.9045 22.4084C73.4904 22.9825 73.9461 23.7045 74.2717 24.5746C74.5972 25.4387 74.7599 26.4508 74.7599 27.6108V28.6495H63.2454V26.3058H71.1999C71.1999 25.7612 71.0816 25.2789 70.8448 24.8587C70.6081 24.4384 70.2796 24.11 69.8594 23.8732C69.4451 23.6306 68.9627 23.5092 68.4123 23.5092C67.8382 23.5092 67.3292 23.6424 66.8853 23.9087C66.4473 24.1692 66.104 24.5213 65.8555 24.9652C65.6069 25.4032 65.4796 25.8915 65.4737 26.43V28.6584C65.4737 29.3331 65.598 29.9161 65.8466 30.4073C66.1011 30.8986 66.4592 31.2773 66.9208 31.5437C67.3825 31.81 67.9299 31.9432 68.5632 31.9432C68.9834 31.9432 69.3681 31.884 69.7173 31.7656C70.0665 31.6473 70.3654 31.4697 70.614 31.233C70.8626 30.9962 71.052 30.7062 71.1822 30.3629L74.68 30.5938C74.5025 31.4342 74.1385 32.1681 73.5881 32.7955C73.0436 33.4169 72.3393 33.9022 71.4751 34.2514C70.617 34.5947 69.6256 34.7663 68.5011 34.7663ZM77.299 34.5V16.3182H81.1431V31.3306H88.9379V34.5H77.299ZM97.5738 34.7663C96.1948 34.7663 95.0022 34.4734 93.996 33.8874C92.9958 33.2956 92.2234 32.4729 91.6789 31.4194C91.1344 30.36 90.8621 29.1319 90.8621 27.7351C90.8621 26.3265 91.1344 25.0954 91.6789 24.0419C92.2234 22.9825 92.9958 22.1598 93.996 21.5739C95.0022 20.982 96.1948 20.6861 97.5738 20.6861C98.9528 20.6861 100.142 20.982 101.143 21.5739C102.149 22.1598 102.924 22.9825 103.469 24.0419C104.013 25.0954 104.285 26.3265 104.285 27.7351C104.285 29.1319 104.013 30.36 103.469 31.4194C102.924 32.4729 102.149 33.2956 101.143 33.8874C100.142 34.4734 98.9528 34.7663 97.5738 34.7663ZM97.5915 31.8366C98.2189 31.8366 98.7427 31.6591 99.1629 31.304C99.5831 30.9429 99.8998 30.4517 100.113 29.8303C100.332 29.2088 100.441 28.5015 100.441 27.7085C100.441 26.9154 100.332 26.2081 100.113 25.5866C99.8998 24.9652 99.5831 24.474 99.1629 24.1129C98.7427 23.7519 98.2189 23.5714 97.5915 23.5714C96.9582 23.5714 96.4256 23.7519 95.9935 24.1129C95.5674 24.474 95.2448 24.9652 95.0258 25.5866C94.8128 26.2081 94.7062 26.9154 94.7062 27.7085C94.7062 28.5015 94.8128 29.2088 95.0258 29.8303C95.2448 30.4517 95.5674 30.9429 95.9935 31.304C96.4256 31.6591 96.9582 31.8366 97.5915 31.8366ZM112.888 39.8977C111.663 39.8977 110.612 39.729 109.736 39.3917C108.866 39.0603 108.174 38.6075 107.659 38.0334C107.144 37.4593 106.81 36.8142 106.656 36.098L110.154 35.6275C110.26 35.8997 110.429 36.1542 110.66 36.391C110.891 36.6277 111.195 36.8171 111.574 36.9592C111.959 37.1071 112.426 37.1811 112.977 37.1811C113.8 37.1811 114.477 36.9799 115.01 36.5774C115.548 36.1809 115.818 35.515 115.818 34.5799V32.0852H115.658C115.492 32.464 115.244 32.8221 114.912 33.1594C114.581 33.4968 114.155 33.772 113.634 33.9851C113.113 34.1982 112.492 34.3047 111.769 34.3047C110.746 34.3047 109.813 34.0679 108.973 33.5945C108.138 33.1151 107.473 32.3841 106.975 31.4016C106.484 30.4132 106.239 29.1644 106.239 27.6552C106.239 26.1104 106.49 24.8202 106.993 23.7844C107.496 22.7487 108.165 21.9734 109 21.4585C109.84 20.9435 110.76 20.6861 111.761 20.6861C112.524 20.6861 113.163 20.8163 113.678 21.0767C114.193 21.3312 114.607 21.6508 114.921 22.0355C115.241 22.4143 115.486 22.7872 115.658 23.1541H115.8V20.8636H119.555V34.6332C119.555 35.7932 119.271 36.7638 118.703 37.5451C118.135 38.3263 117.348 38.9123 116.342 39.3029C115.341 39.6995 114.19 39.8977 112.888 39.8977ZM112.968 31.4638C113.578 31.4638 114.092 31.3129 114.513 31.011C114.939 30.7032 115.264 30.2653 115.489 29.6971C115.72 29.123 115.835 28.4364 115.835 27.6374C115.835 26.8384 115.723 26.146 115.498 25.56C115.273 24.9682 114.948 24.5095 114.522 24.1839C114.095 23.8584 113.578 23.6957 112.968 23.6957C112.347 23.6957 111.823 23.8643 111.397 24.2017C110.97 24.5331 110.648 24.9948 110.429 25.5866C110.21 26.1785 110.1 26.8621 110.1 27.6374C110.1 28.4246 110.21 29.1052 110.429 29.6793C110.654 30.2475 110.976 30.6884 111.397 31.0021C111.823 31.3099 112.347 31.4638 112.968 31.4638ZM122.565 34.5V20.8636H126.347V34.5H122.565ZM124.465 19.1058C123.902 19.1058 123.42 18.9194 123.018 18.5465C122.621 18.1677 122.423 17.715 122.423 17.1882C122.423 16.6674 122.621 16.2205 123.018 15.8477C123.42 15.4689 123.902 15.2795 124.465 15.2795C125.027 15.2795 125.506 15.4689 125.903 15.8477C126.305 16.2205 126.507 16.6674 126.507 17.1882C126.507 17.715 126.305 18.1677 125.903 18.5465C125.506 18.9194 125.027 19.1058 124.465 19.1058ZM132.537 20.8636L135.04 25.631L137.606 20.8636H141.486L137.535 27.6818L141.592 34.5H137.73L135.04 29.7859L132.395 34.5H128.489L132.537 27.6818L128.631 20.8636H132.537Z" fill="#1A1A1A"/>
</svg>
