<svg xmlns="http://www.w3.org/2000/svg" width="28" height="28" viewBox="0 0 28 28" fill="none">
  <path d="M4.66748 12.2375V17.4922C4.66748 18.4204 5.03623 19.3107 5.69261 19.9671C6.34898 20.6234 7.23922 20.9922 8.16748 20.9922H19.8341C20.7624 20.9922 21.6526 20.6234 22.309 19.9671C22.9654 19.3107 23.3341 18.4204 23.3341 17.4922V12.2375L14.4791 16.2229C14.3287 16.2905 14.1657 16.3254 14.0008 16.3254C13.8359 16.3254 13.6729 16.2905 13.5225 16.2229L4.66748 12.2375ZM4.75381 9.71752L14.0008 13.8802L23.2478 9.71752C23.0721 8.9435 22.6386 8.25217 22.0183 7.75696C21.398 7.26175 20.6279 6.99208 19.8341 6.99219H8.16748C7.37377 6.99208 6.60359 7.26175 5.98331 7.75696C5.36303 8.25217 4.92949 8.9435 4.75381 9.71752Z" fill="#2B2E32"/>
</svg>