<svg xmlns="http://www.w3.org/2000/svg" width="47" height="58" viewBox="0 0 47 58" fill="none">
  <g clip-path="url(#clip0_439_10479)">
    <path d="M16.9458 64.8606L16.9457 64.8605C16.8766 64.8287 16.8463 64.7455 16.8793 64.6768L16.88 64.6753L31.3458 33.6378L31.3458 33.6379L31.3468 33.6356C31.3563 33.6142 31.3722 33.595 31.4001 33.5767C31.4004 33.5765 31.4008 33.5763 31.4011 33.5761L33.3942 32.3374C35.3866 31.0997 36.8871 29.1923 37.6246 26.9655L37.6247 26.9654L38.561 24.1314L38.5612 24.1315L38.5631 24.1245L39.0898 22.1989L39.1217 22.0822L39.0106 22.0342L33.9806 19.8635L33.8891 19.824L33.8221 19.8978L23.411 31.3843L23.4039 31.3921L23.3981 31.4009L1.27778 64.8061C1.2777 64.8062 1.27762 64.8063 1.27754 64.8065C1.23279 64.8725 1.14619 64.8885 1.08384 64.8465L1.08208 64.8453C1.01897 64.8041 1.00061 64.7162 1.04349 64.6525L1.04411 64.6516L23.1767 31.2322L23.1868 31.2187L23.1954 31.2072L33.7499 19.5611C33.7909 19.5159 33.8529 19.502 33.9096 19.526C33.9097 19.526 33.9098 19.526 33.9099 19.5261L39.3457 21.8692C39.3457 21.8692 39.3458 21.8692 39.3459 21.8692C39.4107 21.8975 39.4436 21.9669 39.4257 22.0336C39.4257 22.0336 39.4256 22.0337 39.4256 22.0338L38.8331 24.2007L37.8895 27.0535L38.0218 27.0973L37.8895 27.0536C37.1335 29.341 35.5881 31.3015 33.5424 32.5745L31.6169 33.7699L31.5817 33.7918L31.5641 33.8294L17.1321 64.791C17.1321 64.7911 17.132 64.7911 17.132 64.7911C17.1079 64.8421 17.057 64.8728 17.0045 64.8728C16.9839 64.8728 16.9623 64.8682 16.9458 64.8606Z" stroke="#1A1A1A" stroke-width="0.278667"/>
    <path d="M43.4203 16.823L31.001 5.43359L7.81652 30.7132L20.2359 42.1026L43.4203 16.823Z" fill="#E04545"/>
    <path d="M10.8948 39.9501C10.8279 39.9501 10.7611 39.925 10.7053 39.8776C10.5911 39.7745 10.5855 39.5962 10.6886 39.4847L16.2369 33.4377C16.34 33.3235 16.5184 33.3179 16.6299 33.421C16.7441 33.5241 16.7497 33.7025 16.6466 33.8139L11.0982 39.8609C11.0453 39.9194 10.9701 39.9501 10.8948 39.9501Z" fill="#1A1A1A"/>
    <path d="M3.38798 42.4618C3.3211 42.4618 3.25422 42.4367 3.19848 42.3894C3.08423 42.2863 3.07866 42.1079 3.18176 41.9964L8.7301 35.9495C8.83321 35.8352 9.01156 35.8296 9.12303 35.9327C9.23728 36.0358 9.24286 36.2142 9.13975 36.3257L3.59141 42.3726C3.53846 42.4312 3.46322 42.4618 3.38798 42.4618Z" fill="#1A1A1A"/>
    <path d="M9.65227 0.763537L11.1655 1.34594L12.1826 0L12.3219 1.76672L14.1556 2.02031L12.1519 2.67238L11.9708 4.44746L11.0846 3.01513L9.59375 3.40805L10.388 2.25438L9.65227 0.763537Z" fill="#E04545"/>
    <path d="M41.5805 36.7534C41.4773 36.7534 41.3854 36.6977 41.3352 36.6085L40.7082 35.4632L39.5629 34.839C39.4737 34.7889 39.418 34.6969 39.418 34.5938C39.418 34.4907 39.4737 34.3987 39.5629 34.3486L40.7082 33.7216L41.3352 32.5791C41.4328 32.4007 41.7254 32.4007 41.8229 32.5791L42.4499 33.7216L43.5952 34.3486C43.6844 34.3987 43.7402 34.4907 43.7402 34.5938C43.7402 34.6969 43.6844 34.7889 43.5952 34.839L42.4499 35.4632L41.8229 36.6085C41.7755 36.6977 41.6808 36.7534 41.5805 36.7534ZM40.2791 34.5938L41.0482 35.0146C41.0956 35.0397 41.1346 35.0787 41.1597 35.126L41.5805 35.8952L42.0012 35.126C42.0263 35.0787 42.0653 35.0397 42.1127 35.0146L42.8819 34.5938L42.1127 34.173C42.0653 34.1479 42.0263 34.1089 42.0012 34.0616L41.5805 33.2924L41.1597 34.0616C41.1346 34.1089 41.0956 34.1479 41.0482 34.173L40.2791 34.5938Z" fill="#E04545"/>
    <path d="M38.4346 24.301C38.3984 24.301 38.3594 24.2926 38.3231 24.2787L31.6657 21.3583C31.4511 21.6927 31.0582 22.4507 31.4595 23.0414C31.5458 23.1696 31.5124 23.3424 31.3842 23.4288C31.256 23.5151 31.0833 23.4817 30.9969 23.3535C30.2361 22.2333 31.3062 20.8901 31.3536 20.8344C31.4316 20.7369 31.5681 20.7034 31.6824 20.7536L38.5489 23.7659C38.691 23.8273 38.7551 23.9917 38.691 24.1338C38.6436 24.2397 38.5433 24.301 38.4346 24.301Z" fill="#1A1A1A"/>
    <path d="M38.6937 24.451C38.6659 24.451 38.638 24.4482 38.6129 24.4399C38.4652 24.3953 38.3844 24.2392 38.429 24.0916L39.017 22.1799L33.9201 20.0119C33.6888 20.2906 33.2401 20.9482 33.6414 21.5362C33.7278 21.6644 33.6944 21.8372 33.5662 21.9236C33.438 22.0099 33.2652 21.9765 33.1788 21.8483C32.5574 20.9343 33.2178 19.8977 33.6526 19.4769C33.7334 19.3989 33.8532 19.3766 33.9563 19.4212L39.4656 21.7647C39.5966 21.8205 39.6663 21.9654 39.6217 22.1019L38.9612 24.256C38.9222 24.373 38.8136 24.451 38.6937 24.451Z" fill="#1A1A1A"/>
    <path d="M37.8309 26.5651C37.7919 26.5651 37.7528 26.5567 37.7166 26.54L31.4326 23.6948C31.2765 23.915 31.0313 24.3358 31.0592 24.7565C31.0787 25.0157 31.1985 25.2358 31.4298 25.4281C31.5468 25.5284 31.5636 25.704 31.4632 25.821C31.3629 25.9381 31.1874 25.9548 31.0703 25.8545C30.722 25.5619 30.5325 25.2052 30.5046 24.7928C30.4461 23.9484 31.1121 23.1932 31.14 23.1626C31.2208 23.0706 31.3518 23.0456 31.4632 23.0957L37.9479 26.0328C38.0873 26.0969 38.1513 26.2613 38.0873 26.4007C38.0399 26.5038 37.9368 26.5651 37.8309 26.5651Z" fill="#1A1A1A"/>
    <path d="M31.5529 29.9773C31.4972 29.9773 31.4415 29.9606 31.3913 29.9244C31.2659 29.8352 31.238 29.6624 31.3272 29.537C31.6477 29.0856 32.0323 28.8543 32.3834 28.7373C31.6616 28.3249 30.7671 27.7118 30.5887 27.1266C30.3407 26.3073 30.9148 25.6831 31.252 25.4658C31.3356 25.4128 31.4415 25.4073 31.5279 25.4518L36.5746 28.0239C36.7111 28.0936 36.7669 28.2608 36.6972 28.4001C36.6275 28.5366 36.4603 28.5924 36.321 28.5227L31.4331 26.0315C31.2631 26.1847 30.9845 26.5163 31.121 26.965C31.2798 27.4861 32.6676 28.3026 33.5064 28.6927C33.6374 28.754 33.6987 28.9017 33.6513 29.0382C33.604 29.1748 33.4618 29.25 33.3225 29.2166C33.2863 29.2082 32.3862 29.0076 31.7814 29.8575C31.7257 29.9355 31.6393 29.9773 31.5529 29.9773Z" fill="#1A1A1A"/>
    <path d="M46.8804 0.582031L45.1108 23.1927L24.5059 4.29661L46.8804 0.582031Z" fill="#E04545"/>
    <path d="M5.6061 23.3079C5.53921 23.3079 5.47234 23.2828 5.4166 23.2354L1.32571 19.4846C1.26998 19.4344 1.23932 19.3648 1.23654 19.2895C1.23375 19.2143 1.25883 19.1418 1.31178 19.0889L8.34822 11.5093L5.88477 9.24931C5.80674 9.17686 5.77608 9.0654 5.80674 8.96508C5.83739 8.86197 5.92378 8.78673 6.02689 8.77001L16.2653 7.07017C16.3489 7.05624 16.4353 7.08132 16.4993 7.13984C16.5634 7.19836 16.5969 7.28195 16.5885 7.36834L15.7776 17.7151C15.7692 17.821 15.7023 17.9129 15.602 17.952C15.5017 17.991 15.3902 17.9715 15.3122 17.899L12.846 15.6363L5.80674 23.2187C5.75658 23.28 5.68134 23.3079 5.6061 23.3079ZM1.91092 19.2645L5.58938 22.6391L12.6286 15.0567C12.7317 14.9452 12.9073 14.9368 13.0215 15.0399L15.2704 17.102L16.0089 7.68044L6.68455 9.22702L8.93343 11.2891C8.98916 11.3393 9.01982 11.409 9.0226 11.4842C9.02539 11.5594 8.99752 11.6319 8.94736 11.6848L1.91092 19.2645Z" fill="#E04545"/>
  </g>
  <defs>
    <clipPath id="clip0_439_10479">
      <rect width="46" height="58" fill="white" transform="translate(0.880859)"/>
    </clipPath>
  </defs>
</svg>