<svg width="135" height="50" viewBox="0 0 135 50" fill="none" xmlns="http://www.w3.org/2000/svg">
<path d="M9.72772 24.3116C9.8825 24.3117 10.034 24.2672 10.1642 24.1835C10.2945 24.0998 10.3979 23.9805 10.4621 23.8397C10.5391 23.648 10.5383 23.4339 10.4598 23.2429C10.3813 23.0519 10.2314 22.8991 10.0419 22.817C6.73718 21.4788 5.52959 19.3804 6.26397 16.311C8.1552 17.9431 10.9851 19.6132 13.253 20.6607C13.3461 20.7055 13.447 20.7316 13.5502 20.7375C13.6533 20.7433 13.5625 20.5056 13.66 20.4715C13.7575 20.4374 13.3217 20.297 13.3987 20.2281C13.4757 20.1593 13.5384 20.0759 13.5832 19.9829C13.6281 19.8898 13.6542 19.7889 13.66 19.6857C13.6658 19.5826 13.6513 19.4794 13.6172 19.3819C13.5831 19.2844 13.5301 19.1945 13.4613 19.1175C13.3924 19.0405 13.3091 18.9778 13.216 18.933C10.7152 17.7882 8.4269 16.227 6.44886 14.316C6.35222 14.2247 6.23505 14.1581 6.10723 14.1216C5.97942 14.0852 5.84472 14.08 5.71448 14.1065C5.58405 14.1343 5.46278 14.1946 5.36195 14.2819C5.26112 14.3691 5.18402 14.4805 5.13784 14.6056C3.51134 19.1179 5.00854 22.4485 9.46655 24.2586C9.54908 24.2939 9.63796 24.3119 9.72772 24.3116Z" fill="black"/>
<path d="M10.8729 29.4037C11.0268 29.4016 11.1751 29.3495 11.292 29.2566C11.4089 29.1636 11.487 29.0356 11.5127 28.8948C11.5454 28.7321 11.5089 28.5639 11.4108 28.4256C11.3127 28.2873 11.1607 28.1896 10.9867 28.1529C10.3418 28.081 9.71956 27.8878 9.15788 27.5852C8.59621 27.2827 8.10692 26.8771 7.71991 26.3932C7.38771 25.8 7.18668 25.1512 7.12865 24.4849C7.07061 23.8186 7.15674 23.1483 7.38197 22.5133C7.40439 22.4339 7.40903 22.351 7.39559 22.2699C7.38216 22.1887 7.35094 22.111 7.30386 22.0415C7.25678 21.972 7.19484 21.9121 7.12186 21.8657C7.04889 21.8192 6.96642 21.7871 6.87956 21.7714C6.79399 21.752 6.70509 21.7487 6.61814 21.7618C6.53118 21.7748 6.44794 21.8039 6.37335 21.8474C6.29876 21.8909 6.23433 21.9478 6.1839 22.0148C6.13347 22.0818 6.09806 22.1575 6.07976 22.2374C5.81961 23.035 5.73156 23.8722 5.82067 24.7014C5.90978 25.5305 6.17429 26.3351 6.59907 27.0693C7.08121 27.692 7.69426 28.2178 8.40128 28.6148C9.10829 29.0119 9.89464 29.2721 10.713 29.3797C10.7643 29.3966 10.8185 29.4048 10.8729 29.4037Z" fill="black"/>
<path d="M15.3674 34.805C15.7553 34.805 16.1807 34.7792 16.6009 34.752C16.8053 34.7326 16.9939 34.6339 17.1264 34.477C17.2588 34.3202 17.3245 34.1177 17.3094 33.9129C17.284 33.706 17.1798 33.5168 17.0184 33.3848C16.8571 33.2528 16.651 33.1882 16.4431 33.2044C12.4351 33.5716 10.2526 32.0498 9.67597 28.4038C9.64283 28.1994 9.53078 28.0162 9.36394 27.8936C9.19709 27.771 8.98879 27.7188 8.78385 27.7483C8.58185 27.7862 8.4018 27.8994 8.2801 28.065C8.15841 28.2306 8.10416 28.4363 8.12834 28.6404C8.19283 29.5227 8.43204 30.3834 8.83205 31.1725C9.23205 31.9616 9.78489 32.6633 10.4584 33.2369C11.132 33.8105 11.9128 34.2445 12.7555 34.5137C13.5983 34.7829 14.4861 34.8819 15.3674 34.805Z" fill="black"/>
<path d="M40.6841 24.1944C40.5294 24.1945 40.3778 24.15 40.2476 24.0663C40.1174 23.9827 40.014 23.8633 39.9498 23.7225C39.8728 23.5309 39.8736 23.3168 39.9521 23.1257C40.0306 22.9347 40.1805 22.7819 40.37 22.6998C43.6747 21.3616 44.8823 19.2632 44.1479 16.1938C42.2567 17.8259 39.4268 19.4961 37.1588 20.5435C37.0658 20.5884 36.9648 20.6144 36.8617 20.6203C36.7586 20.6261 36.8493 20.3884 36.7518 20.3543C36.6543 20.3202 37.0902 20.1798 37.0131 20.1109C36.9361 20.0421 36.8734 19.9587 36.8286 19.8657C36.7838 19.7726 36.7577 19.6717 36.7518 19.5685C36.746 19.4654 36.7606 19.3622 36.7947 19.2647C36.8288 19.1672 36.8818 19.0773 36.9506 19.0003C37.0194 18.9233 37.1028 18.8606 37.1958 18.8158C39.6967 17.6711 41.985 16.1098 43.963 14.1988C44.0596 14.1075 44.1768 14.0409 44.3046 14.0044C44.4324 13.968 44.5672 13.9628 44.6974 13.9893C44.8278 14.0171 44.9491 14.0774 45.0499 14.1647C45.1507 14.2519 45.2278 14.3633 45.274 14.4884C46.9005 19.0007 45.4033 22.3313 40.9453 24.1414C40.8628 24.1767 40.7739 24.1947 40.6841 24.1944Z" fill="black"/>
<path d="M39.539 29.2866C39.385 29.2844 39.2367 29.2324 39.1199 29.1394C39.003 29.0464 38.9249 28.9185 38.8991 28.7777C38.8665 28.6149 38.903 28.4467 39.0011 28.3084C39.0991 28.1701 39.2511 28.0724 39.4252 28.0357C40.07 27.9638 40.6923 27.7706 41.254 27.468C41.8157 27.1655 42.3049 26.7599 42.692 26.276C43.0242 25.6828 43.2252 25.034 43.2832 24.3677C43.3413 23.7014 43.2551 23.0311 43.0299 22.3961C43.0075 22.3167 43.0028 22.2338 43.0163 22.1527C43.0297 22.0715 43.0609 21.9938 43.108 21.9243C43.1551 21.8548 43.217 21.7949 43.29 21.7485C43.363 21.702 43.4454 21.6699 43.5323 21.6542C43.6179 21.6348 43.7068 21.6315 43.7937 21.6446C43.8807 21.6576 43.9639 21.6868 44.0385 21.7302C44.1131 21.7737 44.1775 21.8306 44.228 21.8976C44.2784 21.9646 44.3138 22.0403 44.3321 22.1202C44.5923 22.9178 44.6803 23.755 44.5912 24.5842C44.5021 25.4133 44.2376 26.218 43.8128 26.9521C43.3307 27.5748 42.7176 28.1006 42.0106 28.4976C41.3036 28.8947 40.5172 29.1549 39.6989 29.2625C39.6476 29.2794 39.5934 29.2876 39.539 29.2866Z" fill="black"/>
<path d="M35.0449 34.6879C34.6571 34.6879 34.2317 34.662 33.8115 34.6348C33.6071 34.6154 33.4185 34.5167 33.286 34.3599C33.1535 34.203 33.0878 34.0005 33.103 33.7957C33.1283 33.5888 33.2325 33.3996 33.3939 33.2676C33.5553 33.1356 33.7614 33.071 33.9692 33.0872C37.9773 33.4544 40.1597 31.9326 40.7364 28.2866C40.7695 28.0822 40.8816 27.899 41.0484 27.7764C41.2153 27.6538 41.4236 27.6016 41.6285 27.6311C41.8305 27.669 42.0106 27.7822 42.1323 27.9478C42.2539 28.1134 42.3082 28.3191 42.284 28.5232C42.2195 29.4055 41.9803 30.2662 41.5803 31.0553C41.1803 31.8444 40.6275 32.5461 39.9539 33.1197C39.2804 33.6933 38.4995 34.1273 37.6568 34.3965C36.8141 34.6657 35.9263 34.7647 35.0449 34.6879Z" fill="black"/>
<path fill-rule="evenodd" clip-rule="evenodd" d="M22.1452 13.332H14.0244C13.5474 13.332 13.1606 13.7187 13.1606 14.1958V35.546C13.1606 36.023 13.5474 36.4097 14.0244 36.4097H36.4492C36.9263 36.4097 37.313 36.023 37.313 35.546V14.1958C37.313 13.7187 36.9263 13.332 36.4492 13.332H28.2982V17.2569C28.2982 17.869 27.8019 18.3653 27.1897 18.3653H23.2537C22.6415 18.3653 22.1452 17.869 22.1452 17.2569V13.332Z" fill="#3381E0"/>
<path d="M62.3515 34.5V20.8636H66.1335V34.5H62.3515ZM64.2514 19.1058C63.6891 19.1058 63.2068 18.9194 62.8043 18.5465C62.4077 18.1677 62.2095 17.715 62.2095 17.1882C62.2095 16.6674 62.4077 16.2205 62.8043 15.8477C63.2068 15.4689 63.6891 15.2795 64.2514 15.2795C64.8136 15.2795 65.293 15.4689 65.6896 15.8477C66.092 16.2205 66.2933 16.6674 66.2933 17.1882C66.2933 17.715 66.092 18.1677 65.6896 18.5465C65.293 18.9194 64.8136 19.1058 64.2514 19.1058ZM69.2341 34.5V16.3182H73.0782V31.3306H80.8729V34.5H69.2341ZM89.5088 34.7663C88.1298 34.7663 86.9372 34.4734 85.9311 33.8874C84.9308 33.2956 84.1585 32.4729 83.6139 31.4194C83.0694 30.36 82.7972 29.1319 82.7972 27.7351C82.7972 26.3265 83.0694 25.0954 83.6139 24.0419C84.1585 22.9825 84.9308 22.1598 85.9311 21.5739C86.9372 20.982 88.1298 20.6861 89.5088 20.6861C90.8879 20.6861 92.0775 20.982 93.0777 21.5739C94.0839 22.1598 94.8592 22.9825 95.4037 24.0419C95.9482 25.0954 96.2205 26.3265 96.2205 27.7351C96.2205 29.1319 95.9482 30.36 95.4037 31.4194C94.8592 32.4729 94.0839 33.2956 93.0777 33.8874C92.0775 34.4734 90.8879 34.7663 89.5088 34.7663ZM89.5266 31.8366C90.154 31.8366 90.6777 31.6591 91.098 31.304C91.5182 30.9429 91.8348 30.4517 92.0479 29.8303C92.2669 29.2088 92.3764 28.5015 92.3764 27.7085C92.3764 26.9154 92.2669 26.2081 92.0479 25.5866C91.8348 24.9652 91.5182 24.474 91.098 24.1129C90.6777 23.7519 90.154 23.5714 89.5266 23.5714C88.8933 23.5714 88.3606 23.7519 87.9286 24.1129C87.5024 24.474 87.1799 24.9652 86.9609 25.5866C86.7478 26.2081 86.6413 26.9154 86.6413 27.7085C86.6413 28.5015 86.7478 29.2088 86.9609 29.8303C87.1799 30.4517 87.5024 30.9429 87.9286 31.304C88.3606 31.6591 88.8933 31.8366 89.5266 31.8366ZM104.823 39.8977C103.598 39.8977 102.547 39.729 101.671 39.3917C100.801 39.0603 100.109 38.6075 99.5941 38.0334C99.0791 37.4593 98.7447 36.8142 98.5909 36.098L102.089 35.6275C102.195 35.8997 102.364 36.1542 102.595 36.391C102.826 36.6277 103.13 36.8171 103.509 36.9592C103.894 37.1071 104.361 37.1811 104.912 37.1811C105.735 37.1811 106.412 36.9799 106.945 36.5774C107.484 36.1809 107.753 35.515 107.753 34.5799V32.0852H107.593C107.427 32.464 107.179 32.8221 106.847 33.1594C106.516 33.4968 106.09 33.772 105.569 33.9851C105.048 34.1982 104.427 34.3047 103.705 34.3047C102.681 34.3047 101.748 34.0679 100.908 33.5945C100.073 33.1151 99.4076 32.3841 98.9105 31.4016C98.4192 30.4132 98.1736 29.1644 98.1736 27.6552C98.1736 26.1104 98.4251 24.8202 98.9282 23.7844C99.4313 22.7487 100.1 21.9734 100.935 21.4585C101.775 20.9435 102.695 20.6861 103.696 20.6861C104.459 20.6861 105.098 20.8163 105.613 21.0767C106.128 21.3312 106.542 21.6508 106.856 22.0355C107.176 22.4143 107.421 22.7872 107.593 23.1541H107.735V20.8636H111.49V34.6332C111.49 35.7932 111.206 36.7638 110.638 37.5451C110.07 38.3263 109.283 38.9123 108.277 39.3029C107.276 39.6995 106.125 39.8977 104.823 39.8977ZM104.903 31.4638C105.513 31.4638 106.028 31.3129 106.448 31.011C106.874 30.7032 107.199 30.2653 107.424 29.6971C107.655 29.123 107.771 28.4364 107.771 27.6374C107.771 26.8384 107.658 26.146 107.433 25.56C107.208 24.9682 106.883 24.5095 106.457 24.1839C106.03 23.8584 105.513 23.6957 104.903 23.6957C104.282 23.6957 103.758 23.8643 103.332 24.2017C102.905 24.5331 102.583 24.9948 102.364 25.5866C102.145 26.1785 102.035 26.8621 102.035 27.6374C102.035 28.4246 102.145 29.1052 102.364 29.6793C102.589 30.2475 102.911 30.6884 103.332 31.0021C103.758 31.3099 104.282 31.4638 104.903 31.4638ZM114.5 34.5V20.8636H118.282V34.5H114.5ZM116.4 19.1058C115.838 19.1058 115.355 18.9194 114.953 18.5465C114.556 18.1677 114.358 17.715 114.358 17.1882C114.358 16.6674 114.556 16.2205 114.953 15.8477C115.355 15.4689 115.838 15.2795 116.4 15.2795C116.962 15.2795 117.441 15.4689 117.838 15.8477C118.24 16.2205 118.442 16.6674 118.442 17.1882C118.442 17.715 118.24 18.1677 117.838 18.5465C117.441 18.9194 116.962 19.1058 116.4 19.1058ZM124.472 20.8636L126.976 25.631L129.541 20.8636H133.421L129.47 27.6818L133.527 34.5H129.666L126.976 29.7859L124.33 34.5H120.424L124.472 27.6818L120.566 20.8636H124.472Z" fill="#1A1A1A"/>
</svg>
