<svg xmlns="http://www.w3.org/2000/svg" width="46" height="60" viewBox="0 0 46 60" fill="none">
  <path d="M44.0226 35.4772C44.5624 32.151 42.3036 29.017 38.9774 28.4772C35.6512 27.9374 32.5172 30.1962 31.9774 33.5223C31.4376 36.8485 33.6964 39.9825 37.0226 40.5223C40.3488 41.0622 43.4828 38.8034 44.0226 35.4772Z" fill="#E04545"/>
  <path d="M36.5414 37.3304L36.6774 37.4663L36.8123 37.3294L41.2658 32.8118L41.3997 32.6759L41.2638 32.5419L40.8497 32.1336L40.7138 31.9997L40.5799 32.1355L36.6725 36.0964L35.5514 34.9752L35.4169 34.8408L35.282 34.9748L34.8679 35.386L34.732 35.5209L34.8674 35.6564L36.5414 37.3304Z" stroke="white" stroke-width="0.381679"/>
  <path d="M27.2644 0H24.1731V1.72341C23.3992 1.90117 22.673 2.20467 22.0205 2.61655L20.8 1.39607L18.6148 3.58123L19.8353 4.80171C19.4234 5.45422 19.1178 6.17827 18.9422 6.95435H17.2188V10.0457H18.9422C19.1178 10.8196 19.4256 11.5458 19.8353 12.1983L18.6148 13.4188L20.8 15.6039L22.0205 14.3834C22.673 14.7953 23.397 15.101 24.1731 15.2766V17H27.2644V15.2766C28.0383 15.101 28.7645 14.7953 29.417 14.3834L30.6375 15.6039L32.8227 13.4188L31.6022 12.1983C32.0141 11.5458 32.3197 10.8217 32.4953 10.0457H34.2188V6.95435H32.4953C32.3197 6.18044 32.0119 5.45422 31.6022 4.80171L32.8227 3.58123L30.6375 1.39607L29.417 2.61655C28.7645 2.20467 28.0405 1.89901 27.2644 1.72341V0ZM28.0361 8.5C28.0361 9.78118 26.9978 10.8174 25.7188 10.8174C24.4376 10.8174 23.4014 9.77901 23.4014 8.5C23.4014 7.21882 24.4397 6.18261 25.7188 6.18261C26.9999 6.18261 28.0361 7.21882 28.0361 8.5Z" fill="#1A1A1A"/>
  <path d="M25.7149 12.7693C23.3607 12.7693 21.4443 10.8551 21.4443 8.50085C21.4443 6.1466 23.3607 4.23242 25.7149 4.23242C28.0692 4.23242 29.9834 6.1466 29.9834 8.50085C29.9834 10.8551 28.0692 12.7693 25.7149 12.7693ZM25.7149 4.66598C23.5991 4.66598 21.8779 6.38723 21.8779 8.50085C21.8779 10.6145 23.5991 12.3357 25.7149 12.3357C27.8307 12.3357 29.5498 10.6145 29.5498 8.50085C29.5498 6.38723 27.8307 4.66598 25.7149 4.66598Z" fill="white"/>
  <path d="M2.30612 21.1543C1.07595 23.8288 1.84139 26.998 4.15759 28.8175L5.02989 29.5035C7.16964 31.1838 8.8024 33.4258 9.74678 35.981L9.82382 36.1898L14.824 34.338L14.747 34.1292C13.8026 31.5765 13.5814 28.81 14.1108 26.1405L14.327 25.0542C14.9011 22.166 13.4174 19.2628 10.7433 18.0324C7.55236 16.5634 3.77487 17.9603 2.30612 21.1543Z" fill="white"/>
  <path d="M9.82409 36.4359C9.7893 36.4359 9.75202 36.4284 9.71971 36.4135C9.66007 36.3862 9.61285 36.3364 9.59048 36.2743L9.51344 36.0655C8.58398 33.555 6.97855 31.3528 4.87359 29.6974L4.00129 29.0114C1.58569 27.1148 0.795398 23.8388 2.07776 21.0499C3.60118 17.7366 7.53523 16.2801 10.8455 17.8037C13.6364 19.0863 15.1672 22.0864 14.5683 25.099L14.3521 26.1877C13.8302 28.815 14.0464 31.5318 14.9759 34.0422L15.0529 34.251C15.1001 34.3803 15.0355 34.5219 14.9063 34.5692L9.9061 36.421C9.88373 36.4309 9.85391 36.4359 9.82409 36.4359ZM2.53254 21.2587C1.34711 23.8388 2.07776 26.8663 4.31194 28.6211L5.18424 29.3047C7.3563 31.0098 9.01143 33.2791 9.9732 35.8667L14.5087 34.1889C13.5544 31.5989 13.3357 28.7976 13.8725 26.0883L14.0887 24.9996C14.6404 22.2132 13.2263 19.4393 10.6442 18.2536C7.57748 16.8493 3.94165 18.1965 2.53254 21.2587Z" fill="#1A1A1A"/>
  <path d="M13.5258 36.5183L12.0943 37.0478C10.8368 37.5126 9.44264 36.8713 8.97791 35.6136L8.12549 33.3094L14.1073 31.0947L14.9598 33.3989C15.4245 34.6566 14.7833 36.051 13.5258 36.5183Z" fill="#1A1A1A"/>
  <path d="M10.6043 32.8679C10.5024 32.8679 10.408 32.8057 10.3707 32.7063L8.6907 28.1676C8.50431 28.2173 8.31792 28.2496 8.13651 28.267C6.96847 28.3788 6.08623 27.7574 5.99676 27.1087C5.94457 26.7433 6.14338 26.3058 6.85415 26.1741C7.98242 25.9678 8.93425 27.4517 8.97401 27.5139C8.98147 27.5238 8.98644 27.5362 8.99141 27.5462C9.30454 27.4219 9.61022 27.2504 9.89105 27.0466C9.83141 26.9024 9.7817 26.7831 9.73945 26.6911C9.27721 25.6844 9.1107 25.073 9.40395 24.3174C9.82892 23.2287 10.5099 23.2038 10.7857 23.2436C11.325 23.3206 11.7723 23.8252 11.822 24.4143C11.9115 25.4757 11.3325 26.4848 10.49 27.2056C11.1162 28.8089 12.2172 31.9432 12.2719 32.0998C12.3166 32.2291 12.2495 32.3707 12.1203 32.4155C11.991 32.4602 11.8494 32.3931 11.8046 32.2639C11.7922 32.2266 10.7161 29.1643 10.0824 27.5188C9.79164 27.7177 9.48348 27.8842 9.16786 28.0085L10.8429 32.5298C10.8901 32.6591 10.8255 32.8007 10.6963 32.8505C10.6615 32.8629 10.6316 32.8679 10.6043 32.8679ZM7.07036 26.6489C7.02811 26.6489 6.98586 26.6538 6.94362 26.6613C6.75971 26.6961 6.45403 26.7905 6.48883 27.0391C6.53356 27.3523 7.10515 27.8668 8.08929 27.7724C8.22597 27.7599 8.36266 27.7351 8.50183 27.7028C8.25331 27.3399 7.65189 26.6489 7.07036 26.6489ZM10.6416 23.7308C10.3384 23.7308 10.06 24.0067 9.86868 24.4988C9.65744 25.0407 9.72703 25.4682 10.1918 26.4848C10.2216 26.5494 10.2539 26.6265 10.2912 26.716C10.9522 26.0995 11.3971 25.2867 11.325 24.459C11.2952 24.0986 11.0243 23.7805 10.7136 23.7357C10.6888 23.7308 10.6639 23.7308 10.6416 23.7308Z" fill="#1A1A1A"/>
  <mask id="path-9-inside-1_439_10665" fill="white">
    <path fill-rule="evenodd" clip-rule="evenodd" d="M27.0485 67.8571C27.0783 67.8686 27.1081 67.8755 27.1379 67.8755C27.2273 67.8755 27.3121 67.8228 27.3511 67.7356L33.0247 54.3231C33.0362 54.2933 33.043 54.2635 33.043 54.2314L32.8917 42.1758C32.8826 41.4996 32.3255 40.9471 31.647 40.9471C31.0739 40.9471 30.5788 41.3345 30.4389 41.8893L29.7466 44.6585L22.6013 37.9327C22.3354 37.6828 21.9778 37.5751 21.6179 37.6393C21.258 37.7035 20.9577 37.9281 20.795 38.2536C20.5909 38.6594 20.6483 39.1476 20.9394 39.4961L24.5338 43.8103L23.7213 45.1961C23.6899 45.2185 23.6639 45.2491 23.6466 45.2866C23.6363 45.3094 23.63 45.3329 23.6273 45.3564L23.3739 45.7886C22.3584 47.5216 21.9801 49.5664 22.3102 51.5493L22.6128 53.3671L13.5305 67.5225C13.4617 67.6279 13.4938 67.77 13.5993 67.8388C13.7047 67.9076 13.8468 67.8778 13.9156 67.77L23.0461 53.5414C23.0759 53.4955 23.0873 53.4359 23.0782 53.3809L22.7595 51.4759C22.4455 49.6008 22.8031 47.6637 23.7659 46.0224L23.9635 45.6848L29.052 48.0076C29.0016 48.2231 28.8755 48.6036 28.5981 48.8145C28.4301 48.944 28.2305 48.9879 27.9882 48.953C27.9668 48.9321 27.9411 48.9153 27.9125 48.904L23.5822 47.1847C23.463 47.1366 23.3301 47.1962 23.2842 47.3131C23.2384 47.43 23.2957 47.5652 23.4126 47.6111L27.6076 49.2776C27.6053 49.4656 27.5503 49.8163 27.1996 49.9768C26.7938 50.1625 25.533 49.7476 24.8362 49.4427C24.7284 49.3968 24.6023 49.4381 24.545 49.5413C24.4854 49.6444 24.5152 49.7728 24.6115 49.8416C24.6367 49.8599 25.2511 50.3069 25.0539 51.1436C25.0241 51.2674 25.0998 51.3889 25.2236 51.4187C25.2419 51.4233 25.2579 51.4256 25.2763 51.4256C25.3794 51.4256 25.4757 51.3545 25.5009 51.2468C25.6064 50.8043 25.5399 50.4399 25.4207 50.1602C26.0672 50.3826 26.9337 50.6026 27.3898 50.394C27.8523 50.1835 28.02 49.762 28.0582 49.4216C28.0857 49.4233 28.1128 49.4243 28.1397 49.4243C28.417 49.4243 28.6623 49.344 28.8801 49.179C29.4293 48.7614 29.5359 47.9529 29.5424 47.9034L29.5426 47.9021C29.5541 47.8036 29.5013 47.7073 29.4096 47.666L28.7335 47.3573C29.2765 47.0381 29.4645 46.3297 29.483 45.9291C29.4875 45.8374 29.4348 45.7503 29.3523 45.7113L24.9493 43.5973L21.2878 39.2027C21.1136 38.9918 21.0792 38.7006 21.2007 38.4576C21.2993 38.2628 21.4781 38.1298 21.6936 38.0909C21.9091 38.0519 22.1245 38.1161 22.2827 38.2651L29.7145 45.2591C29.7741 45.3141 29.859 45.3347 29.9369 45.3118C30.0148 45.2889 30.0744 45.2247 30.0951 45.1467L30.8813 41.9993C30.9707 41.6486 31.2825 41.4033 31.6447 41.4033C32.0734 41.4033 32.4264 41.7518 32.431 42.1804L32.5823 54.1878L26.927 67.5568C26.8766 67.6737 26.9316 67.809 27.0485 67.8571ZM24.902 44.0819L24.1969 45.2862L28.1311 47.0824C28.1564 47.0682 28.1848 47.0585 28.2153 47.0546C28.793 46.9836 28.9603 46.3463 29.0061 46.0529L24.902 44.0819Z"/>
  </mask>
  <path d="M27.0485 67.8571L26.9612 68.0692L26.9662 68.0711L27.0485 67.8571ZM27.3511 67.7356L27.5604 67.8293L27.5622 67.8249L27.3511 67.7356ZM33.0247 54.3231L33.2359 54.4124L33.2387 54.4053L33.0247 54.3231ZM33.043 54.2314H33.2723L33.2723 54.2285L33.043 54.2314ZM32.8917 42.1758L33.121 42.173L33.121 42.1727L32.8917 42.1758ZM30.4389 41.8893L30.2166 41.8333L30.2165 41.8337L30.4389 41.8893ZM29.7466 44.6585L29.5895 44.8254L29.8742 45.0934L29.969 44.7141L29.7466 44.6585ZM22.6013 37.9327L22.7585 37.7658L22.7583 37.7656L22.6013 37.9327ZM21.6179 37.6393L21.5777 37.4136L21.6179 37.6393ZM20.795 38.2536L20.9998 38.3566L21 38.3561L20.795 38.2536ZM20.9394 39.4961L21.1155 39.3493L21.1153 39.3491L20.9394 39.4961ZM24.5338 43.8103L24.7316 43.9262L24.813 43.7873L24.7099 43.6636L24.5338 43.8103ZM23.7213 45.1961L23.8545 45.3826L23.8943 45.3542L23.919 45.3121L23.7213 45.1961ZM23.6466 45.2866L23.4384 45.1908L23.4377 45.1923L23.6466 45.2866ZM23.6273 45.3564L23.825 45.4724L23.8494 45.4307L23.855 45.3828L23.6273 45.3564ZM23.3739 45.7886L23.1761 45.6727L23.1761 45.6727L23.3739 45.7886ZM22.3102 51.5493L22.5363 51.5117L22.5363 51.5117L22.3102 51.5493ZM22.6128 53.3671L22.8057 53.4909L22.8534 53.4166L22.8389 53.3295L22.6128 53.3671ZM13.5305 67.5225L13.7225 67.6477L13.7234 67.6462L13.5305 67.5225ZM13.5993 67.8388L13.7245 67.6468L13.5993 67.8388ZM13.9156 67.77L13.7227 67.6462L13.7224 67.6467L13.9156 67.77ZM23.0461 53.5414L22.8539 53.4164L22.8531 53.4176L23.0461 53.5414ZM23.0782 53.3809L23.3043 53.3432L23.3043 53.3431L23.0782 53.3809ZM22.7595 51.4759L22.9856 51.4381L22.9856 51.4381L22.7595 51.4759ZM23.7659 46.0224L23.9636 46.1384L23.9637 46.1382L23.7659 46.0224ZM23.9635 45.6848L24.0587 45.4763L23.8703 45.3903L23.7657 45.569L23.9635 45.6848ZM29.052 48.0076L29.2752 48.0598L29.318 47.877L29.1472 47.7991L29.052 48.0076ZM28.5981 48.8145L28.4594 48.632L28.4583 48.6329L28.5981 48.8145ZM27.9882 48.953L27.8282 49.1172L27.8817 49.1693L27.9556 49.1799L27.9882 48.953ZM27.9125 48.904L27.8279 49.117L27.8285 49.1173L27.9125 48.904ZM23.5822 47.1847L23.4964 47.3973L23.4976 47.3978L23.5822 47.1847ZM23.2842 47.3131L23.0708 47.2294H23.0708L23.2842 47.3131ZM23.4126 47.6111L23.4972 47.398L23.4963 47.3977L23.4126 47.6111ZM27.6076 49.2776L27.8368 49.2804L27.8388 49.1228L27.6923 49.0646L27.6076 49.2776ZM27.1996 49.9768L27.1042 49.7684L27.1042 49.7684L27.1996 49.9768ZM24.8362 49.4427L24.928 49.2327L24.9259 49.2318L24.8362 49.4427ZM24.545 49.5413L24.7435 49.656L24.7454 49.6526L24.545 49.5413ZM24.6115 49.8416L24.7463 49.6562L24.7447 49.655L24.6115 49.8416ZM25.0539 51.1436L25.2768 51.1973L25.2771 51.1962L25.0539 51.1436ZM25.2236 51.4187L25.2792 51.1963L25.2772 51.1958L25.2236 51.4187ZM25.5009 51.2468L25.2779 51.1936L25.2777 51.1945L25.5009 51.2468ZM25.4207 50.1602L25.4953 49.9434L25.0076 49.7757L25.2098 50.2501L25.4207 50.1602ZM27.3898 50.394L27.2949 50.1854L27.2945 50.1855L27.3898 50.394ZM28.0582 49.4216L28.0726 49.1928L27.8548 49.1791L27.8304 49.396L28.0582 49.4216ZM28.8801 49.179L29.0186 49.3617L29.0188 49.3615L28.8801 49.179ZM29.5424 47.9034L29.3152 47.8734L29.3152 47.8734L29.5424 47.9034ZM29.5426 47.9021L29.7699 47.9321L29.7703 47.9286L29.5426 47.9021ZM29.4096 47.666L29.3144 47.8746L29.3156 47.8751L29.4096 47.666ZM28.7335 47.3573L28.6173 47.1597L28.2376 47.3829L28.6383 47.5659L28.7335 47.3573ZM29.483 45.9291L29.254 45.9176L29.254 45.9185L29.483 45.9291ZM29.3523 45.7113L29.2531 45.9179L29.2544 45.9186L29.3523 45.7113ZM24.9493 43.5973L24.7731 43.744L24.8051 43.7824L24.85 43.8039L24.9493 43.5973ZM21.2878 39.2027L21.1111 39.3487L21.1117 39.3494L21.2878 39.2027ZM21.2007 38.4576L20.9962 38.3542L20.9957 38.3551L21.2007 38.4576ZM22.2827 38.2651L22.1255 38.4319L22.1256 38.432L22.2827 38.2651ZM29.7145 45.2591L29.5574 45.426L29.559 45.4275L29.7145 45.2591ZM29.9369 45.3118L30.0016 45.5317L30.0016 45.5317L29.9369 45.3118ZM30.0951 45.1467L30.3167 45.2054L30.3175 45.2023L30.0951 45.1467ZM30.8813 41.9993L30.6592 41.9427L30.6589 41.9438L30.8813 41.9993ZM32.431 42.1804L32.2018 42.1829L32.2018 42.1833L32.431 42.1804ZM32.5823 54.1878L32.7934 54.2771L32.8121 54.2329L32.8115 54.1849L32.5823 54.1878ZM26.927 67.5568L27.1375 67.6476L27.1381 67.6461L26.927 67.5568ZM24.1969 45.2862L23.9991 45.1704L23.8709 45.3894L24.1017 45.4948L24.1969 45.2862ZM24.902 44.0819L25.0013 43.8753L24.8109 43.7839L24.7042 43.9661L24.902 44.0819ZM28.1311 47.0824L28.0359 47.2909L28.142 47.3393L28.2435 47.2822L28.1311 47.0824ZM28.2153 47.0546L28.1873 46.8271L28.1863 46.8272L28.2153 47.0546ZM29.0061 46.0529L29.2326 46.0882L29.2589 45.92L29.1054 45.8462L29.0061 46.0529ZM27.1379 67.6462C27.1435 67.6462 27.1421 67.6475 27.1308 67.6432L26.9662 68.0711C27.0146 68.0897 27.0728 68.1047 27.1379 68.1047V67.6462ZM27.1419 67.642C27.14 67.6462 27.1374 67.6462 27.1379 67.6462V68.1047C27.3172 68.1047 27.4843 67.9993 27.5604 67.8293L27.1419 67.642ZM32.8136 54.2337L27.14 67.6463L27.5622 67.8249L33.2358 54.4124L32.8136 54.2337ZM32.8138 54.2314C32.8138 54.2308 32.8139 54.2306 32.8137 54.2315C32.8135 54.2325 32.8128 54.2354 32.8107 54.2408L33.2387 54.4053C33.2577 54.3557 33.2723 54.2978 33.2723 54.2314H32.8138ZM32.6625 42.1787L32.8138 54.2342L33.2723 54.2285L33.121 42.173L32.6625 42.1787ZM31.647 41.1764C32.1997 41.1764 32.6551 41.6276 32.6625 42.179L33.121 42.1727C33.1101 41.3715 32.4514 40.7179 31.647 40.7179V41.1764ZM30.6612 41.9453C30.7754 41.4921 31.1793 41.1764 31.647 41.1764V40.7179C30.9685 40.7179 30.3821 41.177 30.2166 41.8333L30.6612 41.9453ZM29.969 44.7141L30.6613 41.9449L30.2165 41.8337L29.5242 44.6029L29.969 44.7141ZM22.4442 38.0996L29.5895 44.8254L29.9037 44.4915L22.7585 37.7658L22.4442 38.0996ZM21.6582 37.8649C21.9462 37.8136 22.2308 37.8991 22.4444 38.0997L22.7583 37.7656C22.4401 37.4666 22.0095 37.3366 21.5777 37.4136L21.6582 37.8649ZM21 38.3561C21.1303 38.0955 21.3695 37.9164 21.6582 37.8649L21.5777 37.4136C21.1466 37.4905 20.7851 37.7607 20.5899 38.1511L21 38.3561ZM21.1153 39.3491C20.8825 39.0705 20.837 38.6804 20.9998 38.3566L20.5902 38.1506C20.3449 38.6383 20.414 39.2248 20.7635 39.6431L21.1153 39.3491ZM24.7099 43.6636L21.1155 39.3493L20.7633 39.6428L24.3577 43.957L24.7099 43.6636ZM23.919 45.3121L24.7316 43.9262L24.3361 43.6943L23.5235 45.0802L23.919 45.3121ZM23.8549 45.3824L23.8545 45.3826L23.588 45.0096C23.5249 45.0546 23.4727 45.1162 23.4384 45.1908L23.8549 45.3824ZM23.855 45.3828C23.855 45.3826 23.8551 45.382 23.8556 45.3808L23.4377 45.1923C23.4176 45.2368 23.405 45.2833 23.3995 45.3301L23.855 45.3828ZM23.5716 45.9045L23.825 45.4724L23.4295 45.2405L23.1761 45.6727L23.5716 45.9045ZM22.5363 51.5117C22.2151 49.5817 22.5832 47.5913 23.5717 45.9045L23.1761 45.6727C22.1335 47.452 21.7452 49.5511 22.0841 51.5869L22.5363 51.5117ZM22.8389 53.3295L22.5363 51.5117L22.0841 51.5869L22.3867 53.4048L22.8389 53.3295ZM13.7234 67.6462L22.8057 53.4909L22.4199 53.2433L13.3375 67.3987L13.7234 67.6462ZM13.7245 67.6468C13.7241 67.6465 13.7236 67.6462 13.7234 67.6451C13.7233 67.6447 13.7234 67.6448 13.7233 67.6455C13.7232 67.6463 13.7228 67.6472 13.7225 67.6477L13.3385 67.3972C13.1984 67.612 13.2658 67.895 13.474 68.0308L13.7245 67.6468ZM13.7224 67.6467C13.722 67.6472 13.722 67.647 13.7225 67.6467C13.7228 67.6465 13.723 67.6465 13.723 67.6465C13.723 67.6465 13.7232 67.6464 13.7236 67.6465C13.7242 67.6466 13.7246 67.6468 13.7245 67.6468L13.474 68.0308C13.686 68.1691 13.9713 68.1088 14.1088 67.8934L13.7224 67.6467ZM22.8531 53.4176L13.7227 67.6462L14.1085 67.8938L23.239 53.6652L22.8531 53.4176ZM22.852 53.4186C22.8519 53.418 22.8521 53.4188 22.8518 53.4201C22.8516 53.4213 22.8516 53.42 22.8539 53.4164L23.2383 53.6663C23.3011 53.5696 23.3223 53.4514 23.3043 53.3432L22.852 53.4186ZM22.5334 51.5138L22.8521 53.4187L23.3043 53.3431L22.9856 51.4381L22.5334 51.5138ZM23.5681 45.9064C22.5782 47.5941 22.2105 49.5856 22.5334 51.5138L22.9856 51.4381C22.6804 49.616 23.028 47.7334 23.9636 46.1384L23.5681 45.9064ZM23.7657 45.569L23.568 45.9066L23.9637 46.1382L24.1614 45.8006L23.7657 45.569ZM29.1472 47.7991L24.0587 45.4763L23.8683 45.8934L28.9568 48.2161L29.1472 47.7991ZM28.7369 48.997C29.0827 48.7341 29.2231 48.2826 29.2752 48.0598L28.8288 47.9554C28.7801 48.1635 28.6684 48.4731 28.4594 48.632L28.7369 48.997ZM27.9556 49.1799C28.2471 49.2219 28.5121 49.1701 28.738 48.9961L28.4583 48.6329C28.348 48.7178 28.2138 48.7539 28.0209 48.7261L27.9556 49.1799ZM27.8285 49.1173L27.8282 49.1172L28.1483 48.7889C28.1055 48.7472 28.0541 48.7134 27.9965 48.6907L27.8285 49.1173ZM23.4976 47.3978L27.8279 49.117L27.9971 48.6909L23.6668 46.9717L23.4976 47.3978ZM23.4976 47.3968C23.4977 47.3966 23.4976 47.3969 23.4974 47.3971C23.4973 47.3972 23.4973 47.3972 23.4974 47.3971C23.4974 47.3971 23.4973 47.3972 23.4968 47.3972C23.4961 47.3972 23.4958 47.397 23.4964 47.3973L23.6681 46.9722C23.4288 46.8755 23.1625 46.9957 23.0708 47.2294L23.4976 47.3968ZM23.4963 47.3977C23.4986 47.3986 23.4987 47.4 23.4981 47.3984C23.4978 47.3977 23.4977 47.3971 23.4977 47.3967C23.4977 47.3966 23.4977 47.3966 23.4977 47.3967C23.4977 47.3968 23.4976 47.3968 23.4976 47.3968L23.0708 47.2294C22.9798 47.4614 23.0914 47.7314 23.3289 47.8245L23.4963 47.3977ZM27.6923 49.0646L23.4972 47.3981L23.328 47.8241L27.523 49.4907L27.6923 49.0646ZM27.2949 50.1853C27.7725 49.9668 27.8343 49.4914 27.8368 49.2804L27.3784 49.2748C27.3764 49.4398 27.3281 49.6659 27.1042 49.7684L27.2949 50.1853ZM24.7443 49.6527C25.1018 49.8091 25.6026 49.9933 26.069 50.1155C26.3019 50.1765 26.5325 50.2236 26.7356 50.2428C26.9288 50.261 27.1355 50.2582 27.295 50.1853L27.1042 49.7684C27.0608 49.7882 26.9577 49.8032 26.7786 49.7863C26.6095 49.7704 26.4052 49.7296 26.1851 49.6719C25.7454 49.5568 25.2674 49.3811 24.928 49.2327L24.7443 49.6527ZM24.7454 49.6526C24.7455 49.6525 24.7452 49.6529 24.7448 49.6532C24.7444 49.6535 24.7443 49.6535 24.7445 49.6534C24.745 49.6533 24.7455 49.6533 24.7464 49.6536L24.9259 49.2318C24.713 49.1411 24.4604 49.2216 24.3446 49.4299L24.7454 49.6526ZM24.7447 49.655C24.743 49.6538 24.7433 49.6533 24.7435 49.6541C24.7435 49.6544 24.7436 49.6549 24.7435 49.6556C24.7434 49.6563 24.7432 49.6565 24.7435 49.6559L24.3465 49.4266C24.2263 49.6347 24.2885 49.8925 24.4783 50.0281L24.7447 49.655ZM25.2771 51.1962C25.5089 50.2123 24.7828 49.6827 24.7463 49.6562L24.4767 50.0269C24.4906 50.0371 24.9933 50.4015 24.8308 51.091L25.2771 51.1962ZM25.2772 51.1958C25.2751 51.1953 25.2755 51.1949 25.2761 51.1958C25.2763 51.1961 25.2765 51.1966 25.2766 51.1973C25.2768 51.198 25.2766 51.1982 25.2768 51.1973L24.8311 51.09C24.7712 51.3388 24.925 51.5826 25.1699 51.6416L25.2772 51.1958ZM25.2763 51.1963C25.277 51.1963 25.2785 51.1964 25.2802 51.1966C25.2817 51.1968 25.2817 51.1969 25.2792 51.1963L25.168 51.6411C25.2014 51.6494 25.2362 51.6548 25.2763 51.6548V51.1963ZM25.2777 51.1945C25.2776 51.1952 25.2776 51.1953 25.277 51.1957C25.2759 51.1966 25.2753 51.1963 25.2763 51.1963V51.6548C25.4824 51.6548 25.6739 51.5138 25.7241 51.299L25.2777 51.1945ZM25.2098 50.2501C25.3119 50.4895 25.3708 50.8039 25.278 51.1936L25.7239 51.2999C25.8419 50.8048 25.7679 50.3902 25.6316 50.0703L25.2098 50.2501ZM27.2945 50.1855C27.132 50.2598 26.86 50.2679 26.5129 50.2124C26.1768 50.1586 25.8125 50.0525 25.4953 49.9434L25.3461 50.377C25.6754 50.4902 26.0676 50.6054 26.4404 50.6651C26.8022 50.723 27.1915 50.7368 27.4852 50.6025L27.2945 50.1855ZM27.8304 49.396C27.7975 49.6891 27.6582 50.02 27.2949 50.1854L27.4848 50.6027C28.0465 50.347 28.2424 49.8348 28.286 49.4472L27.8304 49.396ZM28.1397 49.195C28.1181 49.195 28.0957 49.1943 28.0726 49.1928L28.0438 49.6504C28.0756 49.6524 28.1076 49.6535 28.1397 49.6535V49.195ZM28.7416 48.9963C28.5651 49.1301 28.3688 49.195 28.1397 49.195V49.6535C28.4653 49.6535 28.7596 49.558 29.0186 49.3617L28.7416 48.9963ZM29.3152 47.8734C29.3129 47.8907 29.2874 48.0862 29.1997 48.3238C29.1109 48.5646 28.9668 48.8251 28.7414 48.9965L29.0188 49.3615C29.3426 49.1153 29.5264 48.7628 29.6298 48.4825C29.7344 48.1992 29.7654 47.9657 29.7697 47.9334L29.3152 47.8734ZM29.3153 47.8721L29.3152 47.8734L29.7697 47.9334L29.7699 47.9321L29.3153 47.8721ZM29.3156 47.8751L29.3149 47.8757L29.7703 47.9286C29.793 47.7333 29.6888 47.5403 29.5037 47.457L29.3156 47.8751ZM28.6383 47.5659L29.3144 47.8746L29.5048 47.4575L28.8287 47.1488L28.6383 47.5659ZM29.254 45.9185C29.2459 46.0935 29.1998 46.3427 29.095 46.5816C28.9902 46.8205 28.8344 47.0321 28.6173 47.1597L28.8497 47.555C29.1756 47.3633 29.3853 47.061 29.5149 46.7658C29.6444 46.4705 29.7015 46.1653 29.7119 45.9396L29.254 45.9185ZM29.2544 45.9186C29.253 45.9179 29.2533 45.9176 29.2539 45.9186C29.2544 45.9195 29.2539 45.9193 29.254 45.9176L29.7119 45.9405C29.7212 45.7555 29.6161 45.5824 29.4502 45.504L29.2544 45.9186ZM24.85 43.8039L29.2531 45.9179L29.4515 45.5046L25.0485 43.3906L24.85 43.8039ZM21.1117 39.3494L24.7731 43.744L25.1254 43.4506L21.4639 39.0559L21.1117 39.3494ZM20.9957 38.3551C20.8331 38.6803 20.8799 39.0687 21.1111 39.3486L21.4646 39.0567C21.3473 38.9148 21.3254 38.7209 21.4057 38.5602L20.9957 38.3551ZM21.6528 37.8653C21.3669 37.917 21.1273 38.0949 20.9962 38.3542L21.4053 38.5611C21.4712 38.4307 21.5892 38.3427 21.7344 38.3164L21.6528 37.8653ZM22.4399 38.0982C22.2287 37.8993 21.9397 37.8134 21.6528 37.8653L21.7344 38.3164C21.8784 38.2904 22.0204 38.3329 22.1255 38.4319L22.4399 38.0982ZM29.8716 45.0921L22.4398 38.0981L22.1256 38.432L29.5574 45.426L29.8716 45.0921ZM29.8722 45.0919C29.8729 45.0917 29.8729 45.0919 29.8721 45.0917C29.8712 45.0915 29.8705 45.0911 29.87 45.0906L29.559 45.4275C29.6767 45.5361 29.8447 45.5778 30.0016 45.5317L29.8722 45.0919ZM29.8735 45.0881C29.8731 45.0895 29.8722 45.091 29.8713 45.092C29.8704 45.0929 29.8705 45.0924 29.8722 45.0919L30.0016 45.5317C30.1604 45.485 30.2766 45.3567 30.3167 45.2054L29.8735 45.0881ZM30.6589 41.9438L29.8727 45.0912L30.3175 45.2023L31.1037 42.0549L30.6589 41.9438ZM31.6447 41.1741C31.1764 41.1741 30.7742 41.4917 30.6592 41.9427L31.1035 42.056C31.1673 41.8055 31.3886 41.6326 31.6447 41.6326V41.1741ZM32.6602 42.178C32.6543 41.6234 32.1987 41.1741 31.6447 41.1741V41.6326C31.948 41.6326 32.1985 41.8802 32.2018 42.1829L32.6602 42.178ZM32.8115 54.1849L32.6602 42.1775L32.2018 42.1833L32.3531 54.1907L32.8115 54.1849ZM27.1381 67.6461L32.7934 54.2771L32.3712 54.0985L26.7159 67.4675L27.1381 67.6461ZM27.1358 67.6452C27.1358 67.6452 27.136 67.6452 27.1363 67.6454C27.1365 67.6456 27.1368 67.6458 27.137 67.6461C27.1372 67.6463 27.1373 67.6464 27.1374 67.6465C27.1374 67.6466 27.1375 67.6467 27.1375 67.6467C27.1375 67.6467 27.1375 67.6467 27.1375 67.6468C27.1375 67.6468 27.1375 67.647 27.1375 67.6471C27.1375 67.6477 27.1374 67.6479 27.1375 67.6476L26.7165 67.466C26.6156 67.7 26.7253 67.972 26.9612 68.0691L27.1358 67.6452ZM24.3947 45.4021L25.0998 44.1977L24.7042 43.9661L23.9991 45.1704L24.3947 45.4021ZM28.2263 46.8738L24.2921 45.0777L24.1017 45.4948L28.0359 47.2909L28.2263 46.8738ZM28.1863 46.8272C28.126 46.8349 28.0694 46.8541 28.0188 46.8826L28.2435 47.2822L28.2442 47.282L28.1863 46.8272ZM28.7797 46.0175C28.7587 46.1516 28.7112 46.3521 28.6122 46.5214C28.516 46.6861 28.3836 46.8029 28.1873 46.8271L28.2433 47.2821C28.6247 47.2352 28.8648 46.9979 29.008 46.7528C29.1486 46.5124 29.2077 46.2475 29.2326 46.0882L28.7797 46.0175ZM24.8028 44.2886L28.9069 46.2595L29.1054 45.8462L25.0013 43.8753L24.8028 44.2886Z" fill="#1A1A1A" mask="url(#path-9-inside-1_439_10665)"/>
  <path d="M40.4761 25.6314C40.4656 25.6268 40.453 25.6213 40.4434 25.6146C40.3362 25.5451 40.3055 25.404 40.375 25.2968C40.5406 25.039 40.6816 24.7804 40.7939 24.5243C40.8445 24.4088 40.9804 24.3558 41.0959 24.4064C41.2113 24.457 41.2644 24.5929 41.2138 24.7084C41.0913 24.9876 40.9382 25.2684 40.7591 25.5453C40.6993 25.6417 40.5768 25.6756 40.4761 25.6314ZM41.1975 23.9578C41.0988 23.9146 41.0431 23.8075 41.0654 23.6997C41.1259 23.4133 41.1545 23.1255 41.1454 22.8437C41.141 22.7166 41.2425 22.6109 41.3665 22.6077C41.4936 22.6034 41.5993 22.7048 41.6024 22.8288C41.6112 23.1456 41.5814 23.4704 41.5125 23.7931C41.4859 23.9166 41.3636 23.9957 41.2401 23.969C41.2269 23.9707 41.2122 23.9643 41.1975 23.9578ZM36.5231 20.8893C36.521 20.8884 36.5168 20.8866 36.5147 20.8856C36.1664 20.7154 35.8751 20.455 35.7343 20.188C35.6763 20.0749 35.7196 19.9362 35.8327 19.8782C35.9457 19.8201 36.0844 19.8634 36.1425 19.9765C36.2346 20.1545 36.4611 20.3515 36.7147 20.4752C36.8284 20.5301 36.8754 20.6683 36.8205 20.7819C36.7676 20.8914 36.6344 20.9381 36.5231 20.8893ZM37.4124 21.059C37.3389 21.0268 37.2841 20.9577 37.2767 20.8719C37.2642 20.7462 37.354 20.6329 37.4796 20.6204C37.7339 20.5942 37.9656 20.4881 38.171 20.3053C38.2653 20.2215 38.4094 20.2296 38.4953 20.3249C38.5791 20.4192 38.5709 20.5633 38.4757 20.6492C38.1967 20.8973 37.8776 21.0427 37.5263 21.0789C37.4875 21.0819 37.4481 21.0747 37.4124 21.059ZM41.138 22.1471C41.0792 22.1213 41.0294 22.0694 41.0106 22.0036C40.9313 21.7335 40.8143 21.4695 40.6671 21.2172C40.6021 21.1086 40.6391 20.9671 40.7477 20.9021C40.8563 20.8371 40.9978 20.8741 41.0628 20.9827C41.229 21.2659 41.3602 21.5662 41.4515 21.8715C41.4884 21.9929 41.4178 22.1196 41.2965 22.1565C41.2419 22.1726 41.1863 22.1682 41.138 22.1471ZM36.135 19.5026C36.1056 19.4897 36.0769 19.4696 36.0539 19.442C35.9711 19.3456 35.9813 19.2024 36.0756 19.1186C36.3264 18.9007 36.6481 18.7664 37.0338 18.7203C37.1582 18.7048 37.2736 18.7954 37.2892 18.9199C37.3037 19.0464 37.214 19.1598 37.0895 19.1753C36.7958 19.2117 36.5584 19.3078 36.3773 19.4637C36.3076 19.5257 36.2127 19.5367 36.135 19.5026ZM38.769 19.9518C38.7669 19.9509 38.7627 19.949 38.7606 19.9481C38.647 19.8933 38.6 19.755 38.6548 19.6414C38.664 19.6204 38.6753 19.6003 38.6845 19.5794C38.6974 19.55 38.7094 19.5227 38.7202 19.4924L38.6614 19.4666C38.4158 19.3589 38.1684 19.2779 37.9256 19.2265C37.8021 19.1999 37.7231 19.0776 37.7497 18.9542C37.7763 18.8307 37.8986 18.7516 38.0221 18.7782C38.2898 18.8356 38.5633 18.9254 38.8329 19.0412C38.841 18.9771 38.847 18.9122 38.8499 18.8484C38.8558 18.7208 38.9628 18.6251 39.0883 18.63C39.2159 18.6359 39.3116 18.743 39.3067 18.8685C39.292 19.1874 39.222 19.4896 39.1023 19.7626C39.0903 19.7898 39.0793 19.815 39.0652 19.8414C39.0134 19.9539 38.8803 20.0006 38.769 19.9518ZM40.2222 20.5765C40.1949 20.5646 40.1683 20.5454 40.1456 20.5229C39.9502 20.3121 39.7321 20.1188 39.4924 19.9461C39.3901 19.8712 39.3675 19.7287 39.4424 19.6263C39.5173 19.524 39.6599 19.5014 39.7622 19.5763C40.0243 19.7664 40.266 19.98 40.482 20.2124C40.5688 20.3055 40.5628 20.4506 40.4696 20.5374C40.4029 20.5982 40.3041 20.6124 40.2222 20.5765ZM38.8809 18.1611C38.8201 18.1344 38.7711 18.0804 38.7522 18.0095C38.6801 17.7401 38.5721 17.4725 38.4307 17.2128C38.3697 17.1009 38.4099 16.9634 38.5218 16.9023C38.6337 16.8412 38.7733 16.8824 38.8323 16.9934C38.9918 17.2861 39.1148 17.5878 39.1959 17.8938C39.2277 18.0153 39.155 18.1411 39.0325 18.175C38.9807 18.1848 38.9271 18.1814 38.8809 18.1611ZM33.8663 15.5091C33.8138 15.4861 33.7696 15.4442 33.7472 15.3868C33.6982 15.2702 33.755 15.1349 33.8707 15.088C34.1773 14.9596 34.4932 14.8729 34.806 14.8273C34.9314 14.8097 35.0487 14.8962 35.0663 15.0215C35.0839 15.1469 34.9974 15.2642 34.8721 15.2818C34.596 15.3234 34.3175 15.3991 34.0451 15.5124C33.9868 15.5369 33.923 15.5339 33.8663 15.5091ZM38.013 16.5615C37.9836 16.5486 37.9548 16.5285 37.9319 16.5009C37.7402 16.2817 37.526 16.0851 37.2956 15.914C37.1933 15.8391 37.1717 15.6945 37.2456 15.5943C37.3206 15.4919 37.4631 15.4693 37.5654 15.5443C37.8233 15.7324 38.0614 15.9545 38.2749 16.1983C38.3587 16.2926 38.3475 16.4379 38.2532 16.5217C38.1876 16.5855 38.0927 16.5965 38.013 16.5615ZM35.6601 15.2544C35.5698 15.2148 35.5116 15.1192 35.5248 15.0148C35.54 14.8889 35.6566 14.7998 35.7817 14.8171C36.1019 14.8574 36.4173 14.9432 36.7224 15.0694C36.836 15.1243 36.8948 15.2527 36.8463 15.3691C36.7977 15.4854 36.663 15.5415 36.5466 15.493C36.2794 15.3833 36.0025 15.3069 35.7225 15.2718C35.7018 15.2677 35.681 15.2636 35.6601 15.2544Z" fill="#1A1A1A"/>
  <path d="M9.7815 15.8853C9.72095 15.8981 9.65789 15.8881 9.60306 15.8505C9.49882 15.7789 9.47334 15.6367 9.54497 15.5324C9.5538 15.5188 9.76209 15.2192 10.1456 14.7958C10.2313 14.7026 10.3751 14.6955 10.47 14.7785C10.5632 14.8642 10.5703 15.008 10.4873 15.1029C10.1264 15.5005 9.9274 15.7888 9.92563 15.7915C9.8871 15.8418 9.83756 15.8734 9.7815 15.8853ZM11.0084 14.5214C10.9321 14.5376 10.8501 14.5151 10.7922 14.4524C10.7066 14.3581 10.7135 14.2137 10.8056 14.1285C11.0386 13.9127 11.2818 13.7112 11.526 13.5258C11.6272 13.4505 11.7717 13.469 11.8471 13.5702C11.9225 13.6714 11.9039 13.8159 11.8027 13.8913C11.5705 14.0671 11.3399 14.2613 11.1161 14.4657C11.0845 14.4935 11.0487 14.5128 11.0084 14.5214ZM12.4712 13.4191C12.377 13.4391 12.2794 13.3988 12.2258 13.3118C12.1607 13.2037 12.1964 13.0626 12.3044 12.9975C12.5813 12.8333 12.8642 12.6866 13.1451 12.5638C13.261 12.5134 13.3965 12.5667 13.4468 12.6826C13.4972 12.7984 13.4439 12.9339 13.328 12.9843C13.0641 13.0989 12.8 13.2346 12.5401 13.3904C12.5196 13.4042 12.4959 13.4139 12.4712 13.4191ZM15.0514 12.5251C15.0424 12.527 15.0357 12.5284 15.0263 12.528C14.7375 12.5588 14.4423 12.6144 14.1631 12.69C14.0412 12.7229 13.9158 12.6511 13.883 12.5292C13.8501 12.4073 13.9219 12.2819 14.0438 12.249C14.3472 12.1659 14.6671 12.1051 14.9792 12.0741C15.1054 12.0613 15.2184 12.1522 15.2311 12.2784C15.2441 12.3951 15.1635 12.5013 15.0514 12.5251Z" fill="#1A1A1A"/>
</svg>