<svg xmlns="http://www.w3.org/2000/svg" width="20" height="21" viewBox="0 0 20 21" fill="none">
  <path d="M10.0039 5.54004C7.51953 5.54004 5.51562 7.54395 5.51562 10.0283C5.51562 12.5127 7.51953 14.5166 10.0039 14.5166C12.4883 14.5166 14.4922 12.5127 14.4922 10.0283C14.4922 7.54395 12.4883 5.54004 10.0039 5.54004ZM10.0039 12.9463C8.39844 12.9463 7.08594 11.6377 7.08594 10.0283C7.08594 8.41895 8.39453 7.11035 10.0039 7.11035C11.6133 7.11035 12.9219 8.41895 12.9219 10.0283C12.9219 11.6377 11.6094 12.9463 10.0039 12.9463ZM15.7227 5.35645C15.7227 5.93848 15.2539 6.40332 14.6758 6.40332C14.0938 6.40332 13.6289 5.93457 13.6289 5.35645C13.6289 4.77832 14.0977 4.30957 14.6758 4.30957C15.2539 4.30957 15.7227 4.77832 15.7227 5.35645ZM18.6953 6.41895C18.6289 5.0166 18.3086 3.77441 17.2812 2.75098C16.2578 1.72754 15.0156 1.40723 13.6133 1.33691C12.168 1.25488 7.83594 1.25488 6.39062 1.33691C4.99219 1.40332 3.75 1.72363 2.72266 2.74707C1.69531 3.77051 1.37891 5.0127 1.30859 6.41504C1.22656 7.86035 1.22656 12.1924 1.30859 13.6377C1.375 15.04 1.69531 16.2822 2.72266 17.3057C3.75 18.3291 4.98828 18.6494 6.39062 18.7197C7.83594 18.8018 12.168 18.8018 13.6133 18.7197C15.0156 18.6533 16.2578 18.333 17.2812 17.3057C18.3047 16.2822 18.625 15.04 18.6953 13.6377C18.7773 12.1924 18.7773 7.86426 18.6953 6.41895ZM16.8281 15.1885C16.5234 15.9541 15.9336 16.5439 15.1641 16.8525C14.0117 17.3096 11.2773 17.2041 10.0039 17.2041C8.73047 17.2041 5.99219 17.3057 4.84375 16.8525C4.07812 16.5479 3.48828 15.958 3.17969 15.1885C2.72266 14.0361 2.82813 11.3018 2.82813 10.0283C2.82813 8.75488 2.72656 6.0166 3.17969 4.86816C3.48438 4.10254 4.07422 3.5127 4.84375 3.2041C5.99609 2.74707 8.73047 2.85254 10.0039 2.85254C11.2773 2.85254 14.0156 2.75098 15.1641 3.2041C15.9297 3.50879 16.5195 4.09863 16.8281 4.86816C17.2852 6.02051 17.1797 8.75488 17.1797 10.0283C17.1797 11.3018 17.2852 14.04 16.8281 15.1885Z" fill="white"/>
</svg>