<svg xmlns="http://www.w3.org/2000/svg" width="32" height="32" viewBox="0 0 32 32" fill="none">
  <path d="M19 9H27C27.55 9 28 9.45 28 10V16C28 16.55 27.55 17 27 17H22" stroke="#E84747" stroke-width="2" stroke-miterlimit="10" stroke-linecap="round" stroke-linejoin="round"/>
  <path d="M23 12H24" stroke="#E84747" stroke-width="2" stroke-miterlimit="10" stroke-linecap="round" stroke-linejoin="round"/>
  <path d="M25 28C26.1046 28 27 27.1046 27 26C27 24.8954 26.1046 24 25 24C23.8954 24 23 24.8954 23 26C23 27.1046 23.8954 28 25 28Z" stroke="#E84747" stroke-width="2" stroke-miterlimit="10" stroke-linecap="round" stroke-linejoin="round"/>
  <path d="M11 28C12.1046 28 13 27.1046 13 26C13 24.8954 12.1046 24 11 24C9.89543 24 9 24.8954 9 26C9 27.1046 9.89543 28 11 28Z" stroke="#E84747" stroke-width="2" stroke-miterlimit="10" stroke-linecap="round" stroke-linejoin="round"/>
  <path d="M29 21H7L5 5H2" stroke="#E84747" stroke-width="2" stroke-miterlimit="10" stroke-linecap="round" stroke-linejoin="round"/>
  <path d="M18 17H11C10.45 17 10 16.55 10 16V6C10 5.45 10.45 5 11 5H18C18.55 5 19 5.45 19 6V16C19 16.55 18.55 17 18 17Z" stroke="#E84747" stroke-width="2" stroke-miterlimit="10" stroke-linecap="round" stroke-linejoin="round"/>
  <path d="M14 8H15" stroke="#E84747" stroke-width="2" stroke-miterlimit="10" stroke-linecap="round" stroke-linejoin="round"/>
</svg>