<svg width="74" height="77" viewBox="0 0 74 77" fill="none" xmlns="http://www.w3.org/2000/svg">
<g filter="url(#filter0_dddd_768_14859)">
<rect x="11.5" y="1.5" width="60" height="60" rx="6.4" fill="white"/>
<rect x="11.9" y="1.9" width="59.2" height="59.2" rx="6" stroke="#EBEBE5" stroke-width="0.8"/>
<path d="M25.4369 31.4193C25.5979 31.4194 25.7555 31.3731 25.8909 31.2861C26.0263 31.1991 26.1339 31.075 26.2007 30.9285C26.2807 30.7292 26.2799 30.5066 26.1983 30.3079C26.1166 30.1093 25.9607 29.9504 25.7637 29.8649C22.3269 28.4733 21.071 26.291 21.8348 23.0989C23.8016 24.7963 26.7446 26.5332 29.1031 27.6225C29.1999 27.6692 29.3049 27.6963 29.4121 27.7023C29.5194 27.7084 29.425 27.4612 29.5264 27.4258C29.6278 27.3903 29.1746 27.2442 29.2547 27.1727C29.3347 27.1011 29.3999 27.0144 29.4465 26.9176C29.4932 26.8208 29.5203 26.7158 29.5264 26.6086C29.5325 26.5013 29.5173 26.394 29.4819 26.2926C29.4464 26.1912 29.3913 26.0977 29.3197 26.0177C29.2481 25.9376 29.1614 25.8724 29.0647 25.8258C26.4638 24.6353 24.0841 23.0117 22.027 21.0242C21.9265 20.9293 21.8047 20.86 21.6718 20.8221C21.5388 20.7842 21.3988 20.7788 21.2633 20.8064C21.1277 20.8353 21.0015 20.898 20.8967 20.9888C20.7918 21.0795 20.7117 21.1953 20.6636 21.3254C18.9721 26.0181 20.5292 29.4817 25.1653 31.3642C25.2512 31.4009 25.3436 31.4196 25.4369 31.4193Z" fill="black"/>
<path d="M26.6281 36.7134C26.7882 36.7111 26.9424 36.657 27.064 36.5603C27.1855 36.4637 27.2667 36.3306 27.2935 36.1841C27.3275 36.0149 27.2895 35.84 27.1875 35.6961C27.0855 35.5523 26.9274 35.4507 26.7464 35.4126C26.0758 35.3377 25.4287 35.1368 24.8446 34.8222C24.2604 34.5075 23.7516 34.0857 23.3491 33.5825C23.0036 32.9656 22.7946 32.2909 22.7342 31.598C22.6739 30.905 22.7634 30.2079 22.9977 29.5476C23.021 29.465 23.0258 29.3788 23.0118 29.2944C22.9979 29.21 22.9654 29.1292 22.9164 29.0569C22.8675 28.9846 22.8031 28.9223 22.7272 28.874C22.6513 28.8257 22.5655 28.7923 22.4752 28.776C22.3862 28.7558 22.2937 28.7524 22.2033 28.766C22.1129 28.7796 22.0263 28.8098 21.9487 28.8551C21.8712 28.9003 21.8042 28.9594 21.7517 29.0291C21.6993 29.0988 21.6624 29.1775 21.6434 29.2607C21.3729 30.0901 21.2813 30.9608 21.374 31.8231C21.4666 32.6853 21.7417 33.5221 22.1835 34.2856C22.6849 34.9332 23.3224 35.48 24.0577 35.8929C24.793 36.3059 25.6108 36.5764 26.4618 36.6884C26.5151 36.706 26.5715 36.7144 26.6281 36.7134Z" fill="black"/>
<path d="M31.3019 42.3315C31.7053 42.3315 32.1477 42.3046 32.5847 42.2764C32.7972 42.2562 32.9934 42.1536 33.1312 41.9904C33.2689 41.8273 33.3372 41.6167 33.3215 41.4038C33.2952 41.1885 33.1868 40.9918 33.0189 40.8545C32.8511 40.7173 32.6368 40.6501 32.4206 40.6669C28.2524 41.0488 25.9827 39.4662 25.383 35.6744C25.3486 35.4619 25.232 35.2714 25.0585 35.1439C24.885 35.0164 24.6684 34.9621 24.4553 34.9927C24.2452 35.0321 24.0579 35.1499 23.9314 35.3221C23.8048 35.4944 23.7484 35.7082 23.7735 35.9205C23.8406 36.8381 24.0894 37.7332 24.5054 38.5538C24.9214 39.3744 25.4963 40.1042 26.1968 40.7007C26.8972 41.2972 27.7093 41.7485 28.5857 42.0285C29.4621 42.3085 30.3854 42.4115 31.3019 42.3315Z" fill="black"/>
<path d="M57.63 31.3021C57.469 31.3022 57.3114 31.256 57.176 31.1689C57.0406 31.0819 56.933 30.9578 56.8662 30.8113C56.7862 30.6121 56.787 30.3894 56.8686 30.1908C56.9503 29.9921 57.1062 29.8332 57.3032 29.7478C60.74 28.3561 61.9959 26.1738 61.2321 22.9818C59.2653 24.6791 56.3223 26.416 53.9638 27.5053C53.867 27.552 53.762 27.5791 53.6548 27.5852C53.5475 27.5912 53.6419 27.344 53.5405 27.3086C53.4391 27.2731 53.8923 27.1271 53.8122 27.0555C53.7322 26.9839 53.667 26.8972 53.6204 26.8004C53.5737 26.7036 53.5466 26.5986 53.5405 26.4914C53.5344 26.3841 53.5496 26.2768 53.585 26.1754C53.6205 26.074 53.6756 25.9806 53.7472 25.9005C53.8188 25.8204 53.9054 25.7552 54.0022 25.7086C56.603 24.5181 58.9828 22.8945 61.0399 20.907C61.1404 20.8122 61.2622 20.7428 61.3951 20.7049C61.5281 20.667 61.6681 20.6616 61.8036 20.6892C61.9392 20.7181 62.0653 20.7808 62.1702 20.8716C62.2751 20.9623 62.3552 21.0781 62.4033 21.2082C64.0948 25.9009 62.5377 29.3646 57.9016 31.247C57.8157 31.2837 57.7233 31.3025 57.63 31.3021Z" fill="black"/>
<path d="M56.4393 36.5962C56.2792 36.594 56.125 36.5398 56.0034 36.4431C55.8819 36.3465 55.8007 36.2134 55.7739 36.0669C55.7399 35.8977 55.7779 35.7228 55.8799 35.579C55.9819 35.4351 56.1399 35.3335 56.3209 35.2954C56.9916 35.2205 57.6387 35.0196 58.2228 34.705C58.8069 34.3904 59.3158 33.9686 59.7183 33.4653C60.0637 32.8484 60.2728 32.1737 60.3332 31.4808C60.3935 30.7879 60.3039 30.0907 60.0697 29.4304C60.0464 29.3478 60.0416 29.2616 60.0555 29.1772C60.0695 29.0928 60.102 29.012 60.1509 28.9397C60.1999 28.8674 60.2643 28.8052 60.3402 28.7569C60.4161 28.7085 60.5019 28.6752 60.5922 28.6588C60.6812 28.6386 60.7736 28.6352 60.8641 28.6488C60.9545 28.6624 61.0411 28.6927 61.1186 28.7379C61.1962 28.7831 61.2632 28.8423 61.3157 28.9119C61.3681 28.9816 61.4049 29.0604 61.424 29.1435C61.6945 29.9729 61.7861 30.8436 61.6934 31.7059C61.6007 32.5681 61.3257 33.4049 60.8839 34.1685C60.3825 34.8161 59.7449 35.3628 59.0097 35.7757C58.2744 36.1887 57.4566 36.4593 56.6056 36.5712C56.5522 36.5888 56.4959 36.5972 56.4393 36.5962Z" fill="black"/>
<path d="M51.7655 42.2143C51.3621 42.2143 50.9197 42.1874 50.4827 42.1592C50.2702 42.139 50.074 42.0364 49.9362 41.8732C49.7985 41.7101 49.7301 41.4995 49.7459 41.2866C49.7722 41.0714 49.8806 40.8746 50.0484 40.7374C50.2163 40.6001 50.4306 40.5329 50.6467 40.5497C54.815 40.9316 57.0847 39.349 57.6844 35.5572C57.7188 35.3447 57.8353 35.1542 58.0089 35.0267C58.1824 34.8992 58.399 34.8449 58.6121 34.8755C58.8222 34.915 59.0095 35.0327 59.136 35.2049C59.2626 35.3772 59.319 35.591 59.2938 35.8033C59.2268 36.7209 58.978 37.616 58.562 38.4366C58.146 39.2572 57.5711 39.987 56.8706 40.5835C56.1701 41.18 55.3581 41.6314 54.4817 41.9113C53.6053 42.1913 52.682 42.2943 51.7655 42.2143Z" fill="black"/>
<path fill-rule="evenodd" clip-rule="evenodd" d="M38.3501 20H29.9046C29.4085 20 29.0063 20.4022 29.0063 20.8983V43.1017C29.0063 43.5978 29.4085 44 29.9046 44H53.2257C53.7218 44 54.1239 43.5978 54.1239 43.1017V20.8983C54.1239 20.4022 53.7218 20 53.2257 20H44.749V24.0786C44.749 24.7152 44.2329 25.2313 43.5962 25.2313H39.5028C38.8662 25.2313 38.3501 24.7152 38.3501 24.0786V20Z" fill="#3381E0"/>
</g>
<defs>
<filter id="filter0_dddd_768_14859" x="0.3" y="0.7" width="72.8" height="76" filterUnits="userSpaceOnUse" color-interpolation-filters="sRGB">
<feFlood flood-opacity="0" result="BackgroundImageFix"/>
<feColorMatrix in="SourceAlpha" type="matrix" values="0 0 0 0 0 0 0 0 0 0 0 0 0 0 0 0 0 0 127 0" result="hardAlpha"/>
<feOffset dy="0.8"/>
<feGaussianBlur stdDeviation="0.8"/>
<feColorMatrix type="matrix" values="0 0 0 0 0 0 0 0 0 0 0 0 0 0 0 0 0 0 0.1 0"/>
<feBlend mode="normal" in2="BackgroundImageFix" result="effect1_dropShadow_768_14859"/>
<feColorMatrix in="SourceAlpha" type="matrix" values="0 0 0 0 0 0 0 0 0 0 0 0 0 0 0 0 0 0 127 0" result="hardAlpha"/>
<feOffset dx="-1.6" dy="2.4"/>
<feGaussianBlur stdDeviation="1.6"/>
<feColorMatrix type="matrix" values="0 0 0 0 0 0 0 0 0 0 0 0 0 0 0 0 0 0 0.09 0"/>
<feBlend mode="normal" in2="effect1_dropShadow_768_14859" result="effect2_dropShadow_768_14859"/>
<feColorMatrix in="SourceAlpha" type="matrix" values="0 0 0 0 0 0 0 0 0 0 0 0 0 0 0 0 0 0 127 0" result="hardAlpha"/>
<feOffset dx="-3.2" dy="5.6"/>
<feGaussianBlur stdDeviation="2"/>
<feColorMatrix type="matrix" values="0 0 0 0 0 0 0 0 0 0 0 0 0 0 0 0 0 0 0.05 0"/>
<feBlend mode="normal" in2="effect2_dropShadow_768_14859" result="effect3_dropShadow_768_14859"/>
<feColorMatrix in="SourceAlpha" type="matrix" values="0 0 0 0 0 0 0 0 0 0 0 0 0 0 0 0 0 0 127 0" result="hardAlpha"/>
<feOffset dx="-6.4" dy="10.4"/>
<feGaussianBlur stdDeviation="2.4"/>
<feColorMatrix type="matrix" values="0 0 0 0 0 0 0 0 0 0 0 0 0 0 0 0 0 0 0.01 0"/>
<feBlend mode="normal" in2="effect3_dropShadow_768_14859" result="effect4_dropShadow_768_14859"/>
<feBlend mode="normal" in="SourceGraphic" in2="effect4_dropShadow_768_14859" result="shape"/>
</filter>
</defs>
</svg>
