<svg width="74" height="77" viewBox="0 0 74 77" fill="none" xmlns="http://www.w3.org/2000/svg">
<g filter="url(#filter0_dddd_2783_18445)">
<rect x="12" y="1.5" width="60" height="60" rx="6.4" fill="white"/>
<rect x="12.4" y="1.9" width="59.2" height="59.2" rx="6" stroke="#EBEBE5" stroke-width="0.8"/>
<path d="M28.5314 31.5109C28.6656 31.5109 28.7969 31.4724 28.9098 31.3999C29.0227 31.3274 29.1124 31.2239 29.1681 31.1019C29.2348 30.9358 29.2341 30.7503 29.1661 30.5847C29.098 30.4192 28.968 30.2868 28.8038 30.2156C25.9385 29.0559 24.8915 27.2373 25.5282 24.5772C27.168 25.9917 29.6215 27.4391 31.5879 28.3469C31.6685 28.3858 31.7561 28.4084 31.8455 28.4134C31.9349 28.4185 31.8562 28.2125 31.9407 28.1829C32.0253 28.1534 31.6474 28.0317 31.7142 27.972C31.781 27.9124 31.8353 27.8401 31.8741 27.7595C31.913 27.6788 31.9357 27.5913 31.9407 27.5019C31.9458 27.4126 31.9332 27.3231 31.9036 27.2386C31.874 27.1541 31.8281 27.0762 31.7684 27.0095C31.7087 26.9428 31.6365 26.8884 31.5558 26.8496C29.3875 25.8575 27.4035 24.5045 25.6885 22.8483C25.6048 22.7692 25.5032 22.7115 25.3923 22.6799C25.2815 22.6483 25.1647 22.6438 25.0518 22.6668C24.9387 22.6909 24.8336 22.7431 24.7462 22.8188C24.6588 22.8944 24.5919 22.9909 24.5519 23.0993C23.1417 27.0098 24.4398 29.8962 28.3049 31.4649C28.3765 31.4955 28.4535 31.5112 28.5314 31.5109Z" fill="black"/>
<path d="M29.5211 35.9187C29.6545 35.9168 29.7831 35.8717 29.8844 35.7912C29.9858 35.7106 30.0535 35.5997 30.0758 35.4777C30.1041 35.3366 30.0725 35.1909 29.9874 35.071C29.9024 34.9511 29.7706 34.8664 29.6197 34.8347C29.0606 34.7723 28.5211 34.6049 28.0341 34.3427C27.5471 34.0805 27.1229 33.729 26.7874 33.3097C26.4993 32.7956 26.3251 32.2333 26.2747 31.6559C26.2244 31.0784 26.2991 30.4975 26.4944 29.9472C26.5138 29.8783 26.5178 29.8066 26.5062 29.7362C26.4945 29.6659 26.4675 29.5985 26.4267 29.5383C26.3858 29.478 26.3321 29.4262 26.2689 29.3859C26.2056 29.3457 26.1341 29.3178 26.0588 29.3042C25.9846 29.2874 25.9075 29.2845 25.8321 29.2959C25.7567 29.3072 25.6846 29.3324 25.6199 29.3701C25.5552 29.4078 25.4994 29.4571 25.4556 29.5151C25.4119 29.5732 25.3812 29.6388 25.3653 29.7081C25.1398 30.3993 25.0634 31.1249 25.1407 31.8434C25.218 32.562 25.4473 33.2593 25.8156 33.8956C26.2336 34.4353 26.7651 34.8909 27.3781 35.235C27.9911 35.5791 28.6729 35.8046 29.3824 35.8979C29.4269 35.9125 29.4739 35.9196 29.5211 35.9187Z" fill="black"/>
<path d="M33.4199 40.6109C33.7562 40.6109 34.125 40.5885 34.4893 40.565C34.6665 40.5482 34.8301 40.4626 34.9449 40.3267C35.0598 40.1907 35.1167 40.0152 35.1036 39.8378C35.0816 39.6584 34.9913 39.4945 34.8514 39.3801C34.7114 39.2657 34.5328 39.2097 34.3526 39.2237C30.8775 39.5419 28.9853 38.2231 28.4853 35.0633C28.4566 34.8862 28.3594 34.7275 28.2148 34.6212C28.0701 34.515 27.8895 34.4697 27.7118 34.4952C27.5367 34.5281 27.3806 34.6262 27.2751 34.7697C27.1696 34.9133 27.1225 35.0915 27.1435 35.2684C27.1994 36.033 27.4068 36.779 27.7536 37.4628C28.1004 38.1467 28.5798 38.7548 29.1637 39.2519C29.7477 39.749 30.4247 40.1251 31.1554 40.3584C31.886 40.5917 32.6558 40.6775 33.4199 40.6109Z" fill="black"/>
<path d="M55.3593 31.4132C55.2251 31.4133 55.0937 31.3748 54.9808 31.3022C54.8679 31.2297 54.7782 31.1263 54.7225 31.0042C54.6558 30.8382 54.6565 30.6526 54.7245 30.4871C54.7926 30.3216 54.9226 30.1891 55.0869 30.1179C57.9521 28.9582 58.9991 27.1396 58.3624 24.4796C56.7227 25.8941 54.2691 27.3415 52.3028 28.2492C52.2221 28.2881 52.1346 28.3107 52.0452 28.3158C51.9557 28.3208 52.0344 28.1148 51.9499 28.0853C51.8654 28.0557 52.2432 27.934 52.1764 27.8743C52.1097 27.8147 52.0553 27.7425 52.0165 27.6618C51.9776 27.5812 51.955 27.4937 51.9499 27.4043C51.9448 27.3149 51.9575 27.2254 51.987 27.1409C52.0166 27.0564 52.0625 26.9786 52.1222 26.9118C52.1819 26.8451 52.2541 26.7908 52.3348 26.752C54.5031 25.7599 56.4871 24.4069 58.2021 22.7507C58.2859 22.6716 58.3875 22.6138 58.4983 22.5822C58.6091 22.5506 58.7259 22.5461 58.8388 22.5691C58.9519 22.5932 59.057 22.6455 59.1445 22.7211C59.2319 22.7967 59.2987 22.8932 59.3388 23.0017C60.749 26.9122 59.4509 29.7986 55.5857 31.3673C55.5141 31.3979 55.4371 31.4135 55.3593 31.4132Z" fill="black"/>
<path d="M54.3696 35.821C54.2361 35.8192 54.1075 35.7741 54.0062 35.6935C53.9049 35.6129 53.8371 35.502 53.8148 35.38C53.7865 35.239 53.8182 35.0932 53.9032 34.9733C53.9882 34.8535 54.12 34.7688 54.2709 34.737C54.83 34.6747 55.3695 34.5073 55.8565 34.2451C56.3435 33.9828 56.7677 33.6313 57.1033 33.212C57.3913 32.6979 57.5656 32.1356 57.6159 31.5582C57.6662 30.9808 57.5915 30.3998 57.3963 29.8495C57.3768 29.7807 57.3728 29.7089 57.3844 29.6386C57.3961 29.5682 57.4232 29.5009 57.464 29.4406C57.5048 29.3804 57.5585 29.3285 57.6218 29.2883C57.685 29.248 57.7565 29.2202 57.8318 29.2065C57.906 29.1897 57.9831 29.1869 58.0585 29.1982C58.1339 29.2095 58.2061 29.2348 58.2707 29.2724C58.3354 29.3101 58.3913 29.3594 58.435 29.4175C58.4787 29.4756 58.5094 29.5412 58.5253 29.6105C58.7508 30.3016 58.8272 31.0272 58.7499 31.7458C58.6727 32.4643 58.4433 33.1617 58.075 33.7979C57.657 34.3376 57.1255 34.7932 56.5125 35.1373C55.8995 35.4814 55.2177 35.7069 54.5082 35.8002C54.4637 35.8149 54.4168 35.8219 54.3696 35.821Z" fill="black"/>
<path d="M50.4707 40.5133C50.1344 40.5133 49.7656 40.4908 49.4013 40.4673C49.2241 40.4505 49.0605 40.3649 48.9457 40.229C48.8309 40.0931 48.7739 39.9176 48.787 39.7401C48.809 39.5608 48.8993 39.3968 49.0393 39.2824C49.1792 39.168 49.3579 39.112 49.5381 39.1261C53.0131 39.4443 54.9053 38.1255 55.4053 34.9657C55.434 34.7886 55.5312 34.6298 55.6758 34.5235C55.8205 34.4173 56.0011 34.3721 56.1788 34.3976C56.3539 34.4304 56.51 34.5286 56.6155 34.6721C56.7211 34.8156 56.7681 34.9938 56.7471 35.1707C56.6912 35.9354 56.4838 36.6813 56.137 37.3651C55.7902 38.049 55.3109 38.6571 54.7269 39.1542C54.1429 39.6513 53.4659 40.0274 52.7353 40.2607C52.0046 40.494 51.2349 40.5799 50.4707 40.5133Z" fill="black"/>
<path fill-rule="evenodd" clip-rule="evenodd" d="M39.3047 22H32.2643C31.8508 22 31.5156 22.3352 31.5156 22.7487V41.2513C31.5156 41.6648 31.8508 42 32.2643 42H51.7074C52.1209 42 52.4561 41.6648 52.4561 41.2513V22.7487C52.4561 22.3352 52.1209 22 51.7074 22H44.6394V25.3908C44.6394 25.9215 44.2092 26.3516 43.6786 26.3516H40.2655C39.7349 26.3516 39.3047 25.9215 39.3047 25.3908V22Z" fill="#FF8A1E"/>
</g>
<defs>
<filter id="filter0_dddd_2783_18445" x="0.8" y="0.7" width="72.8" height="76" filterUnits="userSpaceOnUse" color-interpolation-filters="sRGB">
<feFlood flood-opacity="0" result="BackgroundImageFix"/>
<feColorMatrix in="SourceAlpha" type="matrix" values="0 0 0 0 0 0 0 0 0 0 0 0 0 0 0 0 0 0 127 0" result="hardAlpha"/>
<feOffset dy="0.8"/>
<feGaussianBlur stdDeviation="0.8"/>
<feColorMatrix type="matrix" values="0 0 0 0 0 0 0 0 0 0 0 0 0 0 0 0 0 0 0.1 0"/>
<feBlend mode="normal" in2="BackgroundImageFix" result="effect1_dropShadow_2783_18445"/>
<feColorMatrix in="SourceAlpha" type="matrix" values="0 0 0 0 0 0 0 0 0 0 0 0 0 0 0 0 0 0 127 0" result="hardAlpha"/>
<feOffset dx="-1.6" dy="2.4"/>
<feGaussianBlur stdDeviation="1.6"/>
<feColorMatrix type="matrix" values="0 0 0 0 0 0 0 0 0 0 0 0 0 0 0 0 0 0 0.09 0"/>
<feBlend mode="normal" in2="effect1_dropShadow_2783_18445" result="effect2_dropShadow_2783_18445"/>
<feColorMatrix in="SourceAlpha" type="matrix" values="0 0 0 0 0 0 0 0 0 0 0 0 0 0 0 0 0 0 127 0" result="hardAlpha"/>
<feOffset dx="-3.2" dy="5.6"/>
<feGaussianBlur stdDeviation="2"/>
<feColorMatrix type="matrix" values="0 0 0 0 0 0 0 0 0 0 0 0 0 0 0 0 0 0 0.05 0"/>
<feBlend mode="normal" in2="effect2_dropShadow_2783_18445" result="effect3_dropShadow_2783_18445"/>
<feColorMatrix in="SourceAlpha" type="matrix" values="0 0 0 0 0 0 0 0 0 0 0 0 0 0 0 0 0 0 127 0" result="hardAlpha"/>
<feOffset dx="-6.4" dy="10.4"/>
<feGaussianBlur stdDeviation="2.4"/>
<feColorMatrix type="matrix" values="0 0 0 0 0 0 0 0 0 0 0 0 0 0 0 0 0 0 0.01 0"/>
<feBlend mode="normal" in2="effect3_dropShadow_2783_18445" result="effect4_dropShadow_2783_18445"/>
<feBlend mode="normal" in="SourceGraphic" in2="effect4_dropShadow_2783_18445" result="shape"/>
</filter>
</defs>
</svg>
