<svg xmlns="http://www.w3.org/2000/svg" width="19" height="45" viewBox="0 0 19 45" fill="none">
  <path d="M16.8327 43.9185C16.8739 43.8095 16.8948 43.7551 16.9371 43.6464C16.2739 43.304 15.6289 42.9285 15.004 42.5247C15.7114 42.0176 16.0834 40.8113 14.4857 37.9784C13.1789 39.5053 13.2322 40.7661 13.7007 41.6185C12.8634 40.9927 12.0723 40.3134 11.3341 39.5896C12.1418 39.2253 12.7606 38.1176 11.671 35.0372C10.1427 36.2901 9.92821 37.4953 10.2011 38.3995C9.48829 37.5955 8.8362 36.7489 8.24938 35.8715C9.16568 35.7956 10.1565 34.9611 9.91895 31.6952C7.84063 32.585 7.40705 33.8088 7.56743 34.7906C6.99937 33.8325 6.50661 32.8452 6.08835 31.843C7.00148 31.8443 8.04884 31.0971 8.26444 27.8925C6.33408 28.4517 5.63602 29.4217 5.51739 30.3311C5.14854 29.2458 4.8645 28.1519 4.66 27.0648C5.55966 27.2584 6.82182 26.7798 7.56163 23.4803C5.47168 23.7952 4.65129 24.7313 4.43675 25.6509C4.27769 24.3973 4.22168 23.1632 4.25338 21.9675C5.078 22.3959 6.4255 22.2594 7.96799 19.314C5.7462 19.0755 4.72262 19.8214 4.32022 20.6943C4.41666 19.4724 4.60214 18.3012 4.85367 17.1959C5.54407 17.8258 6.88681 18.0381 9.08166 15.5795C6.85379 14.7735 5.68173 15.328 5.11895 16.1366C5.29386 15.4999 5.48911 14.8864 5.69969 14.3023C5.89178 13.7698 6.09893 13.2531 6.31823 12.7523C6.8279 13.2943 7.88344 13.5392 9.8595 11.8001C8.36801 11.0451 7.41473 11.2025 6.83054 11.6567C7.38355 10.5443 7.99282 9.52494 8.62377 8.605C9.01005 9.15104 9.94775 9.48845 12.0707 8.08964C10.8329 7.276 9.93349 7.30535 9.32051 7.63879C10.0986 6.61097 10.89 5.72752 11.6356 4.9829C11.8464 5.52365 12.5793 6.07603 14.7266 5.02653C13.6399 4.09628 12.7883 4.12008 12.2118 4.42522C12.8605 3.81678 13.461 3.31728 13.9773 2.91615C13.9527 2.93888 13.9284 2.96189 13.9068 2.98437C14.0196 3.4717 14.5834 4.08887 16.6028 3.29216C15.5922 2.27227 14.7552 2.39073 14.2365 2.7173C15.0281 2.1189 15.5798 1.7725 15.7803 1.64664C16.3796 1.82513 17.3693 1.73813 18.6973 0.0156631C16.5156 -0.129509 15.7925 0.791752 15.6421 1.39147C15.4688 1.50015 15.0368 1.77198 14.4164 2.22282C14.6048 1.69767 14.571 0.969711 13.6565 0.149464C12.8494 1.89282 13.2991 2.52506 13.7419 2.73105C13.1781 3.17132 12.5191 3.72503 11.8105 4.40327C12.1315 3.73296 12.2589 2.68477 10.8342 1.59375C9.90178 4.1132 10.8276 4.68383 11.4411 4.76369C10.6218 5.57971 9.74906 6.55861 8.8967 7.71204C9.13001 6.80849 9.02433 5.52682 7.14496 4.39984C6.34386 7.75963 7.62557 8.36781 8.4169 8.38394C7.71065 9.40648 7.03055 10.5501 6.42364 11.8091C6.49392 10.8336 6.14728 9.51251 4.04809 8.52991C3.78598 12.1975 5.23864 12.6801 6.05797 12.6021C5.83286 13.1137 5.62016 13.642 5.42332 14.1865C5.20878 14.7796 5.00983 15.4029 4.83201 16.0494C4.7435 14.9959 4.16038 13.6487 1.81044 12.8734C2.06568 16.9122 3.73102 17.2065 4.59104 16.9981C4.30463 18.2261 4.09829 19.5361 4.00344 20.9066C3.67079 19.8941 2.77879 18.6854 0.248398 18.6376C1.5132 22.3953 3.16639 22.2734 3.95587 21.8556C3.91386 23.2285 3.98652 24.653 4.19578 26.0991C3.61398 25.2043 2.43743 24.2579 3.62396e-05 25.0084C2.17268 28.1836 3.69351 27.6749 4.3559 27.0677C4.60664 28.4147 4.97812 29.7723 5.4796 31.1116C4.80294 30.2306 3.47394 29.258 1.01251 30.3982C3.8021 33.4359 5.22727 32.503 5.73272 31.7615C6.17634 32.8496 6.70689 33.9214 7.32436 34.9596C6.48865 34.2919 5.1097 33.7805 3.07947 35.0497C6.17476 37.6355 7.48157 36.6727 7.9133 35.8993C8.64121 37.0027 9.47243 38.0586 10.3951 39.0456C9.42593 38.5383 7.88503 38.2577 6.31638 40.3162C9.95992 41.9369 10.8458 40.5735 11.0078 39.6792C11.8966 40.5619 12.8634 41.3803 13.8946 42.1196C12.8639 41.8134 11.3566 41.8526 10.2733 44.1219C14.111 45.0889 14.706 43.5875 14.6955 42.6713C15.3837 43.1232 16.0976 43.5404 16.8327 43.9185Z" fill="#2B2E32"/>
</svg>