<svg xmlns="http://www.w3.org/2000/svg" width="20" height="21" viewBox="0 0 20 21" fill="none">
  <path d="M17.5 1.2832H2.49609C1.80859 1.2832 1.25 1.84961 1.25 2.54492V17.5215C1.25 18.2168 1.80859 18.7832 2.49609 18.7832H17.5C18.1875 18.7832 18.75 18.2168 18.75 17.5215V2.54492C18.75 1.84961 18.1875 1.2832 17.5 1.2832ZM6.53906 16.2832H3.94531V7.93164H6.54297V16.2832H6.53906ZM5.24219 6.79102C4.41016 6.79102 3.73828 6.11523 3.73828 5.28711C3.73828 4.45898 4.41016 3.7832 5.24219 3.7832C6.07031 3.7832 6.74609 4.45898 6.74609 5.28711C6.74609 6.11914 6.07422 6.79102 5.24219 6.79102ZM16.2617 16.2832H13.668V12.2207C13.668 11.252 13.6484 10.0059 12.3203 10.0059C10.9688 10.0059 10.7617 11.0605 10.7617 12.1504V16.2832H8.16797V7.93164H10.6562V9.07227H10.6914C11.0391 8.41602 11.8867 7.72461 13.1484 7.72461C15.7734 7.72461 16.2617 9.45508 16.2617 11.7051V16.2832Z" fill="white"/>
</svg>