<svg xmlns="http://www.w3.org/2000/svg" width="22" height="22" viewBox="0 0 22 22" fill="none">
  <path fill-rule="evenodd" clip-rule="evenodd" d="M10.5783 20.4884L10.6425 20.5251L10.6682 20.5397C10.7699 20.5948 10.8838 20.6236 10.9995 20.6236C11.1153 20.6236 11.2291 20.5948 11.3309 20.5397L11.3566 20.526L11.4217 20.4884C11.7802 20.2758 12.13 20.0489 12.4703 19.8082C13.3513 19.1863 14.1745 18.4862 14.9298 17.7164C16.7118 15.8922 18.5625 13.1514 18.5625 9.625C18.5625 7.6193 17.7657 5.69575 16.3475 4.2775C14.9293 2.85926 13.0057 2.0625 11 2.0625C8.9943 2.0625 7.07075 2.85926 5.6525 4.2775C4.23426 5.69575 3.4375 7.6193 3.4375 9.625C3.4375 13.1505 5.28917 15.8922 7.07025 17.7164C7.82526 18.4861 8.64808 19.1862 9.52875 19.8082C9.86936 20.0489 10.2195 20.2759 10.5783 20.4884ZM11 12.375C11.7293 12.375 12.4288 12.0853 12.9445 11.5695C13.4603 11.0538 13.75 10.3543 13.75 9.625C13.75 8.89565 13.4603 8.19618 12.9445 7.68046C12.4288 7.16473 11.7293 6.875 11 6.875C10.2707 6.875 9.57118 7.16473 9.05546 7.68046C8.53973 8.19618 8.25 8.89565 8.25 9.625C8.25 10.3543 8.53973 11.0538 9.05546 11.5695C9.57118 12.0853 10.2707 12.375 11 12.375Z" fill="#2B2E32"/>
</svg>