<svg width="169" height="24" viewBox="0 0 169 24" fill="none" xmlns="http://www.w3.org/2000/svg">
<path d="M5.32243 11.4361C5.48 11.4362 5.63427 11.3909 5.76684 11.3058C5.89941 11.2206 6.00467 11.0991 6.07008 10.9557C6.14846 10.7607 6.14762 10.5427 6.06772 10.3483C5.98782 10.1539 5.83518 9.9983 5.64228 9.9147C2.27786 8.55255 1.04845 6.41654 1.7961 3.29216C3.72149 4.95353 6.60253 6.6536 8.91142 7.71979C9.00614 7.76547 9.10893 7.79202 9.21393 7.79795C9.31892 7.80388 9.22651 7.56195 9.32577 7.52724C9.42504 7.49253 8.98135 7.34956 9.05976 7.27949C9.13816 7.20943 9.20199 7.12458 9.24759 7.02984C9.29327 6.93513 9.31984 6.83236 9.32577 6.72738C9.33171 6.62241 9.31689 6.51731 9.28218 6.41806C9.24746 6.31882 9.19352 6.22738 9.12344 6.14898C9.05336 6.07059 8.96852 6.00677 8.87376 5.96118C6.32771 4.79591 3.99811 3.20673 1.98433 1.26144C1.88594 1.16856 1.76665 1.10072 1.63653 1.06361C1.5064 1.0265 1.36927 1.02122 1.23668 1.04823C1.10389 1.07648 0.980426 1.13789 0.877775 1.22671C0.775125 1.31554 0.696632 1.4289 0.649614 1.55624C-1.00627 6.14938 0.517985 9.53962 5.05653 11.3821C5.14056 11.4181 5.23104 11.4364 5.32243 11.4361Z" fill="black"/>
<path d="M6.48956 16.6189C6.64627 16.6167 6.79723 16.5637 6.91621 16.4691C7.0352 16.3745 7.11472 16.2442 7.14095 16.1009C7.17421 15.9352 7.13701 15.764 7.03717 15.6233C6.93732 15.4825 6.78258 15.383 6.60539 15.3457C5.94888 15.2724 5.31537 15.0758 4.74354 14.7678C4.17172 14.4599 3.67359 14.047 3.27959 13.5545C2.94138 12.9506 2.73673 12.2902 2.67764 11.612C2.61856 10.9337 2.70624 10.2514 2.93554 9.60502C2.95837 9.52418 2.96309 9.43986 2.94941 9.35725C2.93573 9.27465 2.90395 9.19552 2.85602 9.12475C2.80809 9.05398 2.74503 8.99308 2.67074 8.94579C2.59644 8.89851 2.51249 8.86583 2.42406 8.84981C2.33694 8.83005 2.24644 8.82673 2.15791 8.84002C2.06938 8.85331 1.98464 8.88297 1.9087 8.92721C1.83276 8.97145 1.76717 9.02938 1.71583 9.09758C1.66448 9.16578 1.62843 9.24286 1.60981 9.32422C1.34495 10.136 1.25532 10.9883 1.34604 11.8323C1.43676 12.6763 1.70605 13.4953 2.13849 14.2427C2.62935 14.8765 3.25348 15.4117 3.97327 15.8159C4.69306 16.22 5.49361 16.4849 6.32671 16.5944C6.37895 16.6117 6.43412 16.6199 6.48956 16.6189Z" fill="black"/>
<path d="M11.0642 22.1211C11.4591 22.1211 11.8922 22.0947 12.32 22.0671C12.528 22.0474 12.7201 21.9469 12.8549 21.7872C12.9898 21.6275 13.0567 21.4214 13.0413 21.213C13.0155 21.0023 12.9094 20.8098 12.7451 20.6754C12.5808 20.541 12.371 20.4752 12.1594 20.4917C8.07889 20.8655 5.85701 19.3165 5.26994 15.6051C5.23621 15.3971 5.12213 15.2106 4.95228 15.0858C4.78242 14.961 4.57035 14.9079 4.36171 14.9379C4.15606 14.9764 3.97275 15.0917 3.84886 15.2603C3.72496 15.4289 3.66974 15.6382 3.69435 15.846C3.76001 16.7441 4.00353 17.6202 4.41077 18.4234C4.81801 19.2267 5.38084 19.9409 6.06655 20.5248C6.75227 21.1087 7.5472 21.5504 8.40515 21.8245C9.2631 22.0985 10.167 22.1993 11.0642 22.1211Z" fill="black"/>
<path d="M36.8465 11.3189C36.6889 11.319 36.5347 11.2737 36.4021 11.1886C36.2695 11.1034 36.1643 10.9819 36.0989 10.8385C36.0205 10.6435 36.0213 10.4256 36.1012 10.2311C36.1811 10.0367 36.3338 9.88111 36.5267 9.79751C39.8911 8.43536 41.1205 6.29936 40.3728 3.17497C38.4475 4.83634 35.5664 6.53641 33.2575 7.6026C33.1628 7.64828 33.06 7.67483 32.955 7.68076C32.85 7.6867 32.9424 7.44477 32.8432 7.41005C32.7439 7.37534 33.1876 7.23238 33.1092 7.16231C33.0308 7.09224 32.967 7.00739 32.9214 6.91265C32.8757 6.81795 32.8491 6.71517 32.8432 6.6102C32.8372 6.50522 32.8521 6.40012 32.8868 6.30087C32.9215 6.20163 32.9754 6.11019 33.0455 6.0318C33.1156 5.9534 33.2004 5.88958 33.2952 5.84399C35.8412 4.67872 38.1708 3.08954 40.1846 1.14425C40.283 1.05137 40.4023 0.983528 40.5324 0.946421C40.6625 0.909314 40.7997 0.904031 40.9323 0.931038C41.0651 0.959293 41.1885 1.0207 41.2912 1.10953C41.3938 1.19835 41.4723 1.31171 41.5193 1.43905C43.1752 6.03219 41.651 9.42243 37.1124 11.265C37.0284 11.3009 36.9379 11.3192 36.8465 11.3189Z" fill="black"/>
<path d="M35.6794 16.4978C35.5227 16.4956 35.3717 16.4426 35.2527 16.348C35.1337 16.2534 35.0542 16.1231 35.028 15.9798C34.9947 15.8141 35.0319 15.643 35.1318 15.5022C35.2316 15.3614 35.3864 15.2619 35.5636 15.2246C36.2201 15.1513 36.8536 14.9547 37.4254 14.6467C37.9972 14.3388 38.4954 13.9259 38.8894 13.4334C39.2276 12.8295 39.4322 12.1691 39.4913 11.4909C39.5504 10.8126 39.4627 10.1303 39.2334 9.48393C39.2106 9.40309 39.2059 9.31876 39.2195 9.23616C39.2332 9.15355 39.265 9.07442 39.3129 9.00366C39.3609 8.93289 39.4239 8.87199 39.4982 8.8247C39.5725 8.77741 39.6565 8.74474 39.7449 8.72871C39.832 8.70895 39.9225 8.70563 40.011 8.71893C40.0996 8.73222 40.1843 8.76187 40.2602 8.80612C40.3362 8.85036 40.4018 8.90829 40.4531 8.97649C40.5045 9.04468 40.5405 9.12176 40.5591 9.20313C40.824 10.0149 40.9136 10.8672 40.8229 11.7112C40.7322 12.5552 40.4629 13.3742 40.0305 14.1216C39.5396 14.7554 38.9155 15.2906 38.1957 15.6948C37.4759 16.0989 36.6753 16.3638 35.8422 16.4734C35.79 16.4906 35.7348 16.4989 35.6794 16.4978Z" fill="black"/>
<path d="M31.1047 22.0039C30.7098 22.0039 30.2768 21.9776 29.849 21.9499C29.6409 21.9302 29.4488 21.8297 29.314 21.67C29.1792 21.5103 29.1123 21.3042 29.1277 21.0958C29.1535 20.8851 29.2596 20.6926 29.4239 20.5582C29.5882 20.4239 29.798 20.3581 30.0096 20.3745C34.0901 20.7483 36.3119 19.1993 36.899 15.4879C36.9327 15.2799 37.0468 15.0934 37.2167 14.9686C37.3865 14.8438 37.5986 14.7907 37.8072 14.8207C38.0129 14.8593 38.1962 14.9745 38.3201 15.1431C38.444 15.3117 38.4992 15.521 38.4746 15.7288C38.4089 16.6269 38.1654 17.503 37.7582 18.3062C37.3509 19.1095 36.7881 19.8238 36.1024 20.4076C35.4167 20.9915 34.6217 21.4332 33.7638 21.7073C32.9058 21.9813 32.002 22.0821 31.1047 22.0039Z" fill="black"/>
<path fill-rule="evenodd" clip-rule="evenodd" d="M17.979 0.254883H10.3191C9.4927 0.254883 8.82275 0.924832 8.82275 1.75126V22.2496C8.82275 23.0761 9.4927 23.746 10.3191 23.746H31.9151C32.7415 23.746 33.4115 23.0761 33.4115 22.2496V1.75126C33.4115 0.924833 32.7415 0.254883 31.9151 0.254883H24.2431V3.45744C24.2431 4.518 23.3834 5.37775 22.3228 5.37775H19.8993C18.8388 5.37775 17.979 4.518 17.979 3.45744V0.254883Z" fill="#F25454"/>
<path d="M59.4847 18.1603C58.3585 18.1603 57.405 18.0132 56.6244 17.7188C55.8437 17.4117 55.2038 17.0087 54.7047 16.5096C54.2056 15.9978 53.8344 15.4348 53.5913 14.8206C53.3481 14.2064 53.2073 13.5858 53.1689 12.9588H55.9333C55.9589 13.445 56.106 13.9185 56.3748 14.3791C56.6436 14.827 57.0403 15.1981 57.565 15.4924C58.1025 15.7739 58.7744 15.9146 59.5807 15.9146C60.4381 15.9146 61.0844 15.7355 61.5195 15.3772C61.9675 15.0061 62.1914 14.5263 62.1914 13.9377C62.1914 13.349 61.9931 12.882 61.5963 12.5365C61.1996 12.191 60.6877 11.9095 60.0606 11.692L58.0641 11.0394C57.3602 10.7963 56.6883 10.5084 56.0485 10.1757C55.4086 9.84297 54.8839 9.40151 54.4743 8.85128C54.0648 8.30106 53.86 7.59089 53.86 6.72077C53.86 5.83785 54.0776 5.09569 54.5127 4.49428C54.9606 3.88008 55.5749 3.41303 56.3556 3.09313C57.1363 2.77323 58.0385 2.61328 59.0623 2.61328C60.3421 2.61328 61.366 2.83721 62.1338 3.28507C62.9017 3.72013 63.4648 4.27675 63.8231 4.95493C64.1815 5.63312 64.399 6.35608 64.4758 7.12384H61.7115C61.6731 6.73996 61.5579 6.37528 61.366 6.02979C61.1868 5.6715 60.8988 5.38359 60.5021 5.16606C60.1182 4.93574 59.5935 4.82058 58.928 4.82058C58.1985 4.82058 57.6418 4.98052 57.2579 5.30042C56.8867 5.60752 56.7011 6.01059 56.7011 6.50963C56.7011 7.04706 56.9059 7.47573 57.3154 7.79562C57.725 8.11552 58.2497 8.38423 58.8896 8.60177L60.8668 9.27355C61.5835 9.50388 62.2554 9.79178 62.8825 10.1373C63.5224 10.47 64.0407 10.9178 64.4374 11.4808C64.847 12.0439 65.0517 12.786 65.0517 13.7073C65.0517 15.1021 64.559 16.1961 63.5736 16.9895C62.5882 17.77 61.2252 18.1603 59.4847 18.1603Z" fill="black"/>
<path d="M67.415 17.8733V2.51823H70.2754V7.75816H70.7361C70.992 7.25912 71.3504 6.85605 71.8111 6.54894C72.2718 6.22905 72.8989 6.0691 73.6924 6.0691C74.985 6.0691 75.9448 6.47857 76.5719 7.2975C77.2118 8.10365 77.5317 9.1849 77.5317 10.5413V17.8733H74.6714V11.0403C74.6714 10.1958 74.5178 9.54958 74.2107 9.10173C73.9163 8.64108 73.4364 8.41075 72.7709 8.41075C71.9775 8.41075 71.3632 8.72425 70.928 9.35125C70.4929 9.96545 70.2754 10.7332 70.2754 11.6545V17.8733H67.415Z" fill="black"/>
<path d="M80.186 17.8733V6.35701H83.0464V17.8733H80.186ZM81.6066 4.95585C81.0947 4.95585 80.7044 4.8215 80.4356 4.55278C80.1668 4.27127 80.0325 3.91299 80.0325 3.47793C80.0325 3.03007 80.1668 2.67178 80.4356 2.40307C80.7044 2.13436 81.0947 2 81.6066 2C82.1185 2 82.5088 2.13436 82.7776 2.40307C83.0464 2.67178 83.1807 3.03007 83.1807 3.47793C83.1807 3.91299 83.0464 4.27127 82.7776 4.55278C82.5088 4.8215 82.1185 4.95585 81.6066 4.95585Z" fill="black"/>
<path d="M85.6137 21.7121V6.35701H88.2437V7.85413H88.7044C88.9476 7.36788 89.3251 6.95841 89.837 6.62572C90.3617 6.28023 91.0528 6.10749 91.9103 6.10749C92.9469 6.10749 93.8044 6.3634 94.4826 6.87524C95.1737 7.38708 95.6856 8.09725 96.0184 9.00576C96.3639 9.90147 96.5367 10.9443 96.5367 12.1344C96.5367 13.3116 96.3639 14.3544 96.0184 15.263C95.6728 16.1715 95.1545 16.8752 94.4634 17.3743C93.7852 17.8733 92.9405 18.1228 91.9295 18.1228C91.1744 18.1228 90.5537 17.9821 90.0674 17.7006C89.5811 17.4191 89.2035 17.0416 88.9348 16.5681H88.4741V21.7121H85.6137ZM91.1616 16.0499C91.9295 16.0499 92.5246 15.7172 92.9469 15.0518C93.3692 14.3864 93.5804 13.4075 93.5804 12.1152C93.5804 10.8228 93.3692 9.84389 92.9469 9.1785C92.5246 8.51312 91.9295 8.18042 91.1616 8.18042C90.3425 8.18042 89.6834 8.53871 89.1843 9.25528C88.698 9.95905 88.4549 10.9123 88.4549 12.1152C88.4549 13.3052 88.698 14.2585 89.1843 14.975C89.6834 15.6916 90.3425 16.0499 91.1616 16.0499Z" fill="black"/>
<path d="M99.1321 17.8733V2.90211H104.354C106.99 2.90211 108.903 3.5611 110.093 4.87908C111.296 6.18426 111.898 8.02047 111.898 10.3877C111.898 12.755 111.296 14.5976 110.093 15.9155C108.903 17.2207 106.99 17.8733 104.354 17.8733H99.1321ZM102.088 15.5509H104.162C105.224 15.5509 106.101 15.3845 106.792 15.0518C107.483 14.7191 107.995 14.1817 108.327 13.4395C108.673 12.6846 108.846 11.6673 108.846 10.3877C108.846 9.10813 108.673 8.09085 108.327 7.33589C107.995 6.58093 107.483 6.04351 106.792 5.72361C106.101 5.39091 105.224 5.22457 104.162 5.22457H102.088V15.5509Z" fill="black"/>
<path d="M119.061 18.1612C117.282 18.1612 115.925 17.6174 114.991 16.5298C114.057 15.4293 113.59 13.9514 113.59 12.096C113.59 10.8548 113.794 9.78631 114.204 8.89059C114.626 7.99488 115.241 7.3039 116.047 6.81766C116.866 6.31862 117.864 6.0691 119.042 6.0691C120.718 6.0691 121.998 6.58733 122.881 7.6238C123.777 8.64747 124.225 10.1574 124.225 12.1536V12.7869H116.373C116.437 13.7978 116.7 14.604 117.16 15.2054C117.621 15.8068 118.261 16.1075 119.08 16.1075C119.707 16.1075 120.213 15.9219 120.597 15.5509C120.98 15.1798 121.243 14.7255 121.384 14.1881H124.09C123.962 14.9047 123.7 15.5637 123.303 16.1651C122.907 16.7665 122.356 17.2527 121.652 17.6238C120.961 17.9821 120.097 18.1612 119.061 18.1612ZM116.373 10.9443H121.46C121.409 10.023 121.172 9.30646 120.75 8.79463C120.341 8.28279 119.765 8.02687 119.022 8.02687C118.267 8.02687 117.659 8.27639 117.199 8.77543C116.751 9.26168 116.476 9.98464 116.373 10.9443Z" fill="black"/>
<path d="M127.243 17.8733C126.897 17.4766 126.648 17.0224 126.494 16.5106C126.341 15.9987 126.264 15.3077 126.264 14.4376V2.51823H129.124V14.1305C129.124 15.1158 129.233 15.8772 129.45 16.4146C129.668 16.9392 129.95 17.3871 130.295 17.7582V17.8733H127.243Z" fill="black"/>
<path d="M132.166 17.8733V6.35701H135.027V17.8733H132.166ZM133.587 4.95585C133.075 4.95585 132.685 4.8215 132.416 4.55278C132.147 4.27127 132.013 3.91299 132.013 3.47793C132.013 3.03007 132.147 2.67178 132.416 2.40307C132.685 2.13436 133.075 2 133.587 2C134.099 2 134.489 2.13436 134.758 2.40307C135.027 2.67178 135.161 3.03007 135.161 3.47793C135.161 3.91299 135.027 4.27127 134.758 4.55278C134.489 4.8215 134.099 4.95585 133.587 4.95585Z" fill="black"/>
<path d="M142.708 22C141.697 22 140.871 21.872 140.231 21.6161C139.604 21.373 139.112 21.0595 138.753 20.6756C138.408 20.3045 138.158 19.9143 138.005 19.5048C137.851 19.1081 137.761 18.7434 137.736 18.4107H140.519C140.583 18.8074 140.775 19.1593 141.095 19.4664C141.428 19.7863 141.965 19.9463 142.708 19.9463C143.527 19.9463 144.148 19.7031 144.57 19.2169C145.005 18.7434 145.223 18.0461 145.223 17.1248V15.7812H144.762C144.57 16.3186 144.231 16.7473 143.744 17.0672C143.258 17.3871 142.612 17.547 141.806 17.547C140.321 17.547 139.182 17.0288 138.388 15.9923C137.595 14.9431 137.198 13.5419 137.198 11.7889C137.198 10.6628 137.371 9.67114 137.717 8.81382C138.075 7.9437 138.593 7.27191 139.272 6.79846C139.963 6.31222 140.82 6.0691 141.844 6.0691C142.65 6.0691 143.29 6.22905 143.764 6.54894C144.25 6.85605 144.608 7.25912 144.839 7.75816H145.299V6.35701H147.929V17.0672C147.929 18.6411 147.494 19.8567 146.624 20.714C145.766 21.5713 144.461 22 142.708 22ZM142.497 15.4741C143.316 15.4741 143.949 15.1414 144.397 14.476C144.858 13.7978 145.088 12.9085 145.088 11.8081C145.088 10.682 144.858 9.79271 144.397 9.14012C143.936 8.47473 143.303 8.14203 142.497 8.14203C141.754 8.14203 141.166 8.44914 140.73 9.06334C140.295 9.67754 140.078 10.5925 140.078 11.8081C140.078 13.0237 140.289 13.9386 140.711 14.5528C141.146 15.167 141.742 15.4741 142.497 15.4741Z" fill="black"/>
<path d="M150.48 17.8733V2.51823H153.34V7.75816H153.801C154.057 7.25912 154.415 6.85605 154.876 6.54894C155.337 6.22905 155.964 6.0691 156.757 6.0691C158.05 6.0691 159.01 6.47857 159.637 7.2975C160.277 8.10365 160.597 9.1849 160.597 10.5413V17.8733H157.737V11.0403C157.737 10.1958 157.583 9.54958 157.276 9.10173C156.981 8.64108 156.502 8.41075 155.836 8.41075C155.043 8.41075 154.428 8.72425 153.993 9.35125C153.558 9.96545 153.34 10.7332 153.34 11.6545V17.8733H150.48Z" fill="black"/>
<path d="M164.626 17.8733C164.332 17.5278 164.095 17.112 163.916 16.6257C163.749 16.1395 163.666 15.4101 163.666 14.4376V8.39155H162.092V6.35701H163.704V3.47793H166.488V6.35701H168.388V8.39155H166.507V14.1113C166.507 15.135 166.622 15.9155 166.853 16.453C167.083 16.9776 167.358 17.4127 167.678 17.7582V17.8733H164.626Z" fill="black"/>
</svg>
