<svg xmlns="http://www.w3.org/2000/svg" width="106" height="44" viewBox="0 0 106 44" fill="none">
  <g clip-path="url(#clip0_2783_18465)">
    <path d="M6.2066 40.744C6.13457 40.907 6.03806 41.0502 5.91274 41.1721C5.78886 41.2939 5.64337 41.3904 5.47771 41.4612C5.31205 41.5307 5.13342 41.5661 4.94472 41.5661H4.54858C4.35988 41.5661 4.18126 41.5307 4.01415 41.4612C3.84705 41.3918 3.70157 41.2939 3.57624 41.1721C3.45236 41.0502 3.35441 40.907 3.28238 40.744C3.21035 40.5809 3.17578 40.4052 3.17578 40.2195V37.2724C3.17578 37.0868 3.2118 36.911 3.28238 36.7479C3.35297 36.5849 3.45092 36.4418 3.57624 36.3199C3.70012 36.198 3.84705 36.1015 4.01415 36.0307C4.18126 35.9612 4.35988 35.9258 4.54858 35.9258H4.94472C5.13342 35.9258 5.31205 35.9612 5.47771 36.0307C5.64337 36.1015 5.78886 36.198 5.91274 36.3199C6.03662 36.4418 6.13457 36.5849 6.2066 36.7479C6.27719 36.911 6.3132 37.0868 6.3132 37.2724V40.2195C6.3132 40.4052 6.27719 40.5809 6.2066 40.744ZM5.8119 37.2724C5.8119 37.1506 5.78886 37.0357 5.74131 36.9294C5.69378 36.8231 5.6304 36.7309 5.55118 36.6516C5.4705 36.5722 5.37688 36.5099 5.26883 36.4644C5.16079 36.4191 5.04556 36.395 4.92023 36.395H4.57019C4.44631 36.395 4.32962 36.4177 4.22159 36.4644C4.11355 36.5099 4.01992 36.5722 3.93781 36.6516C3.8557 36.7309 3.79232 36.8231 3.74478 36.9294C3.69725 37.0357 3.6742 37.1491 3.6742 37.2724V40.2195C3.6742 40.3414 3.69725 40.4562 3.74478 40.5626C3.79232 40.6688 3.8557 40.761 3.93781 40.8417C4.01992 40.9226 4.11355 40.9849 4.22159 41.0317C4.32962 41.0771 4.44487 41.1012 4.57019 41.1012H4.92023C5.04411 41.1012 5.16079 41.0785 5.26883 41.0317C5.37688 40.9864 5.4705 40.9226 5.55118 40.8417C5.63184 40.761 5.69522 40.6688 5.74131 40.5626C5.78742 40.4562 5.8119 40.3427 5.8119 40.2195V37.2724Z" fill="#606161"/>
    <path d="M9.76126 40.8601C9.70076 41.0005 9.61721 41.1224 9.51061 41.2273C9.40401 41.3322 9.28013 41.4144 9.13752 41.4739C8.99491 41.5335 8.84365 41.5632 8.68232 41.5632H8.56132C8.3827 41.5632 8.21704 41.5278 8.06291 41.4555C7.90877 41.3833 7.77913 41.2841 7.66965 41.1579V43.0559H7.19141V37.5673H7.3513L7.61202 37.9656C7.72151 37.8196 7.85691 37.7047 8.02257 37.6198C8.18679 37.5347 8.36686 37.4922 8.56132 37.4922H8.68232C8.84365 37.4922 8.99491 37.5219 9.13752 37.5815C9.28013 37.641 9.40401 37.7232 9.51061 37.8281C9.61721 37.933 9.70076 38.0549 9.76126 38.1952C9.82176 38.3356 9.85201 38.4844 9.85201 38.6432V40.4108C9.85201 40.5696 9.82176 40.7184 9.76126 40.8588V40.8601ZM9.37377 38.6177C9.37377 38.5227 9.35503 38.4348 9.31902 38.3511C9.28302 38.269 9.23404 38.1967 9.17066 38.1343C9.10871 38.0733 9.03525 38.0251 8.95025 37.9882C8.86526 37.9528 8.77595 37.9345 8.67944 37.9345H8.36109C8.26458 37.9345 8.17527 37.9528 8.09027 37.9882C8.00528 38.0238 7.93327 38.0719 7.86988 38.1343C7.80793 38.1952 7.75896 38.2675 7.72151 38.3511C7.68549 38.4334 7.66677 38.5227 7.66677 38.6177V40.4392C7.66677 40.5341 7.68549 40.6221 7.72151 40.7057C7.75752 40.7893 7.8065 40.8601 7.86988 40.9225C7.93182 40.9835 8.00528 41.0317 8.09027 41.0686C8.17527 41.1054 8.26458 41.1224 8.36109 41.1224H8.67944C8.77595 41.1224 8.86526 41.104 8.95025 41.0686C9.0338 41.0331 9.10727 40.985 9.17066 40.9225C9.23404 40.8601 9.28157 40.7893 9.31902 40.7057C9.35503 40.6234 9.37377 40.5341 9.37377 40.4392V38.6177Z" fill="#606161"/>
    <path d="M13.2193 40.8589C13.1588 40.9992 13.0752 41.1211 12.9686 41.226C12.8621 41.3309 12.7381 41.4131 12.5955 41.4726C12.4529 41.5321 12.3016 41.5619 12.1403 41.5619H11.822C11.6606 41.5619 11.5094 41.5321 11.3667 41.4726C11.2242 41.4131 11.1003 41.3309 10.9937 41.226C10.8871 41.1211 10.8036 40.9992 10.743 40.8589C10.6826 40.7184 10.6523 40.5697 10.6523 40.4109V38.6433C10.6523 38.4845 10.6826 38.3356 10.743 38.1953C10.8036 38.055 10.8871 37.9331 10.9937 37.8282C11.1003 37.7233 11.2242 37.6411 11.3667 37.5815C11.5094 37.522 11.6606 37.4922 11.822 37.4922H12.1403C12.3016 37.4922 12.4529 37.522 12.5955 37.5815C12.7381 37.6411 12.8621 37.7233 12.9686 37.8282C13.0752 37.9331 13.1588 38.055 13.2193 38.1953C13.2798 38.3356 13.31 38.4845 13.31 38.6433V39.5661H11.1277V40.4393C11.1277 40.5342 11.1464 40.6221 11.1824 40.7057C11.2185 40.7894 11.2674 40.8602 11.3307 40.9226C11.3927 40.9836 11.4661 41.0318 11.5511 41.0686C11.6362 41.1055 11.7255 41.1224 11.822 41.1224H12.1403C12.2369 41.1224 12.3262 41.104 12.4111 41.0686C12.4947 41.0331 12.5682 40.985 12.6315 40.9226C12.6949 40.8602 12.7424 40.7894 12.7799 40.7057C12.8159 40.6235 12.8347 40.5342 12.8347 40.4393V40.1784L13.3129 40.255V40.4123C13.3129 40.571 13.2826 40.7199 13.2222 40.8602L13.2193 40.8589ZM12.8317 38.6163C12.8317 38.5213 12.8131 38.4335 12.7771 38.3499C12.7411 38.2676 12.6921 38.1953 12.6287 38.1329C12.5667 38.0719 12.4933 38.0238 12.4083 37.987C12.3233 37.9514 12.2339 37.9331 12.1375 37.9331H11.8191C11.7226 37.9331 11.6333 37.9514 11.5483 37.987C11.4633 38.0224 11.3913 38.0706 11.3279 38.1329C11.266 38.1939 11.217 38.2661 11.1795 38.3499C11.1435 38.432 11.1247 38.5213 11.1247 38.6163V39.1975H12.8274V38.6163H12.8317Z" fill="#606161"/>
    <path d="M16.2867 41.4868V38.6163C16.2867 38.5213 16.2681 38.4335 16.2321 38.3499C16.1961 38.2676 16.147 38.1953 16.0837 38.1329C16.0217 38.0719 15.9483 38.0238 15.8633 37.987C15.7783 37.9514 15.6889 37.9331 15.5925 37.9331H15.2741C15.1776 37.9331 15.0883 37.9514 15.0033 37.987C14.9183 38.0224 14.8463 38.0706 14.7829 38.1329C14.721 38.1939 14.672 38.2661 14.6345 38.3499C14.5985 38.432 14.5798 38.5213 14.5798 38.6163V41.4868H14.1016V37.5674H14.2614L14.5222 37.9657C14.6317 37.8196 14.7671 37.7048 14.9327 37.6198C15.0969 37.5348 15.277 37.4922 15.4715 37.4922H15.5925C15.7538 37.4922 15.905 37.522 16.0477 37.5815C16.1903 37.6411 16.3141 37.7233 16.4208 37.8282C16.5274 37.9331 16.6109 38.055 16.6714 38.1953C16.7319 38.3356 16.7622 38.4845 16.7622 38.6433V41.4868H16.2839H16.2867Z" fill="#606161"/>
    <path d="M22.2708 41.4912L19.9458 37.4952L19.8998 37.2584V41.4912H19.3984V36.0039H19.6592L21.9842 40.0027L22.0345 40.2367V36.0039H22.5359V41.4912H22.2708Z" fill="#606161"/>
    <path d="M25.9849 40.8589C25.9244 40.9992 25.8408 41.1211 25.7342 41.226C25.6277 41.3309 25.5037 41.4131 25.3612 41.4726C25.2186 41.5321 25.0674 41.5619 24.9059 41.5619H24.5876C24.4263 41.5619 24.275 41.5321 24.1325 41.4726C23.9898 41.4131 23.8659 41.3309 23.7594 41.226C23.6527 41.1211 23.5692 40.9992 23.5086 40.8589C23.4482 40.7184 23.418 40.5697 23.418 40.4109V38.6433C23.418 38.4845 23.4482 38.3356 23.5086 38.1953C23.5692 38.055 23.6527 37.9331 23.7594 37.8282C23.8659 37.7233 23.9898 37.6411 24.1325 37.5815C24.275 37.522 24.4263 37.4922 24.5876 37.4922H24.9059C25.0674 37.4922 25.2186 37.522 25.3612 37.5815C25.5037 37.6411 25.6277 37.7233 25.7342 37.8282C25.8408 37.9331 25.9244 38.055 25.9849 38.1953C26.0454 38.3356 26.0756 38.4845 26.0756 38.6433V39.5661H23.8933V40.4393C23.8933 40.5342 23.9121 40.6221 23.9481 40.7057C23.9841 40.7894 24.0331 40.8602 24.0964 40.9226C24.1584 40.9836 24.2318 41.0318 24.3168 41.0686C24.4018 41.1055 24.4911 41.1224 24.5876 41.1224H24.9059C25.0025 41.1224 25.0918 41.104 25.1768 41.0686C25.2604 41.0331 25.3338 40.985 25.3972 40.9226C25.4606 40.8602 25.5081 40.7894 25.5455 40.7057C25.5816 40.6235 25.6003 40.5342 25.6003 40.4393V40.1784L26.0785 40.255V40.4123C26.0785 40.571 26.0483 40.7199 25.9878 40.8602L25.9849 40.8589ZM25.5975 38.6163C25.5975 38.5213 25.5787 38.4335 25.5427 38.3499C25.5067 38.2676 25.4577 38.1953 25.3943 38.1329C25.3324 38.0719 25.2589 38.0238 25.1739 37.987C25.0889 37.9514 24.9996 37.9331 24.9031 37.9331H24.5847C24.4882 37.9331 24.3989 37.9514 24.3139 37.987C24.2289 38.0224 24.1569 38.0706 24.0935 38.1329C24.0316 38.1939 23.9826 38.2661 23.9451 38.3499C23.9091 38.432 23.8904 38.5213 23.8904 38.6163V39.1975H25.5931V38.6163H25.5975Z" fill="#606161"/>
    <path d="M28.3212 41.4918C28.1756 41.4918 28.0388 41.465 27.9106 41.4111C27.7824 41.3572 27.6714 41.2835 27.5763 41.1885C27.4814 41.0935 27.4064 40.9844 27.3503 40.8597C27.294 40.735 27.2666 40.6002 27.2666 40.4585V38.0204H26.5508V37.5724H27.2666V36.6312L27.7449 36.5547V37.5724H28.7562V38.0204H27.7449V40.4812C27.7449 40.5606 27.7594 40.6343 27.7896 40.7009C27.8198 40.7689 27.8601 40.8285 27.9121 40.8781C27.9639 40.9292 28.0244 40.9688 28.095 40.9985C28.1655 41.0284 28.2405 41.0425 28.3212 41.0425H28.7562V41.4905H28.3212V41.4918Z" fill="#606161"/>
    <path d="M32.8281 41.4898H32.5674L31.634 38.5356L31.6182 38.3329L31.6023 38.5356L30.6688 41.4898H30.4038L29.0742 37.5703H29.5597L30.509 40.5329L30.5248 40.7356L30.5407 40.5329L31.4741 37.5703H31.7622L32.6913 40.5329L32.7071 40.7356L32.723 40.5329L33.6723 37.5703H34.1578L32.8281 41.4898Z" fill="#606161"/>
    <path d="M37.1295 40.8589C37.0691 40.9992 36.9854 41.1211 36.8789 41.226C36.7723 41.3309 36.6484 41.4131 36.5058 41.4726C36.3632 41.5321 36.2119 41.5619 36.0506 41.5619H35.7322C35.5709 41.5619 35.4197 41.5321 35.277 41.4726C35.1344 41.4131 35.0106 41.3309 34.9039 41.226C34.7973 41.1211 34.7138 40.9992 34.6533 40.8589C34.5928 40.7184 34.5625 40.5697 34.5625 40.4109V38.6433C34.5625 38.4845 34.5928 38.3356 34.6533 38.1953C34.7138 38.055 34.7973 37.9331 34.9039 37.8282C35.0106 37.7233 35.1344 37.6411 35.277 37.5815C35.4197 37.522 35.5709 37.4922 35.7322 37.4922H36.0506C36.2119 37.4922 36.3632 37.522 36.5058 37.5815C36.6484 37.6411 36.7723 37.7233 36.8789 37.8282C36.9854 37.9331 37.0691 38.055 37.1295 38.1953C37.1901 38.3356 37.2203 38.4845 37.2203 38.6433V40.4109C37.2203 40.5697 37.1901 40.7184 37.1295 40.8589ZM36.742 38.6163C36.742 38.5213 36.7232 38.4335 36.6872 38.3499C36.6513 38.2676 36.6022 38.1953 36.539 38.1329C36.4769 38.0719 36.4035 38.0238 36.3186 37.987C36.2335 37.9514 36.1442 37.9331 36.0477 37.9331H35.7294C35.6328 37.9331 35.5435 37.9514 35.4585 37.987C35.3736 38.0224 35.3015 38.0706 35.2381 38.1329C35.1762 38.1939 35.1272 38.2661 35.0898 38.3499C35.0537 38.432 35.035 38.5213 35.035 38.6163V40.4378C35.035 40.5328 35.0537 40.6207 35.0898 40.7043C35.1258 40.7879 35.1747 40.8589 35.2381 40.9212C35.3001 40.9821 35.3736 41.0303 35.4585 41.0672C35.5435 41.1041 35.6328 41.1211 35.7294 41.1211H36.0477C36.1442 41.1211 36.2335 41.1026 36.3186 41.0672C36.4021 41.0318 36.4756 40.9836 36.539 40.9212C36.6022 40.8589 36.6498 40.7879 36.6872 40.7043C36.7232 40.6221 36.742 40.5328 36.742 40.4378V38.6163Z" fill="#606161"/>
    <path d="M39.1882 38.0217C39.0916 38.0217 39.0023 38.0401 38.9173 38.0755C38.8324 38.111 38.7603 38.1591 38.6969 38.2216C38.635 38.2825 38.5861 38.3547 38.5486 38.4384C38.5126 38.5206 38.4938 38.6099 38.4938 38.7048V41.4945H38.0156V37.5752H38.1755L38.4362 37.9735C38.5457 37.8275 38.6811 37.7127 38.8468 37.6276C39.011 37.5425 39.191 37.5 39.3855 37.5H39.665V38.0245H39.1867L39.1882 38.0217Z" fill="#606161"/>
    <path d="M40.3047 41.4912V36.0039H40.783V41.4912H40.3047ZM42.5014 41.4912L40.8766 39.5321L42.5014 37.5731H43.1238L41.46 39.5321L43.1238 41.4912H42.5014Z" fill="#606161"/>
    <path d="M46.6439 36.4493C46.5632 36.4493 46.4883 36.4636 46.4207 36.4933C46.3515 36.523 46.2909 36.5628 46.2391 36.6138C46.1872 36.6648 46.1469 36.7243 46.1167 36.7938C46.0864 36.8633 46.072 36.937 46.072 37.0163V37.5706H47.0011V38.0186H46.072V41.49H45.5938V38.0186H44.875V37.5706H45.5938V37.039C45.5938 36.8958 45.6211 36.7612 45.6758 36.635C45.7306 36.5089 45.8055 36.3983 45.902 36.3033C45.9985 36.2083 46.1095 36.1346 46.2363 36.0808C46.363 36.0269 46.4999 36 46.6439 36H47.0832V36.448H46.6439V36.4493Z" fill="#606161"/>
    <path d="M49.9732 40.8589C49.9127 40.9992 49.8292 41.1211 49.7225 41.226C49.616 41.3309 49.4921 41.4131 49.3494 41.4726C49.2069 41.5321 49.0556 41.5619 48.8943 41.5619H48.5759C48.4145 41.5619 48.2633 41.5321 48.1207 41.4726C47.9781 41.4131 47.8542 41.3309 47.7476 41.226C47.641 41.1211 47.5575 40.9992 47.497 40.8589C47.4365 40.7184 47.4062 40.5697 47.4062 40.4109V38.6433C47.4062 38.4845 47.4365 38.3356 47.497 38.1953C47.5575 38.055 47.641 37.9331 47.7476 37.8282C47.8542 37.7233 47.9781 37.6411 48.1207 37.5815C48.2633 37.522 48.4145 37.4922 48.5759 37.4922H48.8943C49.0556 37.4922 49.2069 37.522 49.3494 37.5815C49.4921 37.6411 49.616 37.7233 49.7225 37.8282C49.8292 37.9331 49.9127 38.055 49.9732 38.1953C50.0337 38.3356 50.0639 38.4845 50.0639 38.6433V40.4109C50.0639 40.5697 50.0337 40.7184 49.9732 40.8589ZM49.5857 38.6163C49.5857 38.5213 49.567 38.4335 49.531 38.3499C49.495 38.2676 49.446 38.1953 49.3826 38.1329C49.3207 38.0719 49.2472 38.0238 49.1622 37.987C49.0772 37.9514 48.9879 37.9331 48.8914 37.9331H48.573C48.4766 37.9331 48.3872 37.9514 48.3022 37.987C48.2172 38.0224 48.1452 38.0706 48.0818 38.1329C48.0199 38.1939 47.9709 38.2661 47.9334 38.3499C47.8974 38.432 47.8787 38.5213 47.8787 38.6163V40.4378C47.8787 40.5328 47.8974 40.6207 47.9334 40.7043C47.9694 40.7879 48.0185 40.8589 48.0818 40.9212C48.1438 40.9821 48.2172 41.0303 48.3022 41.0672C48.3872 41.1041 48.4766 41.1211 48.573 41.1211H48.8914C48.9879 41.1211 49.0772 41.1026 49.1622 41.0672C49.2457 41.0318 49.3192 40.9836 49.3826 40.9212C49.446 40.8589 49.4935 40.7879 49.531 40.7043C49.567 40.6221 49.5857 40.5328 49.5857 40.4378V38.6163Z" fill="#606161"/>
    <path d="M52.0319 38.0217C51.9355 38.0217 51.8461 38.0401 51.7611 38.0755C51.6761 38.111 51.6041 38.1591 51.5407 38.2216C51.4788 38.2825 51.4298 38.3547 51.3923 38.4384C51.3563 38.5206 51.3377 38.6099 51.3377 38.7048V41.4945H50.8594V37.5752H51.0192L51.28 37.9735C51.3895 37.8275 51.5249 37.7127 51.6905 37.6276C51.8548 37.5425 52.0348 37.5 52.2293 37.5H52.5088V38.0245H52.0305L52.0319 38.0217Z" fill="#606161"/>
    <path d="M57.8526 40.6689C57.782 40.8319 57.684 40.9751 57.5587 41.097C57.4333 41.2189 57.2879 41.3153 57.1208 41.3862C56.9537 41.457 56.7751 41.4911 56.5864 41.4911H54.8203V36.0039H56.5864C56.7751 36.0039 56.9537 36.0393 57.1208 36.1087C57.2879 36.1782 57.4333 36.2746 57.5587 36.3979C57.6826 36.5199 57.7805 36.6644 57.8526 36.8289C57.9246 36.9933 57.9591 37.169 57.9591 37.3548V40.1444C57.9591 40.3301 57.9231 40.5059 57.8526 40.6689ZM57.4579 37.3548C57.4579 37.2329 57.4348 37.118 57.3872 37.0117C57.3412 36.9054 57.2763 36.8133 57.1942 36.7324C57.1122 36.6517 57.0184 36.5893 56.9105 36.5425C56.8025 36.4957 56.6872 36.4731 56.5618 36.4731H55.3216V41.0191H56.5618C56.6858 41.0191 56.8025 40.9964 56.9105 40.9496C57.0184 40.9028 57.1122 40.8419 57.1942 40.7625C57.2763 40.6831 57.3397 40.5909 57.3872 40.4847C57.4333 40.3783 57.4579 40.2649 57.4579 40.1416V37.3519V37.3548Z" fill="#606161"/>
    <path d="M58.7969 36.6318V36.0039H59.353V36.6318H58.7969ZM58.8358 41.4925V37.573H59.314V41.4925H58.8358Z" fill="#606161"/>
    <path d="M62.8769 42.4181C62.8164 42.5513 62.7328 42.6647 62.6262 42.7582C62.5197 42.8518 62.3957 42.9255 62.2531 42.978C62.1106 43.0304 61.9592 43.0559 61.7979 43.0559H61.5992C61.4378 43.0559 61.2866 43.029 61.144 42.978C61.0014 42.9255 60.8775 42.8518 60.7709 42.7582C60.6643 42.6647 60.5807 42.5498 60.5203 42.4181C60.4597 42.2848 60.4295 42.1402 60.4295 41.9815V41.9659C60.4295 41.8128 60.4582 41.6724 60.5145 41.5448C60.5721 41.4172 60.6499 41.3067 60.7478 41.2117C60.624 41.138 60.5246 41.0374 60.4511 40.9112C60.3776 40.7851 60.3402 40.6447 60.3402 40.4917C60.3402 40.3541 60.3704 40.2251 60.4295 40.1075C60.4886 39.9898 60.5706 39.892 60.6743 39.8183C60.5505 39.7105 60.4511 39.583 60.379 39.4314C60.307 39.281 60.2695 39.1166 60.2695 38.938V38.6432C60.2695 38.4844 60.2999 38.3356 60.3603 38.1952C60.4208 38.0549 60.5044 37.933 60.611 37.8281C60.7176 37.7232 60.8414 37.641 60.984 37.5815C61.1267 37.5219 61.2779 37.4922 61.4393 37.4922H61.6381C61.8326 37.4922 62.0126 37.5347 62.1768 37.6198C62.341 37.7047 62.4779 37.821 62.5874 37.9656L62.8481 37.5673H63.008V38.938C63.008 39.0968 62.9777 39.2456 62.9172 39.3859C62.8568 39.5262 62.7731 39.6482 62.6666 39.7531C62.56 39.858 62.4361 39.9402 62.2935 39.9997C62.1509 40.0593 61.9996 40.089 61.8382 40.089H61.1454C61.0907 40.089 61.0388 40.1004 60.9898 40.1216C60.9408 40.1429 60.8977 40.1726 60.8602 40.2082C60.8227 40.2436 60.7939 40.2861 60.7724 40.3357C60.7521 40.3853 60.7407 40.4363 60.7407 40.4902C60.7407 40.5441 60.7507 40.5951 60.7724 40.6433C60.7925 40.6914 60.8227 40.734 60.8602 40.7708C60.8977 40.8077 60.9408 40.8361 60.9898 40.8573C61.0388 40.8786 61.0907 40.8885 61.1454 40.8885H61.7994C61.9607 40.8885 62.1119 40.9155 62.2546 40.9665C62.3972 41.0189 62.521 41.0926 62.6277 41.1862C62.7343 41.2797 62.8178 41.3946 62.8783 41.5264C62.9388 41.6596 62.9691 41.8043 62.9691 41.963V41.9786C62.9691 42.1374 62.9388 42.282 62.8783 42.4152L62.8769 42.4181ZM62.5326 38.6177C62.5326 38.5227 62.5139 38.4348 62.4779 38.3511C62.4419 38.269 62.3914 38.1967 62.328 38.1343C62.2646 38.0733 62.1912 38.0251 62.1062 37.9882C62.0213 37.9514 61.932 37.9345 61.8354 37.9345H61.4393C61.3428 37.9345 61.2535 37.9528 61.1684 37.9882C61.0834 38.0238 61.0114 38.0719 60.9495 38.1343C60.8876 38.1967 60.8386 38.2675 60.8011 38.3511C60.7636 38.4348 60.7463 38.5227 60.7463 38.6177V38.9664C60.7463 39.0613 60.7651 39.1492 60.8011 39.2328C60.8371 39.3165 60.8861 39.3874 60.9495 39.4497C61.0129 39.5121 61.0849 39.5589 61.1684 39.5957C61.252 39.6311 61.3428 39.6496 61.4393 39.6496H61.8354C61.932 39.6496 62.0213 39.6311 62.1062 39.5957C62.1898 39.5603 62.2646 39.5121 62.328 39.4497C62.3914 39.3888 62.4419 39.3165 62.4779 39.2328C62.5139 39.1506 62.5326 39.0613 62.5326 38.9664V38.6177ZM62.5124 41.9432C62.5124 41.8482 62.4937 41.7645 62.4577 41.688C62.4216 41.6129 62.3727 41.5491 62.3093 41.4981C62.2474 41.4471 62.174 41.4073 62.0903 41.379C62.0054 41.3506 61.9161 41.3365 61.8196 41.3365H61.5747C61.4782 41.3365 61.3888 41.3506 61.3038 41.379C61.2203 41.4073 61.1468 41.4471 61.0834 41.4981C61.02 41.5491 60.9725 41.6129 60.9351 41.688C60.899 41.7631 60.8804 41.8482 60.8804 41.9432V42.0041C60.8804 42.099 60.899 42.1827 60.9351 42.2564C60.9711 42.3301 61.02 42.3939 61.0834 42.4464C61.1454 42.4988 61.2188 42.5385 61.3038 42.5668C61.3874 42.5952 61.4782 42.6094 61.5747 42.6094H61.8196C61.9161 42.6094 62.0054 42.5952 62.0903 42.5668C62.174 42.5385 62.2474 42.4988 62.3093 42.4464C62.3713 42.3939 62.4203 42.3316 62.4577 42.2564C62.4937 42.1827 62.5124 42.0977 62.5124 42.0041V41.9432Z" fill="#606161"/>
    <path d="M63.8477 36.6318V36.0039H64.4037V36.6318H63.8477ZM63.8865 41.4925V37.573H64.3648V41.4925H63.8865Z" fill="#606161"/>
    <path d="M66.7743 41.4918C66.6288 41.4918 66.492 41.465 66.3637 41.4111C66.2356 41.3572 66.1246 41.2835 66.0295 41.1885C65.9345 41.0935 65.8595 40.9844 65.8034 40.8597C65.7471 40.735 65.7198 40.6002 65.7198 40.4585V38.0204H65.0039V37.5724H65.7198V36.6312L66.1981 36.5547V37.5724H67.2093V38.0204H66.1981V40.4812C66.1981 40.5606 66.2125 40.6343 66.2427 40.7009C66.2729 40.7689 66.3133 40.8285 66.3652 40.8781C66.417 40.9277 66.4775 40.9688 66.5481 40.9985C66.6186 41.0284 66.6936 41.0425 66.7743 41.0425H67.2093V41.4905H66.7743V41.4918Z" fill="#606161"/>
    <path d="M70.4318 41.4931L70.1668 41.1034C70.0574 41.2437 69.9219 41.357 69.7578 41.4421C69.595 41.5272 69.4149 41.5697 69.2204 41.5697H69.0994C68.9381 41.5697 68.7869 41.54 68.6442 41.4804C68.5016 41.4208 68.3778 41.3387 68.2711 41.2338C68.1645 41.1289 68.081 41.0069 68.0205 40.8666C67.96 40.7262 67.9297 40.5774 67.9297 40.4187V40.3804C67.9297 40.2217 67.96 40.0728 68.0205 39.9325C68.081 39.7921 68.1645 39.6702 68.2711 39.5654C68.3778 39.4605 68.5016 39.3782 68.6442 39.3187C68.7869 39.2591 68.9381 39.2294 69.0994 39.2294H70.1106V38.6241C70.1106 38.5291 70.0919 38.4413 70.0559 38.3576C70.0199 38.2753 69.9709 38.2031 69.9075 38.1407C69.8456 38.0798 69.7721 38.0316 69.6871 37.9947C69.6021 37.9579 69.5128 37.9408 69.4164 37.9408H69.1369C69.0403 37.9408 68.951 37.9593 68.8661 37.9947C68.7811 38.0301 68.709 38.0784 68.6456 38.1407C68.5837 38.2016 68.5348 38.274 68.4973 38.3576C68.4598 38.4413 68.4425 38.5291 68.4425 38.6241V38.7658L67.9643 38.6892V38.651C67.9643 38.4923 67.9946 38.3434 68.055 38.2031C68.1155 38.0628 68.1991 37.9408 68.3057 37.8359C68.4123 37.7311 68.5361 37.6489 68.6788 37.5893C68.8214 37.5297 68.9726 37.5 69.134 37.5H69.4134C69.5748 37.5 69.7261 37.5297 69.8687 37.5893C70.0112 37.6489 70.1352 37.7311 70.2418 37.8359C70.3483 37.9408 70.4318 38.0628 70.4924 38.2031C70.5529 38.3434 70.5831 38.4923 70.5831 38.651V41.4945H70.4232L70.4318 41.4931ZM70.1135 39.5951H69.1023C69.0058 39.5951 68.9165 39.6135 68.8315 39.649C68.7465 39.6844 68.6745 39.734 68.6125 39.7964C68.5506 39.8588 68.5016 39.931 68.4641 40.0147C68.4267 40.0983 68.4094 40.1862 68.4094 40.2811V40.4456C68.4094 40.5406 68.4281 40.6284 68.4641 40.7121C68.5001 40.7957 68.5492 40.8666 68.6125 40.929C68.6745 40.9899 68.7479 41.0381 68.8315 41.075C68.915 41.1118 69.0058 41.1289 69.1023 41.1289H69.4207C69.5172 41.1289 69.6065 41.1104 69.6914 41.075C69.7764 41.0396 69.8484 40.9913 69.9118 40.929C69.9752 40.8666 70.0228 40.7957 70.0602 40.7121C70.0962 40.6299 70.115 40.5406 70.115 40.4456V39.5965L70.1135 39.5951Z" fill="#606161"/>
    <path d="M71.5469 41.4912V36.0039H72.0252V41.4912H71.5469Z" fill="#606161"/>
    <path d="M77.7613 40.744C77.6907 40.907 77.5928 41.0502 77.4674 41.1721C77.3421 41.2939 77.1981 41.3904 77.0324 41.4612C76.8668 41.5307 76.6895 41.5661 76.4995 41.5661H76.1033C75.9146 41.5661 75.736 41.5307 75.5689 41.4612C75.4018 41.3918 75.2563 41.2939 75.1309 41.1721C75.0071 41.0502 74.9092 40.907 74.8371 40.744C74.7651 40.5809 74.7305 40.4052 74.7305 40.2195V37.2724C74.7305 37.0868 74.7665 36.911 74.8371 36.7479C74.9077 36.5849 75.0071 36.4418 75.1309 36.3199C75.2549 36.198 75.4018 36.1015 75.5689 36.0307C75.736 35.9612 75.9146 35.9258 76.1033 35.9258H76.4995C76.6882 35.9258 76.8668 35.9612 77.0324 36.0307C77.1981 36.1015 77.3436 36.198 77.4674 36.3199C77.5914 36.4418 77.6893 36.5849 77.7613 36.7479C77.8319 36.911 77.8679 37.0868 77.8679 37.2724V37.495L77.3667 37.5715V37.2739C77.3667 37.1519 77.3436 37.0371 77.2975 36.9308C77.2514 36.8246 77.1866 36.7324 77.1073 36.653C77.0281 36.5736 76.933 36.5112 76.825 36.4659C76.7169 36.4206 76.6017 36.3964 76.4764 36.3964H76.1264C76.0024 36.3964 75.8858 36.4191 75.7777 36.4659C75.6697 36.5127 75.5761 36.5736 75.4939 36.653C75.4119 36.7324 75.3485 36.8246 75.3009 36.9308C75.2534 37.0371 75.2303 37.1506 75.2303 37.2739V40.2209C75.2303 40.3428 75.2534 40.4577 75.3009 40.5639C75.3485 40.6702 75.4119 40.7624 75.4939 40.8432C75.5761 40.924 75.6697 40.9864 75.7777 41.0331C75.8858 41.0799 76.0011 41.1026 76.1264 41.1026H76.4764C76.6003 41.1026 76.7169 41.0799 76.825 41.0331C76.933 40.9864 77.0266 40.924 77.1073 40.8432C77.188 40.7624 77.2514 40.6702 77.2975 40.5639C77.3436 40.4577 77.3667 40.3442 77.3667 40.2209V39.9218L77.8679 40.0026V40.2209C77.8679 40.4066 77.8319 40.5824 77.7613 40.7454V40.744Z" fill="#606161"/>
    <path d="M81.235 40.8589C81.1745 40.9992 81.0909 41.1211 80.9844 41.226C80.8778 41.3309 80.7538 41.4131 80.6113 41.4726C80.4687 41.5321 80.3174 41.5619 80.156 41.5619H79.8377C79.6764 41.5619 79.5251 41.5321 79.3825 41.4726C79.2399 41.4131 79.116 41.3309 79.0095 41.226C78.9028 41.1211 78.8193 40.9992 78.7587 40.8589C78.6983 40.7184 78.668 40.5697 78.668 40.4109V38.6433C78.668 38.4845 78.6983 38.3356 78.7587 38.1953C78.8193 38.055 78.9028 37.9331 79.0095 37.8282C79.116 37.7233 79.2399 37.6411 79.3825 37.5815C79.5251 37.522 79.6764 37.4922 79.8377 37.4922H80.156C80.3174 37.4922 80.4687 37.522 80.6113 37.5815C80.7538 37.6411 80.8778 37.7233 80.9844 37.8282C81.0909 37.9331 81.1745 38.055 81.235 38.1953C81.2955 38.3356 81.3257 38.4845 81.3257 38.6433V40.4109C81.3257 40.5697 81.2955 40.7184 81.235 40.8589ZM80.8475 38.6163C80.8475 38.5213 80.8288 38.4335 80.7928 38.3499C80.7568 38.2676 80.7077 38.1953 80.6444 38.1329C80.5824 38.0719 80.509 38.0238 80.424 37.987C80.339 37.9501 80.2496 37.9331 80.1532 37.9331H79.8348C79.7383 37.9331 79.649 37.9514 79.564 37.987C79.479 38.0224 79.407 38.0706 79.3451 38.1329C79.2832 38.1953 79.2341 38.2661 79.1967 38.3499C79.1592 38.4335 79.1419 38.5213 79.1419 38.6163V40.4378C79.1419 40.5328 79.1607 40.6207 79.1967 40.7043C79.2327 40.7879 79.2817 40.8589 79.3451 40.9212C79.407 40.9821 79.4805 41.0303 79.564 41.0672C79.6475 41.1041 79.7383 41.1211 79.8348 41.1211H80.1532C80.2496 41.1211 80.339 41.1026 80.424 41.0672C80.509 41.0318 80.581 40.9836 80.6444 40.9212C80.7077 40.8589 80.7553 40.7879 80.7928 40.7043C80.8288 40.6221 80.8475 40.5328 80.8475 40.4378V38.6163Z" fill="#606161"/>
    <path d="M86.3263 41.4868V38.6163C86.3263 38.5213 86.3076 38.4335 86.2716 38.3499C86.2355 38.2676 86.1866 38.1953 86.1232 38.1329C86.0613 38.0719 85.9878 38.0238 85.9028 37.987C85.8178 37.9501 85.7285 37.9331 85.6319 37.9331H85.3943C85.2978 37.9331 85.2085 37.9514 85.1235 37.987C85.0385 38.0224 84.965 38.0706 84.9017 38.1329C84.8383 38.1939 84.7878 38.2661 84.7518 38.3499C84.7158 38.432 84.6971 38.5213 84.6971 38.6163V41.4868H84.2232V38.6163C84.2232 38.5213 84.2044 38.4335 84.1684 38.3499C84.1324 38.2661 84.082 38.1953 84.0186 38.1329C83.9553 38.0719 83.8818 38.0238 83.7968 37.987C83.7118 37.9501 83.6225 37.9331 83.526 37.9331H83.2883C83.1918 37.9331 83.1024 37.9514 83.0174 37.987C82.9325 38.0224 82.8604 38.0706 82.7985 38.1329C82.7366 38.1953 82.6876 38.2661 82.6501 38.3499C82.6126 38.4335 82.5954 38.5213 82.5954 38.6163V41.4868H82.1172V37.5674H82.277L82.5378 37.9657C82.6473 37.8196 82.7841 37.7048 82.9484 37.6198C83.1125 37.5348 83.2926 37.4922 83.4871 37.4922H83.526C83.7521 37.4922 83.9553 37.5475 84.1367 37.6567C84.3183 37.7658 84.458 37.9118 84.5574 38.0932C84.6064 38.0039 84.6668 37.9217 84.7403 37.848C84.8124 37.7743 84.893 37.7105 84.9808 37.658C85.0688 37.6056 85.1652 37.5645 85.269 37.5361C85.3727 37.5064 85.4807 37.4922 85.5916 37.4922H85.6306C85.7919 37.4922 85.9431 37.522 86.0857 37.5815C86.2284 37.6411 86.3522 37.7233 86.4588 37.8282C86.5655 37.9331 86.649 38.055 86.7095 38.1953C86.77 38.3356 86.8002 38.4845 86.8002 38.6433V41.4868H86.322H86.3263Z" fill="#606161"/>
    <path d="M91.8029 41.4868V38.6163C91.8029 38.5213 91.7841 38.4335 91.7481 38.3499C91.7121 38.2676 91.6631 38.1953 91.5997 38.1329C91.5378 38.0719 91.4644 38.0238 91.3793 37.987C91.2944 37.9501 91.2051 37.9331 91.1086 37.9331H90.8709C90.7744 37.9331 90.6851 37.9514 90.6001 37.987C90.5151 38.0224 90.4416 38.0706 90.3782 38.1329C90.3148 38.1939 90.2645 38.2661 90.2285 38.3499C90.1924 38.432 90.1737 38.5213 90.1737 38.6163V41.4868H89.6997V38.6163C89.6997 38.5213 89.6811 38.4335 89.6451 38.3499C89.6091 38.2661 89.5586 38.1953 89.4952 38.1329C89.4318 38.0719 89.3583 38.0238 89.2734 37.987C89.1884 37.9501 89.0991 37.9331 89.0025 37.9331H88.7648C88.6684 37.9331 88.5791 37.9514 88.4941 37.987C88.4091 38.0224 88.3371 38.0706 88.2751 38.1329C88.2131 38.1953 88.1642 38.2661 88.1267 38.3499C88.0893 38.4335 88.072 38.5213 88.072 38.6163V41.4868H87.5938V37.5674H87.7536L88.0143 37.9657C88.1239 37.8196 88.2607 37.7048 88.4249 37.6198C88.5892 37.5348 88.7692 37.4922 88.9637 37.4922H89.0025C89.2287 37.4922 89.4318 37.5475 89.6134 37.6567C89.7948 37.7658 89.9346 37.9118 90.034 38.0932C90.0829 38.0039 90.1435 37.9217 90.2169 37.848C90.2889 37.7743 90.3696 37.7105 90.4575 37.658C90.5453 37.6056 90.6419 37.5645 90.7456 37.5361C90.8493 37.5064 90.9573 37.4922 91.0683 37.4922H91.1071C91.2685 37.4922 91.4198 37.522 91.5624 37.5815C91.7049 37.6411 91.8289 37.7233 91.9355 37.8282C92.042 37.9331 92.1255 38.055 92.1861 38.1953C92.2466 38.3356 92.2768 38.4845 92.2768 38.6433V41.4868H91.7986H91.8029Z" fill="#606161"/>
    <path d="M95.6489 40.8589C95.5885 40.9992 95.5049 41.1211 95.3983 41.226C95.2917 41.3309 95.1678 41.4131 95.0252 41.4726C94.8826 41.5321 94.7313 41.5619 94.57 41.5619H94.2516C94.0903 41.5619 93.9391 41.5321 93.7965 41.4726C93.6538 41.4131 93.53 41.3309 93.4234 41.226C93.3168 41.1211 93.2333 40.9992 93.1727 40.8589C93.1123 40.7184 93.082 40.5697 93.082 40.4109V38.6433C93.082 38.4845 93.1123 38.3356 93.1727 38.1953C93.2333 38.055 93.3168 37.9331 93.4234 37.8282C93.53 37.7233 93.6538 37.6411 93.7965 37.5815C93.9391 37.522 94.0903 37.4922 94.2516 37.4922H94.57C94.7313 37.4922 94.8826 37.522 95.0252 37.5815C95.1678 37.6411 95.2917 37.7233 95.3983 37.8282C95.5049 37.9331 95.5885 38.055 95.6489 38.1953C95.7095 38.3356 95.7397 38.4845 95.7397 38.6433V39.5661H93.5574V40.4393C93.5574 40.5342 93.5761 40.6221 93.6121 40.7057C93.6481 40.7894 93.6971 40.8602 93.7605 40.9226C93.8224 40.9836 93.8958 41.0318 93.9794 41.0686C94.0629 41.1055 94.1537 41.1224 94.2503 41.1224H94.5686C94.6651 41.1224 94.7544 41.104 94.8394 41.0686C94.9243 41.0331 94.9964 40.985 95.0598 40.9226C95.1231 40.8602 95.1707 40.7894 95.2081 40.7057C95.2441 40.6235 95.2629 40.5342 95.2629 40.4393V40.1784L95.7412 40.255V40.4123C95.7412 40.571 95.7109 40.7199 95.6504 40.8602L95.6489 40.8589ZM95.2614 38.6163C95.2614 38.5213 95.2428 38.4335 95.2068 38.3499C95.1707 38.2676 95.1218 38.1953 95.0584 38.1329C94.9964 38.0719 94.923 38.0238 94.838 37.987C94.753 37.9501 94.6637 37.9331 94.5671 37.9331H94.2488C94.1522 37.9331 94.0629 37.9514 93.978 37.987C93.893 38.0224 93.821 38.0706 93.759 38.1329C93.6971 38.1953 93.6481 38.2661 93.6107 38.3499C93.5732 38.4335 93.5559 38.5213 93.5559 38.6163V39.1975H95.26V38.6163H95.2614Z" fill="#606161"/>
    <path d="M97.7102 38.0217C97.6137 38.0217 97.5244 38.0401 97.4394 38.0755C97.3543 38.111 97.2823 38.1591 97.2204 38.2216C97.1585 38.2839 97.1095 38.3547 97.072 38.4384C97.0346 38.522 97.0173 38.6099 97.0173 38.7048V41.4945H96.5391V37.5752H96.6989L96.9596 37.9735C97.0692 37.8275 97.206 37.7127 97.3702 37.6276C97.5344 37.5425 97.7145 37.5 97.909 37.5H98.1884V38.0245H97.7102V38.0217Z" fill="#606161"/>
    <path d="M101.239 40.8589C101.178 40.9992 101.095 41.1211 100.989 41.226C100.882 41.3309 100.758 41.4131 100.615 41.4726C100.473 41.5321 100.321 41.5619 100.16 41.5619H99.8416C99.6807 41.5619 99.5286 41.5321 99.3863 41.4726C99.244 41.4131 99.1203 41.3309 99.0134 41.226C98.9064 41.1211 98.823 40.9992 98.7631 40.8589C98.7023 40.7184 98.6719 40.5697 98.6719 40.4109V38.6433C98.6719 38.4845 98.7023 38.3356 98.7631 38.1953C98.823 38.055 98.9064 37.9331 99.0134 37.8282C99.1203 37.7233 99.244 37.6411 99.3863 37.5815C99.5286 37.522 99.6807 37.4922 99.8416 37.4922H100.16C100.321 37.4922 100.473 37.522 100.615 37.5815C100.758 37.6411 100.882 37.7233 100.989 37.8282C101.095 37.9331 101.178 38.055 101.239 38.1953C101.3 38.3356 101.329 38.4845 101.329 38.6433V38.8006L100.851 38.8771V38.6163C100.851 38.5213 100.833 38.4335 100.796 38.3499C100.761 38.2676 100.712 38.1953 100.648 38.1329C100.586 38.0719 100.513 38.0238 100.427 37.987C100.343 37.9501 100.254 37.9331 100.158 37.9331H99.8386C99.7425 37.9331 99.6532 37.9514 99.5678 37.987C99.4834 38.0224 99.4108 38.0706 99.349 38.1329C99.2872 38.1953 99.2381 38.2661 99.2008 38.3499C99.1635 38.4335 99.1458 38.5213 99.1458 38.6163V40.4378C99.1458 40.5328 99.1645 40.6207 99.2008 40.7043C99.2361 40.7879 99.2852 40.8589 99.349 40.9212C99.4108 40.9821 99.4844 41.0303 99.5678 41.0672C99.6512 41.1041 99.7425 41.1211 99.8386 41.1211H100.158C100.254 41.1211 100.343 41.1026 100.427 41.0672C100.513 41.0318 100.584 40.9836 100.648 40.9212C100.712 40.8589 100.759 40.7879 100.796 40.7043C100.833 40.6221 100.851 40.5328 100.851 40.4378V40.1769L101.329 40.2535V40.4109C101.329 40.5697 101.3 40.7184 101.239 40.8589Z" fill="#606161"/>
    <path d="M104.692 40.8589C104.632 40.9992 104.549 41.1211 104.442 41.226C104.335 41.3309 104.211 41.4131 104.069 41.4726C103.926 41.5321 103.775 41.5619 103.614 41.5619H103.295C103.134 41.5619 102.983 41.5321 102.84 41.4726C102.697 41.4131 102.573 41.3309 102.467 41.226C102.361 41.1211 102.277 40.9992 102.216 40.8589C102.155 40.7184 102.125 40.5697 102.125 40.4109V38.6433C102.125 38.4845 102.155 38.3356 102.216 38.1953C102.277 38.055 102.361 37.9331 102.467 37.8282C102.573 37.7233 102.697 37.6411 102.84 37.5815C102.983 37.522 103.134 37.4922 103.295 37.4922H103.614C103.775 37.4922 103.926 37.522 104.069 37.5815C104.211 37.6411 104.335 37.7233 104.442 37.8282C104.549 37.9331 104.632 38.055 104.692 38.1953C104.753 38.3356 104.783 38.4845 104.783 38.6433V39.5661H102.601V40.4393C102.601 40.5342 102.62 40.6221 102.656 40.7057C102.691 40.7894 102.74 40.8602 102.804 40.9226C102.866 40.9836 102.939 41.0318 103.023 41.0686C103.106 41.1055 103.198 41.1224 103.294 41.1224H103.612C103.709 41.1224 103.798 41.104 103.883 41.0686C103.968 41.0331 104.04 40.985 104.103 40.9226C104.167 40.8602 104.214 40.7894 104.251 40.7057C104.288 40.6235 104.306 40.5342 104.306 40.4393V40.1784L104.784 40.255V40.4123C104.784 40.571 104.754 40.7199 104.694 40.8602L104.692 40.8589ZM104.304 38.6163C104.304 38.5213 104.286 38.4335 104.251 38.3499C104.214 38.2676 104.165 38.1953 104.102 38.1329C104.04 38.0719 103.967 38.0238 103.882 37.987C103.796 37.9501 103.707 37.9331 103.611 37.9331H103.293C103.196 37.9331 103.106 37.9514 103.022 37.987C102.937 38.0224 102.865 38.0706 102.802 38.1329C102.74 38.1953 102.691 38.2661 102.654 38.3499C102.617 38.4335 102.599 38.5213 102.599 38.6163V39.1975H104.304L104.304 38.6163Z" fill="#606161"/>
    <path d="M13.2009 6.98828C17.0211 6.98828 20.0923 8.13081 22.4158 10.4173C24.7393 12.7037 25.9019 15.7259 25.9019 19.4851C25.9019 23.2443 24.735 26.2467 22.4043 28.5416C20.0721 30.8366 17.0038 31.9834 13.2023 31.9834C9.40087 31.9834 6.35132 30.8324 4.01195 28.5289C1.66969 26.2268 0.5 23.2118 0.5 19.4851C0.5 15.7584 1.66536 12.7235 3.99754 10.43C6.32972 8.13506 9.39798 6.98828 13.2009 6.98828ZM13.2009 11.9922C10.281 11.9922 8.10297 13.1262 6.66535 15.397C5.9451 16.5367 5.58642 17.899 5.58642 19.4851C5.58642 20.9339 5.90909 22.2323 6.55443 23.3791C7.23147 24.5839 8.20813 25.4982 9.48153 26.1262C10.6397 26.6946 11.8786 26.9796 13.2023 26.9796C16.1208 26.9796 18.3002 25.8413 19.7379 23.5634C20.4581 22.4321 20.8168 21.0742 20.8168 19.4865C20.8168 17.1108 20.0404 15.2482 18.4846 13.8973C17.0283 12.6285 15.268 11.9935 13.2009 11.9935V11.9922Z" fill="url(#paint0_linear_2783_18465)"/>
    <path d="M101.686 24.8802L105.394 28.5289C103.905 30.0258 102.029 31.0436 99.7633 31.5809C98.6554 31.8487 97.4682 31.9834 96.2034 31.9834C92.4163 31.9834 89.3539 30.8324 87.013 28.5289C84.6736 26.2268 83.5039 23.2118 83.5039 19.4851C83.5039 15.7584 84.6693 12.7235 87.0015 10.43C89.3322 8.13506 92.4004 6.98828 96.2034 6.98828C100.007 6.98828 103.096 8.13081 105.42 10.4173L101.686 14.0915C100.231 12.691 98.4031 11.9922 96.2034 11.9922C93.285 11.9922 91.1069 13.1262 89.6679 15.397C88.9491 16.5367 88.5889 17.899 88.5889 19.4851C88.5889 20.9339 88.9131 22.2323 89.5569 23.3791C90.2354 24.5839 91.2106 25.4982 92.4841 26.1262C93.6422 26.6946 94.8825 26.9796 96.2049 26.9796C98.4045 26.9796 100.232 26.2807 101.688 24.8802H101.686Z" fill="url(#paint1_linear_2783_18465)"/>
    <path d="M65.875 11.4609C66.2568 11.4609 66.5665 11.1562 66.5665 10.7806C66.5665 10.4049 66.2568 10.1016 65.875 10.1016C65.4933 10.1016 65.1836 10.4063 65.1836 10.7806C65.1836 11.1548 65.4933 11.4609 65.875 11.4609Z" fill="url(#paint2_linear_2783_18465)"/>
    <path d="M57.0078 19.0489C57.0078 19.1296 57.1533 19.1311 57.1548 19.0489C57.1548 19.0078 57.1231 18.9766 57.0813 18.9766C57.0395 18.9766 57.0078 19.0078 57.0078 19.0489Z" fill="url(#paint3_linear_2783_18465)"/>
    <path d="M77.529 10.4185C76.0267 8.94145 74.2115 7.94494 72.0868 7.42188L70.7861 8.70331C71.0641 9.3412 71.2196 10.0429 71.2196 10.7799C71.2196 11.3442 71.1289 11.8885 70.9604 12.3988C71.9284 12.7135 72.8086 13.2096 73.5979 13.8971C75.1522 15.248 75.9286 17.1106 75.9286 19.4864C75.9286 21.074 75.57 22.432 74.8497 23.5631C73.4121 25.8411 71.234 26.9794 68.3142 26.9794H60.6982V20.4687C60.1235 21.882 58.7204 22.8827 57.0826 22.8827C56.5625 22.8827 56.067 22.7806 55.6133 22.5992V31.9846H68.3142C72.1171 31.9846 75.1854 30.8379 77.5161 28.5429C79.8497 26.2479 81.0137 23.2301 81.0137 19.4864C81.0137 15.7427 79.8526 12.705 77.5305 10.4185H77.529Z" fill="url(#paint4_linear_2783_18465)"/>
    <path d="M69.5859 12.2301L66.205 10.8113C66.0192 10.7332 65.829 10.919 65.9097 11.1018L67.3516 14.4287C67.3876 14.5124 67.4726 14.5676 67.5692 14.5634C67.6628 14.5592 67.7449 14.4996 67.7737 14.4117L68.2188 13.0835L69.5686 12.6455C69.6579 12.6172 69.7198 12.5363 69.7227 12.4442C69.7271 12.3521 69.6723 12.267 69.5859 12.2301ZM67.9696 12.6965C67.9019 12.7192 67.8486 12.7702 67.8256 12.8382L67.5317 13.7143L66.5435 11.435L68.8599 12.4073L67.9696 12.6965Z" fill="#939598"/>
    <path d="M65.8774 8.32812C64.5046 8.32812 63.3867 9.42812 63.3867 10.7791C63.3867 12.1299 64.5046 13.2299 65.8774 13.2299C66.0574 13.2299 66.2043 13.0853 66.2043 12.9081C66.2043 12.731 66.0574 12.5863 65.8774 12.5863C64.8647 12.5863 64.0408 11.7756 64.0408 10.7791C64.0408 9.7825 64.8647 8.97168 65.8774 8.97168C66.8901 8.97168 67.714 9.7825 67.714 10.7791C67.714 10.9562 67.861 11.1008 68.041 11.1008C68.221 11.1008 68.368 10.9562 68.368 10.7791C68.368 9.42812 67.2501 8.32812 65.8774 8.32812Z" fill="#44823D"/>
    <path d="M68.66 8.03173C67.9125 7.29603 66.9213 6.89062 65.8712 6.89062C64.8211 6.89062 63.83 7.29603 63.0825 8.03173C61.5454 9.54422 61.5454 12.0064 63.0825 13.5204C63.83 14.2561 64.8211 14.6614 65.8712 14.6614C66.0513 14.6614 66.1982 14.5169 66.1982 14.3397C66.1982 14.1625 66.0513 14.0179 65.8712 14.0179C64.0547 14.0179 62.5768 12.5635 62.5768 10.776C62.5768 8.98855 64.0547 7.53418 65.8712 7.53418C67.6877 7.53418 69.1657 8.98855 69.1657 10.776C69.1657 10.9533 69.3126 11.0978 69.4927 11.0978C69.6727 11.0978 69.8196 10.9533 69.8196 10.776C69.8196 9.74267 69.4077 8.76742 68.66 8.03173Z" fill="#F29C49"/>
    <path d="M27.4414 31.9833H32.5264V15.9754L42.6834 23.9715V18.9862L27.4414 6.98828V31.9833Z" fill="url(#paint5_linear_2783_18465)"/>
    <path d="M60.526 10.7787C60.526 10.0416 60.68 9.33995 60.9595 8.70206L60.0722 7.82745C59.1287 7.92101 58.2471 7.58222 57.6118 6.98828H46.3125V27.9789L51.3974 31.982V11.9921H60.6714C60.5778 11.6023 60.5273 11.1955 60.5273 10.7787H60.526Z" fill="url(#paint6_linear_2783_18465)"/>
    <path d="M71.9867 15.2925C71.7043 15.2925 71.4421 15.3733 71.2146 15.5051L69.9152 14.2266C69.7481 14.4164 69.568 14.5937 69.375 14.7581L70.6743 16.0367C70.5389 16.2607 70.4568 16.5187 70.4568 16.7965C70.4568 17.6257 71.1425 18.3005 71.9852 18.3005C72.8279 18.3005 73.5136 17.6257 73.5136 16.7965C73.5136 15.9672 72.8279 15.2925 71.9852 15.2925H71.9867ZM71.9867 17.5478C71.5646 17.5478 71.2232 17.2104 71.2232 16.7965C71.2232 16.3826 71.566 16.0452 71.9867 16.0452C72.4072 16.0452 72.7501 16.3826 72.7501 16.7965C72.7501 17.2104 72.4072 17.5478 71.9867 17.5478Z" fill="url(#paint7_linear_2783_18465)"/>
    <path d="M73.5136 1.375C72.2488 1.375 71.2217 2.3871 71.2217 3.63027C71.2217 4.02009 71.3226 4.38581 71.4997 4.70617L69.375 6.79701C69.568 6.96144 69.7481 7.13863 69.9152 7.32858L71.978 5.29869C72.3842 5.66157 72.9229 5.88555 73.515 5.88555C74.7798 5.88555 75.8069 4.87344 75.8069 3.63027C75.8069 2.3871 74.7783 1.375 73.515 1.375H73.5136ZM73.5136 5.13426C72.6708 5.13426 71.9852 4.45952 71.9852 3.63027C71.9852 2.80102 72.6708 2.12628 73.5136 2.12628C74.3562 2.12628 75.042 2.80102 75.042 3.63027C75.042 4.45952 74.3562 5.13426 73.5136 5.13426Z" fill="url(#paint8_linear_2783_18465)"/>
    <path d="M59.7628 6.26579C60.0451 6.26579 60.3073 6.18499 60.5349 6.05316L61.8342 7.33176C62.0013 7.14181 62.1814 6.96462 62.3744 6.80019L61.0751 5.52158C61.209 5.29762 61.2911 5.04105 61.2911 4.7618C61.2911 3.93255 60.6055 3.25781 59.7628 3.25781C58.9201 3.25781 58.2344 3.93255 58.2344 4.7618C58.2344 5.59105 58.9201 6.26579 59.7628 6.26579ZM59.7628 4.01052C60.1848 4.01052 60.5262 4.34788 60.5262 4.7618C60.5262 5.17571 60.1834 5.51309 59.7628 5.51309C59.3422 5.51309 58.9993 5.17571 58.9993 4.7618C58.9993 4.34788 59.3422 4.01052 59.7628 4.01052Z" fill="url(#paint9_linear_2783_18465)"/>
    <path d="M62.37 14.7581C62.177 14.5937 61.997 14.4164 61.8298 14.2266L58.6218 17.3833C58.2142 17.0204 57.6768 16.7965 57.0848 16.7965C55.8201 16.7965 54.793 17.8086 54.793 19.0518C54.793 20.295 55.8215 21.307 57.0848 21.307C58.3482 21.307 59.3767 20.295 59.3767 19.0518C59.3767 18.662 59.2759 18.2962 59.0987 17.9758L62.37 14.7567V14.7581ZM57.0833 20.5557C56.2407 20.5557 55.5551 19.8811 55.5551 19.0518C55.5551 18.2225 56.2407 17.5478 57.0833 17.5478C57.9261 17.5478 58.6117 18.2225 58.6117 19.0518C58.6117 19.8811 57.9261 20.5557 57.0833 20.5557Z" fill="url(#paint10_linear_2783_18465)"/>
    <path d="M66.2571 17.5795V16.0273C66.1303 16.0358 66.0036 16.0415 65.8739 16.0415C65.7442 16.0415 65.6189 16.0358 65.4922 16.0273V17.5795C64.4104 17.7595 63.582 18.6851 63.582 19.8021C63.582 21.0467 64.6106 22.0574 65.8739 22.0574C67.1372 22.0574 68.1657 21.0454 68.1657 19.8021C68.1657 18.6866 67.3375 17.7595 66.2556 17.5795H66.2571ZM65.8739 21.3062C65.0312 21.3062 64.3456 20.6314 64.3456 19.8021C64.3456 18.9729 65.0312 18.2982 65.8739 18.2982C66.7166 18.2982 67.4023 18.9729 67.4023 19.8021C67.4023 20.6314 66.7166 21.3062 65.8739 21.3062Z" fill="url(#paint11_linear_2783_18465)"/>
  </g>
  <defs>
    <linearGradient id="paint0_linear_2783_18465" x1="17.5858" y1="20.5029" x2="88.195" y2="37.4763" gradientUnits="userSpaceOnUse">
      <stop stop-color="#1C75BC"/>
      <stop offset="1" stop-color="#00AEEF"/>
    </linearGradient>
    <linearGradient id="paint1_linear_2783_18465" x1="21.9844" y1="2.20416" x2="92.5922" y2="19.179" gradientUnits="userSpaceOnUse">
      <stop stop-color="#1C75BC"/>
      <stop offset="1" stop-color="#00AEEF"/>
    </linearGradient>
    <linearGradient id="paint2_linear_2783_18465" x1="63.2648" y1="10.2135" x2="67.7595" y2="11.2221" gradientUnits="userSpaceOnUse">
      <stop stop-color="#1C75BC"/>
      <stop offset="1" stop-color="#00AEEF"/>
    </linearGradient>
    <linearGradient id="paint3_linear_2783_18465" x1="56.8062" y1="18.9836" x2="57.2823" y2="19.0904" gradientUnits="userSpaceOnUse">
      <stop stop-color="#1C75BC"/>
      <stop offset="1" stop-color="#00AEEF"/>
    </linearGradient>
    <linearGradient id="paint4_linear_2783_18465" x1="22.2785" y1="10.6793" x2="102.01" y2="28.5538" gradientUnits="userSpaceOnUse">
      <stop stop-color="#1C75BC"/>
      <stop offset="1" stop-color="#00AEEF"/>
    </linearGradient>
    <linearGradient id="paint5_linear_2783_18465" x1="24.0433" y1="18.3483" x2="76.7354" y2="36.5657" gradientUnits="userSpaceOnUse">
      <stop stop-color="#1C75BC"/>
      <stop offset="1" stop-color="#00AEEF"/>
    </linearGradient>
    <linearGradient id="paint6_linear_2783_18465" x1="26.8513" y1="10.2273" x2="79.5433" y2="28.4462" gradientUnits="userSpaceOnUse">
      <stop offset="0.05" stop-color="#1C75BC"/>
      <stop offset="1" stop-color="#00AEEF"/>
    </linearGradient>
    <linearGradient id="paint7_linear_2783_18465" x1="60.2091" y1="13.7843" x2="78.249" y2="18.12" gradientUnits="userSpaceOnUse">
      <stop stop-color="#1C75BC"/>
      <stop offset="1" stop-color="#00AEEF"/>
    </linearGradient>
    <linearGradient id="paint8_linear_2783_18465" x1="59.133" y1="1.39201" x2="81.2784" y2="6.71563" gradientUnits="userSpaceOnUse">
      <stop stop-color="#1C75BC"/>
      <stop offset="1" stop-color="#00AEEF"/>
    </linearGradient>
    <linearGradient id="paint9_linear_2783_18465" x1="49.3105" y1="2.60008" x2="67.3532" y2="6.93729" gradientUnits="userSpaceOnUse">
      <stop stop-color="#1C75BC"/>
      <stop offset="1" stop-color="#00AEEF"/>
    </linearGradient>
    <linearGradient id="paint10_linear_2783_18465" x1="42.6683" y1="13.8906" x2="68.193" y2="20.0267" gradientUnits="userSpaceOnUse">
      <stop stop-color="#1C75BC"/>
      <stop offset="1" stop-color="#00AEEF"/>
    </linearGradient>
    <linearGradient id="paint11_linear_2783_18465" x1="54.8411" y1="16.4611" x2="73.0363" y2="20.8348" gradientUnits="userSpaceOnUse">
      <stop stop-color="#1C75BC"/>
      <stop offset="1" stop-color="#00AEEF"/>
    </linearGradient>
    <clipPath id="clip0_2783_18465">
      <rect width="105" height="42.1963" fill="white" transform="translate(0.5 0.902344)"/>
    </clipPath>
  </defs>
</svg>