<svg width="114" height="27" viewBox="0 0 114 27" fill="none" xmlns="http://www.w3.org/2000/svg">
<g clip-path="url(#clip0_190_22982)">
<path d="M12.9284 5.14008V7.6222H2.78114V24.6703H19.9315V14.5457H22.354V27.0871H0.360107V5.14008H12.9284ZM22.354 1.09082V5.14008H26.4117V7.6222H22.354V11.6715H19.9315V7.6222H15.8084V5.14008H19.9315V1.09082H22.354ZM10.4406 21.4039V14.5457H8.14889V12.7825H8.41174C9.13066 12.7825 9.72028 12.6518 10.1138 12.325C10.506 11.9982 10.7674 11.4115 10.7674 10.6925H12.9284V21.4039H10.4406ZM29.2931 16.1796C29.2931 12.325 31.7141 9.45076 35.5105 9.45076C39.3083 9.45076 41.7293 12.325 41.7293 16.1796C41.7293 20.0328 39.3083 22.8417 35.5105 22.8417C31.7141 22.8417 29.2931 20.0328 29.2931 16.1796ZM39.0454 16.1796C39.0454 13.6322 37.8676 11.6061 35.5105 11.6061C33.1548 11.6061 31.9102 13.6322 31.9102 16.1796C31.9102 18.7271 33.0895 20.7517 35.5105 20.7517C37.9329 20.6864 39.0454 18.7271 39.0454 16.1796ZM43.9557 9.71219H46.6396L50.9588 16.8971C51.3523 17.6161 51.8752 18.7271 51.8752 18.7271H51.9405C51.9405 18.7271 51.8752 17.42 51.8752 16.505V9.71219H54.4283V22.5803H51.8752L47.4238 15.4607C47.0317 14.8071 46.5074 13.6975 46.5074 13.6975H46.4421C46.4421 13.6975 46.5074 15.0686 46.5074 15.9182V22.5803H43.9557V9.71219ZM57.3083 9.71219H66.8006V11.8675H59.9268V14.7418H65.9495V16.8971H59.9268V20.3596H66.866V22.5803H57.3083V9.71219ZM75.1137 9.71219C76.6197 9.71219 77.7322 10.1697 78.5179 10.8886C79.2368 11.6061 79.6957 12.6518 79.6957 13.8282C79.6957 16.245 78.059 17.8775 75.3751 17.8775H72.2337V22.5149H69.5498V9.71219H75.1137ZM72.103 15.7875H74.7869C76.1608 15.7875 76.8811 15.0032 76.8811 13.8936C76.8811 12.7172 76.0954 11.9982 74.8522 11.9982H72.103V15.7875ZM81.5285 9.71219H84.147V20.3596H90.1684V22.5803H81.5285V9.71219ZM91.6091 9.71219H94.2276V18.4657C94.2276 19.7714 94.8826 20.7517 96.65 20.7517C98.2854 20.7517 99.071 19.7714 99.071 18.4657V9.71219H101.69V18.4657C101.69 21.2078 99.9875 22.8417 96.7154 22.8417C93.3112 22.7764 91.6091 21.2078 91.6091 18.4003V9.71219ZM106.076 18.5964C106.272 20.1635 107.123 20.7517 108.955 20.7517C110.264 20.7517 111.443 20.2942 111.443 19.1178C111.443 17.8775 110.199 17.6161 108.235 17.1586C105.945 16.6357 103.784 16.0489 103.784 13.3707C103.784 10.8232 105.879 9.51612 108.694 9.51612C111.574 9.51612 113.472 10.954 113.668 13.5014H111.18C111.05 12.1943 110.003 11.5407 108.694 11.5407C107.319 11.5407 106.337 12.129 106.337 13.0439C106.337 14.0882 107.253 14.415 109.152 14.8071C111.835 15.3954 113.996 15.9836 113.996 18.791C113.996 21.4039 111.901 22.8417 108.955 22.8417C105.551 22.8417 103.588 21.2732 103.522 18.5964H106.076Z" fill="#F50514"/>
</g>
<defs>
<clipPath id="clip0_190_22982">
<rect width="113.636" height="26" fill="white" transform="translate(0.36377 0.847656)"/>
</clipPath>
</defs>
</svg>
