<svg xmlns="http://www.w3.org/2000/svg" width="64" height="64" viewBox="0 0 64 64" fill="none">
  <rect width="64" height="64" fill="white"/>
  <path d="M16 52C19.3137 52 22 49.3137 22 46C22 42.6863 19.3137 40 16 40C12.6863 40 10 42.6863 10 46C10 49.3137 12.6863 52 16 52Z" fill="#E84747"/>
  <path d="M16 48C17.1046 48 18 47.1046 18 46C18 44.8954 17.1046 44 16 44C14.8954 44 14 44.8954 14 46C14 47.1046 14.8954 48 16 48Z" fill="white"/>
  <path d="M49 52C52.3137 52 55 49.3137 55 46C55 42.6863 52.3137 40 49 40C45.6863 40 43 42.6863 43 46C43 49.3137 45.6863 52 49 52Z" fill="#E84747"/>
  <path d="M49 48C50.1046 48 51 47.1046 51 46C51 44.8954 50.1046 44 49 44C47.8954 44 47 44.8954 47 46C47 47.1046 47.8954 48 49 48Z" fill="white"/>
  <path d="M26 44H10C8.9 44 8 43.1 8 42V38.3C8 32 13 27 19.3 27H23C25.2 27 27 28.8 27 31L26 44Z" fill="#F9D2D2"/>
  <path d="M24 30H10" stroke="#F9D2D2" stroke-width="6" stroke-miterlimit="10" stroke-linecap="round" stroke-linejoin="round"/>
  <path d="M57 39C57 33.5 52.3 29 44 29L42 39H57Z" fill="#F9D2D2"/>
  <path d="M43 21.5L45.3 32.5L39 41.5H15.5" stroke="#F9D2D2" stroke-width="5" stroke-miterlimit="10" stroke-linecap="round" stroke-linejoin="round"/>
  <path d="M36 21H43" stroke="#F9D2D2" stroke-width="4" stroke-miterlimit="10" stroke-linecap="round" stroke-linejoin="round"/>
  <path d="M24 13H10C9.4 13 9 13.4 9 14V26C9 26.6 9.4 27 10 27H24C24.6 27 25 26.6 25 26V14C25 13.4 24.6 13 24 13Z" fill="#F4A9A9"/>
  <path d="M20 13H14V18H20V13Z" fill="#E84747"/>
</svg>