<svg xmlns="http://www.w3.org/2000/svg" width="64" height="64" viewBox="0 0 64 64" fill="none">
  <rect width="64" height="64" fill="white"/>
  <path d="M53.8014 48L23.5014 54.4C23.0014 54.5 22.4014 54.2 22.3014 53.6L21.5014 49.7C21.4014 49.2 21.7014 48.6 22.3014 48.5L52.6014 42.1C53.1014 42 53.7014 42.3 53.8014 42.9L54.6014 46.8C54.7014 47.3 54.3014 47.9 53.8014 48Z" fill="#F9D2D2"/>
  <path d="M23.4012 51.9002L15.7012 15.7002" stroke="#F9D2D2" stroke-width="3" stroke-miterlimit="10" stroke-linecap="round" stroke-linejoin="round"/>
  <path d="M25.2012 58C27.9626 58 30.2012 55.7614 30.2012 53C30.2012 50.2386 27.9626 48 25.2012 48C22.4397 48 20.2012 50.2386 20.2012 53C20.2012 55.7614 22.4397 58 25.2012 58Z" fill="#E84747"/>
  <path d="M25.2012 55C26.3057 55 27.2012 54.1046 27.2012 53C27.2012 51.8954 26.3057 51 25.2012 51C24.0966 51 23.2012 51.8954 23.2012 53C23.2012 54.1046 24.0966 55 25.2012 55Z" fill="white"/>
  <path d="M10.3008 14L15.6008 15.2" stroke="#E84747" stroke-width="3" stroke-miterlimit="10" stroke-linecap="round" stroke-linejoin="round"/>
  <path d="M44.001 21.4002L22.501 26.0002C22.001 26.1002 21.601 26.6002 21.701 27.2002L25.901 46.8002C26.001 47.3002 26.501 47.7002 27.101 47.6002L48.601 43.0002C49.101 42.9002 49.501 42.4002 49.401 41.8002L45.201 22.2002C45.101 21.7002 44.601 21.3002 44.001 21.4002Z" fill="#F4A9A9"/>
  <path d="M37.1764 22.8593L29.3516 24.5225L31.0148 32.3473L38.8396 30.6841L37.1764 22.8593Z" fill="#E84747"/>
  <path d="M52.8008 45.6006L53.8008 50.5006" stroke="#F9D2D2" stroke-width="3" stroke-miterlimit="10" stroke-linecap="round" stroke-linejoin="round"/>
  <path d="M32.9002 7.40019L19.2002 10.3002C18.7002 10.4002 18.3002 10.9002 18.4002 11.5002L20.9002 23.2002C21.0002 23.7002 21.5002 24.1002 22.1002 24.0002L35.8002 21.1002C36.3002 21.0002 36.7002 20.5002 36.6002 19.9002L34.1002 8.20019C34.0002 7.70019 33.4002 7.30019 32.9002 7.40019Z" fill="#F4A9A9"/>
  <path d="M29.0053 8.23697L23.1367 9.48438L24.3841 15.353L30.2527 14.1056L29.0053 8.23697Z" fill="#E84747"/>
</svg>