<svg xmlns="http://www.w3.org/2000/svg" width="64" height="64" viewBox="0 0 64 64" fill="none">
  <rect width="64" height="64" fill="white"/>
  <path d="M42 47H10C8.9 47 8 46.1 8 45V41C8 39.9 8.9 39 10 39H42V47Z" fill="#F9D2D2"/>
  <path d="M42 29H46C51.5 29 56 33.5 56 39V47H42V29Z" fill="#F9D2D2"/>
  <path d="M45 40V32H46C49.9 32 53 35.1 53 39V40H45Z" fill="white"/>
  <path d="M56.5 50H7.5C6.7 50 6 49.3 6 48.5C6 47.7 6.7 47 7.5 47H56.5C57.3 47 58 47.7 58 48.5C58 49.3 57.3 50 56.5 50Z" fill="#E84747"/>
  <path d="M18 54C20.7614 54 23 51.7614 23 49C23 46.2386 20.7614 44 18 44C15.2386 44 13 46.2386 13 49C13 51.7614 15.2386 54 18 54Z" fill="#E84747"/>
  <path d="M18 51C19.1046 51 20 50.1046 20 49C20 47.8954 19.1046 47 18 47C16.8954 47 16 47.8954 16 49C16 50.1046 16.8954 51 18 51Z" fill="white"/>
  <path d="M48 54C50.7614 54 53 51.7614 53 49C53 46.2386 50.7614 44 48 44C45.2386 44 43 46.2386 43 49C43 51.7614 45.2386 54 48 54Z" fill="#E84747"/>
  <path d="M48 51C49.1046 51 50 50.1046 50 49C50 47.8954 49.1046 47 48 47C46.8954 47 46 47.8954 46 49C46 50.1046 46.8954 51 48 51Z" fill="white"/>
  <path d="M39 16H14C13.4 16 13 16.4 13 17V38C13 38.6 13.4 39 14 39H39C39.6 39 40 38.6 40 38V17C40 16.4 39.6 16 39 16Z" fill="#F4A9A9"/>
  <path d="M31 16H22V24H31V16Z" fill="#E84747"/>
</svg>