<svg xmlns="http://www.w3.org/2000/svg" width="28" height="28" viewBox="0 0 28 28" fill="none">
  <path fill-rule="evenodd" clip-rule="evenodd" d="M5 7.57143C5 6.88944 5.27092 6.23539 5.75315 5.75315C6.23539 5.27092 6.88944 5 7.57143 5H8.74743C9.48457 5 10.1274 5.50229 10.3066 6.21714L11.2537 10.0083C11.3305 10.3151 11.315 10.6378 11.2091 10.9359C11.1033 11.234 10.9119 11.4942 10.6589 11.684L9.55057 12.5154C9.43486 12.602 9.41 12.7289 9.44257 12.8171C9.92632 14.1327 10.6902 15.3275 11.6814 16.3186C12.6725 17.3098 13.8673 18.0737 15.1829 18.5574C15.2711 18.59 15.3971 18.5651 15.4846 18.4494L16.316 17.3411C16.5058 17.0881 16.766 16.8967 17.0641 16.7909C17.3622 16.685 17.6849 16.6695 17.9917 16.7463L21.7829 17.6934C22.4977 17.8726 23 18.5154 23 19.2534V20.4286C23 21.1106 22.7291 21.7646 22.2468 22.2468C21.7646 22.7291 21.1106 23 20.4286 23H18.5C11.0446 23 5 16.9554 5 9.5V7.57143Z" fill="#2B2E32"/>
</svg>