<svg xmlns="http://www.w3.org/2000/svg" width="16" height="17" viewBox="0 0 16 17" fill="none">
  <g clip-path="url(#clip0_190_23286)">
    <path d="M14.6665 11.3139V13.3139C14.6672 13.4996 14.6292 13.6834 14.5548 13.8535C14.4804 14.0236 14.3713 14.1763 14.2345 14.3018C14.0977 14.4273 13.9362 14.5229 13.7603 14.5824C13.5844 14.6419 13.398 14.664 13.2131 14.6473C11.1617 14.4243 9.19113 13.7233 7.45979 12.6006C5.84901 11.577 4.48335 10.2114 3.45979 8.60059C2.33311 6.86139 1.63195 4.88125 1.41313 2.82059C1.39647 2.63623 1.41838 2.45043 1.47746 2.275C1.53654 2.09958 1.63151 1.93838 1.7563 1.80167C1.8811 1.66495 2.033 1.55573 2.20232 1.48093C2.37164 1.40614 2.55469 1.36743 2.73979 1.36725H4.73979C5.06333 1.36407 5.37699 1.47864 5.6223 1.68961C5.86761 1.90058 6.02784 2.19355 6.07313 2.51392C6.15754 3.15396 6.31409 3.7824 6.53979 4.38725C6.62949 4.62587 6.6489 4.8852 6.59573 5.13451C6.54256 5.38382 6.41903 5.61266 6.23979 5.79392L5.39313 6.64059C6.34216 8.30962 7.7241 9.69155 9.39313 10.6406L10.2398 9.79392C10.4211 9.61468 10.6499 9.49115 10.8992 9.43798C11.1485 9.38481 11.4078 9.40422 11.6465 9.49392C12.2513 9.71962 12.8797 9.87617 13.5198 9.96059C13.8436 10.0063 14.1394 10.1694 14.3508 10.4189C14.5622 10.6684 14.6746 10.987 14.6665 11.3139Z" stroke="white" stroke-width="1.33333" stroke-linecap="round" stroke-linejoin="round"/>
  </g>
  <defs>
    <clipPath id="clip0_190_23286">
      <rect width="16" height="16" fill="white" transform="translate(0 0.0332031)"/>
    </clipPath>
  </defs>
</svg>