<svg xmlns="http://www.w3.org/2000/svg" width="47" height="58" viewBox="0 0 47 58" fill="none">
  <g clip-path="url(#clip0_439_10585)">
    <path d="M0.734704 23.2009L0.734691 23.2008C0.259843 21.119 1.8436 19.1383 3.97792 19.1383H14.2856C15.8377 19.1383 17.1842 20.2126 17.5288 21.7241C17.5288 21.7241 17.5288 21.7241 17.5288 21.7241L23.5753 48.2829C24.0473 50.365 22.4662 52.3456 20.3321 52.3456H10.0245C8.47237 52.3456 7.12586 51.2713 6.78128 49.7599C6.78128 49.7598 6.78128 49.7598 6.78127 49.7598L0.734704 23.2009Z" stroke="#1A1A1A" stroke-width="0.3"/>
    <path d="M1.70605 24.2323L1.70606 24.2323L7.26336 48.6422C7.26336 48.6422 7.26336 48.6422 7.26337 48.6422C7.57881 50.0258 8.81145 51.0093 10.2323 51.0093H19.7059C21.6594 51.0093 23.1068 49.1963 22.6748 47.2903L1.70605 24.2323ZM1.70605 24.2323C1.27136 22.3265 2.72117 20.5133 4.67501 20.5133H14.1486C15.5694 20.5133 16.8021 21.4968 17.1175 22.8804C17.1175 22.8804 17.1175 22.8804 17.1175 22.8804L22.6748 47.2901L1.70605 24.2323Z" fill="white" stroke="#1A1A1A" stroke-width="0.3"/>
    <path d="M31.8364 28.5369C39.7167 28.5369 46.1049 22.1487 46.1049 14.2685C46.1049 6.38821 39.7167 0 31.8364 0C23.9562 0 17.568 6.38821 17.568 14.2685C17.568 22.1487 23.9562 28.5369 31.8364 28.5369Z" fill="#E04545"/>
    <path d="M17.5 28.6034L19.4316 21.3857L21.3672 14.1641L26.6533 19.4502L31.9394 24.7362L24.7177 26.6718L17.5 28.6034Z" fill="#E04545"/>
    <mask id="path-5-inside-1_439_10585" fill="white">
      <path fill-rule="evenodd" clip-rule="evenodd" d="M26.8837 15.8736L27.0999 16.6631L27.1018 16.6626L27.1556 16.8572H35.82L35.8717 16.6584C36.134 15.7065 36.3963 14.7556 36.6587 13.8047C36.921 12.8538 37.1833 11.9029 37.4456 10.951L37.537 10.6172H25.9901L25.3869 8.41597L22.8393 8.30469L22.8154 8.8333L24.9815 8.92868L25.444 10.6172H25.4307L26.8837 15.8736ZM27.1934 15.0086L26.135 11.1458H36.8415C36.3645 12.8707 35.8876 14.5996 35.4146 16.3246H27.557L27.1934 15.0086ZM28.8535 21.418C27.8876 21.418 27.1035 20.6338 27.1035 19.668C27.1035 18.7021 27.8876 17.918 28.8535 17.918C29.8194 17.918 30.6035 18.7021 30.6035 19.668C30.6087 20.6338 29.8194 21.418 28.8535 21.418ZM28.8535 18.6086C28.2719 18.6086 27.7942 19.0812 27.7942 19.668C27.7942 20.2548 28.2719 20.7273 28.8535 20.7273C29.4351 20.7273 29.9129 20.2496 29.9129 19.668C29.9129 19.0864 29.4403 18.6086 28.8535 18.6086ZM32.1035 19.668C32.1035 20.6338 32.8876 21.418 33.8535 21.418C34.8194 21.418 35.6087 20.6338 35.6035 19.668C35.6035 18.7021 34.8194 17.918 33.8535 17.918C32.8876 17.918 32.1035 18.7021 32.1035 19.668ZM32.7942 19.668C32.7942 19.0812 33.2719 18.6086 33.8535 18.6086C34.4403 18.6086 34.9129 19.0864 34.9129 19.668C34.9129 20.2496 34.4351 20.7273 33.8535 20.7273C33.2719 20.7273 32.7942 20.2548 32.7942 19.668Z"/>
    </mask>
    <path d="M27.0999 16.6631L26.6177 16.7951L26.7497 17.2771L27.2318 17.1454L27.0999 16.6631ZM26.8837 15.8736L27.366 15.7415L27.3656 15.7404L26.8837 15.8736ZM27.1018 16.6626L27.5837 16.5293L27.4509 16.0488L26.97 16.1803L27.1018 16.6626ZM27.1556 16.8572L26.6737 16.9904L26.7751 17.3572H27.1556V16.8572ZM35.82 16.8572V17.3572H36.2066L36.3039 16.983L35.82 16.8572ZM35.8717 16.6584L35.3896 16.5256L35.3878 16.5326L35.8717 16.6584ZM36.6587 13.8047L37.1407 13.9376L36.6587 13.8047ZM37.4456 10.951L37.9276 11.0839L37.9278 11.0831L37.4456 10.951ZM37.537 10.6172L38.0192 10.7492L38.1923 10.1172H37.537V10.6172ZM25.9901 10.6172L25.5079 10.7493L25.6087 11.1172H25.9901V10.6172ZM25.3869 8.41597L25.8692 8.28384L25.7728 7.93235L25.4088 7.91645L25.3869 8.41597ZM22.8393 8.30469L22.8611 7.80516L22.3623 7.78337L22.3398 8.28215L22.8393 8.30469ZM22.8154 8.8333L22.3159 8.81076L22.2934 9.31079L22.7934 9.33281L22.8154 8.8333ZM24.9815 8.92868L25.4638 8.7966L25.3675 8.4452L25.0035 8.42917L24.9815 8.92868ZM25.444 10.6172V11.1172H26.0994L25.9262 10.4851L25.444 10.6172ZM25.4307 10.6172V10.1172H24.7737L24.9487 10.7504L25.4307 10.6172ZM26.135 11.1458V10.6458H25.4795L25.6527 11.2779L26.135 11.1458ZM27.1934 15.0086L26.7112 15.1407L26.7115 15.1417L27.1934 15.0086ZM36.8415 11.1458L37.3234 11.279L37.4985 10.6458H36.8415V11.1458ZM35.4146 16.3246V16.8246H35.796L35.8968 16.4568L35.4146 16.3246ZM27.557 16.3246L27.0751 16.4577L27.1764 16.8246H27.557V16.3246ZM30.6035 19.668H30.1035L30.1035 19.6707L30.6035 19.668ZM35.6035 19.668H35.1035L35.1035 19.6707L35.6035 19.668ZM27.5822 16.531L27.3659 15.7415L26.4015 16.0057L26.6177 16.7951L27.5822 16.531ZM26.97 16.1803L26.9681 16.1808L27.2318 17.1454L27.2336 17.1449L26.97 16.1803ZM27.6375 16.7239L27.5837 16.5293L26.6199 16.7958L26.6737 16.9904L27.6375 16.7239ZM35.82 16.3572H27.1556V17.3572H35.82V16.3572ZM35.3878 16.5326L35.3361 16.7313L36.3039 16.983L36.3556 16.7843L35.3878 16.5326ZM36.1767 13.6717C35.9143 14.6226 35.652 15.5736 35.3897 16.5256L36.3537 16.7913C36.616 15.8394 36.8783 14.8886 37.1407 13.9376L36.1767 13.6717ZM36.9636 10.8182C36.7013 11.77 36.439 12.7208 36.1767 13.6717L37.1407 13.9376C37.403 12.9868 37.6653 12.0358 37.9276 11.0839L36.9636 10.8182ZM37.0547 10.4851L36.9633 10.819L37.9278 11.0831L38.0192 10.7492L37.0547 10.4851ZM25.9901 11.1172H37.537V10.1172H25.9901V11.1172ZM24.9047 8.54811L25.5079 10.7493L26.4723 10.485L25.8692 8.28384L24.9047 8.54811ZM22.8175 8.80421L25.3651 8.9155L25.4088 7.91645L22.8611 7.80516L22.8175 8.80421ZM23.3149 8.85583L23.3388 8.32722L22.3398 8.28215L22.3159 8.81076L23.3149 8.85583ZM25.0035 8.42917L22.8374 8.33378L22.7934 9.33281L24.9595 9.4282L25.0035 8.42917ZM25.9262 10.4851L25.4638 8.7966L24.4993 9.06077L24.9618 10.7493L25.9262 10.4851ZM25.4307 11.1172H25.444V10.1172H25.4307V11.1172ZM27.3656 15.7404L25.9126 10.484L24.9487 10.7504L26.4018 16.0068L27.3656 15.7404ZM25.6527 11.2779L26.7112 15.1407L27.6757 14.8764L26.6172 11.0137L25.6527 11.2779ZM36.8415 10.6458H26.135V11.6458H36.8415V10.6458ZM35.8968 16.4568C36.3696 14.7323 36.8465 13.0038 37.3234 11.279L36.3595 11.0125C35.8826 12.7377 35.4055 14.4669 34.9324 16.1924L35.8968 16.4568ZM27.557 16.8246H35.4146V15.8246H27.557V16.8246ZM26.7115 15.1417L27.0751 16.4577L28.039 16.1914L27.6754 14.8754L26.7115 15.1417ZM26.6035 19.668C26.6035 20.91 27.6115 21.918 28.8535 21.918V20.918C28.1638 20.918 27.6035 20.3577 27.6035 19.668H26.6035ZM28.8535 17.418C27.6115 17.418 26.6035 18.426 26.6035 19.668H27.6035C27.6035 18.9782 28.1638 18.418 28.8535 18.418V17.418ZM31.1035 19.668C31.1035 18.426 30.0955 17.418 28.8535 17.418V18.418C29.5433 18.418 30.1035 18.9782 30.1035 19.668H31.1035ZM28.8535 21.918C30.0931 21.918 31.1102 20.9118 31.1035 19.6653L30.1035 19.6707C30.1072 20.3558 29.5457 20.918 28.8535 20.918V21.918ZM28.2942 19.668C28.2942 19.3589 28.5465 19.1086 28.8535 19.1086V18.1086C27.9974 18.1086 27.2942 18.8034 27.2942 19.668H28.2942ZM28.8535 20.2273C28.5465 20.2273 28.2942 19.977 28.2942 19.668H27.2942C27.2942 20.5325 27.9974 21.2273 28.8535 21.2273V20.2273ZM29.4129 19.668C29.4129 19.9734 29.159 20.2273 28.8535 20.2273V21.2273C29.7113 21.2273 30.4129 20.5257 30.4129 19.668H29.4129ZM28.8535 19.1086C29.1626 19.1086 29.4129 19.3609 29.4129 19.668H30.4129C30.4129 18.8118 29.7181 18.1086 28.8535 18.1086V19.1086ZM33.8535 20.918C33.1638 20.918 32.6035 20.3577 32.6035 19.668H31.6035C31.6035 20.91 32.6115 21.918 33.8535 21.918V20.918ZM35.1035 19.6707C35.1072 20.3558 34.5457 20.918 33.8535 20.918V21.918C35.0931 21.918 36.1102 20.9118 36.1035 19.6653L35.1035 19.6707ZM33.8535 18.418C34.5433 18.418 35.1035 18.9782 35.1035 19.668H36.1035C36.1035 18.426 35.0955 17.418 33.8535 17.418V18.418ZM32.6035 19.668C32.6035 18.9782 33.1638 18.418 33.8535 18.418V17.418C32.6115 17.418 31.6035 18.426 31.6035 19.668H32.6035ZM33.8535 18.1086C32.9974 18.1086 32.2942 18.8034 32.2942 19.668H33.2942C33.2942 19.3589 33.5465 19.1086 33.8535 19.1086V18.1086ZM35.4129 19.668C35.4129 18.8118 34.7181 18.1086 33.8535 18.1086V19.1086C34.1626 19.1086 34.4129 19.3609 34.4129 19.668H35.4129ZM33.8535 21.2273C34.7113 21.2273 35.4129 20.5257 35.4129 19.668H34.4129C34.4129 19.9734 34.159 20.2273 33.8535 20.2273V21.2273ZM32.2942 19.668C32.2942 20.5325 32.9974 21.2273 33.8535 21.2273V20.2273C33.5465 20.2273 33.2942 19.977 33.2942 19.668H32.2942Z" fill="white" mask="url(#path-5-inside-1_439_10585)"/>
    <rect x="5.55132" y="21.7134" width="8.19526" height="0.629474" rx="0.314737" stroke="#1A1A1A" stroke-width="0.278421"/>
    <path d="M27.5511 16.8572H36.2155L36.2672 16.6584C36.7918 14.7546 37.3165 12.8548 37.8411 10.951L37.9325 10.6172H25.8262L27.5511 16.8572Z" fill="white"/>
    <path d="M46.8363 70.2171C46.894 70.1459 46.9091 70.0432 46.8641 69.9569L35.8069 50.1565C35.779 50.1028 35.7315 50.058 35.6728 50.0384C34.2108 49.5198 33.0388 48.46 32.3735 47.0593L32.3516 47.0135C32.3055 46.9171 32.2004 46.8629 32.094 46.8791C31.9876 46.8953 31.9075 46.9825 31.8947 47.0902L31.7572 48.2743C30.9556 48.4005 30.1337 48.1996 29.4774 47.7104L28.1887 46.7485C27.6737 46.3647 27.2887 45.813 27.1013 45.1979L25.4812 39.8127C25.4447 39.693 25.3239 39.6198 25.1997 39.6464L20.1937 40.7228C19.9073 40.7732 19.6012 40.6833 19.3815 40.4832C19.1198 40.2428 19.0114 39.8939 19.0938 39.5474C19.1761 39.201 19.43 38.9379 19.7717 38.8423L24.5422 37.5623L30.132 36.0461C32.7643 35.3332 35.6132 36.2067 37.3925 38.2753L54.3031 60.5611C54.3875 60.6638 54.54 60.6788 54.6427 60.5943C54.7454 60.5099 54.7604 60.3574 54.676 60.2547L37.7617 37.9659C35.8594 35.754 32.8173 34.8201 30.0064 35.5807L24.4166 37.0968L19.6442 38.3753C19.1292 38.5198 18.7466 38.9146 18.6239 39.4334C18.5012 39.9521 18.6603 40.4758 19.0546 40.8362C19.3844 41.138 19.8462 41.2735 20.2857 41.1952L25.0838 40.1645L26.6406 45.3367C26.8556 46.0518 27.3026 46.688 27.8996 47.1353L29.1883 48.0972C30.0009 48.7039 31.0363 48.929 32.0276 48.7144C32.1284 48.6936 32.2036 48.6086 32.2152 48.5062L32.2846 47.9038C33.0157 49.0781 34.1066 49.9697 35.4201 50.4609L46.4356 70.1747C46.4943 70.2938 46.6417 70.342 46.7589 70.2817C46.7915 70.2646 46.815 70.2433 46.8363 70.2171Z" fill="#1A1A1A"/>
    <path d="M32.2411 47.5385C32.2776 47.4936 32.2991 47.4365 32.2943 47.3735C32.2743 47 32.1271 46.7065 31.8588 46.5012C31.1936 45.9924 30 46.2417 29.9498 46.2538C29.8189 46.2811 29.7362 46.4098 29.7651 46.5389C29.7924 46.6698 29.9211 46.7525 30.052 46.7251C30.3373 46.6646 31.1616 46.5754 31.566 46.885C31.7208 47.0044 31.7998 47.1711 31.8133 47.3995C31.8203 47.5326 31.9337 47.634 32.0668 47.627C32.1369 47.6248 32.2001 47.5891 32.2411 47.5385Z" fill="#1A1A1A"/>
    <path d="M29.6883 43.7246C29.7293 43.6741 29.7498 43.6068 29.7408 43.5374C29.7203 43.4057 29.5992 43.3137 29.4676 43.3343C29.1787 43.3763 26.6498 43.7817 26.6197 44.9597C26.6165 45.0938 26.7223 45.2046 26.8546 45.2063C26.9887 45.2095 27.0995 45.1036 27.1011 44.9714C27.1167 44.3626 28.7471 43.9272 29.5362 43.8125C29.5969 43.8028 29.6503 43.7715 29.6883 43.7246Z" fill="#1A1A1A"/>
    <path d="M28.7836 41.4119C28.8232 41.3632 28.844 41.2993 28.835 41.2299C28.8179 41.0979 28.6983 41.004 28.5663 41.0212C28.2903 41.055 25.8803 41.3829 25.8524 42.5658C25.8492 42.6999 25.955 42.8107 26.0873 42.8124C26.2214 42.8156 26.3322 42.7097 26.3339 42.5775C26.3483 41.974 27.883 41.5914 28.6248 41.5005C28.6908 41.4919 28.7456 41.4587 28.7836 41.4119Z" fill="#1A1A1A"/>
    <path d="M28.1695 38.7979C28.212 38.7455 28.2325 38.6782 28.2198 38.6057C28.1992 38.4741 28.0751 38.3858 27.9435 38.4063C27.6568 38.4533 25.139 38.8987 25.1085 40.0734C25.1053 40.2075 25.2111 40.3182 25.3434 40.3199C25.4775 40.3231 25.5883 40.2173 25.5899 40.085C25.6037 39.4747 27.2328 39.0103 28.0189 38.8839C28.0796 38.8741 28.133 38.8429 28.1695 38.7979Z" fill="#1A1A1A"/>
  </g>
  <defs>
    <clipPath id="clip0_439_10585">
      <rect width="46" height="58" fill="white" transform="translate(0.5)"/>
    </clipPath>
  </defs>
</svg>