<svg xmlns="http://www.w3.org/2000/svg" width="32" height="25" viewBox="0 0 32 25" fill="none">
  <path opacity="0.8" d="M0 24.4609V17.7324C0 15.7466 0.373806 13.6556 1.12142 11.4595C1.86903 9.26338 2.90868 7.16072 4.24036 5.15151C5.57205 3.1423 7.13736 1.42513 8.9363 0L14.1229 3.71469C12.6977 5.79399 11.4829 7.96674 10.4783 10.2329C9.47365 12.4991 8.97135 14.9639 8.97135 17.6273V24.4609H0ZM17.8726 24.4609V17.7324C17.8726 15.7466 18.2464 13.6556 18.994 11.4595C19.7416 9.26338 20.7813 7.16072 22.113 5.15151C23.4447 3.1423 25.01 1.42513 26.8089 0L31.9955 3.71469C30.5703 5.79399 29.3555 7.96674 28.3509 10.2329C27.3463 12.4991 26.844 14.9639 26.844 17.6273V24.4609H17.8726Z" fill="#E84747"/>
</svg>