<svg xmlns="http://www.w3.org/2000/svg" width="20" height="20" viewBox="0 0 20 20" fill="none">
  <g clip-path="url(#clip0_3943_16047)">
    <path d="M20.0006 9.03282C19.9909 8.93801 19.9595 8.8467 19.909 8.76588C19.8585 8.68505 19.7901 8.61687 19.7092 8.56654L18.0856 7.56737L18.9182 5.83548C18.9501 5.74805 18.9621 5.65459 18.9533 5.56193C18.9444 5.46927 18.915 5.37976 18.8671 5.29994C18.8192 5.22012 18.7541 5.15202 18.6765 5.10062C18.5989 5.04921 18.5108 5.01581 18.4186 5.00284L16.5368 4.70309L16.6118 2.80467C16.6215 2.705 16.6071 2.60444 16.5698 2.5115C16.5325 2.41855 16.4734 2.33594 16.3975 2.27063C16.3216 2.20532 16.2311 2.15923 16.1336 2.13624C16.0361 2.11326 15.9345 2.11405 15.8374 2.13856L13.989 2.57986L13.3395 0.789685C13.3068 0.699417 13.2538 0.617902 13.1844 0.551474C13.1151 0.485046 13.0314 0.435495 12.9398 0.406671C12.8473 0.378995 12.7497 0.37286 12.6545 0.388736C12.5592 0.404611 12.4688 0.442076 12.3903 0.498261L10.8416 1.62232L9.55101 0.22349C9.48532 0.154399 9.40468 0.101265 9.31528 0.0681593C9.22588 0.0350538 9.13009 0.0228561 9.03525 0.0325013C8.9404 0.0421464 8.84902 0.0733783 8.76812 0.123803C8.68721 0.174228 8.61893 0.242507 8.56849 0.323407L7.56932 1.94705L5.84576 1.14772C5.76069 1.11578 5.66967 1.1028 5.57907 1.10967C5.48846 1.11654 5.40044 1.1431 5.32116 1.1875C5.24187 1.2319 5.17324 1.29306 5.12003 1.36673C5.06683 1.44039 5.03034 1.52478 5.01312 1.614L4.66341 3.49576L2.75667 3.42083C2.66015 3.41455 2.56355 3.43171 2.47511 3.47086C2.38666 3.51001 2.309 3.56997 2.24876 3.64564C2.19151 3.71888 2.15133 3.80399 2.13116 3.89474C2.111 3.98549 2.11135 4.0796 2.13219 4.1702L2.57349 6.01866L0.791638 6.66812C0.696102 6.69979 0.609637 6.75408 0.539607 6.82637C0.469576 6.89866 0.418057 6.98681 0.389436 7.0833C0.360815 7.17979 0.355941 7.28177 0.37523 7.38056C0.394518 7.47934 0.437397 7.572 0.500214 7.65063L1.61595 9.16604L0.225443 10.4816C0.156352 10.5473 0.103218 10.6279 0.0701124 10.7173C0.0370069 10.8067 0.0248092 10.9025 0.0344544 10.9974C0.0440996 11.0922 0.0753315 11.1836 0.125756 11.2645C0.176181 11.3454 0.24446 11.4137 0.32536 11.4641L1.94068 12.4966L1.14967 14.1619C1.11007 14.2491 1.09105 14.3442 1.0941 14.44C1.09715 14.5357 1.12217 14.6295 1.16725 14.714C1.21232 14.7985 1.27624 14.8715 1.35404 14.9274C1.43185 14.9832 1.52146 15.0205 1.61595 15.0361L3.49772 15.3359L3.42278 17.2343C3.41898 17.3304 3.43742 17.4261 3.47667 17.5139C3.51591 17.6017 3.57491 17.6792 3.64905 17.7405C3.72319 17.8017 3.81048 17.845 3.9041 17.867C3.99773 17.8889 4.09516 17.889 4.18881 17.8671L6.03727 17.4924L6.6784 19.241C6.71169 19.3311 6.76533 19.4123 6.83514 19.4783C6.90496 19.5443 6.98906 19.5933 7.0809 19.6215C7.17274 19.6497 7.26986 19.6564 7.36468 19.6409C7.4595 19.6254 7.54948 19.5883 7.62761 19.5324L9.17632 18.4167L10.4669 19.8155C10.5254 19.8785 10.5962 19.9288 10.675 19.9632C10.7538 19.9976 10.8389 20.0153 10.9249 20.0153H10.9831C11.078 20.0056 11.1693 19.9742 11.2501 19.9237C11.3309 19.8732 11.3991 19.8048 11.4494 19.7239L12.4486 18.1003L14.1805 18.9329C14.2656 18.9648 14.3566 18.9778 14.4472 18.971C14.5378 18.9641 14.6258 18.9375 14.7051 18.8931C14.7844 18.8487 14.853 18.7876 14.9062 18.7139C14.9594 18.6402 14.9959 18.5558 15.0131 18.4666L15.3129 16.5849L17.2113 16.6598C17.3077 16.6654 17.4041 16.6479 17.4924 16.6088C17.5808 16.5697 17.6585 16.5101 17.7192 16.435C17.7804 16.3605 17.8235 16.2729 17.8451 16.179C17.8668 16.0851 17.8664 15.9875 17.8441 15.8938L17.4028 14.0453L19.2429 13.3292C19.3331 13.2959 19.4143 13.2423 19.4803 13.1725C19.5463 13.1027 19.5953 13.0186 19.6235 12.9267C19.6517 12.8349 19.6583 12.7378 19.6429 12.643C19.6274 12.5481 19.5903 12.4582 19.5344 12.38L18.4103 10.8313L19.8091 9.54073C19.8772 9.47593 19.9298 9.39661 19.9629 9.30867C19.9961 9.22072 20.009 9.12643 20.0006 9.03282Z" fill="#2DB674"/>
    <path d="M8.64677 14.3849C8.53421 14.3802 8.42377 14.3526 8.32216 14.304C8.22054 14.2553 8.12986 14.1865 8.0556 14.1018L5.59099 11.3624C5.44413 11.1968 5.36909 10.9796 5.38236 10.7587C5.39564 10.5377 5.49614 10.3311 5.66176 10.1842C5.82738 10.0374 6.04456 9.96234 6.26551 9.97562C6.48646 9.98889 6.69309 10.0894 6.83994 10.255L8.6884 12.3449L13.959 7.21588C14.0349 7.12995 14.1278 7.06064 14.2318 7.01227C14.3357 6.9639 14.4486 6.93753 14.5632 6.93481C14.6778 6.93208 14.7918 6.95306 14.8979 6.99643C15.0041 7.0398 15.1001 7.10463 15.18 7.18685C15.2599 7.26908 15.322 7.36692 15.3624 7.47425C15.4027 7.58158 15.4205 7.69609 15.4145 7.8106C15.4085 7.92511 15.3789 8.03715 15.3276 8.1397C15.2764 8.24225 15.2044 8.3331 15.1164 8.40655L9.22962 14.1684C9.07058 14.3131 8.86172 14.3907 8.64677 14.3849Z" fill="white"/>
  </g>
  <defs>
    <clipPath id="clip0_3943_16047">
      <rect width="19.9917" height="20" fill="white" transform="translate(-0.0078125)"/>
    </clipPath>
  </defs>
</svg>