<svg xmlns="http://www.w3.org/2000/svg" width="24" height="24" viewBox="0 0 24 24" fill="none">
  <path fill-rule="evenodd" clip-rule="evenodd" d="M18.3473 5.96766C18.8097 6.27006 18.9393 6.88926 18.6369 7.35166L11.8369 17.7517C11.7576 17.8728 11.653 17.9754 11.5303 18.0521C11.4076 18.1289 11.2696 18.1782 11.126 18.1964C10.9824 18.2147 10.8365 18.2015 10.6984 18.1579C10.5604 18.1143 10.4335 18.0412 10.3265 17.9437L5.92645 13.9437C5.73019 13.7652 5.61285 13.5161 5.60025 13.2512C5.58765 12.9862 5.68081 12.7271 5.85925 12.5309C6.03769 12.3346 6.28678 12.2173 6.55173 12.2047C6.81669 12.1921 7.07579 12.2852 7.27205 12.4637L10.8049 15.6749L16.9633 6.25726C17.1084 6.03536 17.3358 5.8802 17.5953 5.82589C17.8548 5.77158 18.1253 5.82258 18.3473 5.96766Z" fill="#2AA300"/>
</svg>