<svg width="48" height="61" viewBox="0 0 48 61" fill="none" xmlns="http://www.w3.org/2000/svg">
<g clip-path="url(#clip0_808_26159)">
<path d="M47.5458 0.5H10.3447V24.922H47.5458V0.5Z" fill="#E04545" stroke="#1A1A1A" stroke-width="1.03448" stroke-miterlimit="10" stroke-linecap="round" stroke-linejoin="round"/>
<line x1="20.1725" y1="0.09375" x2="20.1725" y2="24.9213" stroke="#1A1A1A" stroke-width="1.03448"/>
<path d="M28.9292 0.09375V9.59944L29.0431 9.50831L30.4384 10.8353L31.7882 9.50831L33.1437 10.8353L34.4934 9.50831L35.8432 10.8353L37.1873 9.5197V0.09375H28.9292Z" fill="white"/>
<path d="M32.0244 17.7969H37.6741" stroke="white" stroke-width="1.13907" stroke-miterlimit="10" stroke-linecap="round" stroke-linejoin="round"/>
<path d="M32.0205 20.4336H39.9995" stroke="white" stroke-width="1.13907" stroke-miterlimit="10" stroke-linecap="round" stroke-linejoin="round"/>
<line x1="46.5518" y1="0.610991" x2="21.7242" y2="0.610989" stroke="#1A1A1A" stroke-width="1.03448"/>
<path d="M24.7087 64.2657C24.6138 64.2657 24.5215 64.2108 24.4816 64.1185L15.7851 42.3292C15.7601 42.2718 15.7551 42.2044 15.7776 42.1445C16.3142 40.6321 16.2268 38.9999 15.5355 37.5523L15.513 37.5049C15.4656 37.4051 15.4906 37.2853 15.5729 37.2104C15.6553 37.1355 15.7776 37.128 15.8724 37.1879L16.9132 37.8493C17.5371 37.2877 17.9115 36.4966 17.9464 35.6505L18.0138 33.9883C18.0413 33.3245 17.8491 32.6556 17.4772 32.104L14.2077 27.2921C14.1354 27.1848 14.1553 27.0401 14.2577 26.9577L18.3857 23.6383C18.6128 23.4412 18.7401 23.1367 18.7226 22.8297C18.7001 22.4628 18.4905 22.1483 18.1586 21.9886C17.8266 21.8289 17.4498 21.8613 17.1503 22.0735L13.0123 25.0709L8.15048 28.5725C5.86185 30.2222 4.70631 33.0799 5.20796 35.8577L12.085 63.9687C12.1125 64.1035 12.0251 64.2358 11.8904 64.2632C11.7556 64.2907 11.6233 64.2033 11.5959 64.0686L4.71879 35.9525C4.1822 32.9825 5.41511 29.9302 7.85848 28.1682L12.7203 24.6666L16.8583 21.6667C17.31 21.3472 17.8765 21.2973 18.3732 21.5369C18.8699 21.7765 19.1868 22.2457 19.2193 22.7972C19.2467 23.259 19.0545 23.7182 18.7051 24.0202L14.7493 27.2023L17.889 31.8245C18.3233 32.4634 18.5429 33.2371 18.513 34.0083L18.4456 35.6705C18.4031 36.7187 17.909 37.6971 17.0904 38.3534C17.008 38.4208 16.8907 38.4258 16.8009 38.3684L16.2718 38.0315C16.7385 39.3842 16.7435 40.8417 16.2817 42.2169L24.9358 63.9163C24.9932 64.0411 24.9358 64.1908 24.811 64.2458C24.7761 64.2607 24.7436 64.2657 24.7087 64.2657Z" fill="#1A1A1A"/>
<path d="M16.0049 37.7571C15.945 37.7571 15.8851 37.7372 15.8377 37.6922C15.5507 37.4327 15.4109 37.1232 15.4209 36.7738C15.4459 35.9078 16.4242 35.1116 16.4666 35.0792C16.574 34.9918 16.7312 35.0093 16.816 35.1166C16.9034 35.2239 16.8859 35.3812 16.7786 35.4685C16.544 35.6582 15.935 36.2622 15.9201 36.7888C15.9151 36.9909 15.9974 37.1631 16.1721 37.3229C16.2745 37.4152 16.282 37.5724 16.1896 37.6748C16.1422 37.7297 16.0723 37.7571 16.0049 37.7571Z" fill="#1A1A1A"/>
<path d="M14.6078 33.2203C14.5404 33.2203 14.473 33.1928 14.4231 33.1404C14.3308 33.0381 14.3358 32.8808 14.4381 32.7885C14.6602 32.5838 16.6344 30.8168 17.6003 31.5606C17.7101 31.6454 17.73 31.8027 17.6452 31.91C17.5603 32.0198 17.4031 32.0398 17.2958 31.9549C16.7966 31.5706 15.384 32.5963 14.7775 33.1554C14.7301 33.1978 14.6702 33.2203 14.6078 33.2203Z" fill="#1A1A1A"/>
<path d="M13.3418 30.9851C13.2769 30.9851 13.212 30.9601 13.1621 30.9077C13.0672 30.8079 13.0697 30.6507 13.1696 30.5558C13.3767 30.3562 15.2111 28.6341 16.1795 29.3828C16.2893 29.4677 16.3093 29.6249 16.2244 29.7322C16.1395 29.842 15.9823 29.862 15.875 29.7771C15.3808 29.3953 14.073 30.3786 13.5165 30.9152C13.4666 30.9626 13.4042 30.9851 13.3418 30.9851Z" fill="#1A1A1A"/>
<path d="M11.6378 28.7911C11.568 28.7911 11.5006 28.7637 11.4507 28.7062C11.3583 28.6039 11.3683 28.4467 11.4706 28.3543C11.6952 28.1547 13.6944 26.4226 14.6577 27.1639C14.7675 27.2487 14.7875 27.4059 14.7027 27.5133C14.6178 27.6231 14.4606 27.643 14.3533 27.5582C13.8541 27.1713 12.419 28.1771 11.8051 28.7262C11.7576 28.7686 11.6977 28.7911 11.6378 28.7911Z" fill="#1A1A1A"/>
<path d="M0.332927 8.03157C0.286176 7.98057 0.258551 7.91203 0.255717 7.83642C0.254476 7.67721 0.386579 7.5483 0.543655 7.54901L9.03336 7.55308C9.19256 7.55184 9.32148 7.68395 9.32077 7.84103C9.32201 8.00023 9.18991 8.12915 9.03283 8.12844L0.543131 8.12437C0.461494 8.1249 0.385522 8.08895 0.332927 8.03157Z" fill="#1A1A1A"/>
<path d="M3.43644 12.1683C3.38969 12.1173 3.36207 12.0488 3.35923 11.9731C3.35799 11.8139 3.49009 11.685 3.64717 11.6857L12.1369 11.6898C12.2961 11.6886 12.425 11.8207 12.4243 11.9777C12.4255 12.1369 12.2934 12.2659 12.1363 12.2652L3.64665 12.2611C3.56501 12.2616 3.48904 12.2257 3.43644 12.1683Z" fill="#1A1A1A"/>
</g>
<defs>
<clipPath id="clip0_808_26159">
<rect width="47.5862" height="60" fill="white" transform="translate(0 0.0976562)"/>
</clipPath>
</defs>
</svg>
