<svg width="49" height="61" viewBox="0 0 49 61" fill="none" xmlns="http://www.w3.org/2000/svg">
<g clip-path="url(#clip0_808_26221)">
<path d="M39.0436 4.97266H7.62158V33.6133H39.0436V4.97266Z" fill="#E04545"/>
<path d="M23.3311 33.9241C23.1587 33.9241 23.0176 33.783 23.0176 33.6105V4.96981C23.0176 4.79735 23.1587 4.65625 23.3311 4.65625C23.5036 4.65625 23.6447 4.79735 23.6447 4.96981V33.6105C23.6447 33.783 23.5036 33.9241 23.3311 33.9241Z" fill="#1A1A1A"/>
<path d="M37.6505 19.6076H9.00985C8.83739 19.6076 8.69629 19.4665 8.69629 19.294C8.69629 19.1216 8.83739 18.9805 9.00985 18.9805H37.6505C37.823 18.9805 37.9641 19.1216 37.9641 19.294C37.9641 19.4665 37.823 19.6076 37.6505 19.6076Z" fill="#1A1A1A"/>
<path d="M39.1336 41.1973C37.8292 36.7133 32.7714 33.4147 32.7714 33.4147L23.4618 33.4868L16.1684 33.4899C16.1684 33.4899 15.444 29.1001 14.8577 27.6169C14.2745 26.1338 11.9133 26.1871 11.9133 26.1871L12.5906 30.7369C12.5906 30.7369 10.7187 26.6857 10.0414 25.7826C9.36722 24.8795 7.16288 24.9799 7.16288 24.9799L8.27603 27.8396C8.27603 27.8396 6.92458 26.0334 5.76126 25.5851C4.60109 25.1398 3.03955 25.7011 3.03955 25.7011L11.2674 37.2715L30.357 42.9125L31.3165 45.9854L32.2509 60.6022H46.0508C42.5734 53.1269 39.1336 41.1973 39.1336 41.1973Z" fill="white"/>
<path d="M46.0459 60.9151H32.2492C32.0893 60.9151 31.9544 60.7929 31.9356 60.6329L31.0043 46.0474L30.1044 43.1626L11.1747 37.5687C11.1089 37.5499 11.0493 37.506 11.0085 37.4496L2.78382 25.8823C2.72424 25.8008 2.70856 25.7004 2.73992 25.6063C2.76814 25.5123 2.84026 25.437 2.93433 25.4057C3.00331 25.3806 4.62129 24.813 5.87867 25.2959C6.3835 25.4903 6.91028 25.9074 7.36181 26.3369L6.87893 25.0921C6.8413 24.998 6.85384 24.8914 6.90715 24.8068C6.96359 24.7221 7.05452 24.6688 7.15486 24.6657C7.3963 24.6531 9.5442 24.5873 10.2967 25.5938C10.673 26.0986 11.3911 27.5065 11.9743 28.7043L11.6074 26.2335C11.5949 26.1457 11.62 26.0547 11.6764 25.9858C11.736 25.9168 11.8207 25.876 11.9085 25.8729C12.0151 25.8729 14.4953 25.8352 15.1507 27.5034C15.6618 28.8047 16.2638 32.1974 16.4331 33.1789L23.4601 33.1757L32.7697 33.1036C32.8293 33.1005 32.892 33.1224 32.9421 33.1538C33.1522 33.2917 38.0908 36.5559 39.4266 41.0837C39.6649 41.5509 43.0012 53.3081 46.3344 60.473C46.3783 60.5702 46.372 60.6831 46.3155 60.774C46.2528 60.8618 46.1525 60.9151 46.0459 60.9151ZM32.5314 60.288H45.5536C42.1891 53.0792 38.8841 41.4067 38.8528 41.3409C38.8434 41.322 38.8371 41.3064 38.8308 41.2875C37.6581 37.2646 33.309 34.1666 32.6756 33.7307L23.4632 33.8028L16.1698 33.806C16.0161 33.806 15.8844 33.6962 15.8593 33.5426C15.8531 33.4987 15.1319 29.1684 14.5675 27.7323C14.1975 26.7916 12.915 26.569 12.2816 26.5157L12.9024 30.6892C12.9244 30.8428 12.8303 30.9902 12.6829 31.0372C12.5324 31.0811 12.3725 31.009 12.3098 30.8679C12.291 30.8271 10.4441 26.8355 9.79505 25.9701C9.41877 25.4652 8.33699 25.3179 7.62834 25.2928L8.57529 27.726C8.63174 27.8734 8.57216 28.0364 8.43419 28.1148C8.29622 28.1901 8.12377 28.1556 8.0297 28.0302C8.01716 28.0114 6.71901 26.2899 5.6529 25.8823C4.95053 25.6126 4.06001 25.7569 3.55204 25.8823L11.4601 37.0043L30.4462 42.6139C30.5465 42.6421 30.6249 42.7205 30.6563 42.8209L31.6158 45.8938C31.6221 45.9157 31.6252 45.9345 31.6283 45.9565L32.5314 60.288Z" fill="#1A1A1A"/>
<path d="M23.2603 5.18373C23.2289 5.18373 23.1975 5.18059 23.1662 5.16805L18.4157 3.6755C17.798 3.48109 17.3402 2.99193 17.1834 2.36481C17.0298 1.73769 17.2117 1.08862 17.6663 0.633952C18.0332 0.267085 18.5443 0.069541 19.0617 0.100897C19.5822 0.129118 20.0651 0.379967 20.3912 0.784461L23.5017 4.67262C23.5864 4.77923 23.5926 4.93288 23.5142 5.04576C23.4609 5.13356 23.3606 5.18373 23.2603 5.18373ZM18.9645 0.724884C18.6446 0.724884 18.3373 0.850309 18.1116 1.07921C17.8106 1.38023 17.6914 1.80667 17.7917 2.21744C17.8921 2.63134 18.1962 2.95431 18.6007 3.07973L22.3697 4.26186L19.9051 1.17641C19.6919 0.909886 19.3721 0.743698 19.0303 0.724884C19.0084 0.724884 18.9864 0.724884 18.9645 0.724884Z" fill="#1A1A1A"/>
<path d="M23.1791 5.18059C23.0788 5.18059 22.9784 5.13042 22.9188 5.04576C22.8405 4.93288 22.8467 4.77923 22.9314 4.67262L26.0419 0.784461C26.368 0.376831 26.8509 0.129118 27.3714 0.100897C27.8888 0.069541 28.3999 0.267085 28.7668 0.633951C29.2246 1.09175 29.4033 1.73769 29.2496 2.36481C29.096 2.99193 28.6351 3.48422 28.0205 3.6755L23.27 5.16805C23.2418 5.17746 23.2105 5.18059 23.1791 5.18059ZM27.4749 0.721749C27.4529 0.721749 27.431 0.721749 27.409 0.724884C27.0673 0.743698 26.7474 0.90675 26.5342 1.17641L24.0665 4.26186L27.8386 3.07659C28.2431 2.94803 28.5473 2.6282 28.6476 2.2143C28.748 1.8004 28.6288 1.37709 28.3309 1.07607C28.102 0.847173 27.7947 0.721749 27.4749 0.721749Z" fill="#1A1A1A"/>
<path d="M32.5426 38.9565C32.4078 38.9565 32.2824 38.8687 32.2416 38.7308C32.182 38.5364 30.7647 34.0712 24.3712 33.9145C17.7363 33.7483 16.0901 33.7326 16.0744 33.7326C15.9019 33.7326 15.7608 33.5884 15.764 33.4159C15.764 33.2434 15.9051 33.1055 16.0775 33.1055H16.0807C16.0963 33.1055 17.7425 33.1211 24.3869 33.2873C27.9646 33.3751 30.0686 34.7924 31.2069 35.9651C32.4486 37.2445 32.828 38.4987 32.8437 38.552C32.8938 38.7182 32.7966 38.8938 32.6336 38.9408C32.6022 38.9534 32.5709 38.9565 32.5426 38.9565Z" fill="#1A1A1A"/>
<path d="M13.7722 38.0673C13.6185 38.0673 13.4837 37.9512 13.4617 37.7945C13.3708 37.0952 11.5929 26.3777 11.5772 26.2711C11.549 26.1018 11.665 25.9387 11.8343 25.9105C12.0037 25.8823 12.1667 25.9983 12.1949 26.1676C12.2671 26.6097 13.9917 37.0043 14.0826 37.7129C14.1045 37.8854 13.9822 38.0422 13.8129 38.0641C13.7972 38.0673 13.7847 38.0673 13.7722 38.0673Z" fill="#1A1A1A"/>
<path d="M12.2087 37.8551C12.0832 37.8551 11.9672 37.7799 11.9171 37.6607L6.84049 25.181C6.77464 25.0211 6.85303 24.8361 7.01295 24.7734C7.17287 24.7075 7.35473 24.7859 7.42058 24.9458L12.5003 37.4224C12.5661 37.5823 12.4877 37.7673 12.3278 37.83C12.2871 37.8457 12.2494 37.8551 12.2087 37.8551Z" fill="#1A1A1A"/>
</g>
<defs>
<clipPath id="clip0_808_26221">
<rect width="47.5862" height="60" fill="white" transform="translate(0.654785 0.0976562)"/>
</clipPath>
</defs>
</svg>
