<svg width="49" height="61" viewBox="0 0 49 61" fill="none" xmlns="http://www.w3.org/2000/svg">
<g clip-path="url(#clip0_808_26186)">
<path d="M0.932251 24.1977L0.932237 24.1977C0.441015 22.0441 2.07939 19.995 4.2873 19.995H14.9504C16.556 19.995 17.949 21.1064 18.3054 22.67L24.5605 50.1446C25.0488 52.2986 23.4131 54.3475 21.2055 54.3475H10.5424C8.93674 54.3475 7.5438 53.2361 7.18733 51.6725C7.18733 51.6725 7.18733 51.6725 7.18732 51.6725L0.932251 24.1977Z" stroke="#1A1A1A" stroke-width="0.310345"/>
<path d="M1.9351 25.2642L1.93509 25.2641C1.48541 23.2927 2.98521 21.4169 5.00643 21.4169H14.8067C16.2765 21.4169 17.5517 22.4343 17.878 23.8657L23.6269 49.1171C24.0739 51.0889 22.5766 52.9645 20.5556 52.9645H10.7554C9.2855 52.9645 8.01035 51.9471 7.68404 50.5158C7.68403 50.5157 7.68403 50.5157 7.68403 50.5157L1.9351 25.2642Z" fill="white" stroke="#1A1A1A" stroke-width="0.310345"/>
<path d="M33.1047 29.7163C41.2567 29.7163 47.8652 23.1078 47.8652 14.9558C47.8652 6.8038 41.2567 0.195312 33.1047 0.195312C24.9527 0.195312 18.3442 6.8038 18.3442 14.9558C18.3442 23.1078 24.9527 29.7163 33.1047 29.7163Z" fill="#E04545"/>
<path d="M18.2754 29.7849L20.2736 22.3184L22.2759 14.8477L27.7443 20.316L33.2127 25.7844L25.742 27.7867L18.2754 29.7849Z" fill="#E04545"/>
<mask id="path-5-inside-1_808_26186" fill="white">
<path fill-rule="evenodd" clip-rule="evenodd" d="M28.1302 17.1528L28.2076 17.4357L28.2083 17.4355L28.2634 17.6348H37.2266L37.2801 17.4292C37.5513 16.4449 37.8226 15.4616 38.0938 14.4783C38.3653 13.4942 38.6368 12.5102 38.9082 11.5251L39.0028 11.1797H27.0591L26.4356 8.90419L23.8001 8.78906L23.7754 9.3359L26.0162 9.43458L26.4942 11.1797H26.479L28.1302 17.1528ZM28.4682 16.322L27.2089 11.7265H38.2833C37.7899 13.5109 37.2965 15.2995 36.8072 17.0839H28.6787L28.4682 16.322ZM30.0227 22.3551C29.0236 22.3551 28.2124 21.5439 28.2124 20.5447C28.2124 19.5455 29.0236 18.7344 30.0227 18.7344C31.0219 18.7344 31.8331 19.5455 31.8331 20.5447C31.8385 21.5439 31.0219 22.3551 30.0227 22.3551ZM30.0227 19.4488C29.4211 19.4488 28.9269 19.9377 28.9269 20.5447C28.9269 21.1517 29.4211 21.6406 30.0227 21.6406C30.6244 21.6406 31.1186 21.1464 31.1186 20.5447C31.1186 19.9431 30.6298 19.4488 30.0227 19.4488ZM33.3848 20.5447C33.3848 21.5439 34.1959 22.3551 35.1951 22.3551C36.1943 22.3551 37.0108 21.5439 37.0055 20.5447C37.0055 19.5455 36.1943 18.7344 35.1951 18.7344C34.1959 18.7344 33.3848 19.5455 33.3848 20.5447ZM34.0992 20.5447C34.0992 19.9377 34.5935 19.4488 35.1951 19.4488C35.8021 19.4488 36.291 19.9431 36.291 20.5447C36.291 21.1464 35.7968 21.6406 35.1951 21.6406C34.5935 21.6406 34.0992 21.1517 34.0992 20.5447Z"/>
</mask>
<path d="M28.2076 17.4357L27.7088 17.5723L27.8453 18.0707L28.3438 17.9347L28.2076 17.4357ZM28.1302 17.1528L28.629 17.0161L28.6287 17.015L28.1302 17.1528ZM28.2083 17.4355L28.7069 17.2977L28.5695 16.8008L28.0722 16.9365L28.2083 17.4355ZM28.2634 17.6348L27.7649 17.7726L27.8698 18.1521H28.2634V17.6348ZM37.2266 17.6348V18.1521H37.6266L37.7272 17.765L37.2266 17.6348ZM37.2801 17.4292L36.7814 17.2918L36.7795 17.2991L37.2801 17.4292ZM38.0938 14.4783L37.5952 14.3408V14.3408L38.0938 14.4783ZM38.9082 11.5251L39.4069 11.6625L39.4071 11.6617L38.9082 11.5251ZM39.0028 11.1797L39.5017 11.3163L39.6807 10.6624H39.0028V11.1797ZM27.0591 11.1797L26.5602 11.3164L26.6645 11.6969H27.0591V11.1797ZM26.4356 8.90419L26.9344 8.76749L26.8348 8.40389L26.4581 8.38744L26.4356 8.90419ZM23.8001 8.78906L23.8226 8.27231L23.3066 8.24977L23.2833 8.76575L23.8001 8.78906ZM23.7754 9.3359L23.2587 9.31259L23.2353 9.82986L23.7526 9.85264L23.7754 9.3359ZM26.0162 9.43458L26.5151 9.29794L26.4155 8.93442L26.0389 8.91784L26.0162 9.43458ZM26.4942 11.1797V11.6969H27.1721L26.993 11.0431L26.4942 11.1797ZM26.479 11.1797V10.6624H25.7994L25.9805 11.3175L26.479 11.1797ZM27.2089 11.7265V11.2093H26.5309L26.7101 11.8632L27.2089 11.7265ZM28.4682 16.322L27.9693 16.4587L27.9696 16.4597L28.4682 16.322ZM38.2833 11.7265L38.7818 11.8644L38.9629 11.2093H38.2833V11.7265ZM36.8072 17.0839V17.6011H37.2017L37.3061 17.2207L36.8072 17.0839ZM28.6787 17.0839L28.1801 17.2216L28.285 17.6011H28.6787V17.0839ZM31.8331 20.5447H31.3158L31.3159 20.5475L31.8331 20.5447ZM37.0055 20.5447H36.4882L36.4882 20.5475L37.0055 20.5447ZM28.7065 17.299L28.629 17.0161L27.6313 17.2894L27.7088 17.5723L28.7065 17.299ZM28.0722 16.9365L28.0715 16.9367L28.3438 17.9347L28.3445 17.9345L28.0722 16.9365ZM28.762 17.497L28.7069 17.2977L27.7098 17.5733L27.7649 17.7726L28.762 17.497ZM37.2266 17.1176H28.2634V18.1521H37.2266V17.1176ZM36.7795 17.2991L36.726 17.5047L37.7272 17.765L37.7807 17.5594L36.7795 17.2991ZM37.5952 14.3408C37.324 15.3241 37.0527 16.3074 36.7814 17.2918L37.7787 17.5667C38.0499 16.5824 38.3212 15.5992 38.5924 14.6159L37.5952 14.3408ZM38.4096 11.3876C38.1381 12.3727 37.8667 13.3567 37.5952 14.3408L38.5924 14.6159C38.8639 13.6318 39.1354 12.6477 39.4069 11.6625L38.4096 11.3876ZM38.5039 11.0431L38.4094 11.3885L39.4071 11.6617L39.5017 11.3163L38.5039 11.0431ZM27.0591 11.6969H39.0028V10.6624H27.0591V11.6969ZM25.9367 9.04088L26.5602 11.3164L27.5579 11.043L26.9344 8.76749L25.9367 9.04088ZM23.7775 9.30581L26.413 9.42093L26.4581 8.38744L23.8226 8.27231L23.7775 9.30581ZM24.2921 9.35921L24.3168 8.81237L23.2833 8.76575L23.2587 9.31259L24.2921 9.35921ZM26.0389 8.91784L23.7981 8.81916L23.7526 9.85264L25.9934 9.95132L26.0389 8.91784ZM26.993 11.0431L26.5151 9.29794L25.5173 9.57121L25.9953 11.3163L26.993 11.0431ZM26.479 11.6969H26.4942V10.6624H26.479V11.6969ZM28.6287 17.015L26.9775 11.0419L25.9805 11.3175L27.6316 17.2906L28.6287 17.015ZM26.7101 11.8632L27.9693 16.4587L28.967 16.1853L27.7078 11.5898L26.7101 11.8632ZM38.2833 11.2093H27.2089V12.2438H38.2833V11.2093ZM37.3061 17.2207C37.7952 15.4367 38.2885 13.6486 38.7818 11.8644L37.7847 11.5887C37.2913 13.3733 36.7978 15.1622 36.3084 16.9471L37.3061 17.2207ZM28.6787 17.6011H36.8072V16.5666H28.6787V17.6011ZM27.9696 16.4597L28.1801 17.2216L29.1773 16.9461L28.9667 16.1842L27.9696 16.4597ZM27.6952 20.5447C27.6952 21.8296 28.7379 22.8723 30.0227 22.8723V21.8378C29.3092 21.8378 28.7296 21.2582 28.7296 20.5447H27.6952ZM30.0227 18.2171C28.7379 18.2171 27.6952 19.2599 27.6952 20.5447H28.7296C28.7296 19.8312 29.3092 19.2516 30.0227 19.2516V18.2171ZM32.3503 20.5447C32.3503 19.2599 31.3076 18.2171 30.0227 18.2171V19.2516C30.7363 19.2516 31.3159 19.8312 31.3159 20.5447H32.3503ZM30.0227 22.8723C31.305 22.8723 32.3573 21.8315 32.3503 20.5419L31.3159 20.5475C31.3197 21.2563 30.7388 21.8378 30.0227 21.8378V22.8723ZM29.4441 20.5447C29.4441 20.225 29.7051 19.9661 30.0227 19.9661V18.9316C29.1371 18.9316 28.4096 19.6504 28.4096 20.5447H29.4441ZM30.0227 21.1234C29.7051 21.1234 29.4441 20.8644 29.4441 20.5447H28.4096C28.4096 21.4391 29.1371 22.1578 30.0227 22.1578V21.1234ZM30.6014 20.5447C30.6014 20.8607 30.3387 21.1234 30.0227 21.1234V22.1578C30.9101 22.1578 31.6359 21.432 31.6359 20.5447H30.6014ZM30.0227 19.9661C30.3425 19.9661 30.6014 20.2271 30.6014 20.5447H31.6359C31.6359 19.6591 30.9171 18.9316 30.0227 18.9316V19.9661ZM35.1951 21.8378C34.4816 21.8378 33.902 21.2582 33.902 20.5447H32.8675C32.8675 21.8296 33.9103 22.8723 35.1951 22.8723V21.8378ZM36.4882 20.5475C36.492 21.2563 35.9112 21.8378 35.1951 21.8378V22.8723C36.4774 22.8723 37.5296 21.8315 37.5227 20.5419L36.4882 20.5475ZM35.1951 19.2516C35.9086 19.2516 36.4882 19.8312 36.4882 20.5447H37.5227C37.5227 19.2599 36.48 18.2171 35.1951 18.2171V19.2516ZM33.902 20.5447C33.902 19.8312 34.4816 19.2516 35.1951 19.2516V18.2171C33.9103 18.2171 32.8675 19.2599 32.8675 20.5447H33.902ZM35.1951 18.9316C34.3094 18.9316 33.582 19.6504 33.582 20.5447H34.6165C34.6165 20.225 34.8775 19.9661 35.1951 19.9661V18.9316ZM36.8082 20.5447C36.8082 19.6591 36.0895 18.9316 35.1951 18.9316V19.9661C35.5148 19.9661 35.7737 20.2271 35.7737 20.5447H36.8082ZM35.1951 22.1578C36.0824 22.1578 36.8082 21.432 36.8082 20.5447H35.7737C35.7737 20.8607 35.5111 21.1234 35.1951 21.1234V22.1578ZM33.582 20.5447C33.582 21.4391 34.3094 22.1578 35.1951 22.1578V21.1234C34.8775 21.1234 34.6165 20.8644 34.6165 20.5447H33.582Z" fill="white" mask="url(#path-5-inside-1_808_26186)"/>
<rect x="5.91696" y="22.6596" width="8.47786" height="0.65118" rx="0.32559" stroke="#1A1A1A" stroke-width="0.288022"/>
<path d="M28.675 17.6348H37.6382L37.6917 17.4292C38.2344 15.4598 38.7771 13.4945 39.3199 11.5251L39.4144 11.1797H26.8906L28.675 17.6348Z" fill="white"/>
<path d="M48.625 72.8337C48.6848 72.7601 48.7003 72.6538 48.6538 72.5646L37.2153 52.0813C37.1865 52.0258 37.1373 51.9794 37.0766 51.9591C35.5641 51.4227 34.3518 50.3263 33.6635 48.8773L33.6408 48.83C33.5932 48.7303 33.4844 48.6742 33.3744 48.6909C33.2644 48.7077 33.1815 48.7979 33.1682 48.9093L33.0259 50.1342C32.1967 50.2648 31.3465 50.0569 30.6675 49.5509L29.3344 48.5558C28.8017 48.1588 28.4034 47.588 28.2095 46.9517L26.5335 41.3809C26.4958 41.257 26.3708 41.1813 26.2424 41.2089L21.0637 42.3224C20.7675 42.3745 20.4508 42.2815 20.2235 42.0744C19.9528 41.8258 19.8407 41.4649 19.9258 41.1065C20.011 40.7481 20.2737 40.4759 20.6271 40.377L25.5621 39.0529L31.3447 37.4844C34.0678 36.7469 37.0149 37.6505 38.8556 39.7905L56.3493 62.8447C56.4366 62.9509 56.5944 62.9665 56.7006 62.8791C56.8069 62.7918 56.8224 62.634 56.7351 62.5278L39.2375 39.4704C37.2696 37.1822 34.1226 36.2161 31.2147 37.0029L25.4322 38.5714L20.4953 39.8939C19.9625 40.0434 19.5668 40.4518 19.4398 40.9885C19.3129 41.5251 19.4775 42.0669 19.8853 42.4396C20.2265 42.7519 20.7042 42.8921 21.1589 42.8111L26.1225 41.7448L27.7329 47.0953C27.9554 47.8351 28.4177 48.4932 29.0354 48.9559L30.3685 49.9511C31.2091 50.5787 32.2802 50.8115 33.3057 50.5895C33.4099 50.568 33.4877 50.4801 33.4998 50.3741L33.5716 49.751C34.3278 50.9658 35.4564 51.8881 36.8151 52.3962L48.2106 72.7899C48.2713 72.9131 48.4237 72.9629 48.545 72.9006C48.5786 72.8829 48.603 72.8608 48.625 72.8337Z" fill="#1A1A1A"/>
<path d="M33.5268 49.3757C33.5645 49.3292 33.5867 49.2701 33.5817 49.205C33.5611 48.8186 33.4088 48.515 33.1312 48.3026C32.4431 47.7763 31.2084 48.0342 31.1564 48.0467C31.021 48.075 30.9355 48.2081 30.9653 48.3416C30.9936 48.477 31.1267 48.5626 31.2622 48.5343C31.5573 48.4717 32.41 48.3794 32.8283 48.6996C32.9884 48.8231 33.0703 48.9956 33.0842 49.2319C33.0914 49.3696 33.2088 49.4745 33.3464 49.4672C33.4189 49.465 33.4843 49.4281 33.5268 49.3757Z" fill="#1A1A1A"/>
<path d="M30.8857 45.429C30.9282 45.3767 30.9493 45.307 30.9401 45.2353C30.9188 45.0991 30.7936 45.0039 30.6574 45.0251C30.3585 45.0686 27.7425 45.488 27.7113 46.7066C27.708 46.8454 27.8175 46.96 27.9543 46.9617C28.0931 46.965 28.2076 46.8555 28.2094 46.7187C28.2255 46.0889 29.9121 45.6385 30.7284 45.5199C30.7912 45.5098 30.8464 45.4774 30.8857 45.429Z" fill="#1A1A1A"/>
<path d="M29.9501 43.0321C29.991 42.9817 30.0125 42.9156 30.0032 42.8438C29.9855 42.7073 29.8618 42.6102 29.7253 42.6279C29.4397 42.6629 26.9466 43.0021 26.9178 44.2258C26.9144 44.3646 27.024 44.4791 27.1608 44.4809C27.2995 44.4842 27.4141 44.3747 27.4158 44.2379C27.4307 43.6136 29.0184 43.2178 29.7857 43.1237C29.854 43.1149 29.9108 43.0806 29.9501 43.0321Z" fill="#1A1A1A"/>
<path d="M29.3149 40.3317C29.3589 40.2774 29.38 40.2078 29.3669 40.1329C29.3457 39.9967 29.2173 39.9054 29.0811 39.9266C28.7845 39.9752 26.1799 40.436 26.1483 41.6511C26.145 41.7899 26.2545 41.9044 26.3913 41.9062C26.5301 41.9095 26.6447 41.8 26.6464 41.6632C26.6606 41.0318 28.3459 40.5514 29.1591 40.4206C29.2219 40.4106 29.2771 40.3782 29.3149 40.3317Z" fill="#1A1A1A"/>
</g>
<defs>
<clipPath id="clip0_808_26186">
<rect width="47.5862" height="60" fill="white" transform="translate(0.689453 0.195312)"/>
</clipPath>
</defs>
</svg>
