<svg xmlns="http://www.w3.org/2000/svg" width="47" height="58" viewBox="0 0 47 58" fill="none">
  <g clip-path="url(#clip0_439_10542)">
    <path d="M37.608 4.70996H7.23346V32.396H37.608V4.70996Z" fill="#E04545"/>
    <path d="M22.4214 32.6995C22.2547 32.6995 22.1183 32.5631 22.1183 32.3963V4.71034C22.1183 4.54363 22.2547 4.40723 22.4214 4.40723C22.5881 4.40723 22.7245 4.54363 22.7245 4.71034V32.3963C22.7245 32.5631 22.5881 32.6995 22.4214 32.6995Z" fill="#1A1A1A"/>
    <path d="M36.263 18.8591H8.57704C8.41032 18.8591 8.27393 18.7227 8.27393 18.556C8.27393 18.3893 8.41032 18.2529 8.57704 18.2529H36.263C36.4298 18.2529 36.5662 18.3893 36.5662 18.556C36.5662 18.7227 36.4298 18.8591 36.263 18.8591Z" fill="#1A1A1A"/>
    <path d="M37.6943 39.7328C36.4334 35.3983 31.5442 32.2096 31.5442 32.2096L22.5449 32.2793L15.4946 32.2823C15.4946 32.2823 14.7944 28.0388 14.2276 26.6051C13.6638 25.1714 11.3814 25.2229 11.3814 25.2229L12.0361 29.621C12.0361 29.621 10.2266 25.7049 9.57184 24.8319C8.92015 23.9589 6.78929 24.0559 6.78929 24.0559L7.86533 26.8203C7.86533 26.8203 6.55893 25.0744 5.43439 24.6409C4.31289 24.2105 2.80341 24.7531 2.80341 24.7531L10.757 35.9378L29.2103 41.3908L30.1378 44.3612L31.0411 58.4909H44.3809C41.0194 51.2648 37.6943 39.7328 37.6943 39.7328Z" fill="white"/>
    <path d="M44.3777 58.7926H31.0409C30.8863 58.7926 30.756 58.6744 30.7378 58.5198L29.8375 44.4204L28.9676 41.6318L10.6689 36.2244C10.6053 36.2062 10.5477 36.1637 10.5083 36.1092L2.5577 24.9275C2.50011 24.8487 2.48496 24.7517 2.51527 24.6607C2.54255 24.5698 2.61226 24.4971 2.7032 24.4668C2.76988 24.4425 4.33393 23.8939 5.54939 24.3607C6.0374 24.5486 6.54662 24.9517 6.9831 25.367L6.51631 24.1636C6.47994 24.0727 6.49206 23.9697 6.54359 23.8878C6.59815 23.806 6.68605 23.7544 6.78305 23.7514C7.01644 23.7393 9.09274 23.6756 9.8202 24.6486C10.1839 25.1366 10.8781 26.4976 11.4418 27.6555L11.0872 25.267C11.0751 25.1821 11.0993 25.0942 11.1539 25.0275C11.2115 24.9608 11.2933 24.9214 11.3782 24.9184C11.4812 24.9184 13.8788 24.882 14.5123 26.4946C15.0064 27.7525 15.5884 31.0321 15.7521 31.9808L22.5447 31.9778L31.544 31.9081C31.6016 31.9051 31.6623 31.9263 31.7108 31.9566C31.9138 32.09 36.6878 35.2453 37.9791 39.6222C38.2094 40.0739 41.4345 51.4391 44.6566 58.3652C44.699 58.4592 44.6929 58.5683 44.6384 58.6562C44.5778 58.7411 44.4808 58.7926 44.3777 58.7926ZM31.3137 58.1864H43.9018C40.6495 51.2179 37.4547 39.9344 37.4244 39.8708C37.4153 39.8526 37.4092 39.8374 37.4032 39.8192C36.2695 35.9303 32.0654 32.9356 31.4531 32.5143L22.5478 32.584L15.4974 32.5871C15.3489 32.5871 15.2216 32.481 15.1974 32.3324C15.1913 32.29 14.4942 28.1041 13.9486 26.7158C13.5909 25.8065 12.3512 25.5913 11.7389 25.5398L12.339 29.5741C12.3603 29.7227 12.2693 29.8651 12.1269 29.9106C11.9814 29.953 11.8268 29.8833 11.7662 29.7469C11.748 29.7075 9.96266 25.8489 9.33523 25.0124C8.9715 24.5243 7.92577 24.3819 7.24074 24.3576L8.15613 26.7098C8.21069 26.8522 8.1531 27.0098 8.01973 27.0856C7.88637 27.1584 7.71966 27.125 7.62872 27.0038C7.6166 26.9856 6.36173 25.3215 5.33116 24.9275C4.65219 24.6668 3.79136 24.8062 3.30032 24.9275L10.9447 35.6788L29.298 41.1014C29.395 41.1287 29.4708 41.2045 29.5011 41.3014L30.4286 44.2719C30.4347 44.2931 30.4377 44.3113 30.4407 44.3325L31.3137 58.1864Z" fill="#1A1A1A"/>
    <path d="M22.3511 4.91653C22.3208 4.91653 22.2905 4.9135 22.2602 4.90138L17.6681 3.45858C17.071 3.27065 16.6284 2.7978 16.4769 2.19158C16.3284 1.58536 16.5042 0.957927 16.9437 0.518419C17.2983 0.163781 17.7924 -0.027178 18.2925 0.00313289C18.7957 0.0304127 19.2624 0.2729 19.5777 0.663911L22.5845 4.42247C22.6664 4.52552 22.6724 4.67405 22.5967 4.78317C22.5451 4.86804 22.4481 4.91653 22.3511 4.91653ZM18.1985 0.60632C17.8894 0.60632 17.5923 0.727564 17.3741 0.948834C17.0831 1.23982 16.9679 1.65205 17.0649 2.04912C17.1619 2.44923 17.4559 2.76143 17.8469 2.88267L21.4903 4.02539L19.1079 1.0428C18.9017 0.785155 18.5926 0.624507 18.2622 0.60632C18.241 0.60632 18.2198 0.60632 18.1985 0.60632Z" fill="#1A1A1A"/>
    <path d="M22.2738 4.9135C22.1768 4.9135 22.0798 4.86501 22.0222 4.78317C21.9465 4.67405 21.9525 4.52552 22.0344 4.42247L25.0412 0.663911C25.3564 0.269869 25.8232 0.0304127 26.3264 0.00313289C26.8265 -0.027178 27.3206 0.163781 27.6752 0.518419C28.1178 0.960958 28.2905 1.58536 28.142 2.19158C27.9935 2.7978 27.5479 3.27368 26.9538 3.45858L22.3617 4.90138C22.3344 4.91047 22.3041 4.9135 22.2738 4.9135ZM26.4264 0.603289C26.4052 0.603289 26.384 0.603289 26.3628 0.60632C26.0324 0.624507 25.7232 0.782124 25.5171 1.0428L23.1316 4.02539L26.778 2.87964C27.169 2.75537 27.463 2.44619 27.56 2.04609C27.657 1.64599 27.5419 1.23679 27.2539 0.945803C27.0326 0.724533 26.7356 0.603289 26.4264 0.603289Z" fill="#1A1A1A"/>
    <path d="M31.3239 37.5642C31.1936 37.5642 31.0723 37.4794 31.0329 37.346C30.9753 37.1581 29.6053 32.8418 23.4249 32.6902C17.0111 32.5296 15.4198 32.5144 15.4046 32.5144C15.2379 32.5144 15.1015 32.375 15.1045 32.2083C15.1045 32.0416 15.2409 31.9082 15.4077 31.9082H15.4107C15.4258 31.9082 17.0172 31.9234 23.44 32.084C26.8985 32.1689 28.9324 33.5389 30.0327 34.6726C31.233 35.9092 31.5998 37.1217 31.6149 37.1732C31.6634 37.3339 31.5694 37.5036 31.4118 37.5491C31.3815 37.5612 31.3512 37.5642 31.3239 37.5642Z" fill="#1A1A1A"/>
    <path d="M13.1801 36.7019C13.0316 36.7019 12.9013 36.5898 12.88 36.4382C12.7921 35.7623 11.0735 25.402 11.0583 25.299C11.0311 25.1353 11.1432 24.9777 11.3069 24.9504C11.4706 24.9231 11.6282 25.0352 11.6555 25.1989C11.7252 25.6263 13.3923 35.6744 13.4802 36.3594C13.5014 36.5261 13.3832 36.6777 13.2195 36.6989C13.2044 36.7019 13.1922 36.7019 13.1801 36.7019Z" fill="#1A1A1A"/>
    <path d="M11.6694 36.5003C11.5482 36.5003 11.4361 36.4276 11.3876 36.3124L6.48022 24.2486C6.41656 24.0941 6.49234 23.9152 6.64693 23.8546C6.80151 23.791 6.97732 23.8667 7.04097 24.0213L11.9513 36.082C12.015 36.2366 11.9392 36.4155 11.7846 36.4761C11.7452 36.4912 11.7089 36.5003 11.6694 36.5003Z" fill="#1A1A1A"/>
  </g>
  <defs>
    <clipPath id="clip0_439_10542">
      <rect width="46" height="58" fill="white" transform="translate(0.5)"/>
    </clipPath>
  </defs>
</svg>