<svg xmlns="http://www.w3.org/2000/svg" width="41" height="23" viewBox="0 0 41 23" fill="none">
  <path d="M5.12196 10.7916C5.2736 10.7916 5.42205 10.7481 5.54961 10.6661C5.67718 10.5841 5.77847 10.4672 5.84141 10.3292C5.91684 10.1415 5.91603 9.93174 5.83914 9.74461C5.76226 9.55747 5.61537 9.40774 5.42975 9.32728C2.19227 8.01627 1.00924 5.96045 1.72868 2.95337C3.58143 4.55236 6.35377 6.18861 8.57556 7.21477C8.6667 7.25873 8.76561 7.28429 8.86664 7.29C8.96767 7.29571 8.87876 7.06286 8.97427 7.02945C9.06979 6.99604 8.64285 6.85844 8.71829 6.79101C8.79374 6.72357 8.85516 6.64191 8.89903 6.55072C8.94299 6.45957 8.96856 6.36066 8.97427 6.25962C8.97998 6.15859 8.96573 6.05744 8.93232 5.96192C8.89891 5.86639 8.84701 5.77839 8.77957 5.70294C8.71214 5.62749 8.6305 5.56606 8.53931 5.52218C6.08932 4.40066 3.84761 2.87115 1.90981 0.998887C1.81513 0.909498 1.70034 0.844201 1.57513 0.808487C1.44992 0.772774 1.31795 0.767688 1.19037 0.793682C1.06259 0.820876 0.943783 0.879976 0.845005 0.965469C0.746227 1.05096 0.670697 1.16007 0.625453 1.28262C-0.967959 5.70332 0.49879 8.96628 4.86611 10.7396C4.94696 10.7742 5.03403 10.7919 5.12196 10.7916Z" fill="white"/>
  <path d="M6.24407 15.7777C6.39488 15.7756 6.54014 15.7246 6.65463 15.6336C6.76913 15.5425 6.84565 15.4171 6.87089 15.2792C6.9029 15.1197 6.8671 14.955 6.77102 14.8195C6.67494 14.6839 6.52604 14.5882 6.35553 14.5523C5.72379 14.4818 5.11418 14.2926 4.56393 13.9961C4.01369 13.6997 3.53435 13.3024 3.15521 12.8283C2.82977 12.2472 2.63283 11.6115 2.57598 10.9588C2.51912 10.306 2.6035 9.64926 2.82414 9.02718C2.84611 8.94936 2.85065 8.86821 2.83749 8.7887C2.82433 8.7092 2.79375 8.63304 2.74762 8.56493C2.7015 8.49682 2.64082 8.43821 2.56933 8.39269C2.49784 8.34718 2.41705 8.31573 2.33196 8.30031C2.24813 8.28129 2.16104 8.2781 2.07585 8.29089C1.99067 8.30369 1.90912 8.33222 1.83604 8.37481C1.76297 8.41739 1.69985 8.47315 1.65045 8.53878C1.60104 8.60442 1.56635 8.67861 1.54843 8.75692C1.29357 9.53824 1.20731 10.3585 1.29461 11.1708C1.38191 11.9831 1.64104 12.7714 2.05717 13.4907C2.52951 14.1008 3.13008 14.6158 3.82272 15.0048C4.51535 15.3938 5.28571 15.6487 6.08737 15.7542C6.13764 15.7708 6.19073 15.7787 6.24407 15.7777Z" fill="white"/>
  <path d="M10.6472 21.0718C11.0272 21.0718 11.4439 21.0464 11.8556 21.0198C12.0558 21.0008 12.2406 20.9041 12.3704 20.7504C12.5001 20.5968 12.5645 20.3984 12.5497 20.1978C12.5248 19.995 12.4227 19.8097 12.2646 19.6804C12.1065 19.5511 11.9047 19.4877 11.701 19.5036C7.7745 19.8634 5.63644 18.3725 5.07153 14.8005C5.03907 14.6002 4.9293 14.4208 4.76585 14.3007C4.6024 14.1805 4.39833 14.1294 4.19756 14.1583C3.99967 14.1954 3.82328 14.3063 3.70406 14.4686C3.58484 14.6308 3.5317 14.8323 3.55538 15.0323C3.61856 15.8967 3.8529 16.7399 4.24477 17.513C4.63664 18.286 5.17824 18.9735 5.83808 19.5354C6.49793 20.0974 7.26287 20.5226 8.08845 20.7863C8.91403 21.05 9.7838 21.1471 10.6472 21.0718Z" fill="white"/>
  <path d="M35.4483 10.6802C35.2967 10.6803 35.1483 10.6368 35.0207 10.5548C34.8931 10.4728 34.7918 10.3558 34.7289 10.2179C34.6535 10.0302 34.6543 9.82041 34.7312 9.63328C34.8081 9.44614 34.9549 9.29641 35.1406 9.21595C38.378 7.90494 39.5611 5.84913 38.8416 2.84204C36.9889 4.44103 34.2165 6.07728 31.9948 7.10344C31.9036 7.14741 31.8047 7.17296 31.7037 7.17867C31.6026 7.18438 31.6916 6.95153 31.596 6.91812C31.5005 6.88471 31.9275 6.74712 31.852 6.67968C31.7766 6.61224 31.7152 6.53058 31.6713 6.43939C31.6273 6.34825 31.6018 6.24933 31.596 6.14829C31.5903 6.04726 31.6046 5.94611 31.638 5.85059C31.6714 5.75507 31.7233 5.66706 31.7907 5.59161C31.8582 5.51616 31.9398 5.45474 32.031 5.41086C34.481 4.28934 36.7227 2.75982 38.6605 0.887559C38.7552 0.79817 38.87 0.732873 38.9952 0.697159C39.1204 0.661446 39.2524 0.65636 39.3799 0.682354C39.5077 0.709548 39.6265 0.768648 39.7253 0.854141C39.8241 0.939634 39.8996 1.04874 39.9449 1.17129C41.5383 5.59199 40.0715 8.85495 35.7042 10.6283C35.6234 10.6629 35.5363 10.6806 35.4483 10.6802Z" fill="white"/>
  <path d="M34.3258 15.6664C34.1749 15.6643 34.0297 15.6133 33.9152 15.5222C33.8007 15.4312 33.7242 15.3058 33.6989 15.1678C33.6669 15.0084 33.7027 14.8436 33.7988 14.7081C33.8949 14.5726 34.0438 14.4769 34.2143 14.441C34.846 14.3705 35.4556 14.1812 36.0059 13.8848C36.5561 13.5884 37.0355 13.191 37.4146 12.717C37.7401 12.1358 37.937 11.5002 37.9938 10.8474C38.0507 10.1947 37.9663 9.53794 37.7457 8.91585C37.7237 8.83804 37.7192 8.75688 37.7323 8.67738C37.7455 8.59787 37.7761 8.52172 37.8222 8.4536C37.8683 8.38549 37.929 8.32688 38.0005 8.28137C38.072 8.23586 38.1528 8.2044 38.2379 8.18898C38.3217 8.16997 38.4088 8.16677 38.494 8.17956C38.5792 8.19236 38.6607 8.2209 38.7338 8.26348C38.8069 8.30606 38.87 8.36182 38.9194 8.42745C38.9688 8.49309 39.0035 8.56728 39.0214 8.64559C39.2763 9.42691 39.3625 10.2472 39.2752 11.0595C39.1879 11.8718 38.9288 12.6601 38.5127 13.3794C38.0403 13.9894 37.4397 14.5045 36.7471 14.8935C36.0545 15.2825 35.2841 15.5374 34.4825 15.6429C34.4322 15.6594 34.3791 15.6674 34.3258 15.6664Z" fill="white"/>
  <path d="M29.9231 20.9585C29.5431 20.9585 29.1264 20.9332 28.7148 20.9066C28.5145 20.8876 28.3297 20.7908 28.2 20.6372C28.0702 20.4835 28.0058 20.2851 28.0206 20.0845C28.0455 19.8817 28.1476 19.6964 28.3057 19.5671C28.4638 19.4378 28.6657 19.3745 28.8693 19.3903C32.7958 19.7501 34.9339 18.2592 35.4988 14.6872C35.5312 14.487 35.641 14.3075 35.8045 14.1874C35.9679 14.0673 36.172 14.0161 36.3728 14.045C36.5706 14.0821 36.747 14.193 36.8663 14.3553C36.9855 14.5175 37.0386 14.719 37.0149 14.919C36.9517 15.7834 36.7174 16.6266 36.3255 17.3997C35.9337 18.1727 35.3921 18.8602 34.7322 19.4222C34.0724 19.9841 33.3074 20.4093 32.4819 20.673C31.6563 20.9368 30.7865 21.0338 29.9231 20.9585Z" fill="white"/>
  <path fill-rule="evenodd" clip-rule="evenodd" d="M17.2893 0.0332031H9.92492C9.1296 0.0332031 8.48486 0.677938 8.48486 1.47326V21.2023C8.48486 21.9977 9.1296 22.6424 9.92492 22.6424H30.7058C31.5012 22.6424 32.1459 21.9977 32.1459 21.2023V1.47326C32.1459 0.677939 31.5012 0.0332031 30.7058 0.0332031H23.3171V3.10936C23.3171 4.13 22.4897 4.9574 21.4691 4.9574H19.1373C18.1167 4.9574 17.2893 4.13 17.2893 3.10936V0.0332031Z" fill="#F25454"/>
</svg>