<svg xmlns="http://www.w3.org/2000/svg" width="18" height="21" viewBox="0 0 18 21" fill="none">
  <path d="M12.9392 20.4448L18.0006 19.1863L15.8094 4.35514C15.8032 4.31154 15.7823 4.27135 15.7502 4.24124C15.7181 4.21113 15.6766 4.19289 15.6327 4.18955L14.1369 4.17299L12.9392 3.00835V20.4503V20.4448ZM12.3872 2.83172L11.7911 3.01939C11.7168 2.77754 11.6207 2.54292 11.5041 2.3184C11.0791 1.50702 10.4553 1.07649 9.71019 1.07649H9.70467L9.55012 1.08753L9.47837 1.01025C9.321 0.838539 9.12747 0.703914 8.91175 0.616097C8.69602 0.52828 8.46349 0.489462 8.23094 0.502447C7.265 0.530045 6.29907 1.23104 5.51529 2.47295C4.96333 3.35057 4.54383 4.44897 4.42792 5.29899L2.51814 5.88959C1.95514 6.06622 1.93858 6.08829 1.8613 6.61266L0.337891 18.3915L12.5362 20.5V2.80964C12.481 2.80964 12.4258 2.8262 12.3872 2.83172ZM9.5722 3.70934L7.51339 4.3441C7.69638 3.60041 8.05186 2.91025 8.55107 2.32944C8.7277 2.14177 8.96504 1.93755 9.25206 1.81611C9.52252 2.37911 9.58324 3.16842 9.5722 3.70934ZM8.24749 1.14824C8.47932 1.14824 8.6725 1.1924 8.83257 1.30279C8.57315 1.43526 8.31925 1.63397 8.08191 1.88787C7.42623 2.65084 6.98608 3.57498 6.80688 4.56488L5.11787 5.08372C5.44905 3.52719 6.7572 1.1924 8.25301 1.14824H8.24749ZM6.36531 10.0183C6.43154 11.0559 9.15823 11.2878 9.31278 13.7164C9.43421 15.6262 8.29717 16.9343 6.66337 17.0392C4.7039 17.1662 3.62206 16.007 3.62206 16.007L4.03603 14.2408C4.03603 14.2408 5.12339 15.0577 5.99549 15.0025C6.09992 14.9998 6.20271 14.9759 6.29765 14.9323C6.39259 14.8888 6.47772 14.8264 6.54788 14.749C6.61805 14.6716 6.67179 14.5808 6.70587 14.4821C6.73995 14.3833 6.75366 14.2787 6.74616 14.1745C6.66337 12.8222 4.43896 12.905 4.29545 10.6751C4.17954 8.80394 5.41041 6.91072 8.12054 6.73961C9.16927 6.67337 9.69915 6.93831 9.69915 6.93831L9.08096 9.25655C9.08096 9.25655 8.391 8.94193 7.56858 8.99713C6.36531 9.0744 6.35427 9.83059 6.36531 10.0183ZM10.218 3.50512C10.2196 2.90371 10.1188 2.30642 9.91994 1.73884C10.6596 1.88235 11.0239 2.71581 11.1729 3.21258L10.218 3.50512Z" fill="white"/>
</svg>