<svg xmlns="http://www.w3.org/2000/svg" width="29" height="29" viewBox="0 0 29 29" fill="none">
  <g clip-path="url(#clip0_768_14790)">
    <path d="M14.3659 0.6603C11.075 0.64546 7.88313 1.7819 5.34698 3.87149C2.81083 5.96107 1.09126 8.87123 0.488068 12.0946C-0.115119 15.3179 0.436352 18.6499 2.04633 21.5096C3.6563 24.3694 6.22264 26.5754 9.2979 27.7431C9.18271 26.5955 9.06753 24.9889 9.2979 23.7266L10.9105 16.7264C10.6122 16.078 10.4551 15.374 10.4497 14.6607C10.4497 12.7098 11.6016 11.218 12.9837 11.218C14.3659 11.218 14.7115 12.1361 14.7115 13.1689C14.7115 14.2017 13.9052 16.1526 13.5597 17.8739C13.2141 19.5953 14.2508 20.3986 15.633 20.3986C17.0152 20.3986 20.0099 17.7592 20.0099 13.9722C20.0099 10.1852 17.5911 8.2343 14.1356 8.2343C10.6801 8.2343 7.9157 11.3328 7.9157 14.4312C7.9157 15.5788 8.37643 16.9559 8.95235 17.6444C8.99402 17.691 9.02573 17.7455 9.04554 17.8047C9.06534 17.8639 9.07282 17.9265 9.06753 17.9887L8.72198 19.5953C8.6068 19.8248 8.49161 19.9396 8.26125 19.8248C6.5335 19.0215 5.38168 16.4969 5.38168 14.4312C5.38168 10.0704 8.6068 5.93915 14.7115 5.93915C20.8162 5.93915 23.3502 9.38188 23.3502 13.9722C23.3502 18.5625 20.2403 22.6938 16.0937 22.6938C14.7115 22.6938 13.3293 22.0052 12.8686 21.0872L11.9471 24.4151C11.6016 25.6775 10.7953 27.1693 10.2194 28.0874C12.1453 28.6538 14.1708 28.8024 16.1593 28.5231C18.1477 28.2438 20.053 27.5431 21.7468 26.4683C23.4405 25.3935 24.8834 23.9695 25.9782 22.2923C27.0729 20.615 27.7941 18.7235 28.0932 16.7451C28.3924 14.7667 28.2624 12.7474 27.7121 10.8232C27.1618 8.8991 26.204 7.11482 24.9032 5.59061C23.6024 4.0664 21.9888 2.83766 20.1711 1.98719C18.3534 1.13671 16.3739 0.684257 14.3659 0.6603Z" fill="#E60124"/>
  </g>
  <defs>
    <clipPath id="clip0_768_14790">
      <rect width="28" height="28" fill="white" transform="translate(0.25 0.660156)"/>
    </clipPath>
  </defs>
</svg>