<svg xmlns="http://www.w3.org/2000/svg" width="29" height="29" viewBox="0 0 29 29" fill="none">
  <g clip-path="url(#clip0_768_14781)">
    <path fill-rule="evenodd" clip-rule="evenodd" d="M6.90831 18.7002C6.90831 20.2723 5.63953 21.5411 4.06743 21.5411C2.49534 21.5411 1.22656 20.268 1.22656 18.7002C1.22656 17.1324 2.49534 15.8594 4.06743 15.8594H6.90831V18.7002ZM8.32661 18.7002C8.32661 17.1282 9.5954 15.8594 11.1675 15.8594C12.7396 15.8594 14.0084 17.1282 14.0084 18.7002V25.8002C14.0084 27.3724 12.7396 28.6412 11.1675 28.6412C9.5954 28.6412 8.32661 27.3724 8.32661 25.8002V18.7002Z" fill="#E01E5A"/>
    <path fill-rule="evenodd" clip-rule="evenodd" d="M11.1674 7.29893C9.59527 7.29893 8.32649 6.03016 8.32649 4.45806C8.32649 2.88597 9.59527 1.61719 11.1674 1.61719C12.7394 1.61719 14.0082 2.88597 14.0082 4.45806V7.29893H11.1674ZM11.1674 8.7386C12.7394 8.7386 14.0082 10.0074 14.0082 11.5795C14.0082 13.1515 12.7394 14.4203 11.1674 14.4203H4.04596C2.47386 14.4203 1.20508 13.1473 1.20508 11.5795C1.20508 10.0117 2.47386 8.7386 4.04596 8.7386H11.1674Z" fill="#36C5F0"/>
    <path fill-rule="evenodd" clip-rule="evenodd" d="M22.5473 11.5795C22.5473 10.0074 23.8161 8.7386 25.3881 8.7386C26.9603 8.7386 28.2291 10.0074 28.2291 11.5795C28.2291 13.1516 26.9603 14.4203 25.3881 14.4203H22.5473V11.5795ZM21.1289 11.5795C21.1289 13.1516 19.8602 14.4203 18.2881 14.4203C16.7161 14.4203 15.4473 13.1516 15.4473 11.5795V4.45806C15.4473 2.88597 16.7161 1.61719 18.2881 1.61719C19.8602 1.61719 21.1289 2.88597 21.1289 4.45806V11.5795Z" fill="#2EB67D"/>
    <path fill-rule="evenodd" clip-rule="evenodd" d="M18.2881 22.9594C19.8602 22.9594 21.1289 24.2282 21.1289 25.8002C21.1289 27.3724 19.8602 28.6412 18.2881 28.6412C16.7161 28.6412 15.4473 27.3724 15.4473 25.8002V22.9594H18.2881ZM18.2881 21.5411C16.7161 21.5411 15.4473 20.2723 15.4473 18.7002C15.4473 17.1282 16.7161 15.8594 18.2881 15.8594H25.4095C26.9816 15.8594 28.2504 17.1282 28.2504 18.7002C28.2504 20.2723 26.9816 21.5411 25.4095 21.5411H18.2881Z" fill="#ECB22E"/>
  </g>
  <defs>
    <clipPath id="clip0_768_14781">
      <rect width="28" height="28" fill="white" transform="translate(0.25 0.660156)"/>
    </clipPath>
  </defs>
</svg>