<svg xmlns="http://www.w3.org/2000/svg" width="29" height="29" viewBox="0 0 29 29" fill="none">
  <g clip-path="url(#clip0_768_14772)">
    <path d="M25.3835 9.137C25.4005 9.37569 25.4005 9.61437 25.4005 9.85526C25.4005 17.1951 19.6219 25.6602 9.05553 25.6602V25.6558C5.93418 25.6602 2.87767 24.7957 0.25 23.1656C0.70387 23.2184 1.16001 23.2448 1.6173 23.2459C4.20401 23.2481 6.71679 22.4088 8.75181 20.8634C6.29363 20.8183 4.13804 19.2685 3.385 17.0059C4.2461 17.1665 5.13336 17.1335 5.97854 16.9103C3.29855 16.3867 1.37046 14.1098 1.37046 11.4656C1.37046 11.4414 1.37046 11.4183 1.37046 11.3952C2.16899 11.8252 3.06308 12.0639 3.97765 12.0903C1.45349 10.4591 0.675432 7.21212 2.19971 4.67348C5.1163 8.14377 9.41953 10.2534 14.039 10.4767C13.576 8.54744 14.2085 6.52577 15.7009 5.16955C18.0146 3.06648 21.6535 3.17428 23.8285 5.41044C25.115 5.16515 26.3481 4.70868 27.4765 4.06192C27.0476 5.34774 26.1501 6.43997 24.9512 7.13403C26.0899 7.00424 27.2023 6.70946 28.25 6.25958C27.4788 7.37711 26.5073 8.35055 25.3835 9.137Z" fill="#1D9BF0"/>
  </g>
  <defs>
    <clipPath id="clip0_768_14772">
      <rect width="28" height="28" fill="white" transform="translate(0.25 0.660156)"/>
    </clipPath>
  </defs>
</svg>