<svg xmlns="http://www.w3.org/2000/svg" width="29" height="29" viewBox="0 0 29 29" fill="none">
  <g clip-path="url(#clip0_768_14787)">
    <path fill-rule="evenodd" clip-rule="evenodd" d="M14.25 0.660156C6.5152 0.660156 0.25 6.96827 0.25 14.7561C0.25 20.9863 4.26351 26.2647 9.82398 28.1338C10.5201 28.2636 10.7779 27.8309 10.7779 27.4502C10.7779 27.1127 10.7693 26.2301 10.7607 25.0533C6.86756 25.9013 6.04251 23.1669 6.04251 23.1669C5.40654 21.5401 4.48696 21.1075 4.48696 21.1075C3.21501 20.2335 4.58149 20.2508 4.58149 20.2508C5.98235 20.3547 6.73005 21.7045 6.73005 21.7045C7.97622 23.8592 10.0044 23.2361 10.8037 22.8727C10.9326 21.9641 11.2936 21.3411 11.6889 20.9863C8.57781 20.6316 5.312 19.4201 5.312 14.0206C5.312 12.4803 5.85344 11.2256 6.75584 10.2391C6.60973 9.88436 6.12846 8.44795 6.89334 6.50966C6.89334 6.50966 8.07075 6.12892 10.7435 7.95472C11.8608 7.64321 13.0554 7.48746 14.25 7.4788C15.436 7.4788 16.6392 7.64321 17.7564 7.95472C20.4292 6.12892 21.6066 6.50966 21.6066 6.50966C22.3715 8.44795 21.8903 9.88436 21.7442 10.2391C22.638 11.2256 23.1794 12.4803 23.1794 14.0206C23.1794 19.4374 19.905 20.6229 16.7853 20.9777C17.2837 21.4103 17.7392 22.2756 17.7392 23.5909C17.7392 25.4773 17.7221 26.9916 17.7221 27.4589C17.7221 27.8396 17.9713 28.2722 18.6846 28.1338C24.2451 26.2647 28.25 20.9863 28.25 14.7648C28.25 6.96827 21.9848 0.660156 14.25 0.660156Z" fill="black"/>
  </g>
  <defs>
    <clipPath id="clip0_768_14787">
      <rect width="28" height="28" fill="white" transform="translate(0.25 0.660156)"/>
    </clipPath>
  </defs>
</svg>