<svg xmlns="http://www.w3.org/2000/svg" width="29" height="29" viewBox="0 0 29 29" fill="none">
  <g clip-path="url(#clip0_768_14775)">
    <path d="M18.1685 28.0867C17.9381 28.0506 17.7067 28.0209 17.4774 27.9807C16.1192 27.7282 14.7614 27.4744 13.4039 27.2193L9.21479 26.4345L5.19231 25.6837L2.59027 25.199C2.57186 25.1933 2.55379 25.1867 2.53613 25.1789C2.5563 25.0092 2.57541 24.8353 2.59771 24.6625C2.72793 23.6472 2.85922 22.6328 2.99156 21.619C3.12851 20.5649 3.26971 19.5109 3.4056 18.4567C3.54148 17.4027 3.67631 16.3305 3.81538 15.268C3.97817 14.0131 4.14307 12.7582 4.3101 11.5033C4.4237 10.638 4.54471 9.77271 4.65194 8.90633C4.65989 8.76691 4.71295 8.63384 4.80312 8.52713C4.89329 8.42041 5.01571 8.34583 5.15197 8.31459C5.88236 8.09084 6.60957 7.8586 7.33784 7.62955C7.51089 7.57546 7.68287 7.52349 7.85697 7.46942C7.89048 7.46172 7.92084 7.44399 7.94398 7.4186C7.96712 7.39321 7.98195 7.36135 7.98649 7.32731C8.30073 6.00354 8.81858 4.73645 9.5216 3.57121C10.0333 2.74406 10.648 2.00916 11.4728 1.47151C12.1171 1.04324 12.8712 0.809121 13.6449 0.79707C14.2012 0.788587 14.6344 1.05794 14.9942 1.45561C15.0275 1.50021 15.0707 1.5364 15.1205 1.56127C15.1703 1.58613 15.2252 1.59898 15.2809 1.59877C16.2279 1.61256 16.901 2.10037 17.4158 2.85223C17.6911 3.26882 17.9144 3.71755 18.0803 4.18839L18.1302 4.31458C18.3776 4.2361 18.6144 4.14915 18.8575 4.08871C19.0079 4.06153 19.1602 4.04558 19.3129 4.04098C19.3033 4.25308 19.2949 4.47152 19.2842 4.68679L19.2047 6.34852C19.1877 6.70377 19.1696 7.06008 19.1516 7.41534L19.0719 9.07494C19.0549 9.42842 19.0373 9.78438 19.0188 10.1428L18.9393 11.8034C18.9223 12.1598 18.9042 12.515 18.8872 12.8714C18.8596 13.4292 18.8328 13.9873 18.8065 14.5458C18.7895 14.8968 18.7714 15.2489 18.7545 15.5998C18.7269 16.1577 18.7 16.7158 18.6738 17.2743C18.6568 17.6264 18.6388 17.9774 18.6218 18.3284C18.5942 18.894 18.5673 19.4567 18.5411 20.0166C18.5242 20.3719 18.5061 20.7282 18.4891 21.0846C18.4615 21.6381 18.4346 22.1916 18.4084 22.7452C18.3914 23.1015 18.3734 23.4567 18.3564 23.813C18.3288 24.3786 18.3019 24.9442 18.2758 25.5098C18.2588 25.8523 18.2375 26.1949 18.2237 26.5373C18.2035 27.057 18.1865 27.5713 18.1685 28.0867ZM12.302 6.06114C12.3376 6.06147 12.3732 6.05827 12.4081 6.05159C13.2426 5.79178 14.0749 5.52986 14.9103 5.27322C14.99 5.24883 15.0165 5.21384 15.0102 5.13536C14.9815 4.69952 14.9783 4.26156 14.922 3.82996C14.8743 3.45668 14.7692 3.08764 14.6853 2.70588C14.6036 2.743 14.559 2.75996 14.5165 2.78224C14.0992 3.00652 13.7318 3.31318 13.4369 3.68361C13.0517 4.15825 12.7492 4.69417 12.5419 5.26898C12.4453 5.52773 12.3794 5.79921 12.2988 6.0622H12.2893C12.2893 6.0622 12.2893 6.0622 12.2893 6.06963L12.302 6.06114ZM14.2405 13.5733C14.5685 12.5861 14.9072 11.5648 15.248 10.5404C15.2195 10.5233 15.1901 10.5078 15.1598 10.4938C14.7246 10.3131 14.2628 10.2042 13.7925 10.1714C13.2563 10.1253 12.7167 10.137 12.183 10.2064C11.5562 10.282 10.9463 10.4612 10.3783 10.7366C9.38298 11.206 8.58499 12.0106 8.1245 13.0092C7.87627 13.55 7.72464 14.1299 7.67649 14.7229C7.62832 15.2245 7.67368 15.7309 7.81026 16.216C8.03639 17.0092 8.57569 17.5734 9.19037 18.0877C9.5269 18.3709 9.86344 18.654 10.1798 18.9594C10.3588 19.12 10.4961 19.3217 10.5799 19.5471C10.6637 19.7724 10.6914 20.0147 10.6607 20.2532C10.6335 20.4863 10.5264 20.7029 10.3574 20.8661C10.1884 21.0292 9.96813 21.1289 9.73391 21.1482C9.18399 21.1991 8.68291 21.0272 8.21474 20.7685C7.79009 20.5309 7.38136 20.2532 6.96627 19.9944C6.95817 20.0084 6.95176 20.0234 6.94716 20.0389C6.73484 20.7388 6.52889 21.4408 6.30488 22.1376C6.28103 22.1922 6.27623 22.2532 6.29125 22.3109C6.30626 22.3686 6.34023 22.4196 6.38769 22.4557C6.75813 22.8123 7.17917 23.1124 7.63722 23.3465C8.28517 23.676 8.99121 23.8764 9.71587 23.936C10.2021 23.9914 10.694 23.97 11.1735 23.8725C12.4007 23.5819 13.2628 22.8449 13.7649 21.6911C13.9971 21.1381 14.1259 20.5472 14.145 19.9478C14.1836 19.3782 14.0974 18.8071 13.8923 18.2743C13.5812 17.4896 13.0197 16.9021 12.3688 16.391C11.8965 16.0188 11.4134 15.6624 10.9452 15.2817C10.7085 15.0887 10.5142 14.8448 10.4781 14.5277C10.4498 14.2701 10.5072 14.0103 10.6415 13.7885C10.7759 13.5668 10.9796 13.3953 11.2212 13.3008C11.8126 13.0538 12.4251 13.0781 13.0314 13.2128C13.4347 13.303 13.8328 13.4492 14.2405 13.5733ZM9.0789 7.09614C9.12773 7.08341 9.15215 7.07917 9.17657 7.07175C9.82097 6.87238 10.4643 6.66983 11.1108 6.47577C11.1533 6.467 11.1918 6.44448 11.2202 6.4117C11.2486 6.37892 11.2654 6.33771 11.268 6.29444C11.4159 5.45512 11.6924 4.64356 12.0876 3.88828C12.543 3.04735 13.1438 2.34744 14.0165 1.9116C14.0316 1.90163 14.0459 1.89027 14.0589 1.87767C13.919 1.76876 13.7447 1.71347 13.5674 1.72178C13.1509 1.73388 12.7418 1.83513 12.3677 2.0187C11.6353 2.38351 11.0939 2.95827 10.6374 3.61892C10.0677 4.47215 9.619 5.4 9.30396 6.37609C9.2254 6.60409 9.15745 6.83845 9.0789 7.09614ZM17.264 4.53728C17.1833 4.32518 17.1122 4.129 17.0294 3.93494C16.8785 3.54244 16.6454 3.18667 16.3457 2.89145C16.1515 2.70174 15.8999 2.58166 15.6301 2.54999C15.9125 3.33685 15.9572 4.14067 15.9487 4.95509L17.264 4.53728Z" fill="#95BE47"/>
    <path d="M18.168 28.0869C18.186 27.5716 18.203 27.0572 18.2232 26.5418C18.237 26.1993 18.2582 25.8568 18.2752 25.5142C18.3022 24.9486 18.329 24.3831 18.356 23.8175C18.3729 23.4613 18.3909 23.1059 18.4079 22.7497C18.4348 22.1961 18.4617 21.6425 18.4886 21.089C18.5056 20.7327 18.5237 20.3763 18.5407 20.0211C18.5675 19.4555 18.5944 18.8928 18.6213 18.3329C18.6383 17.9818 18.6563 17.6309 18.6733 17.2788C18.7003 16.721 18.7271 16.1628 18.754 15.6044C18.771 15.2534 18.7891 14.9013 18.8061 14.5503C18.8329 13.9924 18.8599 13.4344 18.8867 12.8758C18.9037 12.5195 18.9217 12.1642 18.9387 11.8079L19.0173 10.143C19.0357 9.78956 19.0534 9.4336 19.0703 9.07518L19.1511 7.41451C19.1691 7.05926 19.1872 6.70295 19.2042 6.3477L19.2838 4.68597C19.2944 4.47389 19.3028 4.25543 19.3124 4.04016C19.442 3.98289 19.5099 4.08576 19.5821 4.15256C19.7944 4.35087 20.0067 4.55554 20.2116 4.7602C20.5078 5.05183 20.8008 5.34663 21.1002 5.63401C21.1511 5.6793 21.215 5.70748 21.2828 5.71461C21.94 5.76657 22.5971 5.81111 23.2532 5.85989C23.4973 5.87791 23.612 5.9829 23.6481 6.22363C23.8052 7.28407 23.9609 8.34452 24.1152 9.40497C24.2702 10.4526 24.4259 11.5 24.5823 12.547C24.7458 13.6563 24.9086 14.7652 25.0706 15.8737C25.2246 16.9172 25.3817 17.9596 25.5356 19.0031C25.6991 20.1031 25.8619 21.2032 26.024 22.3032C26.1797 23.3594 26.3364 24.4157 26.4943 25.4718C26.5325 25.7327 26.5686 25.9947 26.6079 26.2714L25.8117 26.4463L18.4589 28.037C18.3591 28.054 18.2636 28.0689 18.168 28.0869Z" fill="#608D43"/>
  </g>
  <defs>
    <clipPath id="clip0_768_14775">
      <rect width="28" height="28" fill="white" transform="translate(0.25 0.660156)"/>
    </clipPath>
  </defs>
</svg>