<svg xmlns="http://www.w3.org/2000/svg" width="28" height="28" viewBox="0 0 28 28" fill="none">
  <g clip-path="url(#clip0_768_14769)">
    <path d="M21.2568 9.21465V5.88209C21.7024 5.67639 22.0797 5.3498 22.3447 4.94034C22.6098 4.53088 22.7516 4.05543 22.7537 3.56935V3.49157C22.7519 2.81229 22.4781 2.16134 21.9921 1.68101C21.5061 1.20069 20.8475 0.93003 20.1602 0.928205H20.0816C19.3943 0.93003 18.7357 1.20069 18.2497 1.68101C17.7637 2.16134 17.4899 2.81229 17.4881 3.49157V3.56935C17.4902 4.05543 17.6321 4.53088 17.8972 4.94034C18.1622 5.3498 18.5394 5.67639 18.985 5.88209V9.21465C17.704 9.40827 16.4974 9.93305 15.4873 10.7357L6.22907 3.61603C6.29497 3.38116 6.33024 3.13894 6.33401 2.89524C6.33469 2.3233 6.16378 1.764 5.84286 1.28807C5.52195 0.81214 5.06545 0.440954 4.5311 0.22145C3.99674 0.00194615 3.40854 -0.0560157 2.84085 0.0548938C2.27317 0.165803 1.75151 0.440603 1.34184 0.844542C0.932173 1.24848 0.652897 1.76342 0.539327 2.32423C0.425756 2.88505 0.48299 3.46656 0.703797 3.99522C0.924604 4.52389 1.29906 4.97597 1.77983 5.29429C2.26059 5.61261 2.82605 5.78288 3.40471 5.78356C3.913 5.78169 4.41182 5.64756 4.85099 5.39465L13.9536 12.3985C13.1338 13.6211 12.7061 15.0597 12.7263 16.5263C12.7466 17.9929 13.2139 19.4194 14.0673 20.6193L11.2972 23.3572C11.0748 23.2873 10.8432 23.2499 10.6099 23.2467C10.1343 23.2467 9.66939 23.386 9.27395 23.6472C8.8785 23.9083 8.57029 24.2795 8.38829 24.7138C8.20629 25.1481 8.15867 25.626 8.25146 26.087C8.34424 26.5481 8.57325 26.9715 8.90955 27.3039C9.24584 27.6363 9.67431 27.8626 10.1408 27.9543C10.6072 28.0461 11.0908 27.9989 11.5301 27.8191C11.9695 27.6392 12.3451 27.3346 12.6093 26.9437C12.8735 26.5529 13.0145 26.0934 13.0145 25.6233C13.0114 25.3926 12.9736 25.1638 12.9026 24.944L15.643 22.2355C16.5376 22.9108 17.5764 23.3752 18.6803 23.5932C19.7841 23.8112 20.9238 23.777 22.0122 23.4934C23.1006 23.2097 24.1091 22.684 24.9606 21.9562C25.8122 21.2286 26.4842 20.3182 26.9255 19.2947C27.3668 18.2712 27.5656 17.1616 27.5069 16.0505C27.4481 14.9394 27.1332 13.8563 26.5863 12.8839C26.0395 11.9115 25.275 11.0754 24.3514 10.4395C23.4276 9.80348 22.3692 9.38459 21.2568 9.21465ZM20.1218 20.1768C19.3719 20.1768 18.6389 19.957 18.0153 19.5453C17.3918 19.1335 16.9059 18.5483 16.6189 17.8635C16.332 17.1788 16.2568 16.4253 16.4031 15.6983C16.5495 14.9714 16.9106 14.3037 17.4408 13.7796C17.971 13.2555 18.6466 12.8986 19.3821 12.754C20.1176 12.6095 20.8799 12.6836 21.5727 12.9673C22.2655 13.2509 22.8576 13.7312 23.2742 14.3475C23.6908 14.9637 23.9132 15.6882 23.9132 16.4294C23.9132 17.4232 23.5138 18.3764 22.8028 19.0792C22.0917 19.782 21.1273 20.1768 20.1218 20.1768Z" fill="#F37555"/>
  </g>
  <defs>
    <clipPath id="clip0_768_14769">
      <rect width="28" height="28" fill="white"/>
    </clipPath>
  </defs>
</svg>