<svg xmlns="http://www.w3.org/2000/svg" width="35" height="35" viewBox="0 0 35 35" fill="none">
  <path d="M13.7325 30.4746V29.9249C13.7265 29.572 13.2014 29.5718 13.1953 29.9249V30.4746C13.2013 30.8275 13.7265 30.8279 13.7325 30.4746Z" fill="#E84747"/>
  <path d="M24.4801 14.9278C23.6525 14.9346 22.8357 14.9269 21.3127 14.8054L20.7446 14.7541C17.5807 14.7114 14.8127 12.593 14.3445 9.31084C13.9999 6.94927 13.7954 4.56937 13.732 2.18363C13.7183 1.84522 13.2103 1.83448 13.1949 2.18363C13.1315 4.56939 12.9269 6.94931 12.5824 9.31091C12.1839 12.0511 9.99973 14.2397 7.27124 14.633C5.61766 14.9073 3.5208 14.9276 2.43527 14.9284C2.10586 14.9447 2.09559 15.4476 2.43702 15.465C3.54961 15.4583 5.60068 15.4717 7.27144 15.7463C10.0002 16.1397 12.1844 18.3282 12.5826 21.0684C12.9269 23.4282 13.1314 25.8063 13.1949 28.1903C13.1942 28.2616 13.2219 28.3302 13.2717 28.381C13.3216 28.4319 13.3896 28.4609 13.4609 28.4616C13.5321 28.4623 13.6007 28.4346 13.6516 28.3848C13.7024 28.3349 13.7314 28.2669 13.7321 28.1956C14.078 18.8941 14.4622 15.1706 24.4866 15.4654C24.8259 15.4533 24.8318 14.9345 24.4801 14.9278Z" fill="#E84747"/>
  <path d="M21.6762 29.4087C21.7338 29.4087 21.7891 29.3858 21.8298 29.3451C21.8706 29.3044 21.8935 29.2491 21.8935 29.1915V28.5469C21.8863 28.2606 21.4663 28.2602 21.459 28.5469V29.1918C21.4591 29.2493 21.482 29.3045 21.5227 29.3452C21.5634 29.3859 21.6187 29.4087 21.6762 29.4087Z" fill="#F08888"/>
  <path d="M21.9481 30.3815C21.9522 30.0906 21.5335 30.0071 21.4262 30.2778C21.2825 30.6843 21.9247 30.8122 21.9481 30.3815Z" fill="#F08888"/>
  <path d="M24.1693 23.7115C23.8116 23.7152 23.4542 23.6885 23.1011 23.6315C22.5554 23.5476 22.1154 22.993 22.0312 22.2828C21.9535 21.6288 21.9073 20.9699 21.8936 20.3243C21.8845 20.0365 21.4699 20.0404 21.4591 20.3199C21.4456 20.9668 21.3993 21.6272 21.3215 22.2828C21.1017 23.6553 20.2125 23.7187 19.1716 23.7119C18.904 23.7308 18.9029 24.1283 19.1733 24.1456C21.2419 24.0364 21.3421 25.0509 21.4456 26.9109L21.9051 26.9524C21.9741 25.9254 21.9618 24.4231 23.0954 24.2229C23.4536 24.1757 23.8143 24.1499 24.1756 24.1458C24.4529 24.1319 24.4496 23.7178 24.1693 23.7115Z" fill="#F08888"/>
</svg>