<svg xmlns="http://www.w3.org/2000/svg" width="20" height="20" viewBox="0 0 20 20" fill="none">
  <g clip-path="url(#clip0_2721_26699)">
    <path d="M14.3282 1.50781C13.5891 7.54289 13.807 9.31944 8.64487 9.9917C13.7193 10.8158 13.7924 12.6744 14.3282 18.4756C15.034 12.6405 14.8966 10.8926 20.0116 9.9917C14.8566 9.32954 15.0302 7.53578 14.3282 1.50781ZM3.08259 1.66338C2.6837 4.92019 2.80135 5.87892 0.015625 6.2417C2.75404 6.68642 2.79342 7.68941 3.08259 10.82C3.46348 7.67114 3.38935 6.72785 6.14963 6.2417C3.36778 5.88436 3.46142 4.91636 3.08259 1.66338ZM5.87437 10.8038C5.59468 13.0874 5.67717 13.7596 3.72389 14.014C5.644 14.3258 5.67161 15.0291 5.87437 17.2242C6.14145 15.0163 6.08948 14.3549 8.02493 14.014C6.07436 13.7634 6.14 13.0847 5.87437 10.8038Z" fill="white" stroke="white" stroke-width="0.0242767" stroke-linecap="square"/>
  </g>
  <defs>
    <clipPath id="clip0_2721_26699">
      <rect width="20" height="20" fill="white"/>
    </clipPath>
  </defs>
</svg>