<svg xmlns="http://www.w3.org/2000/svg" width="40" height="40" viewBox="0 0 40 40" fill="none">
  <path d="M34.375 12.5L20 5.625L5.625 12.5V34.375H34.375V12.5Z" fill="#F6B5B5"/>
  <path d="M30 16.875H10V34.375H30V16.875Z" fill="white"/>
  <path d="M18.75 27.5H12.5C12.125 27.5 11.875 27.75 11.875 28.125V33.75C11.875 34.125 12.125 34.375 12.5 34.375H18.75C19.125 34.375 19.375 34.125 19.375 33.75V28.125C19.375 27.75 19.125 27.5 18.75 27.5Z" fill="#F08888"/>
  <path d="M21.875 19.375H15.625C15.25 19.375 15 19.625 15 20V25.625C15 26 15.25 26.25 15.625 26.25H21.875C22.25 26.25 22.5 26 22.5 25.625V20C22.5 19.625 22.25 19.375 21.875 19.375Z" fill="#F08888"/>
  <path d="M27.5 27.5H21.25C20.875 27.5 20.625 27.75 20.625 28.125V33.75C20.625 34.125 20.875 34.375 21.25 34.375H27.5C27.875 34.375 28.125 34.125 28.125 33.75V28.125C28.125 27.75 27.875 27.5 27.5 27.5Z" fill="#F08888"/>
  <path d="M16.875 27.5H14.375V30H16.875V27.5Z" fill="#E84747"/>
  <path d="M25.625 27.5H23.125V30H25.625V27.5Z" fill="#E84747"/>
  <path d="M20 19.375H17.5V21.875H20V19.375Z" fill="#E84747"/>
  <path d="M13.125 13.75H26.875" stroke="white" stroke-width="1.25" stroke-miterlimit="10" stroke-linecap="square"/>
</svg>