<svg xmlns="http://www.w3.org/2000/svg" width="46" height="58" viewBox="0 0 46 58" fill="none">
  <g clip-path="url(#clip0_439_10521)">
    <path d="M40.961 0.392578H4.99988V24.0005H40.961V0.392578Z" fill="#E04545" stroke="#1A1A1A" stroke-miterlimit="10" stroke-linecap="round" stroke-linejoin="round"/>
    <path d="M22.9631 0V9.18883L23.0732 9.10074L24.4221 10.3835L25.7268 9.10074L27.0371 10.3835L28.3419 9.10074L29.6467 10.3835L30.9459 9.11175V0H22.9631Z" fill="white"/>
    <path d="M25.955 17.1143H31.4163" stroke="white" stroke-width="1.1011" stroke-miterlimit="10" stroke-linecap="round" stroke-linejoin="round"/>
    <path d="M25.955 19.6631H33.668" stroke="white" stroke-width="1.1011" stroke-miterlimit="10" stroke-linecap="round" stroke-linejoin="round"/>
    <path d="M23.8849 62.0239C23.7932 62.0239 23.704 61.9708 23.6654 61.8816L15.2587 40.8186C15.2346 40.7631 15.2298 40.698 15.2515 40.6401C15.7702 39.1781 15.6858 37.6002 15.0175 36.2009L14.9958 36.1551C14.9499 36.0586 14.9741 35.9428 15.0537 35.8704C15.1333 35.798 15.2515 35.7908 15.3432 35.8487L16.3492 36.488C16.9524 35.9452 17.3143 35.1804 17.348 34.3626L17.4132 32.7558C17.4397 32.114 17.254 31.4675 16.8945 30.9343L13.734 26.2828C13.664 26.1791 13.6833 26.0391 13.7822 25.9595L17.7727 22.7508C17.9922 22.5602 18.1152 22.2658 18.0984 21.9691C18.0766 21.6144 17.874 21.3105 17.5531 21.1561C17.2322 21.0016 16.8679 21.033 16.5784 21.2381L12.5784 24.1356L7.87864 27.5205C5.6663 29.1152 4.54927 31.8776 5.0342 34.5628L11.682 61.7368C11.7086 61.8671 11.6241 61.995 11.4938 62.0215C11.3636 62.048 11.2357 61.9636 11.2092 61.8333L4.56133 34.6545C4.04263 31.7835 5.23444 28.8329 7.59637 27.1296L12.2961 23.7448L16.2962 20.8448C16.7328 20.536 17.2805 20.4878 17.7606 20.7194C18.2407 20.951 18.5471 21.4045 18.5785 21.9377C18.605 22.3841 18.4192 22.828 18.0815 23.1199L14.2575 26.1959L17.2926 30.6641C17.7123 31.2817 17.9247 32.0296 17.8957 32.7751L17.8306 34.3819C17.7895 35.3951 17.3119 36.3409 16.5205 36.9754C16.4409 37.0405 16.3275 37.0454 16.2407 36.9899L15.7292 36.6642C16.1804 37.9718 16.1852 39.3807 15.7388 40.7101L24.1044 61.6862C24.1599 61.8068 24.1044 61.9515 23.9838 62.0046C23.95 62.0191 23.9187 62.0239 23.8849 62.0239Z" fill="#1A1A1A"/>
    <path d="M15.4732 36.4004C15.4153 36.4004 15.3574 36.3811 15.3116 36.3377C15.0341 36.0868 14.899 35.7876 14.9087 35.4498C14.9328 34.6127 15.8785 33.843 15.9196 33.8117C16.0233 33.7272 16.1753 33.7441 16.2573 33.8479C16.3418 33.9516 16.3249 34.1036 16.2211 34.188C15.9944 34.3714 15.4057 34.9553 15.3912 35.4643C15.3864 35.6597 15.466 35.8262 15.6349 35.9806C15.7338 36.0699 15.741 36.2219 15.6518 36.3208C15.6059 36.3739 15.5384 36.4004 15.4732 36.4004Z" fill="#1A1A1A"/>
    <path d="M14.12 32.0144C14.0548 32.0144 13.9897 31.9878 13.9414 31.9372C13.8522 31.8382 13.857 31.6862 13.9559 31.597C14.1706 31.3991 16.079 29.691 17.0127 30.41C17.1188 30.492 17.1381 30.644 17.0561 30.7477C16.9741 30.8539 16.8221 30.8732 16.7183 30.7912C16.2358 30.4196 14.8703 31.4112 14.284 31.9516C14.2382 31.9926 14.1803 32.0144 14.12 32.0144Z" fill="#1A1A1A"/>
    <path d="M12.895 29.8551C12.8323 29.8551 12.7695 29.831 12.7213 29.7803C12.6296 29.6838 12.632 29.5318 12.7285 29.4402C12.9288 29.2472 14.702 27.5825 15.6381 28.3062C15.7443 28.3883 15.7636 28.5403 15.6815 28.644C15.5995 28.7502 15.4475 28.7695 15.3438 28.6874C14.8661 28.3183 13.6019 29.2689 13.0639 29.7876C13.0156 29.8334 12.9553 29.8551 12.895 29.8551Z" fill="#1A1A1A"/>
    <path d="M11.252 27.7307C11.1845 27.7307 11.1194 27.7042 11.0711 27.6487C10.9818 27.5498 10.9915 27.3978 11.0904 27.3085C11.3075 27.1155 13.24 25.4412 14.1713 26.1577C14.2774 26.2398 14.2967 26.3918 14.2147 26.4955C14.1327 26.6017 13.9807 26.621 13.8769 26.5389C13.3944 26.165 12.0072 27.1373 11.4137 27.668C11.3678 27.709 11.3099 27.7307 11.252 27.7307Z" fill="#1A1A1A"/>
    <line x1="10.5" x2="10.5" y2="24" stroke="#1A1A1A"/>
    <line x1="37" y1="0.5" x2="13" y2="0.499998" stroke="#1A1A1A"/>
  </g>
  <defs>
    <clipPath id="clip0_439_10521">
      <rect width="46" height="58" fill="white"/>
    </clipPath>
  </defs>
</svg>