<svg width="144" height="50" viewBox="0 0 144 50" fill="none" xmlns="http://www.w3.org/2000/svg">
<path d="M12.0314 25.5109C12.1656 25.5109 12.2969 25.4724 12.4098 25.3999C12.5227 25.3274 12.6124 25.2239 12.6681 25.1019C12.7348 24.9358 12.7341 24.7503 12.6661 24.5847C12.598 24.4192 12.468 24.2868 12.3038 24.2156C9.43852 23.0559 8.39152 21.2373 9.02824 18.5772C10.668 19.9917 13.1215 21.4391 15.0879 22.3469C15.1685 22.3858 15.2561 22.4084 15.3455 22.4134C15.4349 22.4185 15.3562 22.2125 15.4407 22.1829C15.5253 22.1534 15.1474 22.0317 15.2142 21.972C15.281 21.9124 15.3353 21.8401 15.3741 21.7595C15.413 21.6788 15.4357 21.5913 15.4407 21.5019C15.4458 21.4126 15.4332 21.3231 15.4036 21.2386C15.374 21.1541 15.3281 21.0762 15.2684 21.0095C15.2087 20.9428 15.1365 20.8884 15.0558 20.8496C12.8875 19.8575 10.9035 18.5045 9.18854 16.8483C9.10475 16.7692 9.00316 16.7115 8.89235 16.6799C8.78153 16.6483 8.66474 16.6438 8.55182 16.6668C8.43874 16.6909 8.33359 16.7431 8.24617 16.8188C8.15875 16.8944 8.09191 16.9909 8.05186 17.0993C6.64166 21.0098 7.93976 23.8962 11.8049 25.4649C11.8765 25.4955 11.9535 25.5112 12.0314 25.5109Z" fill="black"/>
<path d="M13.0211 29.9187C13.1545 29.9168 13.2831 29.8717 13.3844 29.7912C13.4858 29.7106 13.5535 29.5997 13.5758 29.4777C13.6041 29.3366 13.5725 29.1909 13.4874 29.071C13.4024 28.9511 13.2706 28.8664 13.1197 28.8347C12.5606 28.7723 12.0211 28.6049 11.5341 28.3427C11.0471 28.0805 10.6229 27.729 10.2874 27.3097C9.99935 26.7956 9.82506 26.2333 9.77474 25.6559C9.72442 25.0784 9.7991 24.4975 9.99437 23.9472C10.0138 23.8783 10.0178 23.8066 10.0062 23.7362C9.99454 23.6659 9.96747 23.5985 9.92665 23.5383C9.88583 23.478 9.83213 23.4262 9.76886 23.3859C9.70559 23.3457 9.63409 23.3178 9.55878 23.3042C9.48459 23.2874 9.40751 23.2845 9.33212 23.2959C9.25673 23.3072 9.18456 23.3324 9.11988 23.3701C9.05521 23.4078 8.99935 23.4571 8.95563 23.5151C8.91191 23.5732 8.8812 23.6388 8.86534 23.7081C8.63978 24.3993 8.56345 25.1249 8.64071 25.8434C8.71796 26.562 8.9473 27.2593 9.31559 27.8956C9.73361 28.4353 10.2651 28.8909 10.8781 29.235C11.4911 29.5791 12.1729 29.8046 12.8824 29.8979C12.9269 29.9125 12.9739 29.9196 13.0211 29.9187Z" fill="black"/>
<path d="M16.9199 34.6109C17.2562 34.6109 17.625 34.5885 17.9893 34.565C18.1665 34.5482 18.3301 34.4626 18.4449 34.3267C18.5598 34.1907 18.6167 34.0152 18.6036 33.8378C18.5816 33.6584 18.4913 33.4945 18.3514 33.3801C18.2114 33.2657 18.0328 33.2097 17.8526 33.2237C14.3775 33.5419 12.4853 32.2231 11.9853 29.0633C11.9566 28.8862 11.8594 28.7275 11.7148 28.6212C11.5701 28.515 11.3895 28.4697 11.2118 28.4952C11.0367 28.5281 10.8806 28.6262 10.7751 28.7697C10.6696 28.9133 10.6225 29.0915 10.6435 29.2684C10.6994 30.033 10.9068 30.779 11.2536 31.4628C11.6004 32.1467 12.0798 32.7548 12.6637 33.2519C13.2477 33.749 13.9247 34.1251 14.6554 34.3584C15.386 34.5917 16.1558 34.6775 16.9199 34.6109Z" fill="black"/>
<path d="M38.8593 25.4132C38.7251 25.4133 38.5937 25.3748 38.4808 25.3022C38.3679 25.2297 38.2782 25.1263 38.2225 25.0042C38.1558 24.8382 38.1565 24.6526 38.2245 24.4871C38.2926 24.3216 38.4226 24.1891 38.5869 24.1179C41.4521 22.9582 42.4991 21.1396 41.8624 18.4796C40.2227 19.8941 37.7691 21.3415 35.8028 22.2492C35.7221 22.2881 35.6346 22.3107 35.5452 22.3158C35.4557 22.3208 35.5344 22.1148 35.4499 22.0853C35.3654 22.0557 35.7432 21.934 35.6764 21.8743C35.6097 21.8147 35.5553 21.7425 35.5165 21.6618C35.4776 21.5812 35.455 21.4937 35.4499 21.4043C35.4448 21.3149 35.4575 21.2254 35.487 21.1409C35.5166 21.0564 35.5625 20.9786 35.6222 20.9118C35.6819 20.8451 35.7541 20.7908 35.8348 20.752C38.0031 19.7599 39.9871 18.4069 41.7021 16.7507C41.7859 16.6716 41.8875 16.6138 41.9983 16.5822C42.1091 16.5506 42.2259 16.5461 42.3388 16.5691C42.4519 16.5932 42.557 16.6455 42.6445 16.7211C42.7319 16.7967 42.7987 16.8932 42.8388 17.0017C44.249 20.9122 42.9509 23.7986 39.0857 25.3673C39.0141 25.3979 38.9371 25.4135 38.8593 25.4132Z" fill="black"/>
<path d="M37.8696 29.821C37.7361 29.8192 37.6075 29.7741 37.5062 29.6935C37.4049 29.6129 37.3371 29.502 37.3148 29.38C37.2865 29.239 37.3182 29.0932 37.4032 28.9733C37.4882 28.8535 37.62 28.7688 37.7709 28.737C38.33 28.6747 38.8695 28.5073 39.3565 28.2451C39.8435 27.9828 40.2677 27.6313 40.6033 27.212C40.8913 26.6979 41.0656 26.1356 41.1159 25.5582C41.1662 24.9808 41.0915 24.3998 40.8963 23.8495C40.8768 23.7807 40.8728 23.7089 40.8844 23.6386C40.8961 23.5682 40.9232 23.5009 40.964 23.4406C41.0048 23.3804 41.0585 23.3285 41.1218 23.2883C41.185 23.248 41.2565 23.2202 41.3318 23.2065C41.406 23.1897 41.4831 23.1869 41.5585 23.1982C41.6339 23.2095 41.7061 23.2348 41.7707 23.2724C41.8354 23.3101 41.8913 23.3594 41.935 23.4175C41.9787 23.4756 42.0094 23.5412 42.0253 23.6105C42.2508 24.3016 42.3272 25.0272 42.2499 25.7458C42.1727 26.4643 41.9433 27.1617 41.575 27.7979C41.157 28.3376 40.6255 28.7932 40.0125 29.1373C39.3995 29.4814 38.7177 29.7069 38.0082 29.8002C37.9637 29.8149 37.9168 29.8219 37.8696 29.821Z" fill="black"/>
<path d="M33.9707 34.5133C33.6344 34.5133 33.2656 34.4908 32.9013 34.4673C32.7241 34.4505 32.5605 34.3649 32.4457 34.229C32.3309 34.0931 32.2739 33.9176 32.287 33.7401C32.309 33.5608 32.3993 33.3968 32.5393 33.2824C32.6792 33.168 32.8579 33.112 33.0381 33.1261C36.5131 33.4443 38.4053 32.1255 38.9053 28.9657C38.934 28.7886 39.0312 28.6298 39.1758 28.5235C39.3205 28.4173 39.5011 28.3721 39.6788 28.3976C39.8539 28.4304 40.01 28.5286 40.1155 28.6721C40.2211 28.8156 40.2681 28.9938 40.2471 29.1707C40.1912 29.9354 39.9838 30.6813 39.637 31.3651C39.2902 32.049 38.8109 32.6571 38.2269 33.1542C37.6429 33.6513 36.9659 34.0274 36.2353 34.2607C35.5046 34.494 34.7349 34.5799 33.9707 34.5133Z" fill="black"/>
<path fill-rule="evenodd" clip-rule="evenodd" d="M22.8047 16H15.7643C15.3508 16 15.0156 16.3352 15.0156 16.7487V35.2513C15.0156 35.6648 15.3508 36 15.7643 36H35.2074C35.6209 36 35.9561 35.6648 35.9561 35.2513V16.7487C35.9561 16.3352 35.6209 16 35.2074 16H28.1394V19.3908C28.1394 19.9215 27.7092 20.3516 27.1786 20.3516H23.7655C23.2349 20.3516 22.8047 19.9215 22.8047 19.3908V16Z" fill="#FF8A1E"/>
<path d="M71.2261 28.6939V20.8636H75.008V34.5H71.377V32.0231H71.235C70.9272 32.8221 70.4152 33.4643 69.6991 33.9496C68.9889 34.4349 68.1218 34.6776 67.0979 34.6776C66.1864 34.6776 65.3845 34.4704 64.692 34.0561C63.9995 33.6418 63.458 33.0529 63.0673 32.2894C62.6826 31.5259 62.4873 30.6115 62.4814 29.5462V20.8636H66.2634V28.8714C66.2693 29.6764 66.4853 30.3126 66.9114 30.7802C67.3376 31.2478 67.9087 31.4815 68.6249 31.4815C69.0806 31.4815 69.5067 31.378 69.9033 31.1708C70.2998 30.9577 70.6194 30.6441 70.8621 30.2298C71.1107 29.8155 71.232 29.3035 71.2261 28.6939ZM78.1042 34.5V16.3182H81.9483V31.3306H89.743V34.5H78.1042ZM98.379 34.7663C96.9999 34.7663 95.8073 34.4734 94.8012 33.8874C93.8009 33.2956 93.0286 32.4729 92.4841 31.4194C91.9396 30.36 91.6673 29.1319 91.6673 27.7351C91.6673 26.3265 91.9396 25.0954 92.4841 24.0419C93.0286 22.9825 93.8009 22.1598 94.8012 21.5739C95.8073 20.982 96.9999 20.6861 98.379 20.6861C99.758 20.6861 100.948 20.982 101.948 21.5739C102.954 22.1598 103.729 22.9825 104.274 24.0419C104.818 25.0954 105.091 26.3265 105.091 27.7351C105.091 29.1319 104.818 30.36 104.274 31.4194C103.729 32.4729 102.954 33.2956 101.948 33.8874C100.948 34.4734 99.758 34.7663 98.379 34.7663ZM98.3967 31.8366C99.0241 31.8366 99.5479 31.6591 99.9681 31.304C100.388 30.9429 100.705 30.4517 100.918 29.8303C101.137 29.2088 101.246 28.5015 101.246 27.7085C101.246 26.9154 101.137 26.2081 100.918 25.5866C100.705 24.9652 100.388 24.474 99.9681 24.1129C99.5479 23.7519 99.0241 23.5714 98.3967 23.5714C97.7634 23.5714 97.2307 23.7519 96.7987 24.1129C96.3726 24.474 96.05 24.9652 95.831 25.5866C95.6179 26.2081 95.5114 26.9154 95.5114 27.7085C95.5114 28.5015 95.6179 29.2088 95.831 29.8303C96.05 30.4517 96.3726 30.9429 96.7987 31.304C97.2307 31.6591 97.7634 31.8366 98.3967 31.8366ZM113.693 39.8977C112.468 39.8977 111.418 39.729 110.542 39.3917C109.672 39.0603 108.979 38.6075 108.464 38.0334C107.949 37.4593 107.615 36.8142 107.461 36.098L110.959 35.6275C111.065 35.8997 111.234 36.1542 111.465 36.391C111.696 36.6277 112.001 36.8171 112.379 36.9592C112.764 37.1071 113.232 37.1811 113.782 37.1811C114.605 37.1811 115.282 36.9799 115.815 36.5774C116.354 36.1809 116.623 35.515 116.623 34.5799V32.0852H116.463C116.297 32.464 116.049 32.8221 115.717 33.1594C115.386 33.4968 114.96 33.772 114.439 33.9851C113.918 34.1982 113.297 34.3047 112.575 34.3047C111.551 34.3047 110.619 34.0679 109.778 33.5945C108.944 33.1151 108.278 32.3841 107.781 31.4016C107.289 30.4132 107.044 29.1644 107.044 27.6552C107.044 26.1104 107.295 24.8202 107.798 23.7844C108.301 22.7487 108.97 21.9734 109.805 21.4585C110.645 20.9435 111.566 20.6861 112.566 20.6861C113.329 20.6861 113.968 20.8163 114.483 21.0767C114.998 21.3312 115.413 21.6508 115.726 22.0355C116.046 22.4143 116.291 22.7872 116.463 23.1541H116.605V20.8636H120.36V34.6332C120.36 35.7932 120.076 36.7638 119.508 37.5451C118.94 38.3263 118.153 38.9123 117.147 39.3029C116.146 39.6995 114.995 39.8977 113.693 39.8977ZM113.773 31.4638C114.383 31.4638 114.898 31.3129 115.318 31.011C115.744 30.7032 116.07 30.2653 116.294 29.6971C116.525 29.123 116.641 28.4364 116.641 27.6374C116.641 26.8384 116.528 26.146 116.303 25.56C116.078 24.9682 115.753 24.5095 115.327 24.1839C114.901 23.8584 114.383 23.6957 113.773 23.6957C113.152 23.6957 112.628 23.8643 112.202 24.2017C111.776 24.5331 111.453 24.9948 111.234 25.5866C111.015 26.1785 110.906 26.8621 110.906 27.6374C110.906 28.4246 111.015 29.1052 111.234 29.6793C111.459 30.2475 111.782 30.6884 112.202 31.0021C112.628 31.3099 113.152 31.4638 113.773 31.4638ZM123.37 34.5V20.8636H127.152V34.5H123.37ZM125.27 19.1058C124.708 19.1058 124.225 18.9194 123.823 18.5465C123.426 18.1677 123.228 17.715 123.228 17.1882C123.228 16.6674 123.426 16.2205 123.823 15.8477C124.225 15.4689 124.708 15.2795 125.27 15.2795C125.832 15.2795 126.312 15.4689 126.708 15.8477C127.111 16.2205 127.312 16.6674 127.312 17.1882C127.312 17.715 127.111 18.1677 126.708 18.5465C126.312 18.9194 125.832 19.1058 125.27 19.1058ZM133.342 20.8636L135.846 25.631L138.411 20.8636H142.291L138.34 27.6818L142.398 34.5H138.536L135.846 29.7859L133.2 34.5H129.294L133.342 27.6818L129.436 20.8636H133.342Z" fill="#1A1A1A"/>
</svg>
