<svg width="294" height="223" viewBox="0 0 294 223" fill="none" xmlns="http://www.w3.org/2000/svg">
<path d="M49.2549 118.1L49.2547 118.1C40.7741 117.842 33.733 110.925 33.3305 102.454L49.2549 118.1ZM49.2549 118.1C54.4215 118.254 59.0628 116.026 62.1864 112.439C62.7322 111.817 63.5153 111.46 64.3399 111.46H64.4099C66.0956 111.46 67.4599 112.818 67.4599 114.5V135.13V135.63M49.2549 118.1L67.4599 135.63M67.4599 135.63H67.9599M67.4599 135.63H67.9599M67.9599 135.63H120.2C128.596 135.63 135.41 128.816 135.41 120.42V68.1699V67.6699M67.9599 135.63L135.41 67.6699M135.41 67.6699H134.91M135.41 67.6699H134.91M134.91 67.6699H67.9499H67.4499M134.91 67.6699H67.4499M67.4499 67.6699V68.1699M67.4499 67.6699V68.1699M67.4499 68.1699V88.7999M67.4499 68.1699V88.7999M67.4499 88.7999C67.4499 90.4747 66.0928 91.8399 64.4099 91.8399M67.4499 88.7999L64.4099 91.8399M64.4099 91.8399C63.5305 91.8399 62.6946 91.447 62.1047 90.779M64.4099 91.8399L62.1047 90.779M62.1047 90.779C59.0943 87.3566 54.6899 85.1899 49.7699 85.1899M62.1047 90.779L49.7699 85.1899M49.7699 85.1899C40.4161 85.1899 32.8768 92.9969 33.3305 102.454L49.7699 85.1899Z" fill="#E84747" stroke="black"/>
<path d="M117.88 86.645L117.88 86.6452C117.622 95.136 110.705 102.167 102.234 102.569C92.7773 103.023 84.9702 95.4839 84.9702 86.13C84.9702 81.2097 87.137 76.8052 90.5598 73.7947M117.88 86.645L90.8902 74.17M117.88 86.645C118.035 81.4993 115.827 76.8782 112.27 73.7644M117.88 86.645L117.38 86.63C117.53 81.64 115.39 77.16 111.94 74.14M90.5598 73.7947C90.5598 73.7947 90.5599 73.7946 90.56 73.7945L90.8902 74.17M90.5598 73.7947C90.5596 73.7949 90.5594 73.7951 90.5592 73.7952L90.8902 74.17M90.5598 73.7947C91.2275 73.2048 91.6202 72.3692 91.6202 71.49C91.6202 69.8071 90.255 68.45 88.5802 68.45H67.9502H67.4502V67.95V1V0.5H67.9502H120.19C128.597 0.5 135.4 7.31408 135.4 15.71V67.95V68.45H134.9H114.27C112.587 68.45 111.23 69.8152 111.23 71.49C111.23 72.3612 111.614 73.186 112.27 73.7644M90.8902 74.17C91.6602 73.49 92.1202 72.52 92.1202 71.49C92.1202 69.53 90.5302 67.95 88.5802 67.95H68.4502H67.9502V67.45V1.5V1H68.4502H120.19C128.32 1 134.9 7.59 134.9 15.71V67.45V67.95H134.4H114.27C112.31 67.95 110.73 69.54 110.73 71.49C110.73 72.51 111.18 73.47 111.94 74.14M112.27 73.7644C112.27 73.7642 112.27 73.764 112.27 73.7638L111.94 74.14M112.27 73.7644C112.27 73.7645 112.271 73.7647 112.271 73.7649L111.94 74.14" fill="white" stroke="black"/>
<path d="M86.6458 18.0202L86.645 18.0202C81.4784 17.8655 76.8371 20.0939 73.7135 23.681C73.1677 24.3032 72.3846 24.66 71.56 24.66H71.5C69.8143 24.66 68.45 23.302 68.45 21.62V1V0.5H67.95H15.71C7.31386 0.5 0.5 7.31386 0.5 15.71V67.95V68.45H1H22.82H22.9073L22.9895 68.4204C24.5388 67.8622 25.66 66.3902 25.66 64.63C25.66 63.4647 25.1569 62.3678 24.2791 61.6036C20.936 58.667 18.8645 54.3283 19.0098 49.5052C19.2518 41.5461 25.7546 34.9271 33.7137 34.5494L33.714 34.5494C42.5971 34.1232 49.93 41.2039 49.93 49.99C49.93 54.5515 47.9453 58.6484 44.7958 61.4781L44.7934 61.4803C44.0705 62.1384 43.4555 63.0178 43.3145 64.0728C43.041 66.0595 44.2315 67.8056 45.9516 68.4208L46.0333 68.45H46.12H67.94H68.44V67.95V47.5C68.44 46.1417 69.2428 44.884 70.472 44.463L70.474 44.4623C71.709 44.0335 72.9692 44.4322 73.7742 45.3498L73.7746 45.3502C76.785 48.773 81.1896 50.94 86.11 50.94C95.4637 50.94 103.003 43.1333 102.549 33.6768C102.167 25.1947 95.1354 18.2885 86.6458 18.0202Z" fill="white" stroke="black"/>
<path d="M18.0202 49.4752L18.0203 49.4743C18.2885 40.9946 25.1948 33.9532 33.676 33.5507L18.0202 49.4752ZM18.0202 49.4752C17.8655 54.6417 20.0939 59.283 23.681 62.4067C24.3032 62.9524 24.66 63.7356 24.66 64.5601V64.6301C24.66 66.3158 23.302 67.6801 21.62 67.6801H1H0.5V68.1801V120.42C0.5 128.816 7.31386 135.63 15.71 135.63H67.95H68.45V135.13V68.1701V67.6701H67.95H47.33C45.6552 67.6701 44.29 66.3131 44.29 64.6301C44.29 63.7509 44.6828 62.9153 45.3505 62.3253M18.0202 49.4752L45.3505 62.3253M45.3505 62.3253C48.7732 59.3149 50.94 54.9104 50.94 49.9901C50.94 40.6363 43.133 33.0971 33.6763 33.5507L45.3505 62.3253Z" fill="white" stroke="black"/>
<path d="M292.97 221.59C289.61 206.93 279.13 176.19 272.74 158.44C269.71 150.02 263.04 143.43 254.59 140.5L221.48 129L190.26 130.69L161.49 137.99C152.34 140.31 144.48 146.15 139.6 154.23C128.27 172.99 110.24 206.04 102.98 220.26L292.97 221.59Z" fill="#E84747"/>
<path d="M292.97 222.59C292.51 222.59 292.1 222.28 292 221.81C288.56 206.79 277.69 175.12 271.81 158.78C268.87 150.61 262.48 144.29 254.27 141.44L221.34 130.01L190.41 131.68L161.74 138.95C152.79 141.22 145.24 146.83 140.46 154.74C129.05 173.63 111.17 206.43 103.87 220.71C103.62 221.2 103.02 221.4 102.52 221.15C102.03 220.9 101.83 220.3 102.08 219.8C109.39 205.49 127.31 172.63 138.74 153.71C143.79 145.35 151.78 139.42 161.24 137.02L190.01 129.72C190.07 129.7 190.14 129.69 190.2 129.69L221.42 128C221.54 127.99 221.68 128.01 221.8 128.05L254.92 139.54C263.7 142.59 270.54 149.35 273.68 158.09C279.58 174.48 290.48 206.25 293.94 221.36C294.06 221.9 293.73 222.43 293.19 222.56C293.12 222.58 293.04 222.59 292.97 222.59Z" fill="#080717"/>
<path d="M93.5005 139L127 221.5L130.5 231H75L73.0007 221.5L59.0007 160.23C49.4378 158.182 42.8382 153.038 39.0338 148.5L17.0007 136C15.6673 133.667 15.2007 128.6 24.0007 127L31.6089 128.5L27.5005 114C23.5005 102.8 25.5007 101.75 29.5005 101C37.5 99.5 42.3338 110.5 44.0005 116.75L42.0005 101.5C46.4005 93.8999 52.1671 98.9997 54.5005 102.5C58.1005 96.0993 64.0005 99.8328 66.5005 102.5C72.9005 96.8996 78.0005 102.5 79.0005 106L82.0005 130C88.8005 131.2 92.5005 136.5 93.5005 139Z" fill="white"/>
<path d="M66.5005 102.5C72.9005 96.8996 78.0005 102.5 79.0005 106L82.0005 130C88.8005 131.2 92.5005 136.5 93.5005 139L127 221.5L130.5 231H75L73.0007 221.5L59.0007 160.23M66.5005 102.5L70.0005 131M66.5005 102.5C64.0005 99.8328 58.1005 96.0993 54.5005 102.5M54.5005 102.5L58.0005 132M54.5005 102.5C52.1671 98.9997 46.4005 93.8999 42.0005 101.5L44.0005 116.75M46.0005 132L44.0005 116.75M44.0005 116.75C42.3338 110.5 37.5 99.5 29.5005 101C25.5007 101.75 23.5005 102.8 27.5005 114L31.6089 128.5M71.5007 161C66.88 161.355 62.7166 161.027 59.0007 160.23M59.0007 160.23C49.4378 158.182 42.8382 153.038 39.0338 148.5M39.0338 148.5C37.6619 146.863 36.6535 145.306 36.0007 144L31.6089 128.5M39.0338 148.5L17.0007 136C15.6673 133.667 15.2007 128.6 24.0007 127L31.6089 128.5" stroke="black"/>
<path d="M220.03 99.6494L225.93 134.669C226.42 137.589 226.26 140.589 225.45 143.439L225.19 144.369C222.68 153.249 214.42 159.269 205.19 158.929C194.07 158.519 185.42 149.109 185.94 137.999L187.21 110.739L220.03 99.6494Z" fill="white"/>
<path d="M205.96 159.94C205.7 159.94 205.43 159.94 205.17 159.93C199.52 159.72 194.31 157.31 190.48 153.16C186.65 149 184.69 143.6 184.96 137.96L186.23 110.7C186.25 110.29 186.52 109.93 186.91 109.8L219.72 98.7196C220 98.6296 220.3 98.6596 220.55 98.8096C220.8 98.9596 220.97 99.2096 221.02 99.4996L226.92 134.52C227.43 137.57 227.26 140.75 226.42 143.73L226.16 144.66C223.59 153.75 215.35 159.94 205.96 159.94ZM188.19 111.47L186.95 138.05C186.71 143.16 188.49 148.04 191.95 151.81C195.41 155.57 200.13 157.75 205.24 157.94C214.03 158.28 221.85 152.58 224.24 144.11L224.5 143.18C225.26 140.49 225.42 137.61 224.95 134.85L219.24 100.98L188.19 111.47Z" fill="#080717"/>
<path d="M149.02 222.59C148.47 222.59 148.02 222.15 148.02 221.59C147.92 201.05 150.62 156.61 150.64 156.16C150.67 155.61 151.14 155.19 151.7 155.22C152.25 155.25 152.67 155.73 152.64 156.28C152.61 156.73 149.92 201.1 150.02 221.57C150.02 222.13 149.57 222.58 149.02 222.59Z" fill="#080717"/>
<path d="M249.96 222.59C249.45 222.59 249.02 222.21 248.97 221.69L244.98 183.12C244.92 182.57 245.32 182.08 245.87 182.02C246.43 181.96 246.91 182.36 246.97 182.91L250.96 221.48C251.02 222.03 250.62 222.52 250.07 222.58C250.03 222.58 250 222.59 249.96 222.59Z" fill="#080717"/>
<path d="M220.92 42.9598C209.3 36.5698 193.74 39.0398 191.13 43.5698C188.94 41.2598 185.9 39.5098 182.33 38.7698C174 37.0398 165.99 41.4398 164.42 48.5898C163.07 54.7898 167.01 61.0098 173.5 63.6898C171.49 67.8698 169.89 72.4698 168.82 77.3898C164.53 97.0198 196.13 105.22 202.13 106.47C218.37 109.84 234.67 98.2098 238.54 80.4798C242.42 62.7498 234.95 50.6798 220.92 42.9598Z" fill="#080717"/>
<path d="M220.7 47.9395C216.04 48.6895 212.21 50.5795 209.84 53.6395C203.16 62.2795 208.5 83.2995 226.13 87.4995C227.23 87.7595 228.47 87.4695 229.46 87.9795C232.93 71.9195 229.21 56.8295 220.7 47.9395Z" fill="#080717"/>
<path d="M172.82 63.4495C179.42 67.1595 188.47 69.4595 198.47 69.4595C215.29 69.4595 229.44 62.9695 233.69 54.1495C229.32 45.2495 222.24 38.9595 213.27 37.1995C197.94 34.1995 181.77 45.3595 172.82 63.4495Z" fill="#080717"/>
<path d="M227.6 108.079C234.438 108.079 239.98 102.537 239.98 95.6993C239.98 88.862 234.438 83.3193 227.6 83.3193C220.763 83.3193 215.22 88.862 215.22 95.6993C215.22 102.537 220.763 108.079 227.6 108.079Z" fill="white"/>
<path d="M227.601 83.3102C225.011 83.3102 222.601 84.1102 220.621 85.4702C213.641 81.8802 209.371 75.3002 207.781 68.7702C204.811 69.2202 201.691 69.4502 198.471 69.4502C188.671 69.4502 179.781 67.2402 173.221 63.6602C171.301 67.8102 169.761 72.3502 168.731 77.2102C163.661 101.03 172.461 123.1 188.391 126.49C200.321 129.03 212.871 120.38 220.551 105.86C222.551 107.25 224.981 108.07 227.601 108.07C234.441 108.07 239.981 102.53 239.981 95.6902C239.991 88.8602 234.441 83.3102 227.601 83.3102Z" fill="white"/>
<path d="M192.57 127.94C191.1 127.94 189.63 127.79 188.18 127.48C171.74 123.98 162.57 101.34 167.75 77.0097C168.77 72.2097 170.31 67.5797 172.31 63.2497C172.43 62.9997 172.64 62.8097 172.9 62.7197C173.16 62.6297 173.45 62.6597 173.69 62.7897C180.38 66.4397 189.18 68.4597 198.46 68.4597C201.56 68.4597 204.64 68.2297 207.62 67.7897C208.13 67.7097 208.62 68.0397 208.74 68.5397C210.41 75.3897 214.7 81.1097 220.56 84.3197C222.67 83.0097 225.09 82.3197 227.6 82.3197C234.98 82.3197 240.98 88.3197 240.98 95.6997C240.98 103.08 234.98 109.08 227.6 109.08C225.24 109.08 222.95 108.46 220.92 107.29C213.75 120.26 203.05 127.94 192.57 127.94ZM173.7 65.0497C171.97 68.9697 170.63 73.1297 169.71 77.4297C164.76 100.68 173.23 122.25 188.6 125.52C199.75 127.9 211.94 120 219.67 105.4C219.8 105.15 220.04 104.96 220.32 104.9C220.6 104.83 220.89 104.89 221.13 105.05C223.04 106.38 225.29 107.08 227.61 107.08C233.89 107.08 238.99 101.97 238.99 95.6997C238.99 89.4197 233.88 84.3197 227.61 84.3197C225.31 84.3197 223.09 85.0097 221.19 86.3097C220.89 86.5197 220.49 86.5397 220.17 86.3697C213.79 83.0897 209.05 77.1197 207.05 69.8997C204.25 70.2797 201.37 70.4697 198.49 70.4697C189.29 70.4597 180.55 68.5397 173.7 65.0497Z" fill="#080717"/>
<path d="M191.33 44.0597C190.96 44.0597 190.61 43.8597 190.44 43.5097C188.15 38.9397 184.09 36.4797 178.38 36.2197C173.99 36.0097 170.23 37.2397 170.19 37.2497C169.67 37.4197 169.1 37.1397 168.93 36.6097C168.76 36.0897 169.04 35.5197 169.56 35.3497C169.72 35.2997 185.94 30.0797 192.22 42.6097C192.47 43.0997 192.27 43.6997 191.77 43.9497C191.64 44.0197 191.48 44.0597 191.33 44.0597Z" fill="#080717"/>
<path d="M169.7 86.9195C170.01 88.8095 171.24 90.1795 172.44 89.9795C173.64 89.7795 174.36 88.0895 174.05 86.1995C173.74 84.3095 172.51 82.9395 171.31 83.1395C170.11 83.3495 169.39 85.0395 169.7 86.9195Z" fill="#080717"/>
<path d="M166.62 80.6301C166.23 80.6301 165.87 80.4101 165.7 80.0301C165.48 79.5201 165.71 78.9301 166.22 78.7101C170.19 76.9701 174.4 77.6501 174.58 77.6801C175.12 77.7701 175.49 78.2901 175.4 78.8301C175.31 79.3701 174.8 79.7401 174.25 79.6501C174.21 79.6501 170.43 79.0501 167.02 80.5401C166.89 80.6101 166.76 80.6301 166.62 80.6301Z" fill="#080717"/>
<path d="M188.07 87.4498C188.38 89.3398 189.61 90.7098 190.81 90.5098C192.01 90.3098 192.73 88.6198 192.42 86.7298C192.11 84.8398 190.88 83.4698 189.68 83.6698C188.47 83.8698 187.75 85.5598 188.07 87.4498Z" fill="#080717"/>
<path d="M197.84 83.1899C197.6 83.1899 197.35 83.0998 197.16 82.9198C197.11 82.8698 192.16 78.3298 186.81 79.8098C186.28 79.9598 185.73 79.6399 185.58 79.1099C185.43 78.5799 185.75 78.0298 186.28 77.8798C192.73 76.0998 198.3 81.2398 198.53 81.4598C198.93 81.8398 198.95 82.4699 198.58 82.8699C198.37 83.0899 198.1 83.1899 197.84 83.1899Z" fill="#080717"/>
<path d="M180.48 98.6893C180.07 98.6893 176.42 98.6293 175.08 96.7193C174.69 96.1693 174.33 95.2193 174.82 93.8893C175.8 91.1993 177.6 82.4693 177.61 82.3793C177.72 81.8393 178.25 81.4893 178.79 81.5993C179.33 81.7093 179.68 82.2393 179.57 82.7793C179.5 83.1393 177.72 91.7393 176.7 94.5693C176.47 95.2093 176.65 95.4693 176.72 95.5693C177.31 96.4193 179.51 96.6893 180.48 96.6893C181.03 96.6893 181.48 97.1393 181.48 97.6893C181.48 98.2393 181.03 98.6893 180.48 98.6893Z" fill="#080717"/>
<path d="M181.66 108.37C180.25 108.37 179.31 108.11 179.28 108.1C178.75 107.95 178.45 107.39 178.6 106.86C178.75 106.33 179.31 106.02 179.84 106.18C180.18 106.28 187.99 108.33 191.6 97.6797C191.78 97.1597 192.34 96.8797 192.87 97.0497C193.39 97.2297 193.67 97.7997 193.5 98.3197C190.54 107.03 184.88 108.37 181.66 108.37Z" fill="#080717"/>
<path d="M222.29 93.95C222.09 93.95 221.88 93.89 221.71 93.76C221.26 93.44 221.16 92.81 221.48 92.37C221.63 92.17 225.14 87.4 230.7 88.27C231.25 88.36 231.62 88.87 231.53 89.41C231.44 89.96 230.93 90.33 230.39 90.24C226.05 89.56 223.13 93.5 223.11 93.54C222.9 93.8 222.6 93.95 222.29 93.95Z" fill="#080717"/>
</svg>
