<svg width="96" height="30" viewBox="0 0 96 30" fill="none" xmlns="http://www.w3.org/2000/svg">
<path fill-rule="evenodd" clip-rule="evenodd" d="M13.6777 0.732498C13.671 0.738353 13.3872 0.750944 13.047 0.760483C10.8719 0.821538 8.5946 1.17451 7.16415 1.67233C5.74937 2.16471 4.63828 2.85309 3.69957 3.81887C3.11708 4.4181 2.68895 5.01827 2.30389 5.77532C1.68289 6.9961 1.36909 8.21829 1.07775 10.551C0.869266 12.22 0.798452 13.4279 0.802933 15.238C0.808321 17.4069 0.987227 19.3927 1.36637 21.492C1.65452 23.0875 2.2107 24.3617 3.13165 25.5361C3.42492 25.91 3.451 25.9398 3.77728 26.2723C4.94372 27.4609 6.33697 28.2547 7.97511 28.6637C8.80856 28.8718 10.0883 29.0599 11.2602 29.1465C12.3868 29.2298 13.9321 29.2718 15.8648 29.2718C19.7521 29.2718 22.1936 28.8705 24.1393 27.9115C24.9967 27.489 25.6677 27.0069 26.3552 26.3195C27.3505 25.3241 27.9697 24.304 28.4424 22.8803C28.9697 21.2933 29.1946 19.8931 29.255 17.8221C29.2652 17.4819 29.277 17.1968 29.2817 17.1886C29.2979 17.1593 29.335 15.2659 29.335 14.4546C29.335 12.629 29.2523 11.2751 29.0593 9.93991C28.8103 8.21631 28.4914 7.06873 27.9613 5.9876C27.5063 5.05959 27.0114 4.375 26.2894 3.67471C25.6389 3.04387 24.9295 2.55133 24.0569 2.12482C22.5722 1.39913 20.9597 1.01064 18.9299 0.889631C18.0719 0.8385 17.9905 0.834321 17.308 0.806474C16.9376 0.791354 16.5046 0.772303 16.3459 0.764166C15.9801 0.745363 13.694 0.718258 13.6777 0.732498ZM16.2398 9.69979C16.9491 9.81698 17.5594 10.1458 18.0711 10.6864C18.4159 11.0507 18.6397 11.4232 18.7908 11.8842C18.9329 12.3181 18.9299 12.216 18.9299 16.6711C18.9299 20.7819 18.9294 20.819 18.875 20.8735C18.8216 20.9269 18.7833 20.9285 17.5722 20.9285C16.4243 20.9285 16.3198 20.9246 16.2665 20.8804L16.2086 20.8323L16.2007 17.1486C16.1934 13.6895 16.1899 13.4549 16.1433 13.3C15.9606 12.6931 15.4832 12.2213 14.8889 12.0605C14.7244 12.016 14.4915 12.0119 11.9612 12.0086C10.4492 12.0066 9.17987 12.0156 9.14037 12.0285C9.10086 12.0414 9.05449 12.0828 9.03728 12.1206C9.01432 12.1709 9.00599 13.3375 9.00599 16.5039C9.00599 20.7819 9.00553 20.819 8.95101 20.8735C8.89765 20.9269 8.85939 20.9285 7.65136 20.9285C6.56929 20.9285 6.39869 20.9229 6.34558 20.8857L6.28447 20.8429V15.3052C6.28447 9.79908 6.28477 9.76719 6.33961 9.71235C6.39437 9.65759 6.42588 9.65723 11.1985 9.65888C15.2263 9.66025 16.0406 9.66685 16.2398 9.69979ZM23.7832 9.72502L23.8507 9.79248V20.7836L23.7937 20.8561L23.7367 20.9285H21.2156L21.1586 20.8561L21.1017 20.7836V9.79248L21.1691 9.72502L21.2366 9.65753H23.7157L23.7832 9.72502ZM13.9864 14.0465C14.0346 14.0901 14.0367 14.2319 14.0367 17.4553C14.0367 20.7819 14.0361 20.8191 13.9817 20.8735C13.9283 20.927 13.8901 20.9285 12.6072 20.9285C11.3243 20.9285 11.2861 20.927 11.2327 20.8735C11.1783 20.8191 11.1777 20.7819 11.1777 17.4647C11.1777 14.1476 11.1783 14.1103 11.2327 14.056C11.2862 14.0025 11.3243 14.001 12.6119 14.001C13.8056 14.001 13.9411 14.0055 13.9864 14.0465Z" fill="#FF6200"/>
<path d="M23.6532 9.5791H21.2724C21.1705 9.5791 21.088 9.66339 21.088 9.76722V21.0573C21.088 21.1602 21.1705 21.2445 21.2724 21.2445H23.6532C23.7543 21.2445 23.838 21.1602 23.838 21.0573V9.76722C23.838 9.66339 23.7543 9.5791 23.6532 9.5791ZM15.5242 9.5791H6.45539C6.35343 9.5791 6.27148 9.66339 6.27148 9.76722V21.0573C6.27148 21.1602 6.35343 21.2445 6.45539 21.2445H8.83676C8.93811 21.2445 9.02212 21.1602 9.02212 21.0573V12.1962C9.02212 12.0939 9.10404 12.009 9.206 12.009H14.3357C15.7782 12.009 16.1876 13.1573 16.1876 13.8981V21.0573C16.1876 21.1602 16.2705 21.2445 16.3724 21.2445H18.7524C18.8537 21.2445 18.9368 21.1602 18.9368 21.0573V13.0481C18.9368 12.3874 18.8604 11.4374 18.0402 10.6013C17.1821 9.7284 16.3994 9.5791 15.5242 9.5791Z" fill="white"/>
<path d="M13.8564 13.9971H11.3556C11.2537 13.9971 11.1699 14.0813 11.1699 14.1846V21.059C11.1699 21.1617 11.2537 21.2459 11.3556 21.2459H13.8564C13.9575 21.2459 14.0404 21.1617 14.0404 21.059V14.1846C14.0404 14.0813 13.9575 13.9971 13.8564 13.9971Z" fill="white"/>
<path fill-rule="evenodd" clip-rule="evenodd" d="M61.8344 10.7067C61.8284 10.712 61.6821 10.7223 61.509 10.7296C61.336 10.7368 61.1874 10.7468 61.1788 10.7517C61.1702 10.7566 61.0747 10.7674 60.9663 10.7757C60.8583 10.7839 60.7629 10.7948 60.7546 10.8C60.7464 10.8051 60.6713 10.8154 60.5881 10.8228C60.163 10.8608 59.5127 11.0081 59.1378 11.1513C59.053 11.1837 58.9659 11.2155 58.9443 11.2221C58.854 11.2496 58.8459 11.3157 58.8309 12.1422C58.8148 13.0283 58.8115 13.007 58.9654 13.0258C59.016 13.032 59.1112 13.0176 59.2038 12.9896C59.5451 12.8867 59.682 12.8489 60.0411 12.7582C60.4983 12.6428 61.0038 12.5346 61.2842 12.4919C61.7659 12.4186 62.8616 12.4326 63.0859 12.5149C63.1302 12.5312 63.2398 12.5611 63.3296 12.5814C63.5172 12.6239 63.666 12.6941 63.8294 12.8173C63.9487 12.9075 64.022 13.0408 64.0817 13.2758C64.1204 13.429 64.1233 13.4486 64.1387 13.6812L64.1532 13.8994L63.9571 13.8832C63.1795 13.8194 62.2956 13.7936 61.9114 13.8237L61.2952 13.872C60.6735 13.9208 59.903 14.0814 59.5182 14.2425C59.0123 14.4543 58.5253 14.8435 58.386 15.1472C58.0996 15.7715 58.0395 16.5703 58.2224 17.3157C58.2924 17.6003 58.3519 17.7612 58.4489 17.9275C58.4826 17.9856 58.5104 18.0426 58.5104 18.0542C58.5104 18.1177 59.0264 18.5737 59.2811 18.7352C59.3476 18.7774 59.4053 18.8195 59.4092 18.8288C59.4132 18.8381 59.4297 18.8457 59.4458 18.8457C59.4618 18.8457 59.5426 18.8761 59.6254 18.9134C59.7084 18.9506 59.8555 19.0042 59.9523 19.0325C60.0492 19.0608 60.1729 19.0989 60.2275 19.1172C60.2819 19.1355 60.4899 19.1784 60.6898 19.2125C61.052 19.2745 61.0557 19.2746 62.0658 19.2748C63.0859 19.275 63.3556 19.2603 63.7169 19.1851C64.2204 19.0802 64.4506 19.0175 64.6415 18.9333C65.0415 18.7567 65.143 18.6964 65.344 18.5158C65.4719 18.4011 65.6474 18.2202 65.7042 18.1446C65.8096 18.0043 66.0381 17.5307 66.083 17.3597C66.1084 17.2628 66.1381 17.1671 66.1491 17.1471C66.1944 17.0649 66.2722 16.5105 66.2953 16.1048C66.3127 15.8004 66.3109 14.6467 66.2924 14.3216C66.2704 13.9291 66.2195 13.5403 66.1599 13.3089C66.0507 12.885 65.9893 12.7121 65.8475 12.4292C65.4904 11.7168 64.75 11.13 63.893 10.88C63.7512 10.8386 63.4646 10.7847 63.2215 10.7536C63.167 10.7466 63.0976 10.7363 63.0674 10.7306C62.9928 10.7166 61.8478 10.6944 61.8344 10.7067ZM71.7743 10.835C71.4536 10.8513 71.3759 10.8602 71.0148 10.9222C70.685 10.9789 70.4772 11.0362 70.2456 11.1346C70.0816 11.2041 70.0094 11.2424 69.7917 11.3758C69.7681 11.3902 69.688 11.4383 69.6136 11.4827C69.4555 11.5772 69.1612 11.8738 68.9688 12.1328C68.8166 12.3377 68.5492 12.8633 68.5492 12.9576C68.5492 12.9765 68.5351 13.0191 68.5179 13.0524C68.4541 13.1755 68.3292 13.758 68.2837 14.1443C68.2425 14.493 68.2381 14.6235 68.2469 15.256C68.2599 16.1902 68.3037 16.4718 68.5542 17.2345C68.648 17.5207 68.7695 17.7399 69.004 18.0473C69.1621 18.2543 69.4799 18.5681 69.6059 18.6412C69.6602 18.6729 69.7098 18.7046 69.7159 18.7117C69.7364 18.7358 69.8146 18.779 70.0131 18.8758C70.226 18.9796 70.3484 19.0236 70.6009 19.087C70.6892 19.1091 70.816 19.1423 70.8827 19.1607C71.2541 19.2631 71.8126 19.3026 72.798 19.2961C73.4484 19.2919 73.5972 19.2846 73.8327 19.2454C74.3144 19.1652 74.8238 19.0158 75.1096 18.8709C75.3256 18.7612 75.4284 18.7031 75.4508 18.6778C75.4629 18.6642 75.5569 18.5844 75.66 18.5006C75.8931 18.3107 75.9902 18.2186 75.9902 18.1874C75.9902 18.1741 75.9986 18.1632 76.0089 18.1632C76.0276 18.1632 76.2414 17.8577 76.2427 17.8293C76.2429 17.8212 76.2632 17.7914 76.2876 17.7632C76.312 17.735 76.3521 17.6772 76.377 17.6349C76.4331 17.5389 76.5846 17.1663 76.5846 17.1244C76.5846 17.1073 76.5934 17.0839 76.6042 17.0724C76.6619 17.0111 76.801 16.2688 76.8508 15.758C76.8748 15.5094 76.8681 14.3692 76.8419 14.2446C76.8356 14.2143 76.8241 14.1251 76.8164 14.0464C76.7592 13.4589 76.58 12.8364 76.3713 12.5003C76.3433 12.4552 76.3204 12.4113 76.3204 12.4028C76.3204 12.3943 76.2678 12.3173 76.2037 12.2317C76.1395 12.1461 76.0578 12.0365 76.0223 11.988C75.9867 11.9396 75.8993 11.8455 75.8282 11.7789C75.702 11.6611 75.4328 11.4487 75.4094 11.4487C75.4031 11.4487 75.3533 11.4185 75.2985 11.3816C75.1466 11.279 74.8131 11.1278 74.5533 11.0435C74.3232 10.969 73.9479 10.8997 73.5135 10.8518C73.2603 10.8238 72.1972 10.8136 71.7743 10.835ZM81.8431 10.8424C81.8387 10.8467 81.7559 10.8565 81.659 10.8642C81.5622 10.8718 81.4184 10.8873 81.3398 10.8986C81.261 10.9099 81.1573 10.9247 81.1093 10.9314C80.9055 10.96 80.4984 11.0868 80.3161 11.1787C80.1206 11.2772 79.7536 11.5429 79.6427 11.6662C79.5315 11.7898 79.2962 12.2359 79.2521 12.4063C79.2057 12.5867 79.157 12.8939 79.139 13.1199C79.1156 13.4162 79.1212 19.1222 79.1449 19.1459C79.1674 19.1682 81.11 19.1708 81.1322 19.1486C81.1412 19.1396 81.1558 17.8518 81.1646 16.2867C81.1734 14.7216 81.1873 13.4064 81.1952 13.364C81.2271 13.1925 81.3026 12.9779 81.3548 12.9093C81.4272 12.8145 81.5897 12.6986 81.7143 12.653C81.9681 12.5601 82.2508 12.5313 82.8038 12.5418C83.4755 12.5546 83.654 12.5923 83.864 12.7656C84.0639 12.9304 84.1232 13.0631 84.1507 13.408C84.1617 13.5473 84.1731 14.8648 84.176 16.336C84.1789 17.8071 84.1866 19.0421 84.1934 19.0803C84.2048 19.1446 84.2134 19.1505 84.3083 19.1599C84.4791 19.1766 86.1782 19.1661 86.1961 19.1482C86.2053 19.139 86.2157 17.866 86.2192 16.3193C86.2227 14.7726 86.2304 13.4519 86.2366 13.3845C86.2425 13.317 86.2637 13.2031 86.2835 13.1313C86.3033 13.0595 86.3246 12.9788 86.3308 12.9519C86.3493 12.871 86.543 12.6953 86.6599 12.6534C87.0108 12.5275 87.9128 12.4966 88.4475 12.5922C88.7652 12.649 89.0301 12.8317 89.0954 13.0395C89.2031 13.3812 89.2062 13.4597 89.2196 16.3837C89.2264 17.8932 89.2401 19.1362 89.2498 19.1459C89.2784 19.1746 91.1146 19.1842 91.1871 19.1561L91.2487 19.1321L91.2388 16.1875C91.2335 14.568 91.223 13.1884 91.2155 13.1218C91.153 12.5597 91.0906 12.3245 90.9273 12.0318C90.7833 11.774 90.5737 11.5541 90.3085 11.3822C89.635 10.946 89.0463 10.8213 87.7461 10.8397C87.3767 10.8449 87.0399 10.8549 86.9976 10.8617C86.9552 10.8686 86.8711 10.8794 86.8105 10.8857C86.5477 10.9129 86.2181 10.9819 85.9293 11.0702C85.8925 11.0814 85.7586 11.1427 85.6321 11.2063C85.4183 11.3135 85.3895 11.3221 85.2364 11.3243C85.0819 11.3265 85.0572 11.3199 84.8512 11.2204C84.5108 11.056 84.2731 10.9849 83.8385 10.9174C83.3359 10.8394 83.2252 10.8321 82.5476 10.8333C82.1645 10.834 81.8475 10.8381 81.8431 10.8424ZM48.9773 10.9454C48.8938 10.9625 48.8269 11.023 48.769 11.1338C48.7448 11.1798 48.7192 11.2225 48.712 11.2285C48.7047 11.2346 48.6649 11.2891 48.6233 11.3496C48.5816 11.4102 48.5279 11.4834 48.5042 11.5124C48.4802 11.5413 48.4209 11.6128 48.3725 11.6711C48.245 11.8246 48.1995 11.8883 48.1411 11.9936C48.1125 12.045 48.081 12.0871 48.0711 12.0871C48.0612 12.0871 48.0533 12.0998 48.0533 12.1153C48.0533 12.1308 48.0335 12.1577 48.0093 12.1752C47.985 12.1926 47.9652 12.2185 47.9652 12.2327C47.9652 12.2469 47.9503 12.2642 47.9322 12.2712C47.9139 12.2782 47.8992 12.2982 47.8992 12.3157C47.8992 12.3333 47.8917 12.3509 47.8827 12.355C47.8488 12.37 47.4589 12.8614 47.4589 12.889C47.4589 12.896 47.4415 12.9208 47.4204 12.9441C47.3992 12.9673 47.3788 12.9912 47.3592 13.0157C47.2205 13.1944 47.1049 13.3496 47.0424 13.4406C46.9536 13.5698 46.8149 13.7106 46.805 13.6814C46.8013 13.6703 46.7185 13.5522 46.6212 13.419C46.418 13.1407 46.2736 12.9401 46.2261 12.8699C46.2078 12.843 46.1523 12.7724 46.1028 12.7128C46.0532 12.6532 45.9643 12.5302 45.9053 12.4394C45.8463 12.3485 45.7871 12.2643 45.7736 12.2522C45.7602 12.2401 45.6711 12.1212 45.5757 11.988C45.4804 11.8549 45.3516 11.6815 45.2893 11.6028C45.2272 11.5241 45.1429 11.4102 45.1022 11.3496C45.0617 11.2891 45.0155 11.2264 44.9996 11.2104C44.9457 11.1555 44.8369 10.9864 44.8545 10.9848C44.8642 10.984 44.8523 10.9748 44.8281 10.9644C44.8039 10.9539 44.2485 10.9447 43.594 10.9439C42.6486 10.9426 42.3957 10.9482 42.3646 10.971C42.3296 10.9965 42.3283 11.0107 42.3517 11.0974C42.3827 11.213 42.4051 11.2464 42.6841 11.5918C42.8014 11.7371 42.9406 11.9121 42.9932 11.9807C43.0458 12.0492 43.1682 12.2042 43.265 12.325C43.3619 12.4458 43.461 12.5722 43.4852 12.6059C43.5094 12.6396 43.5446 12.6828 43.5633 12.7019C43.6305 12.7698 43.8233 13.0032 43.9396 13.1573C44.0043 13.2434 44.1399 13.4118 44.2407 13.5315C44.4596 13.7916 44.462 13.7945 44.53 13.8923C44.5595 13.9347 44.5892 13.9743 44.5961 13.9804C44.6027 13.9865 44.6375 14.031 44.6733 14.0795C44.709 14.1279 44.7486 14.1785 44.7612 14.192C44.7737 14.2054 44.8131 14.2534 44.8486 14.2985C44.884 14.3436 44.9424 14.4118 44.9782 14.4501C45.0144 14.4884 45.0841 14.5742 45.1339 14.6408C45.1834 14.7074 45.2292 14.7669 45.2356 14.7729C45.242 14.779 45.299 14.8467 45.3622 14.9234C45.461 15.0431 45.4736 15.0682 45.45 15.1006C45.3182 15.2819 45.1519 15.4906 45.0687 15.5793C45.0135 15.6383 44.9516 15.7113 44.9311 15.7416C44.9109 15.7718 44.8779 15.8164 44.8578 15.8407C44.7266 16.0003 44.619 16.1388 44.619 16.1475C44.619 16.1532 44.5965 16.181 44.5694 16.2092C44.514 16.2666 44.3594 16.4528 44.3145 16.5162C44.2984 16.5388 44.2515 16.5942 44.2101 16.6393C44.1688 16.6844 44.1346 16.7294 44.1346 16.7393C44.1346 16.7493 44.1223 16.7698 44.1071 16.785C44.0919 16.8001 44.0499 16.8507 44.0136 16.8973C43.9196 17.0178 43.8214 17.1341 43.7811 17.1726C43.7621 17.1907 43.6941 17.2749 43.6303 17.3597C43.5057 17.5247 43.3811 17.677 43.308 17.7531C43.2831 17.779 43.2562 17.8174 43.2481 17.8386C43.24 17.8597 43.2232 17.877 43.2107 17.877C43.1981 17.877 43.188 17.8919 43.188 17.9101C43.188 17.9282 43.1801 17.9431 43.1706 17.9431C43.1611 17.9431 43.1356 17.9731 43.114 18.0097C43.0925 18.0463 43.053 18.0998 43.0268 18.1284C43.0004 18.1571 42.9498 18.2171 42.9144 18.2619C42.8789 18.3066 42.8243 18.3718 42.7933 18.4068C42.762 18.4418 42.6971 18.5265 42.6486 18.5949C42.6002 18.6633 42.5381 18.7433 42.511 18.7725C42.4837 18.8017 42.4615 18.8351 42.4615 18.8467C42.4615 18.8582 42.4536 18.8677 42.4441 18.8677C42.4118 18.8677 42.3514 18.9955 42.3514 19.0645C42.3514 19.1153 42.3644 19.1385 42.401 19.1531C42.4285 19.1641 42.9745 19.1711 43.6356 19.1689C44.7896 19.165 44.8215 19.1638 44.8525 19.1212C44.8702 19.0972 44.9303 19.0261 44.9864 18.9632C45.0423 18.9004 45.1187 18.8051 45.1561 18.7516C45.2198 18.6609 45.3835 18.4413 45.4465 18.3628C45.4617 18.3438 45.5225 18.2689 45.5819 18.1962C45.6411 18.1236 45.7576 17.97 45.8406 17.855C45.9236 17.74 46.0041 17.636 46.0196 17.6239C46.0442 17.6045 46.099 17.5369 46.2157 17.3817C46.3795 17.1641 46.5015 17.0056 46.512 16.9964C46.5191 16.9904 46.5801 16.9062 46.6476 16.8093C46.7839 16.6138 46.9109 16.4681 46.9448 16.4681C46.9572 16.4681 47.0001 16.5189 47.0404 16.5811C47.0807 16.6432 47.172 16.7677 47.2436 16.8578C47.3151 16.9478 47.4389 17.1174 47.5185 17.2346C47.6654 17.4505 47.7345 17.5441 47.8063 17.6239C47.8646 17.6891 48.0313 17.9172 48.0313 17.9321C48.0313 17.9392 48.0733 18.0015 48.1246 18.0706C48.1759 18.1397 48.2384 18.2262 48.2638 18.2628C48.2888 18.2995 48.3254 18.349 48.345 18.3729C48.435 18.4824 48.5312 18.6076 48.5816 18.6806C48.6118 18.7244 48.647 18.772 48.6598 18.7865C48.7093 18.8429 48.8238 19.0199 48.8238 19.0403C48.8238 19.0522 48.8542 19.0876 48.8914 19.1189L48.9592 19.1759L50.1187 19.1756C50.7565 19.1754 51.2998 19.1696 51.3258 19.1626C51.3623 19.1528 51.3751 19.1295 51.3817 19.0608C51.3868 19.0068 51.3791 18.9605 51.3619 18.9433C51.3463 18.9277 51.3335 18.9097 51.3335 18.9034C51.3335 18.897 51.3009 18.8592 51.2613 18.8192C51.2217 18.7793 51.1748 18.7178 51.1567 18.6825C51.1389 18.6472 51.0596 18.5432 50.9806 18.4513C50.9016 18.3595 50.8076 18.2447 50.7715 18.1962C50.633 18.0096 50.3767 17.6896 50.3602 17.6826C50.3505 17.6785 50.3428 17.6627 50.3428 17.6475C50.3428 17.6322 50.3219 17.6008 50.2964 17.5777C50.2709 17.5547 50.1934 17.4615 50.1242 17.3707C49.9243 17.1085 49.8035 16.9535 49.661 16.7763C49.5737 16.6672 49.4877 16.5571 49.403 16.4461C49.3343 16.3553 49.2718 16.276 49.2643 16.2699C49.2474 16.2561 48.9964 15.9261 48.9669 15.8786C48.9548 15.8591 48.9235 15.8209 48.8976 15.7937C48.8366 15.7297 48.6477 15.4843 48.6477 15.4691C48.6477 15.4627 48.6252 15.4334 48.5982 15.4041C48.422 15.2146 48.2955 15.0329 48.2955 14.9695C48.2955 14.9446 48.3188 14.9154 48.3505 14.901C48.3807 14.8872 48.4055 14.8676 48.4055 14.8573C48.4055 14.8471 48.43 14.8174 48.4599 14.7914C48.4898 14.7653 48.5416 14.7035 48.575 14.6539C48.6642 14.5214 48.7738 14.3827 48.9072 14.2336C49.0481 14.0762 49.0585 14.0639 49.1556 13.9364C49.197 13.8819 49.2375 13.8323 49.2454 13.8263C49.2531 13.8202 49.3035 13.7558 49.357 13.6832C49.4105 13.6105 49.4933 13.5053 49.5408 13.4494C49.6368 13.3366 49.6489 13.3217 49.798 13.1328C49.8554 13.0602 49.9157 12.9859 49.932 12.9677C49.9481 12.9495 50.0148 12.8653 50.08 12.7806C50.1451 12.6958 50.2515 12.5621 50.3164 12.4834C50.3811 12.4047 50.4498 12.3205 50.469 12.2963C50.4879 12.272 50.5443 12.2061 50.5938 12.1497C50.6433 12.0934 50.694 12.0339 50.7061 12.0176C50.7182 12.0013 50.7574 11.9484 50.7933 11.9C50.8666 11.8013 51.0418 11.59 51.21 11.398C51.3267 11.2648 51.3962 11.1275 51.3982 11.0259C51.3993 10.9755 51.3885 10.9645 51.328 10.9542C51.225 10.9368 49.0587 10.9286 48.9773 10.9454ZM53.6682 10.9843C53.6396 11.0378 53.6457 19.1179 53.6744 19.1466C53.6983 19.1705 55.661 19.1705 55.685 19.1465C55.7068 19.1249 55.7032 10.9899 55.6817 10.9682C55.6735 10.96 55.2224 10.9504 54.6793 10.9468C53.7107 10.9404 53.6913 10.9411 53.6682 10.9843ZM94.0664 10.9623C94.016 10.9711 93.9878 10.9898 93.9808 11.0194C93.975 11.0436 93.9693 12.8686 93.9678 15.0748C93.9656 18.7746 93.9682 19.0891 94.0017 19.1226C94.0336 19.1546 94.1364 19.1603 94.8713 19.1706C95.3296 19.177 95.7715 19.1751 95.8531 19.1663L96.0017 19.1504V10.9704L95.8782 10.9559C95.7285 10.9383 94.1721 10.9438 94.0664 10.9623ZM73.0668 12.5289C73.7002 12.5945 74.1169 12.76 74.3853 13.0526C74.7078 13.4043 74.7961 13.7284 74.8236 14.6629C74.8584 15.8463 74.7853 16.5114 74.5837 16.8423C74.4558 17.0521 74.144 17.3179 73.888 17.4355C73.523 17.6031 73.2498 17.6459 72.5449 17.6459C71.9903 17.6459 71.8351 17.6288 71.4694 17.5276C71.1828 17.4482 70.9199 17.2989 70.7289 17.1068C70.6133 16.9905 70.4638 16.7146 70.407 16.5121C70.3081 16.1601 70.2441 15.6454 70.2447 15.2107C70.2465 14.2524 70.3293 13.7239 70.5384 13.3383C70.6333 13.1636 70.8594 12.9003 70.9627 12.8447C71.082 12.7802 71.2579 12.6914 71.323 12.6624C71.3944 12.6308 71.74 12.5496 71.8954 12.528C72.0819 12.5021 72.8137 12.5026 73.0668 12.5289ZM63.3316 15.4801C63.4708 15.4897 63.6095 15.5029 63.6398 15.5095C63.67 15.5161 63.779 15.5275 63.882 15.5348C63.9848 15.5421 64.0889 15.5513 64.1132 15.5552C64.1374 15.559 64.1647 15.5629 64.1741 15.5638C64.1953 15.5659 64.1746 16.183 64.1429 16.4869C64.1182 16.7257 64.0438 16.9979 63.9716 17.115C63.8774 17.2672 63.6079 17.456 63.4366 17.4895C63.4091 17.4949 63.342 17.5157 63.2876 17.5357C63.1022 17.6039 62.6815 17.6318 61.9447 17.6248C61.5632 17.6211 61.2116 17.6116 61.1632 17.6036C60.8858 17.5579 60.6112 17.4718 60.4578 17.3822C60.351 17.3198 60.1798 17.1079 60.1067 16.9477C60.0113 16.7384 59.9867 16.2848 60.0629 16.1364C60.0959 16.0719 60.2251 15.9014 60.3063 15.8152C60.3834 15.7335 60.7339 15.5971 60.9503 15.5649C61.14 15.5366 61.6162 15.4809 61.7576 15.4704C61.9588 15.4555 63.0745 15.4624 63.3316 15.4801Z" fill="#89898A"/>
</svg>
